G04 #@! TF.GenerationSoftware,KiCad,Pcbnew,(6.0.7)*
G04 #@! TF.CreationDate,2022-09-06T07:39:15-07:00*
G04 #@! TF.ProjectId,60 Percent Keyboard Ardiuno Micro,36302050-6572-4636-956e-74204b657962,rev?*
G04 #@! TF.SameCoordinates,Original*
G04 #@! TF.FileFunction,Soldermask,Top*
G04 #@! TF.FilePolarity,Negative*
%FSLAX46Y46*%
G04 Gerber Fmt 4.6, Leading zero omitted, Abs format (unit mm)*
G04 Created by KiCad (PCBNEW (6.0.7)) date 2022-09-06 07:39:15*
%MOMM*%
%LPD*%
G01*
G04 APERTURE LIST*
%ADD10C,1.750000*%
%ADD11C,4.000000*%
%ADD12C,2.500000*%
%ADD13R,1.600000X1.600000*%
%ADD14O,1.600000X1.600000*%
G04 APERTURE END LIST*
D10*
X20660000Y-307710000D03*
D11*
X25740000Y-307710000D03*
D10*
X30820000Y-307710000D03*
D12*
X29550000Y-305170000D03*
X23200000Y-302630000D03*
D10*
X103480000Y-267730000D03*
D11*
X98400000Y-267730000D03*
D10*
X93320000Y-267730000D03*
D12*
X102210000Y-265190000D03*
X95860000Y-262650000D03*
D13*
X118900000Y-223420000D03*
D14*
X118900000Y-231040000D03*
D11*
X238400000Y-267730000D03*
D10*
X233320000Y-267730000D03*
X243480000Y-267730000D03*
D12*
X242210000Y-265190000D03*
X235860000Y-262650000D03*
D10*
X83480000Y-267730000D03*
X73320000Y-267730000D03*
D11*
X78400000Y-267730000D03*
D12*
X82210000Y-265190000D03*
X75860000Y-262650000D03*
D13*
X114900000Y-223420000D03*
D14*
X114900000Y-231040000D03*
D13*
X50900000Y-223420000D03*
D14*
X50900000Y-231040000D03*
D13*
X146900000Y-223420000D03*
D14*
X146900000Y-231040000D03*
D13*
X178900000Y-223420000D03*
D14*
X178900000Y-231040000D03*
D11*
X243400000Y-307730000D03*
D10*
X248480000Y-307730000D03*
X238320000Y-307730000D03*
D12*
X247210000Y-305190000D03*
X240860000Y-302650000D03*
D13*
X130900000Y-223420000D03*
D14*
X130900000Y-231040000D03*
D11*
X118400000Y-267730000D03*
D10*
X123480000Y-267730000D03*
X113320000Y-267730000D03*
D12*
X122210000Y-265190000D03*
X115860000Y-262650000D03*
D10*
X193480000Y-247730000D03*
D11*
X188400000Y-247730000D03*
D10*
X183320000Y-247730000D03*
D12*
X192210000Y-245190000D03*
X185860000Y-242650000D03*
D11*
X11490000Y-327700000D03*
D10*
X16570000Y-327700000D03*
X6410000Y-327700000D03*
D12*
X15300000Y-325160000D03*
X8950000Y-322620000D03*
D11*
X38400000Y-267730000D03*
D10*
X33320000Y-267730000D03*
X43480000Y-267730000D03*
D12*
X42210000Y-265190000D03*
X35860000Y-262650000D03*
D11*
X63400000Y-307730000D03*
D10*
X58320000Y-307730000D03*
X68480000Y-307730000D03*
D12*
X67210000Y-305190000D03*
X60860000Y-302650000D03*
D11*
X83400000Y-307730000D03*
D10*
X88480000Y-307730000D03*
X78320000Y-307730000D03*
D12*
X87210000Y-305190000D03*
X80860000Y-302650000D03*
D13*
X206900000Y-223420000D03*
D14*
X206900000Y-231040000D03*
D11*
X123400000Y-307730000D03*
D10*
X118320000Y-307730000D03*
X128480000Y-307730000D03*
D12*
X127210000Y-305190000D03*
X120860000Y-302650000D03*
D10*
X263480000Y-267730000D03*
X253320000Y-267730000D03*
D11*
X258400000Y-267730000D03*
D12*
X262210000Y-265190000D03*
X255860000Y-262650000D03*
D13*
X66900000Y-223420000D03*
D14*
X66900000Y-231040000D03*
D10*
X280980000Y-307730000D03*
X270820000Y-307730000D03*
D11*
X275900000Y-307730000D03*
D12*
X279710000Y-305190000D03*
X273360000Y-302650000D03*
D13*
X254900000Y-223420000D03*
D14*
X254900000Y-231040000D03*
D10*
X23880000Y-247710000D03*
X13720000Y-247710000D03*
D11*
X18800000Y-247710000D03*
D12*
X22610000Y-245170000D03*
X16260000Y-242630000D03*
D13*
X234900000Y-223420000D03*
D14*
X234900000Y-231040000D03*
D13*
X170900000Y-223420000D03*
D14*
X170900000Y-231040000D03*
D10*
X113480000Y-247730000D03*
X103320000Y-247730000D03*
D11*
X108400000Y-247730000D03*
D12*
X112210000Y-245190000D03*
X105860000Y-242650000D03*
D13*
X150900000Y-223420000D03*
D14*
X150900000Y-231040000D03*
D10*
X83320000Y-247730000D03*
D11*
X88400000Y-247730000D03*
D10*
X93480000Y-247730000D03*
D12*
X92210000Y-245190000D03*
X85860000Y-242650000D03*
D13*
X166900000Y-223420000D03*
D14*
X166900000Y-231040000D03*
D10*
X282820000Y-247730000D03*
D11*
X287900000Y-247730000D03*
D10*
X292980000Y-247730000D03*
D12*
X291710000Y-245190000D03*
X285360000Y-242650000D03*
D10*
X228320000Y-287730000D03*
D11*
X233400000Y-287730000D03*
D10*
X238480000Y-287730000D03*
D12*
X237210000Y-285190000D03*
X230860000Y-282650000D03*
D13*
X86900000Y-223420000D03*
D14*
X86900000Y-231040000D03*
D11*
X38350000Y-327790000D03*
D10*
X33270000Y-327790000D03*
X43430000Y-327790000D03*
D12*
X42160000Y-325250000D03*
X35810000Y-322710000D03*
D13*
X90900000Y-223420000D03*
D14*
X90900000Y-231040000D03*
D13*
X154900000Y-223420000D03*
D14*
X154900000Y-231040000D03*
D13*
X282900000Y-223420000D03*
D14*
X282900000Y-231040000D03*
D10*
X278320000Y-267730000D03*
D11*
X283400000Y-267730000D03*
D10*
X288480000Y-267730000D03*
D12*
X287210000Y-265190000D03*
X280860000Y-262650000D03*
D13*
X222900000Y-223420000D03*
D14*
X222900000Y-231040000D03*
D13*
X158900000Y-223420000D03*
D14*
X158900000Y-231040000D03*
D11*
X213400000Y-287730000D03*
D10*
X208320000Y-287730000D03*
X218480000Y-287730000D03*
D12*
X217210000Y-285190000D03*
X210860000Y-282650000D03*
D13*
X290900000Y-223420000D03*
D14*
X290900000Y-231040000D03*
D10*
X223480000Y-267730000D03*
D11*
X218400000Y-267730000D03*
D10*
X213320000Y-267730000D03*
D12*
X222210000Y-265190000D03*
X215860000Y-262650000D03*
D13*
X214900000Y-223420000D03*
D14*
X214900000Y-231040000D03*
D13*
X190900000Y-223420000D03*
D14*
X190900000Y-231040000D03*
D13*
X258900000Y-223420000D03*
D14*
X258900000Y-231040000D03*
D10*
X198480000Y-287730000D03*
X188320000Y-287730000D03*
D11*
X193400000Y-287730000D03*
D12*
X197210000Y-285190000D03*
X190860000Y-282650000D03*
D11*
X253400000Y-287730000D03*
D10*
X258480000Y-287730000D03*
X248320000Y-287730000D03*
D12*
X257210000Y-285190000D03*
X250860000Y-282650000D03*
D13*
X270900000Y-223420000D03*
D14*
X270900000Y-231040000D03*
D10*
X188480000Y-307730000D03*
X178320000Y-307730000D03*
D11*
X183400000Y-307730000D03*
D12*
X187210000Y-305190000D03*
X180860000Y-302650000D03*
D10*
X8710000Y-267710000D03*
D11*
X13790000Y-267710000D03*
D10*
X18870000Y-267710000D03*
D12*
X17600000Y-265170000D03*
X11250000Y-262630000D03*
D11*
X20900000Y-287730000D03*
D10*
X25980000Y-287730000D03*
X15820000Y-287730000D03*
D12*
X24710000Y-285190000D03*
X18360000Y-282650000D03*
D13*
X102900000Y-223420000D03*
D14*
X102900000Y-231040000D03*
D13*
X62900000Y-223420000D03*
D14*
X62900000Y-231040000D03*
D10*
X158480000Y-287730000D03*
D11*
X153400000Y-287730000D03*
D10*
X148320000Y-287730000D03*
D12*
X157210000Y-285190000D03*
X150860000Y-282650000D03*
D13*
X202900000Y-223420000D03*
D14*
X202900000Y-231040000D03*
D13*
X162900000Y-223420000D03*
D14*
X162900000Y-231040000D03*
D11*
X133400000Y-287730000D03*
D10*
X128320000Y-287730000D03*
X138480000Y-287730000D03*
D12*
X137210000Y-285190000D03*
X130860000Y-282650000D03*
D11*
X198400000Y-267730000D03*
D10*
X193320000Y-267730000D03*
X203480000Y-267730000D03*
D12*
X202210000Y-265190000D03*
X195860000Y-262650000D03*
D10*
X265980000Y-327730000D03*
X255820000Y-327730000D03*
D11*
X260900000Y-327730000D03*
D12*
X264710000Y-325190000D03*
X258360000Y-322650000D03*
D11*
X163400000Y-307730000D03*
D10*
X158320000Y-307730000D03*
X168480000Y-307730000D03*
D12*
X167210000Y-305190000D03*
X160860000Y-302650000D03*
D13*
X110900000Y-223420000D03*
D14*
X110900000Y-231040000D03*
D11*
X223400000Y-307730000D03*
D10*
X228480000Y-307730000D03*
X218320000Y-307730000D03*
D12*
X227210000Y-305190000D03*
X220860000Y-302650000D03*
D10*
X290480000Y-327730000D03*
X280320000Y-327730000D03*
D11*
X285400000Y-327730000D03*
D12*
X289210000Y-325190000D03*
X282860000Y-322650000D03*
D13*
X42050000Y-235210000D03*
D14*
X39510000Y-235210000D03*
X36970000Y-235210000D03*
X34430000Y-235210000D03*
X31890000Y-235210000D03*
X29350000Y-235210000D03*
X26810000Y-235210000D03*
X24270000Y-235210000D03*
X21730000Y-235210000D03*
X19190000Y-235210000D03*
X16650000Y-235210000D03*
X14110000Y-235210000D03*
X11570000Y-235210000D03*
X9030000Y-235210000D03*
X6490000Y-235210000D03*
X6490000Y-219970000D03*
X9030000Y-219970000D03*
X11570000Y-219970000D03*
X14110000Y-219970000D03*
X16650000Y-219970000D03*
X19190000Y-219970000D03*
X21730000Y-219970000D03*
X24270000Y-219970000D03*
X26810000Y-219970000D03*
X29350000Y-219970000D03*
X31890000Y-219970000D03*
X34430000Y-219970000D03*
X36970000Y-219970000D03*
X39510000Y-219970000D03*
X42050000Y-219970000D03*
D13*
X82900000Y-223420000D03*
D14*
X82900000Y-231040000D03*
D13*
X182900000Y-223420000D03*
D14*
X182900000Y-231040000D03*
D13*
X126900000Y-223420000D03*
D14*
X126900000Y-231040000D03*
D10*
X148480000Y-307730000D03*
D11*
X143400000Y-307730000D03*
D10*
X138320000Y-307730000D03*
D12*
X147210000Y-305190000D03*
X140860000Y-302650000D03*
D13*
X246900000Y-223420000D03*
D14*
X246900000Y-231040000D03*
D11*
X203400000Y-307730000D03*
D10*
X198320000Y-307730000D03*
X208480000Y-307730000D03*
D12*
X207210000Y-305190000D03*
X200860000Y-302650000D03*
D10*
X203320000Y-247730000D03*
D11*
X208400000Y-247730000D03*
D10*
X213480000Y-247730000D03*
D12*
X212210000Y-245190000D03*
X205860000Y-242650000D03*
D13*
X242900000Y-223420000D03*
D14*
X242900000Y-231040000D03*
D13*
X262900000Y-223420000D03*
D14*
X262900000Y-231040000D03*
D11*
X73400000Y-287730000D03*
D10*
X78480000Y-287730000D03*
X68320000Y-287730000D03*
D12*
X77210000Y-285190000D03*
X70860000Y-282650000D03*
D13*
X122900000Y-223420000D03*
D14*
X122900000Y-231040000D03*
D10*
X98320000Y-307730000D03*
X108480000Y-307730000D03*
D11*
X103400000Y-307730000D03*
D12*
X107210000Y-305190000D03*
X100860000Y-302650000D03*
D10*
X173320000Y-267730000D03*
X183480000Y-267730000D03*
D11*
X178400000Y-267730000D03*
D12*
X182210000Y-265190000D03*
X175860000Y-262650000D03*
D13*
X134900000Y-223420000D03*
D14*
X134900000Y-231040000D03*
D10*
X230820000Y-327730000D03*
D11*
X235900000Y-327730000D03*
D10*
X240980000Y-327730000D03*
D12*
X239710000Y-325190000D03*
X233360000Y-322650000D03*
D11*
X173400000Y-287730000D03*
D10*
X168320000Y-287730000D03*
X178480000Y-287730000D03*
D12*
X177210000Y-285190000D03*
X170860000Y-282650000D03*
D13*
X186900000Y-223420000D03*
D14*
X186900000Y-231040000D03*
D13*
X250900000Y-223420000D03*
D14*
X250900000Y-231040000D03*
D13*
X70900000Y-223420000D03*
D14*
X70900000Y-231040000D03*
D10*
X98480000Y-287730000D03*
X88320000Y-287730000D03*
D11*
X93400000Y-287730000D03*
D12*
X97210000Y-285190000D03*
X90860000Y-282650000D03*
D10*
X275820000Y-287730000D03*
X285980000Y-287730000D03*
D11*
X280900000Y-287730000D03*
D12*
X284710000Y-285190000D03*
X278360000Y-282650000D03*
D10*
X58480000Y-287730000D03*
X48320000Y-287730000D03*
D11*
X53400000Y-287730000D03*
D12*
X57210000Y-285190000D03*
X50860000Y-282650000D03*
D10*
X143320000Y-247730000D03*
D11*
X148400000Y-247730000D03*
D10*
X153480000Y-247730000D03*
D12*
X152210000Y-245190000D03*
X145860000Y-242650000D03*
D13*
X78900000Y-223420000D03*
D14*
X78900000Y-231040000D03*
D13*
X142900000Y-223420000D03*
D14*
X142900000Y-231040000D03*
D10*
X158320000Y-327730000D03*
X168480000Y-327730000D03*
D11*
X163400000Y-327730000D03*
D12*
X167210000Y-325190000D03*
X160860000Y-322650000D03*
D10*
X163320000Y-247730000D03*
D11*
X168400000Y-247730000D03*
D10*
X173480000Y-247730000D03*
D12*
X172210000Y-245190000D03*
X165860000Y-242650000D03*
D10*
X73480000Y-247730000D03*
X63320000Y-247730000D03*
D11*
X68400000Y-247730000D03*
D12*
X72210000Y-245190000D03*
X65860000Y-242650000D03*
D13*
X94900000Y-223420000D03*
D14*
X94900000Y-231040000D03*
D13*
X230900000Y-223420000D03*
D14*
X230900000Y-231040000D03*
D10*
X263320000Y-247730000D03*
X273480000Y-247730000D03*
D11*
X268400000Y-247730000D03*
D12*
X272210000Y-245190000D03*
X265860000Y-242650000D03*
D13*
X226900000Y-223420000D03*
D14*
X226900000Y-231040000D03*
D13*
X218900000Y-223420000D03*
D14*
X218900000Y-231040000D03*
D13*
X106900000Y-223420000D03*
D14*
X106900000Y-231040000D03*
D13*
X138900000Y-223420000D03*
D14*
X138900000Y-231040000D03*
D10*
X63480000Y-267730000D03*
D11*
X58400000Y-267730000D03*
D10*
X53320000Y-267730000D03*
D12*
X62210000Y-265190000D03*
X55860000Y-262650000D03*
D11*
X128400000Y-247730000D03*
D10*
X133480000Y-247730000D03*
X123320000Y-247730000D03*
D12*
X132210000Y-245190000D03*
X125860000Y-242650000D03*
D10*
X85820000Y-327730000D03*
D11*
X90900000Y-327730000D03*
D10*
X95980000Y-327730000D03*
D12*
X94710000Y-325190000D03*
X88360000Y-322650000D03*
D13*
X54900000Y-223420000D03*
D14*
X54900000Y-231040000D03*
D13*
X174900000Y-223420000D03*
D14*
X174900000Y-231040000D03*
D13*
X278900000Y-223420000D03*
D14*
X278900000Y-231040000D03*
D11*
X64790000Y-327750000D03*
D10*
X69870000Y-327750000D03*
X59710000Y-327750000D03*
D12*
X68600000Y-325210000D03*
X62250000Y-322670000D03*
D11*
X158400000Y-267730000D03*
D10*
X153320000Y-267730000D03*
X163480000Y-267730000D03*
D12*
X162210000Y-265190000D03*
X155860000Y-262650000D03*
D11*
X138400000Y-267730000D03*
D10*
X133320000Y-267730000D03*
X143480000Y-267730000D03*
D12*
X142210000Y-265190000D03*
X135860000Y-262650000D03*
D13*
X194900000Y-223420000D03*
D14*
X194900000Y-231040000D03*
D13*
X210900000Y-223420000D03*
D14*
X210900000Y-231040000D03*
D10*
X233480000Y-247730000D03*
D11*
X228400000Y-247730000D03*
D10*
X223320000Y-247730000D03*
D12*
X232210000Y-245190000D03*
X225860000Y-242650000D03*
D10*
X243320000Y-247730000D03*
X253480000Y-247730000D03*
D11*
X248400000Y-247730000D03*
D12*
X252210000Y-245190000D03*
X245860000Y-242650000D03*
D13*
X198900000Y-223420000D03*
D14*
X198900000Y-231040000D03*
D10*
X43320000Y-247730000D03*
X53480000Y-247730000D03*
D11*
X48400000Y-247730000D03*
D12*
X52210000Y-245190000D03*
X45860000Y-242650000D03*
D13*
X266900000Y-223420000D03*
D14*
X266900000Y-231040000D03*
D13*
X238900000Y-223420000D03*
D14*
X238900000Y-231040000D03*
D13*
X74900000Y-223420000D03*
D14*
X74900000Y-231040000D03*
D10*
X118480000Y-287730000D03*
D11*
X113400000Y-287730000D03*
D10*
X108320000Y-287730000D03*
D12*
X117210000Y-285190000D03*
X110860000Y-282650000D03*
D13*
X274900000Y-223420000D03*
D14*
X274900000Y-231040000D03*
D13*
X98900000Y-223420000D03*
D14*
X98900000Y-231040000D03*
D13*
X58900000Y-223420000D03*
D14*
X58900000Y-231040000D03*
D13*
X286900000Y-223420000D03*
D14*
X286900000Y-231040000D03*
M02*
