G04 #@! TF.GenerationSoftware,KiCad,Pcbnew,(6.0.7)*
G04 #@! TF.CreationDate,2022-09-06T07:39:08-07:00*
G04 #@! TF.ProjectId,60 Percent Keyboard Ardiuno Micro,36302050-6572-4636-956e-74204b657962,rev?*
G04 #@! TF.SameCoordinates,Original*
G04 #@! TF.FileFunction,Copper,L2,Bot*
G04 #@! TF.FilePolarity,Positive*
%FSLAX46Y46*%
G04 Gerber Fmt 4.6, Leading zero omitted, Abs format (unit mm)*
G04 Created by KiCad (PCBNEW (6.0.7)) date 2022-09-06 07:39:08*
%MOMM*%
%LPD*%
G01*
G04 APERTURE LIST*
G04 #@! TA.AperFunction,ComponentPad*
%ADD10C,2.500000*%
G04 #@! TD*
G04 #@! TA.AperFunction,ComponentPad*
%ADD11R,1.600000X1.600000*%
G04 #@! TD*
G04 #@! TA.AperFunction,ComponentPad*
%ADD12O,1.600000X1.600000*%
G04 #@! TD*
G04 #@! TA.AperFunction,ViaPad*
%ADD13C,0.600000*%
G04 #@! TD*
G04 #@! TA.AperFunction,Conductor*
%ADD14C,0.250000*%
G04 #@! TD*
G04 APERTURE END LIST*
D10*
X29550000Y-305170000D03*
X23200000Y-302630000D03*
X102210000Y-265190000D03*
X95860000Y-262650000D03*
D11*
X118900000Y-223420000D03*
D12*
X118900000Y-231040000D03*
D10*
X242210000Y-265190000D03*
X235860000Y-262650000D03*
X82210000Y-265190000D03*
X75860000Y-262650000D03*
D11*
X114900000Y-223420000D03*
D12*
X114900000Y-231040000D03*
D11*
X50900000Y-223420000D03*
D12*
X50900000Y-231040000D03*
D11*
X146900000Y-223420000D03*
D12*
X146900000Y-231040000D03*
D11*
X178900000Y-223420000D03*
D12*
X178900000Y-231040000D03*
D10*
X247210000Y-305190000D03*
X240860000Y-302650000D03*
D11*
X130900000Y-223420000D03*
D12*
X130900000Y-231040000D03*
D10*
X122210000Y-265190000D03*
X115860000Y-262650000D03*
X192210000Y-245190000D03*
X185860000Y-242650000D03*
X15300000Y-325160000D03*
X8950000Y-322620000D03*
X42210000Y-265190000D03*
X35860000Y-262650000D03*
X67210000Y-305190000D03*
X60860000Y-302650000D03*
X87210000Y-305190000D03*
X80860000Y-302650000D03*
D11*
X206900000Y-223420000D03*
D12*
X206900000Y-231040000D03*
D10*
X127210000Y-305190000D03*
X120860000Y-302650000D03*
X262210000Y-265190000D03*
X255860000Y-262650000D03*
D11*
X66900000Y-223420000D03*
D12*
X66900000Y-231040000D03*
D10*
X279710000Y-305190000D03*
X273360000Y-302650000D03*
D11*
X254900000Y-223420000D03*
D12*
X254900000Y-231040000D03*
D10*
X22610000Y-245170000D03*
X16260000Y-242630000D03*
D11*
X234900000Y-223420000D03*
D12*
X234900000Y-231040000D03*
D11*
X170900000Y-223420000D03*
D12*
X170900000Y-231040000D03*
D10*
X112210000Y-245190000D03*
X105860000Y-242650000D03*
D11*
X150900000Y-223420000D03*
D12*
X150900000Y-231040000D03*
D10*
X92210000Y-245190000D03*
X85860000Y-242650000D03*
D11*
X166900000Y-223420000D03*
D12*
X166900000Y-231040000D03*
D10*
X291710000Y-245190000D03*
X285360000Y-242650000D03*
X237210000Y-285190000D03*
X230860000Y-282650000D03*
D11*
X86900000Y-223420000D03*
D12*
X86900000Y-231040000D03*
D10*
X42160000Y-325250000D03*
X35810000Y-322710000D03*
D11*
X90900000Y-223420000D03*
D12*
X90900000Y-231040000D03*
D11*
X154900000Y-223420000D03*
D12*
X154900000Y-231040000D03*
D11*
X282900000Y-223420000D03*
D12*
X282900000Y-231040000D03*
D10*
X287210000Y-265190000D03*
X280860000Y-262650000D03*
D11*
X222900000Y-223420000D03*
D12*
X222900000Y-231040000D03*
D11*
X158900000Y-223420000D03*
D12*
X158900000Y-231040000D03*
D10*
X217210000Y-285190000D03*
X210860000Y-282650000D03*
D11*
X290900000Y-223420000D03*
D12*
X290900000Y-231040000D03*
D10*
X222210000Y-265190000D03*
X215860000Y-262650000D03*
D11*
X214900000Y-223420000D03*
D12*
X214900000Y-231040000D03*
D11*
X190900000Y-223420000D03*
D12*
X190900000Y-231040000D03*
D11*
X258900000Y-223420000D03*
D12*
X258900000Y-231040000D03*
D10*
X197210000Y-285190000D03*
X190860000Y-282650000D03*
X257210000Y-285190000D03*
X250860000Y-282650000D03*
D11*
X270900000Y-223420000D03*
D12*
X270900000Y-231040000D03*
D10*
X187210000Y-305190000D03*
X180860000Y-302650000D03*
X17600000Y-265170000D03*
X11250000Y-262630000D03*
X24710000Y-285190000D03*
X18360000Y-282650000D03*
D11*
X102900000Y-223420000D03*
D12*
X102900000Y-231040000D03*
D11*
X62900000Y-223420000D03*
D12*
X62900000Y-231040000D03*
D10*
X157210000Y-285190000D03*
X150860000Y-282650000D03*
D11*
X202900000Y-223420000D03*
D12*
X202900000Y-231040000D03*
D11*
X162900000Y-223420000D03*
D12*
X162900000Y-231040000D03*
D10*
X137210000Y-285190000D03*
X130860000Y-282650000D03*
X202210000Y-265190000D03*
X195860000Y-262650000D03*
X264710000Y-325190000D03*
X258360000Y-322650000D03*
X167210000Y-305190000D03*
X160860000Y-302650000D03*
D11*
X110900000Y-223420000D03*
D12*
X110900000Y-231040000D03*
D10*
X227210000Y-305190000D03*
X220860000Y-302650000D03*
X289210000Y-325190000D03*
X282860000Y-322650000D03*
D11*
X42050000Y-235210000D03*
D12*
X39510000Y-235210000D03*
X36970000Y-235210000D03*
X34430000Y-235210000D03*
X31890000Y-235210000D03*
X29350000Y-235210000D03*
X26810000Y-235210000D03*
X24270000Y-235210000D03*
X21730000Y-235210000D03*
X19190000Y-235210000D03*
X16650000Y-235210000D03*
X14110000Y-235210000D03*
X11570000Y-235210000D03*
X9030000Y-235210000D03*
X6490000Y-235210000D03*
X6490000Y-219970000D03*
X9030000Y-219970000D03*
X11570000Y-219970000D03*
X14110000Y-219970000D03*
X16650000Y-219970000D03*
X19190000Y-219970000D03*
X21730000Y-219970000D03*
X24270000Y-219970000D03*
X26810000Y-219970000D03*
X29350000Y-219970000D03*
X31890000Y-219970000D03*
X34430000Y-219970000D03*
X36970000Y-219970000D03*
X39510000Y-219970000D03*
X42050000Y-219970000D03*
D11*
X82900000Y-223420000D03*
D12*
X82900000Y-231040000D03*
D11*
X182900000Y-223420000D03*
D12*
X182900000Y-231040000D03*
D11*
X126900000Y-223420000D03*
D12*
X126900000Y-231040000D03*
D10*
X147210000Y-305190000D03*
X140860000Y-302650000D03*
D11*
X246900000Y-223420000D03*
D12*
X246900000Y-231040000D03*
D10*
X207210000Y-305190000D03*
X200860000Y-302650000D03*
X212210000Y-245190000D03*
X205860000Y-242650000D03*
D11*
X242900000Y-223420000D03*
D12*
X242900000Y-231040000D03*
D11*
X262900000Y-223420000D03*
D12*
X262900000Y-231040000D03*
D10*
X77210000Y-285190000D03*
X70860000Y-282650000D03*
D11*
X122900000Y-223420000D03*
D12*
X122900000Y-231040000D03*
D10*
X107210000Y-305190000D03*
X100860000Y-302650000D03*
X182210000Y-265190000D03*
X175860000Y-262650000D03*
D11*
X134900000Y-223420000D03*
D12*
X134900000Y-231040000D03*
D10*
X239710000Y-325190000D03*
X233360000Y-322650000D03*
X177210000Y-285190000D03*
X170860000Y-282650000D03*
D11*
X186900000Y-223420000D03*
D12*
X186900000Y-231040000D03*
D11*
X250900000Y-223420000D03*
D12*
X250900000Y-231040000D03*
D11*
X70900000Y-223420000D03*
D12*
X70900000Y-231040000D03*
D10*
X97210000Y-285190000D03*
X90860000Y-282650000D03*
X284710000Y-285190000D03*
X278360000Y-282650000D03*
X57210000Y-285190000D03*
X50860000Y-282650000D03*
X152210000Y-245190000D03*
X145860000Y-242650000D03*
D11*
X78900000Y-223420000D03*
D12*
X78900000Y-231040000D03*
D11*
X142900000Y-223420000D03*
D12*
X142900000Y-231040000D03*
D10*
X167210000Y-325190000D03*
X160860000Y-322650000D03*
X172210000Y-245190000D03*
X165860000Y-242650000D03*
X72210000Y-245190000D03*
X65860000Y-242650000D03*
D11*
X94900000Y-223420000D03*
D12*
X94900000Y-231040000D03*
D11*
X230900000Y-223420000D03*
D12*
X230900000Y-231040000D03*
D10*
X272210000Y-245190000D03*
X265860000Y-242650000D03*
D11*
X226900000Y-223420000D03*
D12*
X226900000Y-231040000D03*
D11*
X218900000Y-223420000D03*
D12*
X218900000Y-231040000D03*
D11*
X106900000Y-223420000D03*
D12*
X106900000Y-231040000D03*
D11*
X138900000Y-223420000D03*
D12*
X138900000Y-231040000D03*
D10*
X62210000Y-265190000D03*
X55860000Y-262650000D03*
X132210000Y-245190000D03*
X125860000Y-242650000D03*
X94710000Y-325190000D03*
X88360000Y-322650000D03*
D11*
X54900000Y-223420000D03*
D12*
X54900000Y-231040000D03*
D11*
X174900000Y-223420000D03*
D12*
X174900000Y-231040000D03*
D11*
X278900000Y-223420000D03*
D12*
X278900000Y-231040000D03*
D10*
X68600000Y-325210000D03*
X62250000Y-322670000D03*
X162210000Y-265190000D03*
X155860000Y-262650000D03*
X142210000Y-265190000D03*
X135860000Y-262650000D03*
D11*
X194900000Y-223420000D03*
D12*
X194900000Y-231040000D03*
D11*
X210900000Y-223420000D03*
D12*
X210900000Y-231040000D03*
D10*
X232210000Y-245190000D03*
X225860000Y-242650000D03*
X252210000Y-245190000D03*
X245860000Y-242650000D03*
D11*
X198900000Y-223420000D03*
D12*
X198900000Y-231040000D03*
D10*
X52210000Y-245190000D03*
X45860000Y-242650000D03*
D11*
X266900000Y-223420000D03*
D12*
X266900000Y-231040000D03*
D11*
X238900000Y-223420000D03*
D12*
X238900000Y-231040000D03*
D11*
X74900000Y-223420000D03*
D12*
X74900000Y-231040000D03*
D10*
X117210000Y-285190000D03*
X110860000Y-282650000D03*
D11*
X274900000Y-223420000D03*
D12*
X274900000Y-231040000D03*
D11*
X98900000Y-223420000D03*
D12*
X98900000Y-231040000D03*
D11*
X58900000Y-223420000D03*
D12*
X58900000Y-231040000D03*
D11*
X286900000Y-223420000D03*
D12*
X286900000Y-231040000D03*
D13*
X127500000Y-318500000D03*
X127500000Y-315800000D03*
X128800000Y-316000000D03*
X128800000Y-318500000D03*
X26100000Y-258500000D03*
X29100000Y-266500000D03*
X27900000Y-266400000D03*
X25800000Y-259600000D03*
X24900000Y-259675500D03*
X22700000Y-262300000D03*
X8900000Y-238724500D03*
X2800000Y-246200000D03*
X11100000Y-245100000D03*
X1475500Y-244900000D03*
X142900000Y-221900000D03*
X178900000Y-221900000D03*
X214900000Y-221900000D03*
X230900000Y-221900000D03*
X162900000Y-221900000D03*
X270900000Y-221900000D03*
X122900000Y-221900000D03*
X194900000Y-221900000D03*
X82900000Y-221900000D03*
X70900000Y-221900000D03*
X102900000Y-221900000D03*
X250900000Y-221900000D03*
X290900000Y-221900000D03*
X62900000Y-221900000D03*
X98900000Y-220700000D03*
X246900000Y-220700000D03*
X226900000Y-220700000D03*
X58900000Y-220700000D03*
X138900000Y-220700000D03*
X78900000Y-220700000D03*
X266900000Y-220700000D03*
X66900000Y-220700000D03*
X174900000Y-220700000D03*
X158900000Y-220700000D03*
X118900000Y-220700000D03*
X286900000Y-220700000D03*
X190900000Y-220700000D03*
X210900000Y-220700000D03*
X186900000Y-219500000D03*
X114900000Y-219500000D03*
X222900000Y-219500000D03*
X262900000Y-219500000D03*
X54900000Y-219500000D03*
X170900000Y-219500000D03*
X206900000Y-219500000D03*
X74900000Y-219500000D03*
X242900000Y-219500000D03*
X154900000Y-219500000D03*
X94900000Y-219500000D03*
X282900000Y-219400000D03*
X134900000Y-219500000D03*
X150900000Y-218100000D03*
X166900000Y-218100000D03*
X278900000Y-218100000D03*
X238900000Y-218100000D03*
X182900000Y-218100000D03*
X90900000Y-218100000D03*
X50900000Y-218100000D03*
X258900000Y-218100000D03*
X110900000Y-218100000D03*
X202900000Y-218100000D03*
X130900000Y-218100000D03*
X218900000Y-218100000D03*
X106900000Y-216900000D03*
X48858411Y-216941589D03*
X254900000Y-216900000D03*
X86900000Y-216900000D03*
X146900000Y-216900000D03*
X198900000Y-216900000D03*
X234900000Y-216900000D03*
X126900000Y-216900000D03*
X274900000Y-216900000D03*
X49100000Y-219900000D03*
X271000000Y-238400000D03*
X47000000Y-237475500D03*
X125900000Y-315100000D03*
X125900000Y-318500000D03*
D14*
X127500000Y-318500000D02*
X127500000Y-315800000D01*
X217210000Y-295190000D02*
X217210000Y-285190000D01*
X222210000Y-280190000D02*
X217210000Y-285190000D01*
X232210000Y-255190000D02*
X222210000Y-265190000D01*
X207210000Y-305190000D02*
X217210000Y-295190000D01*
X232210000Y-245190000D02*
X232210000Y-255190000D01*
X222210000Y-265190000D02*
X222210000Y-280190000D01*
X212210000Y-247490000D02*
X212210000Y-245190000D01*
X202210000Y-280190000D02*
X202210000Y-265190000D01*
X167210000Y-325190000D02*
X168977766Y-325190000D01*
X197210000Y-285190000D02*
X202210000Y-280190000D01*
X187210000Y-306957766D02*
X187210000Y-305190000D01*
X197210000Y-295190000D02*
X187210000Y-305190000D01*
X202210000Y-257490000D02*
X212210000Y-247490000D01*
X202210000Y-265190000D02*
X202210000Y-257490000D01*
X168977766Y-325190000D02*
X187210000Y-306957766D01*
X197210000Y-285190000D02*
X197210000Y-295190000D01*
X128800000Y-318500000D02*
X128800000Y-316000000D01*
X182210000Y-265190000D02*
X182210000Y-280190000D01*
X192210000Y-255190000D02*
X182210000Y-265190000D01*
X192210000Y-245190000D02*
X192210000Y-255190000D01*
X182210000Y-280190000D02*
X177210000Y-285190000D01*
X177210000Y-295190000D02*
X167210000Y-305190000D01*
X177210000Y-285190000D02*
X177210000Y-295190000D01*
X162210000Y-265190000D02*
X162210000Y-280190000D01*
X157210000Y-295190000D02*
X147210000Y-305190000D01*
X157210000Y-285190000D02*
X157210000Y-295190000D01*
X172210000Y-245190000D02*
X172210000Y-255190000D01*
X172210000Y-255190000D02*
X162210000Y-265190000D01*
X162210000Y-280190000D02*
X157210000Y-285190000D01*
X29100000Y-261500000D02*
X26100000Y-258500000D01*
X127210000Y-307390000D02*
X127210000Y-305190000D01*
X137210000Y-295190000D02*
X137210000Y-285190000D01*
X117110000Y-325190000D02*
X120200000Y-322100000D01*
X142210000Y-280190000D02*
X137210000Y-285190000D01*
X152210000Y-245190000D02*
X152210000Y-255190000D01*
X120200000Y-322100000D02*
X120200000Y-314400000D01*
X142210000Y-265190000D02*
X142210000Y-280190000D01*
X152210000Y-255190000D02*
X142210000Y-265190000D01*
X94710000Y-325190000D02*
X117110000Y-325190000D01*
X120200000Y-314400000D02*
X127210000Y-307390000D01*
X29100000Y-266500000D02*
X29100000Y-261500000D01*
X127210000Y-305190000D02*
X137210000Y-295190000D01*
X92400000Y-319900000D02*
X99400000Y-312900000D01*
X87800000Y-320112870D02*
X87800000Y-320100000D01*
X25800000Y-264300000D02*
X25800000Y-259600000D01*
X82702870Y-325210000D02*
X87800000Y-320112870D01*
X117210000Y-285190000D02*
X117210000Y-295190000D01*
X68600000Y-325210000D02*
X82702870Y-325210000D01*
X88000000Y-319900000D02*
X92400000Y-319900000D01*
X117210000Y-295190000D02*
X107210000Y-305190000D01*
X132210000Y-255190000D02*
X122210000Y-265190000D01*
X27900000Y-266400000D02*
X25800000Y-264300000D01*
X122210000Y-280190000D02*
X117210000Y-285190000D01*
X87800000Y-320100000D02*
X88000000Y-319900000D01*
X107210000Y-307590000D02*
X107210000Y-305190000D01*
X99400000Y-312900000D02*
X101900000Y-312900000D01*
X122210000Y-265190000D02*
X122210000Y-280190000D01*
X101900000Y-312900000D02*
X107210000Y-307590000D01*
X132210000Y-245190000D02*
X132210000Y-255190000D01*
X22700000Y-262300000D02*
X22700000Y-261900000D01*
X87210000Y-309930410D02*
X78440410Y-318700000D01*
X102210000Y-280190000D02*
X97210000Y-285190000D01*
X106050000Y-258550000D02*
X102210000Y-262390000D01*
X112210000Y-255190000D02*
X108850000Y-258550000D01*
X102210000Y-262390000D02*
X102210000Y-265190000D01*
X48150000Y-325250000D02*
X42160000Y-325250000D01*
X76400000Y-320800000D02*
X52600000Y-320800000D01*
X102210000Y-265190000D02*
X102210000Y-280190000D01*
X97210000Y-295190000D02*
X87210000Y-305190000D01*
X97210000Y-285190000D02*
X97210000Y-295190000D01*
X24900000Y-259700000D02*
X24900000Y-259675500D01*
X108850000Y-258550000D02*
X106050000Y-258550000D01*
X112210000Y-245190000D02*
X112210000Y-255190000D01*
X22700000Y-261900000D02*
X24900000Y-259700000D01*
X87210000Y-305190000D02*
X87210000Y-309930410D01*
X78440410Y-318700000D02*
X78440410Y-318759590D01*
X52600000Y-320800000D02*
X48150000Y-325250000D01*
X78440410Y-318759590D02*
X76400000Y-320800000D01*
X2800000Y-239500000D02*
X3600000Y-238700000D01*
X82210000Y-265190000D02*
X82210000Y-280190000D01*
X82210000Y-280190000D02*
X77210000Y-285190000D01*
X92210000Y-255190000D02*
X92210000Y-245190000D01*
X2800000Y-246200000D02*
X2800000Y-239500000D01*
X67210000Y-305190000D02*
X77210000Y-295190000D01*
X59190410Y-317950000D02*
X31350000Y-317950000D01*
X82210000Y-265190000D02*
X92210000Y-255190000D01*
X67210000Y-309930410D02*
X59190410Y-317950000D01*
X3600000Y-238700000D02*
X3750000Y-238550000D01*
X3750000Y-238550000D02*
X8500000Y-238550000D01*
X77210000Y-295190000D02*
X77210000Y-285190000D01*
X8725500Y-238550000D02*
X8900000Y-238724500D01*
X8500000Y-238550000D02*
X8725500Y-238550000D01*
X22800000Y-326500000D02*
X21460000Y-325160000D01*
X21460000Y-325160000D02*
X15300000Y-325160000D01*
X31350000Y-317950000D02*
X22800000Y-326500000D01*
X67210000Y-305190000D02*
X67210000Y-309930410D01*
X72210000Y-245190000D02*
X72210000Y-251290000D01*
X62210000Y-280190000D02*
X57210000Y-285190000D01*
X62210000Y-265190000D02*
X62210000Y-280190000D01*
X72210000Y-251290000D02*
X62210000Y-261290000D01*
X62210000Y-261290000D02*
X62210000Y-265190000D01*
X52210000Y-255190000D02*
X42210000Y-265190000D01*
X52210000Y-245190000D02*
X52210000Y-255190000D01*
X22610000Y-245170000D02*
X11170000Y-245170000D01*
X-1025000Y-242399500D02*
X-1025000Y-215600000D01*
X1475500Y-244900000D02*
X-1025000Y-242399500D01*
X11170000Y-245170000D02*
X11100000Y-245100000D01*
X6490000Y-218695000D02*
X6490000Y-219970000D01*
X22610000Y-260160000D02*
X17600000Y-265170000D01*
X4100000Y-215600000D02*
X6400000Y-217900000D01*
X24710000Y-285190000D02*
X17600000Y-278080000D01*
X22610000Y-245170000D02*
X22610000Y-260160000D01*
X6400000Y-217900000D02*
X6400000Y-218605000D01*
X17600000Y-278080000D02*
X17600000Y-265170000D01*
X24710000Y-300330000D02*
X29550000Y-305170000D01*
X6400000Y-218605000D02*
X6490000Y-218695000D01*
X24710000Y-285190000D02*
X24710000Y-300330000D01*
X-1025000Y-215600000D02*
X4100000Y-215600000D01*
X62900000Y-218500000D02*
X59000000Y-214600000D01*
X102900000Y-223420000D02*
X102900000Y-221900000D01*
X13500000Y-219360000D02*
X14110000Y-219970000D01*
X13500000Y-215600000D02*
X13500000Y-219360000D01*
X82900000Y-223420000D02*
X82900000Y-221900000D01*
X194900000Y-223420000D02*
X194900000Y-221900000D01*
X230900000Y-223420000D02*
X230900000Y-221900000D01*
X122900000Y-223420000D02*
X122900000Y-221900000D01*
X70900000Y-223420000D02*
X70900000Y-221900000D01*
X162900000Y-223420000D02*
X162900000Y-221900000D01*
X62900000Y-223420000D02*
X62900000Y-221900000D01*
X214900000Y-223420000D02*
X214900000Y-221900000D01*
X14500000Y-214600000D02*
X13500000Y-215600000D01*
X178900000Y-223420000D02*
X178900000Y-221900000D01*
X142900000Y-223420000D02*
X142900000Y-221900000D01*
X62900000Y-221900000D02*
X62900000Y-218500000D01*
X59000000Y-214600000D02*
X14500000Y-214600000D01*
X290900000Y-223420000D02*
X290900000Y-221900000D01*
X250900000Y-223420000D02*
X250900000Y-221900000D01*
X270900000Y-223420000D02*
X270900000Y-221900000D01*
X174900000Y-223420000D02*
X174900000Y-220700000D01*
X286900000Y-223420000D02*
X286900000Y-220700000D01*
X17700000Y-215300000D02*
X16700000Y-216300000D01*
X78900000Y-223420000D02*
X78900000Y-220700000D01*
X16700000Y-218605000D02*
X16650000Y-218655000D01*
X226900000Y-223420000D02*
X226900000Y-220700000D01*
X266900000Y-223420000D02*
X266900000Y-220700000D01*
X16650000Y-218655000D02*
X16650000Y-219970000D01*
X158900000Y-223420000D02*
X158900000Y-220700000D01*
X210900000Y-223420000D02*
X210900000Y-220700000D01*
X66900000Y-223420000D02*
X66900000Y-220700000D01*
X246900000Y-223420000D02*
X246900000Y-220700000D01*
X57700000Y-215300000D02*
X17700000Y-215300000D01*
X16700000Y-216300000D02*
X16700000Y-218605000D01*
X98900000Y-223420000D02*
X98900000Y-220700000D01*
X138900000Y-223420000D02*
X138900000Y-220700000D01*
X58900000Y-216500000D02*
X57700000Y-215300000D01*
X58900000Y-223420000D02*
X58900000Y-220700000D01*
X58900000Y-220700000D02*
X58900000Y-216500000D01*
X118900000Y-223420000D02*
X118900000Y-220700000D01*
X190900000Y-223420000D02*
X190900000Y-220700000D01*
X242900000Y-223420000D02*
X242900000Y-219500000D01*
X282900000Y-223420000D02*
X282900000Y-219500000D01*
X54900000Y-219500000D02*
X54900000Y-216900000D01*
X282900000Y-219500000D02*
X282900000Y-219400000D01*
X222900000Y-223420000D02*
X222900000Y-219500000D01*
X206900000Y-223420000D02*
X206900000Y-219500000D01*
X114900000Y-223420000D02*
X114900000Y-219500000D01*
X186900000Y-223420000D02*
X186900000Y-219500000D01*
X54900000Y-223420000D02*
X54900000Y-219500000D01*
X54900000Y-216900000D02*
X53800000Y-215800000D01*
X154900000Y-223420000D02*
X154900000Y-219500000D01*
X94900000Y-223420000D02*
X94900000Y-219500000D01*
X18900000Y-219680000D02*
X19190000Y-219970000D01*
X134900000Y-223420000D02*
X134900000Y-219500000D01*
X170900000Y-223420000D02*
X170900000Y-219500000D01*
X53800000Y-215800000D02*
X20000000Y-215800000D01*
X74900000Y-223420000D02*
X74900000Y-219500000D01*
X18900000Y-216900000D02*
X18900000Y-219680000D01*
X20000000Y-215800000D02*
X18900000Y-216900000D01*
X262900000Y-223420000D02*
X262900000Y-219500000D01*
X258900000Y-223420000D02*
X258900000Y-218100000D01*
X218900000Y-223420000D02*
X218900000Y-218100000D01*
X150900000Y-223420000D02*
X150900000Y-218100000D01*
X182900000Y-223420000D02*
X182900000Y-218100000D01*
X21730000Y-218735000D02*
X21730000Y-219970000D01*
X50900000Y-218100000D02*
X49050000Y-216250000D01*
X21600000Y-216450000D02*
X21600000Y-218605000D01*
X21600000Y-218605000D02*
X21730000Y-218735000D01*
X50900000Y-223420000D02*
X50900000Y-218100000D01*
X90900000Y-223420000D02*
X90900000Y-218100000D01*
X238900000Y-223420000D02*
X238900000Y-218100000D01*
X130900000Y-223420000D02*
X130900000Y-218100000D01*
X202900000Y-223420000D02*
X202900000Y-218100000D01*
X21800000Y-216250000D02*
X21600000Y-216450000D01*
X278900000Y-223420000D02*
X278900000Y-218100000D01*
X49050000Y-216250000D02*
X21800000Y-216250000D01*
X110900000Y-223420000D02*
X110900000Y-218100000D01*
X166900000Y-223420000D02*
X166900000Y-218100000D01*
X24300000Y-217000000D02*
X24120000Y-217180000D01*
X24100000Y-219900000D02*
X24100000Y-218925000D01*
X254900000Y-223420000D02*
X254900000Y-216900000D01*
X24120000Y-218605000D02*
X24270000Y-218755000D01*
X24100000Y-218925000D02*
X24270000Y-218755000D01*
X106900000Y-223420000D02*
X106900000Y-216900000D01*
X48858411Y-216941589D02*
X48800000Y-217000000D01*
X198900000Y-223420000D02*
X198900000Y-216900000D01*
X234900000Y-223420000D02*
X234900000Y-216900000D01*
X24270000Y-219970000D02*
X24200000Y-219900000D01*
X48800000Y-217000000D02*
X24300000Y-217000000D01*
X146900000Y-223420000D02*
X146900000Y-216900000D01*
X86900000Y-223420000D02*
X86900000Y-216900000D01*
X274900000Y-223420000D02*
X274900000Y-216900000D01*
X24120000Y-217180000D02*
X24120000Y-218605000D01*
X126900000Y-223420000D02*
X126900000Y-216900000D01*
X24200000Y-219900000D02*
X24100000Y-219900000D01*
X289210000Y-313279997D02*
X289210000Y-325190000D01*
X279710000Y-305190000D02*
X281120003Y-305190000D01*
X287089999Y-285190000D02*
X284710000Y-285190000D01*
X287210000Y-265190000D02*
X287210000Y-285069999D01*
X287210000Y-285069999D02*
X287089999Y-285190000D01*
X291710000Y-245190000D02*
X291710000Y-260690000D01*
X281120003Y-305190000D02*
X289210000Y-313279997D01*
X291710000Y-260690000D02*
X287210000Y-265190000D01*
X284710000Y-285190000D02*
X284710000Y-300190000D01*
X284710000Y-300190000D02*
X279710000Y-305190000D01*
X272210000Y-239610000D02*
X271000000Y-238400000D01*
X29200000Y-218605000D02*
X29350000Y-218755000D01*
X257210000Y-295190000D02*
X247210000Y-305190000D01*
X257210000Y-285190000D02*
X262210000Y-280190000D01*
X49100000Y-219900000D02*
X49100000Y-218756117D01*
X257210000Y-285190000D02*
X257210000Y-295190000D01*
X272210000Y-255190000D02*
X272210000Y-245190000D01*
X49100000Y-218756117D02*
X47893883Y-217550000D01*
X262210000Y-265190000D02*
X272210000Y-255190000D01*
X30255000Y-217550000D02*
X29200000Y-218605000D01*
X248977766Y-305190000D02*
X247210000Y-305190000D01*
X272210000Y-245190000D02*
X272210000Y-239610000D01*
X264710000Y-320922234D02*
X248977766Y-305190000D01*
X29350000Y-218755000D02*
X29350000Y-219970000D01*
X47893883Y-217550000D02*
X30255000Y-217550000D01*
X264710000Y-325190000D02*
X264710000Y-320922234D01*
X262210000Y-280190000D02*
X262210000Y-265190000D01*
X48207487Y-218500000D02*
X46700000Y-218500000D01*
X252210000Y-245190000D02*
X252210000Y-255190000D01*
X31740000Y-218260000D02*
X31740000Y-218605000D01*
X48415000Y-218707513D02*
X48207487Y-218500000D01*
X48415000Y-236632487D02*
X48415000Y-218707513D01*
X31890000Y-218755000D02*
X31890000Y-219970000D01*
X237210000Y-295190000D02*
X227210000Y-305190000D01*
X242210000Y-280190000D02*
X237210000Y-285190000D01*
X46500000Y-218300000D02*
X46500000Y-218000000D01*
X237210000Y-285190000D02*
X237210000Y-295190000D01*
X125900000Y-318500000D02*
X125900000Y-315100000D01*
X227300000Y-312780000D02*
X227300000Y-310700000D01*
X252210000Y-255190000D02*
X242210000Y-265190000D01*
X46700000Y-218500000D02*
X46500000Y-218300000D01*
X31740000Y-218605000D02*
X31890000Y-218755000D01*
X47571987Y-237475500D02*
X48415000Y-236632487D01*
X227300000Y-310700000D02*
X226400000Y-309800000D01*
X32000000Y-218000000D02*
X31740000Y-218260000D01*
X227210000Y-308990000D02*
X227210000Y-305190000D01*
X47000000Y-237475500D02*
X47571987Y-237475500D01*
X46500000Y-218000000D02*
X32000000Y-218000000D01*
X226400000Y-309800000D02*
X227210000Y-308990000D01*
X239710000Y-325190000D02*
X227300000Y-312780000D01*
X242210000Y-265190000D02*
X242210000Y-280190000D01*
X290900000Y-231040000D02*
X290900000Y-237110000D01*
X290900000Y-237110000D02*
X285360000Y-242650000D01*
X280860000Y-260460000D02*
X280860000Y-262650000D01*
X286900000Y-238800000D02*
X285600000Y-240100000D01*
X286900000Y-231040000D02*
X286900000Y-238800000D01*
X280400000Y-240100000D02*
X280400000Y-260000000D01*
X280400000Y-260000000D02*
X280860000Y-260460000D01*
X285600000Y-240100000D02*
X280400000Y-240100000D01*
X275900000Y-280190000D02*
X278360000Y-282650000D01*
X275900000Y-260100000D02*
X275900000Y-280190000D01*
X279950000Y-239850000D02*
X279950000Y-260100000D01*
X282900000Y-236900000D02*
X279950000Y-239850000D01*
X279950000Y-260100000D02*
X275900000Y-260100000D01*
X282900000Y-231040000D02*
X282900000Y-236900000D01*
X278900000Y-259650000D02*
X275713604Y-259650000D01*
X275713604Y-259650000D02*
X275450000Y-259913604D01*
X275450000Y-279800000D02*
X275050000Y-280200000D01*
X278900000Y-231040000D02*
X278900000Y-259650000D01*
X273360000Y-280360000D02*
X273360000Y-302650000D01*
X275450000Y-259913604D02*
X275450000Y-279800000D01*
X275050000Y-280200000D02*
X273200000Y-280200000D01*
X273200000Y-280200000D02*
X273360000Y-280360000D01*
X274900000Y-231040000D02*
X278450000Y-234590000D01*
X274650000Y-279750000D02*
X273013604Y-279750000D01*
X268200000Y-316100000D02*
X270000000Y-317900000D01*
X272700000Y-295800000D02*
X268200000Y-300300000D01*
X278450000Y-259200000D02*
X275527208Y-259200000D01*
X275000000Y-259727208D02*
X275000000Y-279400000D01*
X272700000Y-280063604D02*
X272700000Y-295800000D01*
X273013604Y-279750000D02*
X272700000Y-280063604D01*
X278450000Y-234590000D02*
X278450000Y-259200000D01*
X275527208Y-259200000D02*
X275000000Y-259727208D01*
X275000000Y-279400000D02*
X274650000Y-279750000D01*
X270000000Y-317900000D02*
X282800000Y-317900000D01*
X282860000Y-317960000D02*
X282860000Y-322650000D01*
X282800000Y-317900000D02*
X282860000Y-317960000D01*
X268200000Y-300300000D02*
X268200000Y-316100000D01*
X270900000Y-231040000D02*
X270900000Y-237610000D01*
X270900000Y-237610000D02*
X265860000Y-242650000D01*
X266900000Y-231040000D02*
X266900000Y-234200000D01*
X258350000Y-262650000D02*
X255860000Y-262650000D01*
X260800000Y-260200000D02*
X258350000Y-262650000D01*
X266900000Y-234200000D02*
X260800000Y-240300000D01*
X260800000Y-240300000D02*
X260800000Y-260200000D01*
X250860000Y-260440000D02*
X250860000Y-282650000D01*
X260100000Y-259900000D02*
X259700000Y-260300000D01*
X260100000Y-240363604D02*
X260100000Y-259900000D01*
X262900000Y-237563604D02*
X260100000Y-240363604D01*
X259700000Y-260300000D02*
X251000000Y-260300000D01*
X262900000Y-231040000D02*
X262900000Y-237563604D01*
X251000000Y-260300000D02*
X250860000Y-260440000D01*
X245100000Y-300600000D02*
X243050000Y-302650000D01*
X251063604Y-259600000D02*
X250200000Y-260463604D01*
X258900000Y-231040000D02*
X258900000Y-256500000D01*
X243050000Y-302650000D02*
X240860000Y-302650000D01*
X245100000Y-280100000D02*
X245100000Y-300600000D01*
X258900000Y-256500000D02*
X255800000Y-259600000D01*
X250200000Y-260463604D02*
X250200000Y-280100000D01*
X255800000Y-259600000D02*
X251063604Y-259600000D01*
X250200000Y-280100000D02*
X245100000Y-280100000D01*
X244963604Y-279600000D02*
X244600000Y-279963604D01*
X255631802Y-259131802D02*
X250895406Y-259131802D01*
X258300000Y-256463604D02*
X255631802Y-259131802D01*
X244600000Y-279963604D02*
X244600000Y-298700000D01*
X237900000Y-316800000D02*
X252510000Y-316800000D01*
X235400000Y-314300000D02*
X237900000Y-316800000D01*
X235400000Y-300300000D02*
X235400000Y-314300000D01*
X244500000Y-298800000D02*
X236900000Y-298800000D01*
X258300000Y-238000000D02*
X258300000Y-256463604D01*
X249700000Y-260327208D02*
X249700000Y-279500000D01*
X249600000Y-279600000D02*
X244963604Y-279600000D01*
X250895406Y-259131802D02*
X249700000Y-260327208D01*
X244600000Y-298700000D02*
X244500000Y-298800000D01*
X249700000Y-279500000D02*
X249600000Y-279600000D01*
X254900000Y-231040000D02*
X254900000Y-234600000D01*
X254900000Y-234600000D02*
X258300000Y-238000000D01*
X252510000Y-316800000D02*
X258360000Y-322650000D01*
X236900000Y-298800000D02*
X235400000Y-300300000D01*
X250900000Y-231040000D02*
X250900000Y-237610000D01*
X250900000Y-237610000D02*
X245860000Y-242650000D01*
X246900000Y-231040000D02*
X246900000Y-234100000D01*
X238050000Y-262650000D02*
X235860000Y-262650000D01*
X246900000Y-234100000D02*
X240700000Y-240300000D01*
X240700000Y-240300000D02*
X240700000Y-260000000D01*
X240700000Y-260000000D02*
X238050000Y-262650000D01*
X239800000Y-240300000D02*
X239800000Y-258400000D01*
X230860000Y-258860000D02*
X230860000Y-282650000D01*
X231020000Y-258700000D02*
X230860000Y-258860000D01*
X239500000Y-258700000D02*
X231020000Y-258700000D01*
X242900000Y-231040000D02*
X242900000Y-237200000D01*
X239800000Y-258400000D02*
X239500000Y-258700000D01*
X242900000Y-237200000D02*
X239800000Y-240300000D01*
X225500000Y-280000000D02*
X225500000Y-300300000D01*
X230800000Y-258200000D02*
X230200000Y-258800000D01*
X225500000Y-300300000D02*
X223150000Y-302650000D01*
X238900000Y-257600000D02*
X238300000Y-258200000D01*
X229900000Y-280000000D02*
X225500000Y-280000000D01*
X238900000Y-231040000D02*
X238900000Y-257600000D01*
X230200000Y-279700000D02*
X229900000Y-280000000D01*
X230200000Y-258800000D02*
X230200000Y-279700000D01*
X223150000Y-302650000D02*
X220860000Y-302650000D01*
X238300000Y-258200000D02*
X230800000Y-258200000D01*
X225000000Y-279863604D02*
X225000000Y-297400000D01*
X229600000Y-275263604D02*
X225000000Y-279863604D01*
X234900000Y-231040000D02*
X238450000Y-234590000D01*
X215800000Y-300400000D02*
X215800000Y-315600000D01*
X222850000Y-322650000D02*
X233360000Y-322650000D01*
X215800000Y-315600000D02*
X222850000Y-322650000D01*
X229600000Y-258763604D02*
X229600000Y-275263604D01*
X238450000Y-257250000D02*
X237950000Y-257750000D01*
X237950000Y-257750000D02*
X230613604Y-257750000D01*
X216100000Y-300100000D02*
X215800000Y-300400000D01*
X230613604Y-257750000D02*
X229600000Y-258763604D01*
X222300000Y-300100000D02*
X216100000Y-300100000D01*
X238450000Y-234590000D02*
X238450000Y-257250000D01*
X225000000Y-297400000D02*
X222300000Y-300100000D01*
X230900000Y-231040000D02*
X230900000Y-237610000D01*
X230900000Y-237610000D02*
X225860000Y-242650000D01*
X220700000Y-259700000D02*
X217750000Y-262650000D01*
X226900000Y-231040000D02*
X220700000Y-237240000D01*
X217750000Y-262650000D02*
X215860000Y-262650000D01*
X220700000Y-237240000D02*
X220700000Y-259700000D01*
X210860000Y-260540000D02*
X210860000Y-282650000D01*
X219900000Y-237400000D02*
X219900000Y-259300000D01*
X222900000Y-231040000D02*
X222900000Y-234400000D01*
X222900000Y-234400000D02*
X219900000Y-237400000D01*
X211100000Y-260300000D02*
X210860000Y-260540000D01*
X218900000Y-260300000D02*
X211100000Y-260300000D01*
X219900000Y-259300000D02*
X218900000Y-260300000D01*
X218900000Y-257100000D02*
X216500000Y-259500000D01*
X206100000Y-280600000D02*
X205900000Y-280800000D01*
X218900000Y-231040000D02*
X218900000Y-257100000D01*
X205900000Y-280800000D02*
X205900000Y-299200000D01*
X209400000Y-280600000D02*
X206100000Y-280600000D01*
X211263604Y-259500000D02*
X210400000Y-260363604D01*
X205900000Y-299200000D02*
X204310000Y-299200000D01*
X204310000Y-299200000D02*
X200860000Y-302650000D01*
X216500000Y-259500000D02*
X211263604Y-259500000D01*
X210400000Y-279600000D02*
X209400000Y-280600000D01*
X210400000Y-260363604D02*
X210400000Y-279600000D01*
X214900000Y-233610000D02*
X205860000Y-242650000D01*
X214900000Y-231040000D02*
X214900000Y-233610000D01*
X200900000Y-260500000D02*
X198750000Y-262650000D01*
X204900000Y-240300000D02*
X200900000Y-240300000D01*
X210900000Y-231040000D02*
X210900000Y-234300000D01*
X198750000Y-262650000D02*
X195860000Y-262650000D01*
X200900000Y-240300000D02*
X200900000Y-260500000D01*
X210900000Y-234300000D02*
X204900000Y-240300000D01*
X206900000Y-231040000D02*
X206900000Y-235100000D01*
X200400000Y-258500000D02*
X200300000Y-258600000D01*
X200400000Y-240163604D02*
X200400000Y-258500000D01*
X202200000Y-239800000D02*
X200763604Y-239800000D01*
X190860000Y-260440000D02*
X190860000Y-282650000D01*
X200300000Y-258600000D02*
X192700000Y-258600000D01*
X200763604Y-239800000D02*
X200400000Y-240163604D01*
X206900000Y-235100000D02*
X202200000Y-239800000D01*
X192700000Y-258600000D02*
X190860000Y-260440000D01*
X185500000Y-300400000D02*
X183250000Y-302650000D01*
X190300000Y-260363604D02*
X190300000Y-278800000D01*
X183250000Y-302650000D02*
X180860000Y-302650000D01*
X190300000Y-278800000D02*
X188900000Y-280200000D01*
X199800000Y-257700000D02*
X192963604Y-257700000D01*
X202900000Y-231040000D02*
X202900000Y-236800000D01*
X188900000Y-280200000D02*
X185800000Y-280200000D01*
X199800000Y-239900000D02*
X199800000Y-257700000D01*
X202900000Y-236800000D02*
X199800000Y-239900000D01*
X185800000Y-280200000D02*
X185500000Y-280500000D01*
X192963604Y-257700000D02*
X190300000Y-260363604D01*
X185500000Y-280500000D02*
X185500000Y-300400000D01*
X198900000Y-255300000D02*
X197500000Y-256700000D01*
X174700000Y-317700000D02*
X169750000Y-322650000D01*
X169750000Y-322650000D02*
X160860000Y-322650000D01*
X198900000Y-231040000D02*
X198900000Y-255300000D01*
X189850000Y-260177208D02*
X189850000Y-278350000D01*
X185663604Y-279700000D02*
X185000000Y-280363604D01*
X189850000Y-278350000D02*
X188500000Y-279700000D01*
X185000000Y-294100000D02*
X180000000Y-299100000D01*
X197500000Y-256700000D02*
X193327208Y-256700000D01*
X180000000Y-299100000D02*
X175600000Y-299100000D01*
X175600000Y-299100000D02*
X174700000Y-300000000D01*
X188500000Y-279700000D02*
X185663604Y-279700000D01*
X193327208Y-256700000D02*
X189850000Y-260177208D01*
X174700000Y-300000000D02*
X174700000Y-317700000D01*
X185000000Y-280363604D02*
X185000000Y-294100000D01*
X194900000Y-231040000D02*
X194900000Y-233610000D01*
X194900000Y-233610000D02*
X185860000Y-242650000D01*
X190900000Y-231040000D02*
X190900000Y-235000000D01*
X178650000Y-262650000D02*
X175860000Y-262650000D01*
X185700000Y-240200000D02*
X180500000Y-240200000D01*
X180500000Y-240200000D02*
X180500000Y-260800000D01*
X180500000Y-260800000D02*
X178650000Y-262650000D01*
X190900000Y-235000000D02*
X185700000Y-240200000D01*
X181800000Y-239700000D02*
X180363604Y-239700000D01*
X186900000Y-234600000D02*
X181800000Y-239700000D01*
X180050000Y-260100000D02*
X170700000Y-260100000D01*
X170860000Y-280460000D02*
X170860000Y-282650000D01*
X180363604Y-239700000D02*
X180050000Y-240013604D01*
X170700000Y-260100000D02*
X170700000Y-280300000D01*
X186900000Y-231040000D02*
X186900000Y-234600000D01*
X180050000Y-240013604D02*
X180050000Y-260100000D01*
X170700000Y-280300000D02*
X170860000Y-280460000D01*
X170250000Y-280000000D02*
X170050000Y-280200000D01*
X165400000Y-280200000D02*
X165300000Y-280300000D01*
X165300000Y-301900000D02*
X164550000Y-302650000D01*
X182900000Y-231040000D02*
X182900000Y-236500000D01*
X170513604Y-259650000D02*
X170250000Y-259913604D01*
X182900000Y-236500000D02*
X179600000Y-239800000D01*
X179600000Y-239800000D02*
X179600000Y-258900000D01*
X170250000Y-259913604D02*
X170250000Y-280000000D01*
X178850000Y-259650000D02*
X170513604Y-259650000D01*
X164550000Y-302650000D02*
X160860000Y-302650000D01*
X170050000Y-280200000D02*
X165400000Y-280200000D01*
X165300000Y-280300000D02*
X165300000Y-301900000D01*
X179600000Y-258900000D02*
X178850000Y-259650000D01*
X171650000Y-242650000D02*
X165860000Y-242650000D01*
X178900000Y-231040000D02*
X178900000Y-235400000D01*
X178900000Y-235400000D02*
X171650000Y-242650000D01*
X174900000Y-231040000D02*
X174900000Y-234800000D01*
X160800000Y-262200000D02*
X160350000Y-262650000D01*
X160350000Y-262650000D02*
X155860000Y-262650000D01*
X174900000Y-234800000D02*
X169400000Y-240300000D01*
X160800000Y-240300000D02*
X160800000Y-262200000D01*
X169400000Y-240300000D02*
X160800000Y-240300000D01*
X160763604Y-239700000D02*
X160300000Y-240163604D01*
X159700000Y-260000000D02*
X150800000Y-260000000D01*
X170900000Y-231040000D02*
X170900000Y-235300000D01*
X170900000Y-235300000D02*
X166500000Y-239700000D01*
X160300000Y-259400000D02*
X159700000Y-260000000D01*
X160300000Y-240163604D02*
X160300000Y-259400000D01*
X166500000Y-239700000D02*
X160763604Y-239700000D01*
X150800000Y-260000000D02*
X150860000Y-260060000D01*
X150860000Y-260060000D02*
X150860000Y-282650000D01*
X143150000Y-302650000D02*
X140860000Y-302650000D01*
X149900000Y-279900000D02*
X145600000Y-279900000D01*
X150000000Y-260163604D02*
X150000000Y-279800000D01*
X145600000Y-300200000D02*
X143150000Y-302650000D01*
X159800000Y-256800000D02*
X157050000Y-259550000D01*
X157050000Y-259550000D02*
X150613604Y-259550000D01*
X164300000Y-238800000D02*
X161027208Y-238800000D01*
X150000000Y-279800000D02*
X149900000Y-279900000D01*
X161027208Y-238800000D02*
X159800000Y-240027208D01*
X166900000Y-236200000D02*
X164300000Y-238800000D01*
X166900000Y-231040000D02*
X166900000Y-236200000D01*
X159800000Y-240027208D02*
X159800000Y-256800000D01*
X150613604Y-259550000D02*
X150000000Y-260163604D01*
X145600000Y-279900000D02*
X145600000Y-300200000D01*
X151290000Y-242650000D02*
X145860000Y-242650000D01*
X162900000Y-231040000D02*
X151290000Y-242650000D01*
X140000000Y-242200000D02*
X140000000Y-260200000D01*
X142800000Y-239400000D02*
X140000000Y-242200000D01*
X140000000Y-260200000D02*
X138310000Y-260200000D01*
X150540000Y-239400000D02*
X142800000Y-239400000D01*
X158900000Y-231040000D02*
X150540000Y-239400000D01*
X138310000Y-260200000D02*
X135860000Y-262650000D01*
X130700000Y-260600000D02*
X130860000Y-260760000D01*
X154900000Y-231040000D02*
X154900000Y-234000000D01*
X131600000Y-259700000D02*
X130700000Y-260600000D01*
X142663604Y-238900000D02*
X139550000Y-242013604D01*
X130860000Y-260760000D02*
X130860000Y-282650000D01*
X139550000Y-242013604D02*
X139550000Y-259200000D01*
X154900000Y-234000000D02*
X150000000Y-238900000D01*
X150000000Y-238900000D02*
X142663604Y-238900000D01*
X139550000Y-259200000D02*
X139050000Y-259700000D01*
X139050000Y-259700000D02*
X131600000Y-259700000D01*
X125400000Y-280400000D02*
X125400000Y-300600000D01*
X138200000Y-259200000D02*
X130700000Y-259200000D01*
X129900000Y-260000000D02*
X129900000Y-280200000D01*
X138700000Y-242200000D02*
X138700000Y-258700000D01*
X148700000Y-238300000D02*
X142600000Y-238300000D01*
X130700000Y-259200000D02*
X129900000Y-260000000D01*
X129900000Y-280200000D02*
X125600000Y-280200000D01*
X150900000Y-231040000D02*
X150900000Y-236100000D01*
X123350000Y-302650000D02*
X120860000Y-302650000D01*
X150900000Y-236100000D02*
X148700000Y-238300000D01*
X125600000Y-280200000D02*
X125400000Y-280400000D01*
X125400000Y-300600000D02*
X123350000Y-302650000D01*
X138700000Y-258700000D02*
X138200000Y-259200000D01*
X142600000Y-238300000D02*
X138700000Y-242200000D01*
X124200000Y-299200000D02*
X124000000Y-299400000D01*
X127300000Y-279700000D02*
X125100000Y-279700000D01*
X146900000Y-231040000D02*
X146900000Y-233100000D01*
X125100000Y-279700000D02*
X124200000Y-280600000D01*
X97700000Y-317600000D02*
X92650000Y-322650000D01*
X138200000Y-258200000D02*
X137800000Y-258600000D01*
X112900000Y-317600000D02*
X97700000Y-317600000D01*
X146900000Y-233100000D02*
X138200000Y-241800000D01*
X124200000Y-280600000D02*
X124200000Y-299200000D01*
X115300000Y-299400000D02*
X114500000Y-300200000D01*
X114500000Y-316000000D02*
X112900000Y-317600000D01*
X138200000Y-241800000D02*
X138200000Y-258200000D01*
X129300000Y-259300000D02*
X129300000Y-277700000D01*
X137800000Y-258600000D02*
X130000000Y-258600000D01*
X92650000Y-322650000D02*
X88360000Y-322650000D01*
X124000000Y-299400000D02*
X115300000Y-299400000D01*
X114500000Y-300200000D02*
X114500000Y-316000000D01*
X129300000Y-277700000D02*
X127300000Y-279700000D01*
X130000000Y-258600000D02*
X129300000Y-259300000D01*
X142900000Y-233100000D02*
X133350000Y-242650000D01*
X133350000Y-242650000D02*
X125860000Y-242650000D01*
X142900000Y-231040000D02*
X142900000Y-233100000D01*
X138900000Y-232700000D02*
X131400000Y-240200000D01*
X138900000Y-231040000D02*
X138900000Y-232700000D01*
X131400000Y-240200000D02*
X120500000Y-240200000D01*
X120500000Y-240200000D02*
X120500000Y-260400000D01*
X120500000Y-260400000D02*
X118250000Y-262650000D01*
X118250000Y-262650000D02*
X115860000Y-262650000D01*
X131300000Y-239100000D02*
X119700000Y-239100000D01*
X118900000Y-260200000D02*
X110500000Y-260200000D01*
X119200000Y-239600000D02*
X119200000Y-259900000D01*
X134900000Y-235500000D02*
X131300000Y-239100000D01*
X110500000Y-260200000D02*
X110860000Y-260560000D01*
X134900000Y-231040000D02*
X134900000Y-235500000D01*
X119700000Y-239100000D02*
X119200000Y-239600000D01*
X119200000Y-259900000D02*
X118900000Y-260200000D01*
X110860000Y-260560000D02*
X110860000Y-282650000D01*
X110363604Y-259700000D02*
X109800000Y-260263604D01*
X109800000Y-279100000D02*
X108500000Y-280400000D01*
X130500000Y-237900000D02*
X119500000Y-237900000D01*
X130900000Y-231040000D02*
X130900000Y-237500000D01*
X117900000Y-259700000D02*
X110363604Y-259700000D01*
X130900000Y-237500000D02*
X130500000Y-237900000D01*
X118400000Y-259200000D02*
X117900000Y-259700000D01*
X119500000Y-237900000D02*
X118400000Y-239000000D01*
X109800000Y-260263604D02*
X109800000Y-279100000D01*
X118400000Y-239000000D02*
X118400000Y-259200000D01*
X105800000Y-297900000D02*
X105610000Y-297900000D01*
X105800000Y-280400000D02*
X105800000Y-297900000D01*
X105610000Y-297900000D02*
X100860000Y-302650000D01*
X108500000Y-280400000D02*
X105800000Y-280400000D01*
X93700000Y-314300000D02*
X88800000Y-319200000D01*
X102300000Y-298200000D02*
X95000000Y-298200000D01*
X81430000Y-322670000D02*
X62250000Y-322670000D01*
X107600000Y-259000000D02*
X107500000Y-259100000D01*
X126900000Y-234500000D02*
X124100000Y-237300000D01*
X117300000Y-258600000D02*
X116900000Y-259000000D01*
X107500000Y-279400000D02*
X107100000Y-279800000D01*
X102900000Y-280800000D02*
X102900000Y-297600000D01*
X126900000Y-231040000D02*
X126900000Y-234500000D01*
X107100000Y-279800000D02*
X103900000Y-279800000D01*
X95000000Y-298200000D02*
X93700000Y-299500000D01*
X117300000Y-237800000D02*
X117300000Y-258600000D01*
X103900000Y-279800000D02*
X102900000Y-280800000D01*
X102900000Y-297600000D02*
X102300000Y-298200000D01*
X88800000Y-319200000D02*
X84900000Y-319200000D01*
X107500000Y-259100000D02*
X107500000Y-279400000D01*
X116900000Y-259000000D02*
X107600000Y-259000000D01*
X84900000Y-319200000D02*
X81430000Y-322670000D01*
X124100000Y-237300000D02*
X117800000Y-237300000D01*
X117800000Y-237300000D02*
X117300000Y-237800000D01*
X93700000Y-299500000D02*
X93700000Y-314300000D01*
X105860000Y-240540000D02*
X105860000Y-242650000D01*
X110100000Y-236300000D02*
X105860000Y-240540000D01*
X122900000Y-234800000D02*
X121400000Y-236300000D01*
X121400000Y-236300000D02*
X110100000Y-236300000D01*
X122900000Y-231040000D02*
X122900000Y-234800000D01*
X117400000Y-235600000D02*
X108800000Y-235600000D01*
X104300000Y-240100000D02*
X100900000Y-240100000D01*
X108800000Y-235600000D02*
X104300000Y-240100000D01*
X100900000Y-240100000D02*
X100900000Y-255600000D01*
X100900000Y-255600000D02*
X95860000Y-260640000D01*
X95860000Y-260640000D02*
X95860000Y-262650000D01*
X118900000Y-234100000D02*
X117400000Y-235600000D01*
X118900000Y-231040000D02*
X118900000Y-234100000D01*
X108613604Y-235150000D02*
X104113604Y-239650000D01*
X100713604Y-239650000D02*
X100450000Y-239913604D01*
X114500000Y-235150000D02*
X108613604Y-235150000D01*
X90800000Y-279600000D02*
X90860000Y-279660000D01*
X91100000Y-260400000D02*
X90800000Y-260700000D01*
X100450000Y-255413604D02*
X95463604Y-260400000D01*
X114900000Y-234750000D02*
X114500000Y-235150000D01*
X95463604Y-260400000D02*
X91100000Y-260400000D01*
X90800000Y-260700000D02*
X90800000Y-279600000D01*
X114900000Y-231040000D02*
X114900000Y-234750000D01*
X90860000Y-279660000D02*
X90860000Y-282650000D01*
X100450000Y-239913604D02*
X100450000Y-255413604D01*
X104113604Y-239650000D02*
X100713604Y-239650000D01*
X86000000Y-280300000D02*
X85800000Y-280500000D01*
X103927208Y-239200000D02*
X100527208Y-239200000D01*
X110900000Y-231040000D02*
X110900000Y-233700000D01*
X91000000Y-259863604D02*
X90350000Y-260513604D01*
X109900000Y-234700000D02*
X108427208Y-234700000D01*
X110900000Y-233700000D02*
X109900000Y-234700000D01*
X90350000Y-280150000D02*
X90200000Y-280300000D01*
X95363604Y-259863604D02*
X91000000Y-259863604D01*
X85800000Y-280500000D02*
X85800000Y-297710000D01*
X100000000Y-239727208D02*
X100000000Y-255227208D01*
X108427208Y-234700000D02*
X103927208Y-239200000D01*
X90350000Y-260513604D02*
X90350000Y-280150000D01*
X85800000Y-297710000D02*
X80860000Y-302650000D01*
X100527208Y-239200000D02*
X100000000Y-239727208D01*
X100000000Y-255227208D02*
X95363604Y-259863604D01*
X90200000Y-280300000D02*
X86000000Y-280300000D01*
X73900000Y-319800000D02*
X73900000Y-320000000D01*
X73900000Y-320000000D02*
X73800000Y-320100000D01*
X73800000Y-320100000D02*
X52663604Y-320100000D01*
X106900000Y-235590812D02*
X103745406Y-238745406D01*
X50053604Y-322710000D02*
X35810000Y-322710000D01*
X85200000Y-296200000D02*
X82700000Y-298700000D01*
X99500000Y-255090812D02*
X95177208Y-259413604D01*
X89700000Y-260500000D02*
X89700000Y-277000000D01*
X85200000Y-280463604D02*
X85200000Y-296200000D01*
X75600000Y-318100000D02*
X73900000Y-319800000D01*
X89700000Y-277000000D02*
X86900000Y-279800000D01*
X103745406Y-238745406D02*
X100345406Y-238745406D01*
X106900000Y-231040000D02*
X106900000Y-235590812D01*
X100345406Y-238745406D02*
X99500000Y-239590812D01*
X52663604Y-320100000D02*
X50053604Y-322710000D01*
X95177208Y-259413604D02*
X90786396Y-259413604D01*
X85863604Y-279800000D02*
X85200000Y-280463604D01*
X99500000Y-239590812D02*
X99500000Y-255090812D01*
X82700000Y-298700000D02*
X76000000Y-298700000D01*
X86900000Y-279800000D02*
X85863604Y-279800000D01*
X90786396Y-259413604D02*
X89700000Y-260500000D01*
X76000000Y-298700000D02*
X75600000Y-299100000D01*
X75600000Y-299100000D02*
X75600000Y-318100000D01*
X102900000Y-236200000D02*
X100900000Y-238200000D01*
X89900000Y-238200000D02*
X89900000Y-238610000D01*
X102900000Y-231040000D02*
X102900000Y-236200000D01*
X100900000Y-238200000D02*
X89900000Y-238200000D01*
X89900000Y-238610000D02*
X85860000Y-242650000D01*
X80800000Y-240300000D02*
X80800000Y-259000000D01*
X79510000Y-259000000D02*
X75860000Y-262650000D01*
X98900000Y-234400000D02*
X95800000Y-237500000D01*
X80800000Y-259000000D02*
X79510000Y-259000000D01*
X95800000Y-237500000D02*
X83600000Y-237500000D01*
X98900000Y-231040000D02*
X98900000Y-234400000D01*
X83600000Y-237500000D02*
X80800000Y-240300000D01*
X76500000Y-258500000D02*
X74900000Y-260100000D01*
X70860000Y-280160000D02*
X70860000Y-282650000D01*
X74900000Y-260100000D02*
X70000000Y-260100000D01*
X94900000Y-231040000D02*
X94900000Y-233800000D01*
X91700000Y-237000000D02*
X83300000Y-237000000D01*
X69900000Y-279200000D02*
X70860000Y-280160000D01*
X79900000Y-258500000D02*
X76500000Y-258500000D01*
X70000000Y-260100000D02*
X69900000Y-260200000D01*
X83300000Y-237000000D02*
X80200000Y-240100000D01*
X94900000Y-233800000D02*
X91700000Y-237000000D01*
X80200000Y-240100000D02*
X80200000Y-258200000D01*
X80200000Y-258200000D02*
X79900000Y-258500000D01*
X69900000Y-260200000D02*
X69900000Y-279200000D01*
X90900000Y-233300000D02*
X87700000Y-236500000D01*
X74400000Y-259650000D02*
X69813604Y-259650000D01*
X69450000Y-260013604D02*
X69450000Y-279050000D01*
X69450000Y-279050000D02*
X68400000Y-280100000D01*
X69813604Y-259650000D02*
X69450000Y-260013604D01*
X65900000Y-280100000D02*
X65800000Y-280200000D01*
X79700000Y-257800000D02*
X79450000Y-258050000D01*
X90900000Y-231040000D02*
X90900000Y-233300000D01*
X65800000Y-280200000D02*
X65800000Y-301400000D01*
X79450000Y-258050000D02*
X76000000Y-258050000D01*
X65800000Y-301400000D02*
X64550000Y-302650000D01*
X68400000Y-280100000D02*
X65900000Y-280100000D01*
X79700000Y-239800000D02*
X79700000Y-257800000D01*
X76000000Y-258050000D02*
X74400000Y-259650000D01*
X87700000Y-236500000D02*
X83000000Y-236500000D01*
X64550000Y-302650000D02*
X60860000Y-302650000D01*
X83000000Y-236500000D02*
X79700000Y-239800000D01*
X30800000Y-317500000D02*
X25680000Y-322620000D01*
X68100000Y-276700000D02*
X62900000Y-281900000D01*
X77500000Y-256900000D02*
X76800000Y-257600000D01*
X53900000Y-299400000D02*
X52900000Y-300400000D01*
X62900000Y-297900000D02*
X61400000Y-299400000D01*
X82536396Y-235400000D02*
X77500000Y-240436396D01*
X68100000Y-258600000D02*
X68100000Y-276700000D01*
X69100000Y-257600000D02*
X68100000Y-258600000D01*
X61400000Y-299400000D02*
X53900000Y-299400000D01*
X25680000Y-322620000D02*
X8950000Y-322620000D01*
X83500000Y-235400000D02*
X82536396Y-235400000D01*
X52900000Y-317300000D02*
X52700000Y-317500000D01*
X76800000Y-257600000D02*
X69100000Y-257600000D01*
X86900000Y-231040000D02*
X83500000Y-234440000D01*
X62900000Y-281900000D02*
X62900000Y-297900000D01*
X77500000Y-240436396D02*
X77500000Y-256900000D01*
X52700000Y-317500000D02*
X30800000Y-317500000D01*
X52900000Y-300400000D02*
X52900000Y-317300000D01*
X83500000Y-234440000D02*
X83500000Y-235400000D01*
X68410000Y-240100000D02*
X65860000Y-242650000D01*
X77200000Y-240100000D02*
X68410000Y-240100000D01*
X82900000Y-231040000D02*
X82900000Y-234400000D01*
X82900000Y-234400000D02*
X77200000Y-240100000D01*
X52050000Y-242650000D02*
X45860000Y-242650000D01*
X70900000Y-235900000D02*
X68600000Y-238200000D01*
X70900000Y-231040000D02*
X70900000Y-235900000D01*
X68600000Y-238200000D02*
X56500000Y-238200000D01*
X56500000Y-238200000D02*
X52050000Y-242650000D01*
X39700000Y-259700000D02*
X38810000Y-259700000D01*
X52900000Y-240500000D02*
X40600000Y-240500000D01*
X55800000Y-237600000D02*
X52900000Y-240500000D01*
X38810000Y-259700000D02*
X35860000Y-262650000D01*
X40600000Y-240500000D02*
X39700000Y-241400000D01*
X66900000Y-231040000D02*
X66900000Y-235100000D01*
X39700000Y-241400000D02*
X39700000Y-259700000D01*
X66900000Y-235100000D02*
X64400000Y-237600000D01*
X64400000Y-237600000D02*
X55800000Y-237600000D01*
X55200000Y-237100000D02*
X55100000Y-237000000D01*
X36700000Y-242900000D02*
X36700000Y-243100000D01*
X52300000Y-239800000D02*
X52300000Y-240050000D01*
X36230000Y-242630000D02*
X16260000Y-242630000D01*
X39600000Y-240000000D02*
X36700000Y-242900000D01*
X39650000Y-240050000D02*
X39600000Y-240000000D01*
X52300000Y-240050000D02*
X39650000Y-240050000D01*
X61800000Y-237100000D02*
X55200000Y-237100000D01*
X62900000Y-236000000D02*
X61800000Y-237100000D01*
X55100000Y-237000000D02*
X52300000Y-239800000D01*
X36700000Y-243100000D02*
X36230000Y-242630000D01*
X62900000Y-231040000D02*
X62900000Y-236000000D01*
X38500000Y-239300000D02*
X35900000Y-241900000D01*
X10400000Y-239900000D02*
X10300000Y-240000000D01*
X35900000Y-241900000D02*
X27600000Y-241900000D01*
X54200000Y-236000000D02*
X51600000Y-238600000D01*
X58900000Y-231040000D02*
X58900000Y-232900000D01*
X25600000Y-239900000D02*
X10400000Y-239900000D01*
X51600000Y-238600000D02*
X51600000Y-238700000D01*
X55800000Y-236000000D02*
X54200000Y-236000000D01*
X10300000Y-249500000D02*
X11250000Y-250450000D01*
X27600000Y-241900000D02*
X25600000Y-239900000D01*
X51600000Y-238700000D02*
X51000000Y-239300000D01*
X51000000Y-239300000D02*
X38500000Y-239300000D01*
X10300000Y-240000000D02*
X10300000Y-249500000D01*
X58900000Y-232900000D02*
X55800000Y-236000000D01*
X11250000Y-250450000D02*
X11250000Y-262630000D01*
X6750000Y-282650000D02*
X18360000Y-282650000D01*
X8300000Y-242400000D02*
X5800000Y-242400000D01*
X5800000Y-281700000D02*
X6750000Y-282650000D01*
X9600000Y-238600000D02*
X9600000Y-241100000D01*
X5800000Y-242400000D02*
X5800000Y-281700000D01*
X50600000Y-238600000D02*
X9600000Y-238600000D01*
X54900000Y-234300000D02*
X50600000Y-238600000D01*
X9600000Y-241100000D02*
X8300000Y-242400000D01*
X54900000Y-231040000D02*
X54900000Y-234300000D01*
X49000000Y-238100000D02*
X2100000Y-238100000D01*
X2100000Y-238100000D02*
X2100000Y-281530000D01*
X50900000Y-231040000D02*
X50900000Y-236200000D01*
X50900000Y-236200000D02*
X49000000Y-238100000D01*
X2100000Y-281530000D02*
X23200000Y-302630000D01*
X60100000Y-239900000D02*
X60100000Y-260200000D01*
X60100000Y-260200000D02*
X57650000Y-262650000D01*
X78900000Y-231040000D02*
X78900000Y-235100000D01*
X74400000Y-239600000D02*
X60400000Y-239600000D01*
X60400000Y-239600000D02*
X60100000Y-239900000D01*
X78900000Y-235100000D02*
X74400000Y-239600000D01*
X57650000Y-262650000D02*
X55860000Y-262650000D01*
X71900000Y-238900000D02*
X59500000Y-238900000D01*
X59300000Y-239100000D02*
X59300000Y-260000000D01*
X59300000Y-260000000D02*
X58900000Y-260400000D01*
X74900000Y-235900000D02*
X71900000Y-238900000D01*
X74900000Y-231040000D02*
X74900000Y-235900000D01*
X50860000Y-260840000D02*
X50860000Y-282650000D01*
X51300000Y-260400000D02*
X50860000Y-260840000D01*
X59500000Y-238900000D02*
X59300000Y-239100000D01*
X58900000Y-260400000D02*
X51300000Y-260400000D01*
M02*
