%TF.GenerationSoftware,KiCad,Pcbnew,(6.0.7)*%
%TF.CreationDate,2022-09-06T07:40:20-07:00*%
%TF.ProjectId,60 Percent Keyboard Ardiuno Micro,36302050-6572-4636-956e-74204b657962,rev?*%
%TF.SameCoordinates,Original*%
%TF.FileFunction,Drillmap*%
%TF.FilePolarity,Positive*%
%FSLAX45Y45*%
G04 Gerber Fmt 4.5, Leading zero omitted, Abs format (unit mm)*
G04 Created by KiCad (PCBNEW (6.0.7)) date 2022-09-06 07:40:20*
%MOMM*%
%LPD*%
G01*
G04 APERTURE LIST*
%ADD10C,0.100000*%
%ADD11C,0.200000*%
%ADD12C,0.040000*%
%ADD13C,0.080000*%
%ADD14C,0.150000*%
G04 APERTURE END LIST*
D10*
X29790000Y-33823000D02*
X-120000Y-33823000D01*
X-120000Y-33823000D02*
X-120000Y-21400000D01*
X-120000Y-21400000D02*
X29790000Y-21400000D01*
X29790000Y-21400000D02*
X29790000Y-33823000D01*
D11*
D12*
X127550Y-24470000D02*
X167550Y-24510000D01*
X167550Y-24470000D02*
X127550Y-24510000D01*
X260000Y-24600000D02*
X300000Y-24640000D01*
X300000Y-24600000D02*
X260000Y-24640000D01*
X870000Y-23852450D02*
X910000Y-23892450D01*
X910000Y-23852450D02*
X870000Y-23892450D01*
X1090000Y-24490000D02*
X1130000Y-24530000D01*
X1130000Y-24490000D02*
X1090000Y-24530000D01*
X2250000Y-26210000D02*
X2290000Y-26250000D01*
X2290000Y-26210000D02*
X2250000Y-26250000D01*
X2470000Y-25947550D02*
X2510000Y-25987550D01*
X2510000Y-25947550D02*
X2470000Y-25987550D01*
X2560000Y-25940000D02*
X2600000Y-25980000D01*
X2600000Y-25940000D02*
X2560000Y-25980000D01*
X2590000Y-25830000D02*
X2630000Y-25870000D01*
X2630000Y-25830000D02*
X2590000Y-25870000D01*
X2770000Y-26620000D02*
X2810000Y-26660000D01*
X2810000Y-26620000D02*
X2770000Y-26660000D01*
X2890000Y-26630000D02*
X2930000Y-26670000D01*
X2930000Y-26630000D02*
X2890000Y-26670000D01*
X4680000Y-23727550D02*
X4720000Y-23767550D01*
X4720000Y-23727550D02*
X4680000Y-23767550D01*
X4865841Y-21674159D02*
X4905841Y-21714159D01*
X4905841Y-21674159D02*
X4865841Y-21714159D01*
X4890000Y-21970000D02*
X4930000Y-22010000D01*
X4930000Y-21970000D02*
X4890000Y-22010000D01*
X5070000Y-21790000D02*
X5110000Y-21830000D01*
X5110000Y-21790000D02*
X5070000Y-21830000D01*
X5470000Y-21930000D02*
X5510000Y-21970000D01*
X5510000Y-21930000D02*
X5470000Y-21970000D01*
X5870000Y-22050000D02*
X5910000Y-22090000D01*
X5910000Y-22050000D02*
X5870000Y-22090000D01*
X6270000Y-22170000D02*
X6310000Y-22210000D01*
X6310000Y-22170000D02*
X6270000Y-22210000D01*
X6670000Y-22050000D02*
X6710000Y-22090000D01*
X6710000Y-22050000D02*
X6670000Y-22090000D01*
X7070000Y-22170000D02*
X7110000Y-22210000D01*
X7110000Y-22170000D02*
X7070000Y-22210000D01*
X7470000Y-21930000D02*
X7510000Y-21970000D01*
X7510000Y-21930000D02*
X7470000Y-21970000D01*
X7870000Y-22050000D02*
X7910000Y-22090000D01*
X7910000Y-22050000D02*
X7870000Y-22090000D01*
X8270000Y-22170000D02*
X8310000Y-22210000D01*
X8310000Y-22170000D02*
X8270000Y-22210000D01*
X8670000Y-21670000D02*
X8710000Y-21710000D01*
X8710000Y-21670000D02*
X8670000Y-21710000D01*
X9070000Y-21790000D02*
X9110000Y-21830000D01*
X9110000Y-21790000D02*
X9070000Y-21830000D01*
X9470000Y-21930000D02*
X9510000Y-21970000D01*
X9510000Y-21930000D02*
X9470000Y-21970000D01*
X9870000Y-22050000D02*
X9910000Y-22090000D01*
X9910000Y-22050000D02*
X9870000Y-22090000D01*
X10270000Y-22170000D02*
X10310000Y-22210000D01*
X10310000Y-22170000D02*
X10270000Y-22210000D01*
X10670000Y-21670000D02*
X10710000Y-21710000D01*
X10710000Y-21670000D02*
X10670000Y-21710000D01*
X11070000Y-21790000D02*
X11110000Y-21830000D01*
X11110000Y-21790000D02*
X11070000Y-21830000D01*
X11470000Y-21930000D02*
X11510000Y-21970000D01*
X11510000Y-21930000D02*
X11470000Y-21970000D01*
X11870000Y-22050000D02*
X11910000Y-22090000D01*
X11910000Y-22050000D02*
X11870000Y-22090000D01*
X12270000Y-22170000D02*
X12310000Y-22210000D01*
X12310000Y-22170000D02*
X12270000Y-22210000D01*
X12570000Y-31490000D02*
X12610000Y-31530000D01*
X12610000Y-31490000D02*
X12570000Y-31530000D01*
X12570000Y-31830000D02*
X12610000Y-31870000D01*
X12610000Y-31830000D02*
X12570000Y-31870000D01*
X12670000Y-21670000D02*
X12710000Y-21710000D01*
X12710000Y-21670000D02*
X12670000Y-21710000D01*
X12730000Y-31560000D02*
X12770000Y-31600000D01*
X12770000Y-31560000D02*
X12730000Y-31600000D01*
X12730000Y-31830000D02*
X12770000Y-31870000D01*
X12770000Y-31830000D02*
X12730000Y-31870000D01*
X12860000Y-31580000D02*
X12900000Y-31620000D01*
X12900000Y-31580000D02*
X12860000Y-31620000D01*
X12860000Y-31830000D02*
X12900000Y-31870000D01*
X12900000Y-31830000D02*
X12860000Y-31870000D01*
X13070000Y-21790000D02*
X13110000Y-21830000D01*
X13110000Y-21790000D02*
X13070000Y-21830000D01*
X13470000Y-21930000D02*
X13510000Y-21970000D01*
X13510000Y-21930000D02*
X13470000Y-21970000D01*
X13870000Y-22050000D02*
X13910000Y-22090000D01*
X13910000Y-22050000D02*
X13870000Y-22090000D01*
X14270000Y-22170000D02*
X14310000Y-22210000D01*
X14310000Y-22170000D02*
X14270000Y-22210000D01*
X14670000Y-21670000D02*
X14710000Y-21710000D01*
X14710000Y-21670000D02*
X14670000Y-21710000D01*
X15070000Y-21790000D02*
X15110000Y-21830000D01*
X15110000Y-21790000D02*
X15070000Y-21830000D01*
X15470000Y-21930000D02*
X15510000Y-21970000D01*
X15510000Y-21930000D02*
X15470000Y-21970000D01*
X15870000Y-22050000D02*
X15910000Y-22090000D01*
X15910000Y-22050000D02*
X15870000Y-22090000D01*
X16270000Y-22170000D02*
X16310000Y-22210000D01*
X16310000Y-22170000D02*
X16270000Y-22210000D01*
X16670000Y-21790000D02*
X16710000Y-21830000D01*
X16710000Y-21790000D02*
X16670000Y-21830000D01*
X17070000Y-21930000D02*
X17110000Y-21970000D01*
X17110000Y-21930000D02*
X17070000Y-21970000D01*
X17470000Y-22050000D02*
X17510000Y-22090000D01*
X17510000Y-22050000D02*
X17470000Y-22090000D01*
X17870000Y-22170000D02*
X17910000Y-22210000D01*
X17910000Y-22170000D02*
X17870000Y-22210000D01*
X18270000Y-21790000D02*
X18310000Y-21830000D01*
X18310000Y-21790000D02*
X18270000Y-21830000D01*
X18670000Y-21930000D02*
X18710000Y-21970000D01*
X18710000Y-21930000D02*
X18670000Y-21970000D01*
X19070000Y-22050000D02*
X19110000Y-22090000D01*
X19110000Y-22050000D02*
X19070000Y-22090000D01*
X19470000Y-22170000D02*
X19510000Y-22210000D01*
X19510000Y-22170000D02*
X19470000Y-22210000D01*
X19870000Y-21670000D02*
X19910000Y-21710000D01*
X19910000Y-21670000D02*
X19870000Y-21710000D01*
X20270000Y-21790000D02*
X20310000Y-21830000D01*
X20310000Y-21790000D02*
X20270000Y-21830000D01*
X20670000Y-21930000D02*
X20710000Y-21970000D01*
X20710000Y-21930000D02*
X20670000Y-21970000D01*
X21070000Y-22050000D02*
X21110000Y-22090000D01*
X21110000Y-22050000D02*
X21070000Y-22090000D01*
X21470000Y-22170000D02*
X21510000Y-22210000D01*
X21510000Y-22170000D02*
X21470000Y-22210000D01*
X21870000Y-21790000D02*
X21910000Y-21830000D01*
X21910000Y-21790000D02*
X21870000Y-21830000D01*
X22270000Y-21930000D02*
X22310000Y-21970000D01*
X22310000Y-21930000D02*
X22270000Y-21970000D01*
X22670000Y-22050000D02*
X22710000Y-22090000D01*
X22710000Y-22050000D02*
X22670000Y-22090000D01*
X23070000Y-22170000D02*
X23110000Y-22210000D01*
X23110000Y-22170000D02*
X23070000Y-22210000D01*
X23470000Y-21670000D02*
X23510000Y-21710000D01*
X23510000Y-21670000D02*
X23470000Y-21710000D01*
X23870000Y-21790000D02*
X23910000Y-21830000D01*
X23910000Y-21790000D02*
X23870000Y-21830000D01*
X24270000Y-21930000D02*
X24310000Y-21970000D01*
X24310000Y-21930000D02*
X24270000Y-21970000D01*
X24670000Y-22050000D02*
X24710000Y-22090000D01*
X24710000Y-22050000D02*
X24670000Y-22090000D01*
X25070000Y-22170000D02*
X25110000Y-22210000D01*
X25110000Y-22170000D02*
X25070000Y-22210000D01*
X25470000Y-21670000D02*
X25510000Y-21710000D01*
X25510000Y-21670000D02*
X25470000Y-21710000D01*
X25870000Y-21790000D02*
X25910000Y-21830000D01*
X25910000Y-21790000D02*
X25870000Y-21830000D01*
X26270000Y-21930000D02*
X26310000Y-21970000D01*
X26310000Y-21930000D02*
X26270000Y-21970000D01*
X26670000Y-22050000D02*
X26710000Y-22090000D01*
X26710000Y-22050000D02*
X26670000Y-22090000D01*
X27070000Y-22170000D02*
X27110000Y-22210000D01*
X27110000Y-22170000D02*
X27070000Y-22210000D01*
X27080000Y-23820000D02*
X27120000Y-23860000D01*
X27120000Y-23820000D02*
X27080000Y-23860000D01*
X27470000Y-21670000D02*
X27510000Y-21710000D01*
X27510000Y-21670000D02*
X27470000Y-21710000D01*
X27870000Y-21790000D02*
X27910000Y-21830000D01*
X27910000Y-21790000D02*
X27870000Y-21830000D01*
X28270000Y-21920000D02*
X28310000Y-21960000D01*
X28310000Y-21920000D02*
X28270000Y-21960000D01*
X28670000Y-22050000D02*
X28710000Y-22090000D01*
X28710000Y-22050000D02*
X28670000Y-22090000D01*
X29070000Y-22170000D02*
X29110000Y-22210000D01*
X29110000Y-22170000D02*
X29070000Y-22210000D01*
D13*
X5130000Y-22342000D02*
G75*
G03*
X5130000Y-22342000I-40000J0D01*
G01*
X5130000Y-23104000D02*
G75*
G03*
X5130000Y-23104000I-40000J0D01*
G01*
X5530000Y-22342000D02*
G75*
G03*
X5530000Y-22342000I-40000J0D01*
G01*
X5530000Y-23104000D02*
G75*
G03*
X5530000Y-23104000I-40000J0D01*
G01*
X5930000Y-22342000D02*
G75*
G03*
X5930000Y-22342000I-40000J0D01*
G01*
X5930000Y-23104000D02*
G75*
G03*
X5930000Y-23104000I-40000J0D01*
G01*
X6330000Y-22342000D02*
G75*
G03*
X6330000Y-22342000I-40000J0D01*
G01*
X6330000Y-23104000D02*
G75*
G03*
X6330000Y-23104000I-40000J0D01*
G01*
X6730000Y-22342000D02*
G75*
G03*
X6730000Y-22342000I-40000J0D01*
G01*
X6730000Y-23104000D02*
G75*
G03*
X6730000Y-23104000I-40000J0D01*
G01*
X7130000Y-22342000D02*
G75*
G03*
X7130000Y-22342000I-40000J0D01*
G01*
X7130000Y-23104000D02*
G75*
G03*
X7130000Y-23104000I-40000J0D01*
G01*
X7530000Y-22342000D02*
G75*
G03*
X7530000Y-22342000I-40000J0D01*
G01*
X7530000Y-23104000D02*
G75*
G03*
X7530000Y-23104000I-40000J0D01*
G01*
X7930000Y-22342000D02*
G75*
G03*
X7930000Y-22342000I-40000J0D01*
G01*
X7930000Y-23104000D02*
G75*
G03*
X7930000Y-23104000I-40000J0D01*
G01*
X8330000Y-22342000D02*
G75*
G03*
X8330000Y-22342000I-40000J0D01*
G01*
X8330000Y-23104000D02*
G75*
G03*
X8330000Y-23104000I-40000J0D01*
G01*
X8730000Y-22342000D02*
G75*
G03*
X8730000Y-22342000I-40000J0D01*
G01*
X8730000Y-23104000D02*
G75*
G03*
X8730000Y-23104000I-40000J0D01*
G01*
X9130000Y-22342000D02*
G75*
G03*
X9130000Y-22342000I-40000J0D01*
G01*
X9130000Y-23104000D02*
G75*
G03*
X9130000Y-23104000I-40000J0D01*
G01*
X9530000Y-22342000D02*
G75*
G03*
X9530000Y-22342000I-40000J0D01*
G01*
X9530000Y-23104000D02*
G75*
G03*
X9530000Y-23104000I-40000J0D01*
G01*
X9930000Y-22342000D02*
G75*
G03*
X9930000Y-22342000I-40000J0D01*
G01*
X9930000Y-23104000D02*
G75*
G03*
X9930000Y-23104000I-40000J0D01*
G01*
X10330000Y-22342000D02*
G75*
G03*
X10330000Y-22342000I-40000J0D01*
G01*
X10330000Y-23104000D02*
G75*
G03*
X10330000Y-23104000I-40000J0D01*
G01*
X10730000Y-22342000D02*
G75*
G03*
X10730000Y-22342000I-40000J0D01*
G01*
X10730000Y-23104000D02*
G75*
G03*
X10730000Y-23104000I-40000J0D01*
G01*
X11130000Y-22342000D02*
G75*
G03*
X11130000Y-22342000I-40000J0D01*
G01*
X11130000Y-23104000D02*
G75*
G03*
X11130000Y-23104000I-40000J0D01*
G01*
X11530000Y-22342000D02*
G75*
G03*
X11530000Y-22342000I-40000J0D01*
G01*
X11530000Y-23104000D02*
G75*
G03*
X11530000Y-23104000I-40000J0D01*
G01*
X11930000Y-22342000D02*
G75*
G03*
X11930000Y-22342000I-40000J0D01*
G01*
X11930000Y-23104000D02*
G75*
G03*
X11930000Y-23104000I-40000J0D01*
G01*
X12330000Y-22342000D02*
G75*
G03*
X12330000Y-22342000I-40000J0D01*
G01*
X12330000Y-23104000D02*
G75*
G03*
X12330000Y-23104000I-40000J0D01*
G01*
X12730000Y-22342000D02*
G75*
G03*
X12730000Y-22342000I-40000J0D01*
G01*
X12730000Y-23104000D02*
G75*
G03*
X12730000Y-23104000I-40000J0D01*
G01*
X13130000Y-22342000D02*
G75*
G03*
X13130000Y-22342000I-40000J0D01*
G01*
X13130000Y-23104000D02*
G75*
G03*
X13130000Y-23104000I-40000J0D01*
G01*
X13530000Y-22342000D02*
G75*
G03*
X13530000Y-22342000I-40000J0D01*
G01*
X13530000Y-23104000D02*
G75*
G03*
X13530000Y-23104000I-40000J0D01*
G01*
X13930000Y-22342000D02*
G75*
G03*
X13930000Y-22342000I-40000J0D01*
G01*
X13930000Y-23104000D02*
G75*
G03*
X13930000Y-23104000I-40000J0D01*
G01*
X14330000Y-22342000D02*
G75*
G03*
X14330000Y-22342000I-40000J0D01*
G01*
X14330000Y-23104000D02*
G75*
G03*
X14330000Y-23104000I-40000J0D01*
G01*
X14730000Y-22342000D02*
G75*
G03*
X14730000Y-22342000I-40000J0D01*
G01*
X14730000Y-23104000D02*
G75*
G03*
X14730000Y-23104000I-40000J0D01*
G01*
X15130000Y-22342000D02*
G75*
G03*
X15130000Y-22342000I-40000J0D01*
G01*
X15130000Y-23104000D02*
G75*
G03*
X15130000Y-23104000I-40000J0D01*
G01*
X15530000Y-22342000D02*
G75*
G03*
X15530000Y-22342000I-40000J0D01*
G01*
X15530000Y-23104000D02*
G75*
G03*
X15530000Y-23104000I-40000J0D01*
G01*
X15930000Y-22342000D02*
G75*
G03*
X15930000Y-22342000I-40000J0D01*
G01*
X15930000Y-23104000D02*
G75*
G03*
X15930000Y-23104000I-40000J0D01*
G01*
X16330000Y-22342000D02*
G75*
G03*
X16330000Y-22342000I-40000J0D01*
G01*
X16330000Y-23104000D02*
G75*
G03*
X16330000Y-23104000I-40000J0D01*
G01*
X16730000Y-22342000D02*
G75*
G03*
X16730000Y-22342000I-40000J0D01*
G01*
X16730000Y-23104000D02*
G75*
G03*
X16730000Y-23104000I-40000J0D01*
G01*
X17130000Y-22342000D02*
G75*
G03*
X17130000Y-22342000I-40000J0D01*
G01*
X17130000Y-23104000D02*
G75*
G03*
X17130000Y-23104000I-40000J0D01*
G01*
X17530000Y-22342000D02*
G75*
G03*
X17530000Y-22342000I-40000J0D01*
G01*
X17530000Y-23104000D02*
G75*
G03*
X17530000Y-23104000I-40000J0D01*
G01*
X17930000Y-22342000D02*
G75*
G03*
X17930000Y-22342000I-40000J0D01*
G01*
X17930000Y-23104000D02*
G75*
G03*
X17930000Y-23104000I-40000J0D01*
G01*
X18330000Y-22342000D02*
G75*
G03*
X18330000Y-22342000I-40000J0D01*
G01*
X18330000Y-23104000D02*
G75*
G03*
X18330000Y-23104000I-40000J0D01*
G01*
X18730000Y-22342000D02*
G75*
G03*
X18730000Y-22342000I-40000J0D01*
G01*
X18730000Y-23104000D02*
G75*
G03*
X18730000Y-23104000I-40000J0D01*
G01*
X19130000Y-22342000D02*
G75*
G03*
X19130000Y-22342000I-40000J0D01*
G01*
X19130000Y-23104000D02*
G75*
G03*
X19130000Y-23104000I-40000J0D01*
G01*
X19530000Y-22342000D02*
G75*
G03*
X19530000Y-22342000I-40000J0D01*
G01*
X19530000Y-23104000D02*
G75*
G03*
X19530000Y-23104000I-40000J0D01*
G01*
X19930000Y-22342000D02*
G75*
G03*
X19930000Y-22342000I-40000J0D01*
G01*
X19930000Y-23104000D02*
G75*
G03*
X19930000Y-23104000I-40000J0D01*
G01*
X20330000Y-22342000D02*
G75*
G03*
X20330000Y-22342000I-40000J0D01*
G01*
X20330000Y-23104000D02*
G75*
G03*
X20330000Y-23104000I-40000J0D01*
G01*
X20730000Y-22342000D02*
G75*
G03*
X20730000Y-22342000I-40000J0D01*
G01*
X20730000Y-23104000D02*
G75*
G03*
X20730000Y-23104000I-40000J0D01*
G01*
X21130000Y-22342000D02*
G75*
G03*
X21130000Y-22342000I-40000J0D01*
G01*
X21130000Y-23104000D02*
G75*
G03*
X21130000Y-23104000I-40000J0D01*
G01*
X21530000Y-22342000D02*
G75*
G03*
X21530000Y-22342000I-40000J0D01*
G01*
X21530000Y-23104000D02*
G75*
G03*
X21530000Y-23104000I-40000J0D01*
G01*
X21930000Y-22342000D02*
G75*
G03*
X21930000Y-22342000I-40000J0D01*
G01*
X21930000Y-23104000D02*
G75*
G03*
X21930000Y-23104000I-40000J0D01*
G01*
X22330000Y-22342000D02*
G75*
G03*
X22330000Y-22342000I-40000J0D01*
G01*
X22330000Y-23104000D02*
G75*
G03*
X22330000Y-23104000I-40000J0D01*
G01*
X22730000Y-22342000D02*
G75*
G03*
X22730000Y-22342000I-40000J0D01*
G01*
X22730000Y-23104000D02*
G75*
G03*
X22730000Y-23104000I-40000J0D01*
G01*
X23130000Y-22342000D02*
G75*
G03*
X23130000Y-22342000I-40000J0D01*
G01*
X23130000Y-23104000D02*
G75*
G03*
X23130000Y-23104000I-40000J0D01*
G01*
X23530000Y-22342000D02*
G75*
G03*
X23530000Y-22342000I-40000J0D01*
G01*
X23530000Y-23104000D02*
G75*
G03*
X23530000Y-23104000I-40000J0D01*
G01*
X23930000Y-22342000D02*
G75*
G03*
X23930000Y-22342000I-40000J0D01*
G01*
X23930000Y-23104000D02*
G75*
G03*
X23930000Y-23104000I-40000J0D01*
G01*
X24330000Y-22342000D02*
G75*
G03*
X24330000Y-22342000I-40000J0D01*
G01*
X24330000Y-23104000D02*
G75*
G03*
X24330000Y-23104000I-40000J0D01*
G01*
X24730000Y-22342000D02*
G75*
G03*
X24730000Y-22342000I-40000J0D01*
G01*
X24730000Y-23104000D02*
G75*
G03*
X24730000Y-23104000I-40000J0D01*
G01*
X25130000Y-22342000D02*
G75*
G03*
X25130000Y-22342000I-40000J0D01*
G01*
X25130000Y-23104000D02*
G75*
G03*
X25130000Y-23104000I-40000J0D01*
G01*
X25530000Y-22342000D02*
G75*
G03*
X25530000Y-22342000I-40000J0D01*
G01*
X25530000Y-23104000D02*
G75*
G03*
X25530000Y-23104000I-40000J0D01*
G01*
X25930000Y-22342000D02*
G75*
G03*
X25930000Y-22342000I-40000J0D01*
G01*
X25930000Y-23104000D02*
G75*
G03*
X25930000Y-23104000I-40000J0D01*
G01*
X26330000Y-22342000D02*
G75*
G03*
X26330000Y-22342000I-40000J0D01*
G01*
X26330000Y-23104000D02*
G75*
G03*
X26330000Y-23104000I-40000J0D01*
G01*
X26730000Y-22342000D02*
G75*
G03*
X26730000Y-22342000I-40000J0D01*
G01*
X26730000Y-23104000D02*
G75*
G03*
X26730000Y-23104000I-40000J0D01*
G01*
X27130000Y-22342000D02*
G75*
G03*
X27130000Y-22342000I-40000J0D01*
G01*
X27130000Y-23104000D02*
G75*
G03*
X27130000Y-23104000I-40000J0D01*
G01*
X27530000Y-22342000D02*
G75*
G03*
X27530000Y-22342000I-40000J0D01*
G01*
X27530000Y-23104000D02*
G75*
G03*
X27530000Y-23104000I-40000J0D01*
G01*
X27930000Y-22342000D02*
G75*
G03*
X27930000Y-22342000I-40000J0D01*
G01*
X27930000Y-23104000D02*
G75*
G03*
X27930000Y-23104000I-40000J0D01*
G01*
X28330000Y-22342000D02*
G75*
G03*
X28330000Y-22342000I-40000J0D01*
G01*
X28330000Y-23104000D02*
G75*
G03*
X28330000Y-23104000I-40000J0D01*
G01*
X28730000Y-22342000D02*
G75*
G03*
X28730000Y-22342000I-40000J0D01*
G01*
X28730000Y-23104000D02*
G75*
G03*
X28730000Y-23104000I-40000J0D01*
G01*
X29130000Y-22342000D02*
G75*
G03*
X29130000Y-22342000I-40000J0D01*
G01*
X29130000Y-23104000D02*
G75*
G03*
X29130000Y-23104000I-40000J0D01*
G01*
D10*
X649000Y-21947000D02*
X649000Y-22047000D01*
X599000Y-21997000D02*
X699000Y-21997000D01*
X649000Y-23471000D02*
X649000Y-23571000D01*
X599000Y-23521000D02*
X699000Y-23521000D01*
X903000Y-21947000D02*
X903000Y-22047000D01*
X853000Y-21997000D02*
X953000Y-21997000D01*
X903000Y-23471000D02*
X903000Y-23571000D01*
X853000Y-23521000D02*
X953000Y-23521000D01*
X1157000Y-21947000D02*
X1157000Y-22047000D01*
X1107000Y-21997000D02*
X1207000Y-21997000D01*
X1157000Y-23471000D02*
X1157000Y-23571000D01*
X1107000Y-23521000D02*
X1207000Y-23521000D01*
X1411000Y-21947000D02*
X1411000Y-22047000D01*
X1361000Y-21997000D02*
X1461000Y-21997000D01*
X1411000Y-23471000D02*
X1411000Y-23571000D01*
X1361000Y-23521000D02*
X1461000Y-23521000D01*
X1665000Y-21947000D02*
X1665000Y-22047000D01*
X1615000Y-21997000D02*
X1715000Y-21997000D01*
X1665000Y-23471000D02*
X1665000Y-23571000D01*
X1615000Y-23521000D02*
X1715000Y-23521000D01*
X1919000Y-21947000D02*
X1919000Y-22047000D01*
X1869000Y-21997000D02*
X1969000Y-21997000D01*
X1919000Y-23471000D02*
X1919000Y-23571000D01*
X1869000Y-23521000D02*
X1969000Y-23521000D01*
X2173000Y-21947000D02*
X2173000Y-22047000D01*
X2123000Y-21997000D02*
X2223000Y-21997000D01*
X2173000Y-23471000D02*
X2173000Y-23571000D01*
X2123000Y-23521000D02*
X2223000Y-23521000D01*
X2427000Y-21947000D02*
X2427000Y-22047000D01*
X2377000Y-21997000D02*
X2477000Y-21997000D01*
X2427000Y-23471000D02*
X2427000Y-23571000D01*
X2377000Y-23521000D02*
X2477000Y-23521000D01*
X2681000Y-21947000D02*
X2681000Y-22047000D01*
X2631000Y-21997000D02*
X2731000Y-21997000D01*
X2681000Y-23471000D02*
X2681000Y-23571000D01*
X2631000Y-23521000D02*
X2731000Y-23521000D01*
X2935000Y-21947000D02*
X2935000Y-22047000D01*
X2885000Y-21997000D02*
X2985000Y-21997000D01*
X2935000Y-23471000D02*
X2935000Y-23571000D01*
X2885000Y-23521000D02*
X2985000Y-23521000D01*
X3189000Y-21947000D02*
X3189000Y-22047000D01*
X3139000Y-21997000D02*
X3239000Y-21997000D01*
X3189000Y-23471000D02*
X3189000Y-23571000D01*
X3139000Y-23521000D02*
X3239000Y-23521000D01*
X3443000Y-21947000D02*
X3443000Y-22047000D01*
X3393000Y-21997000D02*
X3493000Y-21997000D01*
X3443000Y-23471000D02*
X3443000Y-23571000D01*
X3393000Y-23521000D02*
X3493000Y-23521000D01*
X3697000Y-21947000D02*
X3697000Y-22047000D01*
X3647000Y-21997000D02*
X3747000Y-21997000D01*
X3697000Y-23471000D02*
X3697000Y-23571000D01*
X3647000Y-23521000D02*
X3747000Y-23521000D01*
X3951000Y-21947000D02*
X3951000Y-22047000D01*
X3901000Y-21997000D02*
X4001000Y-21997000D01*
X3951000Y-23471000D02*
X3951000Y-23571000D01*
X3901000Y-23521000D02*
X4001000Y-23521000D01*
X4205000Y-21947000D02*
X4205000Y-22047000D01*
X4155000Y-21997000D02*
X4255000Y-21997000D01*
X4205000Y-23471000D02*
X4205000Y-23571000D01*
X4155000Y-23521000D02*
X4255000Y-23521000D01*
D14*
X948033Y-32315033D02*
X948033Y-32208966D01*
X841966Y-32208966D01*
X841966Y-32315033D01*
X948033Y-32315033D01*
X1178034Y-26316033D02*
X1178034Y-26209966D01*
X1071967Y-26209966D01*
X1071967Y-26316033D01*
X1178034Y-26316033D01*
X1583033Y-32569033D02*
X1583033Y-32462966D01*
X1476966Y-32462966D01*
X1476966Y-32569033D01*
X1583033Y-32569033D01*
X1679033Y-24316033D02*
X1679033Y-24209966D01*
X1572966Y-24209966D01*
X1572966Y-24316033D01*
X1679033Y-24316033D01*
X1813033Y-26570033D02*
X1813033Y-26463966D01*
X1706966Y-26463966D01*
X1706966Y-26570033D01*
X1813033Y-26570033D01*
X1889033Y-28318033D02*
X1889033Y-28211966D01*
X1782966Y-28211966D01*
X1782966Y-28318033D01*
X1889033Y-28318033D01*
X2314034Y-24570033D02*
X2314034Y-24463966D01*
X2207967Y-24463966D01*
X2207967Y-24570033D01*
X2314034Y-24570033D01*
X2373034Y-30316033D02*
X2373034Y-30209966D01*
X2266967Y-30209966D01*
X2266967Y-30316033D01*
X2373034Y-30316033D01*
X2524034Y-28572033D02*
X2524034Y-28465966D01*
X2417967Y-28465966D01*
X2417967Y-28572033D01*
X2524034Y-28572033D01*
X3008033Y-30570033D02*
X3008033Y-30463966D01*
X2901966Y-30463966D01*
X2901966Y-30570033D01*
X3008033Y-30570033D01*
X3634033Y-32324033D02*
X3634033Y-32217966D01*
X3527966Y-32217966D01*
X3527966Y-32324033D01*
X3634033Y-32324033D01*
X3639033Y-26318033D02*
X3639033Y-26211966D01*
X3532966Y-26211966D01*
X3532966Y-26318033D01*
X3639033Y-26318033D01*
X4269034Y-32578033D02*
X4269034Y-32471966D01*
X4162966Y-32471966D01*
X4162966Y-32578033D01*
X4269034Y-32578033D01*
X4274034Y-26572033D02*
X4274034Y-26465966D01*
X4167966Y-26465966D01*
X4167966Y-26572033D01*
X4274034Y-26572033D01*
X4639034Y-24318033D02*
X4639034Y-24211966D01*
X4532967Y-24211966D01*
X4532967Y-24318033D01*
X4639034Y-24318033D01*
X5139034Y-28318033D02*
X5139034Y-28211966D01*
X5032967Y-28211966D01*
X5032967Y-28318033D01*
X5139034Y-28318033D01*
X5274034Y-24572033D02*
X5274034Y-24465966D01*
X5167967Y-24465966D01*
X5167967Y-24572033D01*
X5274034Y-24572033D01*
X5639033Y-26318033D02*
X5639033Y-26211966D01*
X5532967Y-26211966D01*
X5532967Y-26318033D01*
X5639033Y-26318033D01*
X5774033Y-28572033D02*
X5774033Y-28465966D01*
X5667966Y-28465966D01*
X5667966Y-28572033D01*
X5774033Y-28572033D01*
X6139033Y-30318033D02*
X6139033Y-30211966D01*
X6032966Y-30211966D01*
X6032966Y-30318033D01*
X6139033Y-30318033D01*
X6274033Y-26572033D02*
X6274033Y-26465966D01*
X6167966Y-26465966D01*
X6167966Y-26572033D01*
X6274033Y-26572033D01*
X6278033Y-32320033D02*
X6278033Y-32213966D01*
X6171966Y-32213966D01*
X6171966Y-32320033D01*
X6278033Y-32320033D01*
X6639033Y-24318033D02*
X6639033Y-24211966D01*
X6532966Y-24211966D01*
X6532966Y-24318033D01*
X6639033Y-24318033D01*
X6774033Y-30572033D02*
X6774033Y-30465966D01*
X6667966Y-30465966D01*
X6667966Y-30572033D01*
X6774033Y-30572033D01*
X6913033Y-32574033D02*
X6913033Y-32467966D01*
X6806966Y-32467966D01*
X6806966Y-32574033D01*
X6913033Y-32574033D01*
X7139033Y-28318033D02*
X7139033Y-28211966D01*
X7032966Y-28211966D01*
X7032966Y-28318033D01*
X7139033Y-28318033D01*
X7274033Y-24572033D02*
X7274033Y-24465966D01*
X7167966Y-24465966D01*
X7167966Y-24572033D01*
X7274033Y-24572033D01*
X7639033Y-26318033D02*
X7639033Y-26211966D01*
X7532966Y-26211966D01*
X7532966Y-26318033D01*
X7639033Y-26318033D01*
X7774033Y-28572033D02*
X7774033Y-28465966D01*
X7667966Y-28465966D01*
X7667966Y-28572033D01*
X7774033Y-28572033D01*
X8139033Y-30318033D02*
X8139033Y-30211966D01*
X8032966Y-30211966D01*
X8032966Y-30318033D01*
X8139033Y-30318033D01*
X8274033Y-26572033D02*
X8274033Y-26465966D01*
X8167966Y-26465966D01*
X8167966Y-26572033D01*
X8274033Y-26572033D01*
X8639034Y-24318033D02*
X8639034Y-24211966D01*
X8532967Y-24211966D01*
X8532967Y-24318033D01*
X8639034Y-24318033D01*
X8774034Y-30572033D02*
X8774034Y-30465966D01*
X8667967Y-30465966D01*
X8667967Y-30572033D01*
X8774034Y-30572033D01*
X8889034Y-32318033D02*
X8889034Y-32211966D01*
X8782967Y-32211966D01*
X8782967Y-32318033D01*
X8889034Y-32318033D01*
X9139034Y-28318033D02*
X9139034Y-28211966D01*
X9032967Y-28211966D01*
X9032967Y-28318033D01*
X9139034Y-28318033D01*
X9274034Y-24572033D02*
X9274034Y-24465966D01*
X9167967Y-24465966D01*
X9167967Y-24572033D01*
X9274034Y-24572033D01*
X9524034Y-32572033D02*
X9524034Y-32465966D01*
X9417967Y-32465966D01*
X9417967Y-32572033D01*
X9524034Y-32572033D01*
X9639034Y-26318033D02*
X9639034Y-26211966D01*
X9532967Y-26211966D01*
X9532967Y-26318033D01*
X9639034Y-26318033D01*
X9774034Y-28572033D02*
X9774034Y-28465966D01*
X9667967Y-28465966D01*
X9667967Y-28572033D01*
X9774034Y-28572033D01*
X10139034Y-30318033D02*
X10139034Y-30211966D01*
X10032967Y-30211966D01*
X10032967Y-30318033D01*
X10139034Y-30318033D01*
X10274034Y-26572033D02*
X10274034Y-26465966D01*
X10167967Y-26465966D01*
X10167967Y-26572033D01*
X10274034Y-26572033D01*
X10639034Y-24318033D02*
X10639034Y-24211966D01*
X10532967Y-24211966D01*
X10532967Y-24318033D01*
X10639034Y-24318033D01*
X10774034Y-30572033D02*
X10774034Y-30465966D01*
X10667967Y-30465966D01*
X10667967Y-30572033D01*
X10774034Y-30572033D01*
X11139034Y-28318033D02*
X11139034Y-28211966D01*
X11032967Y-28211966D01*
X11032967Y-28318033D01*
X11139034Y-28318033D01*
X11274033Y-24572033D02*
X11274033Y-24465966D01*
X11167967Y-24465966D01*
X11167967Y-24572033D01*
X11274033Y-24572033D01*
X11639033Y-26318033D02*
X11639033Y-26211966D01*
X11532966Y-26211966D01*
X11532966Y-26318033D01*
X11639033Y-26318033D01*
X11774033Y-28572033D02*
X11774033Y-28465966D01*
X11667966Y-28465966D01*
X11667966Y-28572033D01*
X11774033Y-28572033D01*
X12139033Y-30318033D02*
X12139033Y-30211966D01*
X12032966Y-30211966D01*
X12032966Y-30318033D01*
X12139033Y-30318033D01*
X12274033Y-26572033D02*
X12274033Y-26465966D01*
X12167966Y-26465966D01*
X12167966Y-26572033D01*
X12274033Y-26572033D01*
X12639033Y-24318033D02*
X12639033Y-24211966D01*
X12532966Y-24211966D01*
X12532966Y-24318033D01*
X12639033Y-24318033D01*
X12774033Y-30572033D02*
X12774033Y-30465966D01*
X12667966Y-30465966D01*
X12667966Y-30572033D01*
X12774033Y-30572033D01*
X13139033Y-28318033D02*
X13139033Y-28211966D01*
X13032966Y-28211966D01*
X13032966Y-28318033D01*
X13139033Y-28318033D01*
X13274033Y-24572033D02*
X13274033Y-24465966D01*
X13167966Y-24465966D01*
X13167966Y-24572033D01*
X13274033Y-24572033D01*
X13639033Y-26318033D02*
X13639033Y-26211966D01*
X13532966Y-26211966D01*
X13532966Y-26318033D01*
X13639033Y-26318033D01*
X13774033Y-28572033D02*
X13774033Y-28465966D01*
X13667966Y-28465966D01*
X13667966Y-28572033D01*
X13774033Y-28572033D01*
X14139033Y-30318033D02*
X14139033Y-30211966D01*
X14032966Y-30211966D01*
X14032966Y-30318033D01*
X14139033Y-30318033D01*
X14274033Y-26572033D02*
X14274033Y-26465966D01*
X14167966Y-26465966D01*
X14167966Y-26572033D01*
X14274033Y-26572033D01*
X14639033Y-24318033D02*
X14639033Y-24211966D01*
X14532966Y-24211966D01*
X14532966Y-24318033D01*
X14639033Y-24318033D01*
X14774033Y-30572033D02*
X14774033Y-30465966D01*
X14667966Y-30465966D01*
X14667966Y-30572033D01*
X14774033Y-30572033D01*
X15139033Y-28318033D02*
X15139033Y-28211966D01*
X15032966Y-28211966D01*
X15032966Y-28318033D01*
X15139033Y-28318033D01*
X15274033Y-24572033D02*
X15274033Y-24465966D01*
X15167966Y-24465966D01*
X15167966Y-24572033D01*
X15274033Y-24572033D01*
X15639033Y-26318033D02*
X15639033Y-26211966D01*
X15532966Y-26211966D01*
X15532966Y-26318033D01*
X15639033Y-26318033D01*
X15774033Y-28572033D02*
X15774033Y-28465966D01*
X15667966Y-28465966D01*
X15667966Y-28572033D01*
X15774033Y-28572033D01*
X16139033Y-30318033D02*
X16139033Y-30211966D01*
X16032966Y-30211966D01*
X16032966Y-30318033D01*
X16139033Y-30318033D01*
X16139033Y-32318033D02*
X16139033Y-32211966D01*
X16032966Y-32211966D01*
X16032966Y-32318033D01*
X16139033Y-32318033D01*
X16274033Y-26572033D02*
X16274033Y-26465966D01*
X16167966Y-26465966D01*
X16167966Y-26572033D01*
X16274033Y-26572033D01*
X16639033Y-24318033D02*
X16639033Y-24211966D01*
X16532966Y-24211966D01*
X16532966Y-24318033D01*
X16639033Y-24318033D01*
X16774033Y-30572033D02*
X16774033Y-30465966D01*
X16667966Y-30465966D01*
X16667966Y-30572033D01*
X16774033Y-30572033D01*
X16774033Y-32572033D02*
X16774033Y-32465966D01*
X16667966Y-32465966D01*
X16667966Y-32572033D01*
X16774033Y-32572033D01*
X17139034Y-28318033D02*
X17139034Y-28211966D01*
X17032967Y-28211966D01*
X17032967Y-28318033D01*
X17139034Y-28318033D01*
X17274034Y-24572033D02*
X17274034Y-24465966D01*
X17167967Y-24465966D01*
X17167967Y-24572033D01*
X17274034Y-24572033D01*
X17639034Y-26318033D02*
X17639034Y-26211966D01*
X17532967Y-26211966D01*
X17532967Y-26318033D01*
X17639034Y-26318033D01*
X17774034Y-28572033D02*
X17774034Y-28465966D01*
X17667967Y-28465966D01*
X17667967Y-28572033D01*
X17774034Y-28572033D01*
X18139034Y-30318033D02*
X18139034Y-30211966D01*
X18032967Y-30211966D01*
X18032967Y-30318033D01*
X18139034Y-30318033D01*
X18274034Y-26572033D02*
X18274034Y-26465966D01*
X18167967Y-26465966D01*
X18167967Y-26572033D01*
X18274034Y-26572033D01*
X18639034Y-24318033D02*
X18639034Y-24211966D01*
X18532967Y-24211966D01*
X18532967Y-24318033D01*
X18639034Y-24318033D01*
X18774034Y-30572033D02*
X18774034Y-30465966D01*
X18667967Y-30465966D01*
X18667967Y-30572033D01*
X18774034Y-30572033D01*
X19139034Y-28318033D02*
X19139034Y-28211966D01*
X19032967Y-28211966D01*
X19032967Y-28318033D01*
X19139034Y-28318033D01*
X19274034Y-24572033D02*
X19274034Y-24465966D01*
X19167967Y-24465966D01*
X19167967Y-24572033D01*
X19274034Y-24572033D01*
X19639034Y-26318033D02*
X19639034Y-26211966D01*
X19532967Y-26211966D01*
X19532967Y-26318033D01*
X19639034Y-26318033D01*
X19774034Y-28572033D02*
X19774034Y-28465966D01*
X19667967Y-28465966D01*
X19667967Y-28572033D01*
X19774034Y-28572033D01*
X20139034Y-30318033D02*
X20139034Y-30211966D01*
X20032967Y-30211966D01*
X20032967Y-30318033D01*
X20139034Y-30318033D01*
X20274034Y-26572033D02*
X20274034Y-26465966D01*
X20167967Y-26465966D01*
X20167967Y-26572033D01*
X20274034Y-26572033D01*
X20639034Y-24318033D02*
X20639034Y-24211966D01*
X20532967Y-24211966D01*
X20532967Y-24318033D01*
X20639034Y-24318033D01*
X20774034Y-30572033D02*
X20774034Y-30465966D01*
X20667967Y-30465966D01*
X20667967Y-30572033D01*
X20774034Y-30572033D01*
X21139034Y-28318033D02*
X21139034Y-28211966D01*
X21032967Y-28211966D01*
X21032967Y-28318033D01*
X21139034Y-28318033D01*
X21274034Y-24572033D02*
X21274034Y-24465966D01*
X21167967Y-24465966D01*
X21167967Y-24572033D01*
X21274034Y-24572033D01*
X21639034Y-26318033D02*
X21639034Y-26211966D01*
X21532967Y-26211966D01*
X21532967Y-26318033D01*
X21639034Y-26318033D01*
X21774034Y-28572033D02*
X21774034Y-28465966D01*
X21667967Y-28465966D01*
X21667967Y-28572033D01*
X21774034Y-28572033D01*
X22139034Y-30318033D02*
X22139034Y-30211966D01*
X22032967Y-30211966D01*
X22032967Y-30318033D01*
X22139034Y-30318033D01*
X22274034Y-26572033D02*
X22274034Y-26465966D01*
X22167967Y-26465966D01*
X22167967Y-26572033D01*
X22274034Y-26572033D01*
X22639033Y-24318033D02*
X22639033Y-24211966D01*
X22532966Y-24211966D01*
X22532966Y-24318033D01*
X22639033Y-24318033D01*
X22774033Y-30572033D02*
X22774033Y-30465966D01*
X22667966Y-30465966D01*
X22667966Y-30572033D01*
X22774033Y-30572033D01*
X23139033Y-28318033D02*
X23139033Y-28211966D01*
X23032966Y-28211966D01*
X23032966Y-28318033D01*
X23139033Y-28318033D01*
X23274033Y-24572033D02*
X23274033Y-24465966D01*
X23167966Y-24465966D01*
X23167966Y-24572033D01*
X23274033Y-24572033D01*
X23389033Y-32318033D02*
X23389033Y-32211966D01*
X23282966Y-32211966D01*
X23282966Y-32318033D01*
X23389033Y-32318033D01*
X23639033Y-26318033D02*
X23639033Y-26211966D01*
X23532966Y-26211966D01*
X23532966Y-26318033D01*
X23639033Y-26318033D01*
X23774033Y-28572033D02*
X23774033Y-28465966D01*
X23667966Y-28465966D01*
X23667966Y-28572033D01*
X23774033Y-28572033D01*
X24024033Y-32572033D02*
X24024033Y-32465966D01*
X23917966Y-32465966D01*
X23917966Y-32572033D01*
X24024033Y-32572033D01*
X24139033Y-30318033D02*
X24139033Y-30211966D01*
X24032966Y-30211966D01*
X24032966Y-30318033D01*
X24139033Y-30318033D01*
X24274033Y-26572033D02*
X24274033Y-26465966D01*
X24167966Y-26465966D01*
X24167966Y-26572033D01*
X24274033Y-26572033D01*
X24639033Y-24318033D02*
X24639033Y-24211966D01*
X24532966Y-24211966D01*
X24532966Y-24318033D01*
X24639033Y-24318033D01*
X24774033Y-30572033D02*
X24774033Y-30465966D01*
X24667966Y-30465966D01*
X24667966Y-30572033D01*
X24774033Y-30572033D01*
X25139033Y-28318033D02*
X25139033Y-28211966D01*
X25032966Y-28211966D01*
X25032966Y-28318033D01*
X25139033Y-28318033D01*
X25274033Y-24572033D02*
X25274033Y-24465966D01*
X25167966Y-24465966D01*
X25167966Y-24572033D01*
X25274033Y-24572033D01*
X25639033Y-26318033D02*
X25639033Y-26211966D01*
X25532966Y-26211966D01*
X25532966Y-26318033D01*
X25639033Y-26318033D01*
X25774033Y-28572033D02*
X25774033Y-28465966D01*
X25667966Y-28465966D01*
X25667966Y-28572033D01*
X25774033Y-28572033D01*
X25889033Y-32318033D02*
X25889033Y-32211966D01*
X25782966Y-32211966D01*
X25782966Y-32318033D01*
X25889033Y-32318033D01*
X26274033Y-26572033D02*
X26274033Y-26465966D01*
X26167966Y-26465966D01*
X26167966Y-26572033D01*
X26274033Y-26572033D01*
X26524033Y-32572033D02*
X26524033Y-32465966D01*
X26417966Y-32465966D01*
X26417966Y-32572033D01*
X26524033Y-32572033D01*
X26639033Y-24318033D02*
X26639033Y-24211966D01*
X26532966Y-24211966D01*
X26532966Y-24318033D01*
X26639033Y-24318033D01*
X27274033Y-24572033D02*
X27274033Y-24465966D01*
X27167966Y-24465966D01*
X27167966Y-24572033D01*
X27274033Y-24572033D01*
X27389033Y-30318033D02*
X27389033Y-30211966D01*
X27282966Y-30211966D01*
X27282966Y-30318033D01*
X27389033Y-30318033D01*
X27889033Y-28318033D02*
X27889033Y-28211966D01*
X27782966Y-28211966D01*
X27782966Y-28318033D01*
X27889033Y-28318033D01*
X28024033Y-30572033D02*
X28024033Y-30465966D01*
X27917966Y-30465966D01*
X27917966Y-30572033D01*
X28024033Y-30572033D01*
X28139033Y-26318033D02*
X28139033Y-26211966D01*
X28032966Y-26211966D01*
X28032966Y-26318033D01*
X28139033Y-26318033D01*
X28339033Y-32318033D02*
X28339033Y-32211966D01*
X28232966Y-32211966D01*
X28232966Y-32318033D01*
X28339033Y-32318033D01*
X28524033Y-28572033D02*
X28524033Y-28465966D01*
X28417966Y-28465966D01*
X28417966Y-28572033D01*
X28524033Y-28572033D01*
X28589033Y-24318033D02*
X28589033Y-24211966D01*
X28482966Y-24211966D01*
X28482966Y-24318033D01*
X28589033Y-24318033D01*
X28774033Y-26572033D02*
X28774033Y-26465966D01*
X28667966Y-26465966D01*
X28667966Y-26572033D01*
X28774033Y-26572033D01*
X28974033Y-32572033D02*
X28974033Y-32465966D01*
X28867966Y-32465966D01*
X28867966Y-32572033D01*
X28974033Y-32572033D01*
X29224033Y-24572033D02*
X29224033Y-24465966D01*
X29117966Y-24465966D01*
X29117966Y-24572033D01*
X29224033Y-24572033D01*
D11*
X132619Y-34138476D02*
X132619Y-33938476D01*
X180238Y-33938476D01*
X208809Y-33948000D01*
X227857Y-33967048D01*
X237381Y-33986095D01*
X246905Y-34024190D01*
X246905Y-34052762D01*
X237381Y-34090857D01*
X227857Y-34109905D01*
X208809Y-34128952D01*
X180238Y-34138476D01*
X132619Y-34138476D01*
X332619Y-34138476D02*
X332619Y-34005143D01*
X332619Y-34043238D02*
X342143Y-34024190D01*
X351667Y-34014667D01*
X370714Y-34005143D01*
X389762Y-34005143D01*
X456428Y-34138476D02*
X456428Y-34005143D01*
X456428Y-33938476D02*
X446905Y-33948000D01*
X456428Y-33957524D01*
X465952Y-33948000D01*
X456428Y-33938476D01*
X456428Y-33957524D01*
X580238Y-34138476D02*
X561190Y-34128952D01*
X551667Y-34109905D01*
X551667Y-33938476D01*
X685000Y-34138476D02*
X665952Y-34128952D01*
X656429Y-34109905D01*
X656429Y-33938476D01*
X913571Y-34138476D02*
X913571Y-33938476D01*
X980238Y-34081333D01*
X1046905Y-33938476D01*
X1046905Y-34138476D01*
X1227857Y-34138476D02*
X1227857Y-34033714D01*
X1218333Y-34014667D01*
X1199286Y-34005143D01*
X1161190Y-34005143D01*
X1142143Y-34014667D01*
X1227857Y-34128952D02*
X1208810Y-34138476D01*
X1161190Y-34138476D01*
X1142143Y-34128952D01*
X1132619Y-34109905D01*
X1132619Y-34090857D01*
X1142143Y-34071810D01*
X1161190Y-34062286D01*
X1208810Y-34062286D01*
X1227857Y-34052762D01*
X1323095Y-34005143D02*
X1323095Y-34205143D01*
X1323095Y-34014667D02*
X1342143Y-34005143D01*
X1380238Y-34005143D01*
X1399286Y-34014667D01*
X1408809Y-34024190D01*
X1418333Y-34043238D01*
X1418333Y-34100381D01*
X1408809Y-34119429D01*
X1399286Y-34128952D01*
X1380238Y-34138476D01*
X1342143Y-34138476D01*
X1323095Y-34128952D01*
X1504048Y-34119429D02*
X1513571Y-34128952D01*
X1504048Y-34138476D01*
X1494524Y-34128952D01*
X1504048Y-34119429D01*
X1504048Y-34138476D01*
X1504048Y-34014667D02*
X1513571Y-34024190D01*
X1504048Y-34033714D01*
X1494524Y-34024190D01*
X1504048Y-34014667D01*
X1504048Y-34033714D01*
D12*
X-165000Y-34448000D02*
X-125000Y-34488000D01*
X-125000Y-34448000D02*
X-165000Y-34488000D01*
D11*
X170714Y-34358476D02*
X189762Y-34358476D01*
X208809Y-34368000D01*
X218333Y-34377524D01*
X227857Y-34396571D01*
X237381Y-34434667D01*
X237381Y-34482286D01*
X227857Y-34520381D01*
X218333Y-34539429D01*
X208809Y-34548952D01*
X189762Y-34558476D01*
X170714Y-34558476D01*
X151667Y-34548952D01*
X142143Y-34539429D01*
X132619Y-34520381D01*
X123095Y-34482286D01*
X123095Y-34434667D01*
X132619Y-34396571D01*
X142143Y-34377524D01*
X151667Y-34368000D01*
X170714Y-34358476D01*
X323095Y-34539429D02*
X332619Y-34548952D01*
X323095Y-34558476D01*
X313571Y-34548952D01*
X323095Y-34539429D01*
X323095Y-34558476D01*
X504048Y-34425143D02*
X504048Y-34558476D01*
X456428Y-34348952D02*
X408809Y-34491810D01*
X532619Y-34491810D01*
X646905Y-34358476D02*
X665952Y-34358476D01*
X685000Y-34368000D01*
X694524Y-34377524D01*
X704048Y-34396571D01*
X713571Y-34434667D01*
X713571Y-34482286D01*
X704048Y-34520381D01*
X694524Y-34539429D01*
X685000Y-34548952D01*
X665952Y-34558476D01*
X646905Y-34558476D01*
X627857Y-34548952D01*
X618333Y-34539429D01*
X608810Y-34520381D01*
X599286Y-34482286D01*
X599286Y-34434667D01*
X608810Y-34396571D01*
X618333Y-34377524D01*
X627857Y-34368000D01*
X646905Y-34358476D01*
X837381Y-34358476D02*
X856428Y-34358476D01*
X875476Y-34368000D01*
X885000Y-34377524D01*
X894524Y-34396571D01*
X904048Y-34434667D01*
X904048Y-34482286D01*
X894524Y-34520381D01*
X885000Y-34539429D01*
X875476Y-34548952D01*
X856428Y-34558476D01*
X837381Y-34558476D01*
X818333Y-34548952D01*
X808809Y-34539429D01*
X799286Y-34520381D01*
X789762Y-34482286D01*
X789762Y-34434667D01*
X799286Y-34396571D01*
X808809Y-34377524D01*
X818333Y-34368000D01*
X837381Y-34358476D01*
X989762Y-34558476D02*
X989762Y-34425143D01*
X989762Y-34444190D02*
X999286Y-34434667D01*
X1018333Y-34425143D01*
X1046905Y-34425143D01*
X1065952Y-34434667D01*
X1075476Y-34453714D01*
X1075476Y-34558476D01*
X1075476Y-34453714D02*
X1085000Y-34434667D01*
X1104048Y-34425143D01*
X1132619Y-34425143D01*
X1151667Y-34434667D01*
X1161190Y-34453714D01*
X1161190Y-34558476D01*
X1256429Y-34558476D02*
X1256429Y-34425143D01*
X1256429Y-34444190D02*
X1265952Y-34434667D01*
X1285000Y-34425143D01*
X1313571Y-34425143D01*
X1332619Y-34434667D01*
X1342143Y-34453714D01*
X1342143Y-34558476D01*
X1342143Y-34453714D02*
X1351667Y-34434667D01*
X1370714Y-34425143D01*
X1399286Y-34425143D01*
X1418333Y-34434667D01*
X1427857Y-34453714D01*
X1427857Y-34558476D01*
X1818333Y-34348952D02*
X1646905Y-34606095D01*
X2075476Y-34358476D02*
X2094524Y-34358476D01*
X2113571Y-34368000D01*
X2123095Y-34377524D01*
X2132619Y-34396571D01*
X2142143Y-34434667D01*
X2142143Y-34482286D01*
X2132619Y-34520381D01*
X2123095Y-34539429D01*
X2113571Y-34548952D01*
X2094524Y-34558476D01*
X2075476Y-34558476D01*
X2056428Y-34548952D01*
X2046905Y-34539429D01*
X2037381Y-34520381D01*
X2027857Y-34482286D01*
X2027857Y-34434667D01*
X2037381Y-34396571D01*
X2046905Y-34377524D01*
X2056428Y-34368000D01*
X2075476Y-34358476D01*
X2227857Y-34539429D02*
X2237381Y-34548952D01*
X2227857Y-34558476D01*
X2218333Y-34548952D01*
X2227857Y-34539429D01*
X2227857Y-34558476D01*
X2361190Y-34358476D02*
X2380238Y-34358476D01*
X2399286Y-34368000D01*
X2408810Y-34377524D01*
X2418333Y-34396571D01*
X2427857Y-34434667D01*
X2427857Y-34482286D01*
X2418333Y-34520381D01*
X2408810Y-34539429D01*
X2399286Y-34548952D01*
X2380238Y-34558476D01*
X2361190Y-34558476D01*
X2342143Y-34548952D01*
X2332619Y-34539429D01*
X2323095Y-34520381D01*
X2313571Y-34482286D01*
X2313571Y-34434667D01*
X2323095Y-34396571D01*
X2332619Y-34377524D01*
X2342143Y-34368000D01*
X2361190Y-34358476D01*
X2618333Y-34558476D02*
X2504048Y-34558476D01*
X2561190Y-34558476D02*
X2561190Y-34358476D01*
X2542143Y-34387048D01*
X2523095Y-34406095D01*
X2504048Y-34415619D01*
X2799286Y-34358476D02*
X2704048Y-34358476D01*
X2694524Y-34453714D01*
X2704048Y-34444190D01*
X2723095Y-34434667D01*
X2770714Y-34434667D01*
X2789762Y-34444190D01*
X2799286Y-34453714D01*
X2808809Y-34472762D01*
X2808809Y-34520381D01*
X2799286Y-34539429D01*
X2789762Y-34548952D01*
X2770714Y-34558476D01*
X2723095Y-34558476D01*
X2704048Y-34548952D01*
X2694524Y-34539429D01*
X2875476Y-34358476D02*
X3008809Y-34358476D01*
X2923095Y-34558476D01*
X3075476Y-34358476D02*
X3075476Y-34396571D01*
X3151667Y-34358476D02*
X3151667Y-34396571D01*
X3446905Y-34634667D02*
X3437381Y-34625143D01*
X3418333Y-34596571D01*
X3408809Y-34577524D01*
X3399286Y-34548952D01*
X3389762Y-34501333D01*
X3389762Y-34463238D01*
X3399286Y-34415619D01*
X3408809Y-34387048D01*
X3418333Y-34368000D01*
X3437381Y-34339429D01*
X3446905Y-34329905D01*
X3551667Y-34444190D02*
X3532619Y-34434667D01*
X3523095Y-34425143D01*
X3513571Y-34406095D01*
X3513571Y-34396571D01*
X3523095Y-34377524D01*
X3532619Y-34368000D01*
X3551667Y-34358476D01*
X3589762Y-34358476D01*
X3608809Y-34368000D01*
X3618333Y-34377524D01*
X3627857Y-34396571D01*
X3627857Y-34406095D01*
X3618333Y-34425143D01*
X3608809Y-34434667D01*
X3589762Y-34444190D01*
X3551667Y-34444190D01*
X3532619Y-34453714D01*
X3523095Y-34463238D01*
X3513571Y-34482286D01*
X3513571Y-34520381D01*
X3523095Y-34539429D01*
X3532619Y-34548952D01*
X3551667Y-34558476D01*
X3589762Y-34558476D01*
X3608809Y-34548952D01*
X3618333Y-34539429D01*
X3627857Y-34520381D01*
X3627857Y-34482286D01*
X3618333Y-34463238D01*
X3608809Y-34453714D01*
X3589762Y-34444190D01*
X3818333Y-34558476D02*
X3704048Y-34558476D01*
X3761190Y-34558476D02*
X3761190Y-34358476D01*
X3742143Y-34387048D01*
X3723095Y-34406095D01*
X3704048Y-34415619D01*
X4056428Y-34558476D02*
X4056428Y-34358476D01*
X4142143Y-34558476D02*
X4142143Y-34453714D01*
X4132619Y-34434667D01*
X4113571Y-34425143D01*
X4085000Y-34425143D01*
X4065952Y-34434667D01*
X4056428Y-34444190D01*
X4265952Y-34558476D02*
X4246905Y-34548952D01*
X4237381Y-34539429D01*
X4227857Y-34520381D01*
X4227857Y-34463238D01*
X4237381Y-34444190D01*
X4246905Y-34434667D01*
X4265952Y-34425143D01*
X4294524Y-34425143D01*
X4313571Y-34434667D01*
X4323095Y-34444190D01*
X4332619Y-34463238D01*
X4332619Y-34520381D01*
X4323095Y-34539429D01*
X4313571Y-34548952D01*
X4294524Y-34558476D01*
X4265952Y-34558476D01*
X4446905Y-34558476D02*
X4427857Y-34548952D01*
X4418333Y-34529905D01*
X4418333Y-34358476D01*
X4599286Y-34548952D02*
X4580238Y-34558476D01*
X4542143Y-34558476D01*
X4523095Y-34548952D01*
X4513571Y-34529905D01*
X4513571Y-34453714D01*
X4523095Y-34434667D01*
X4542143Y-34425143D01*
X4580238Y-34425143D01*
X4599286Y-34434667D01*
X4608810Y-34453714D01*
X4608810Y-34472762D01*
X4513571Y-34491810D01*
X4685000Y-34548952D02*
X4704048Y-34558476D01*
X4742143Y-34558476D01*
X4761190Y-34548952D01*
X4770714Y-34529905D01*
X4770714Y-34520381D01*
X4761190Y-34501333D01*
X4742143Y-34491810D01*
X4713571Y-34491810D01*
X4694524Y-34482286D01*
X4685000Y-34463238D01*
X4685000Y-34453714D01*
X4694524Y-34434667D01*
X4713571Y-34425143D01*
X4742143Y-34425143D01*
X4761190Y-34434667D01*
X4837381Y-34634667D02*
X4846905Y-34625143D01*
X4865952Y-34596571D01*
X4875476Y-34577524D01*
X4885000Y-34548952D01*
X4894524Y-34501333D01*
X4894524Y-34463238D01*
X4885000Y-34415619D01*
X4875476Y-34387048D01*
X4865952Y-34368000D01*
X4846905Y-34339429D01*
X4837381Y-34329905D01*
D13*
X-125000Y-34732000D02*
G75*
G03*
X-125000Y-34732000I-40000J0D01*
G01*
D11*
X170714Y-34622476D02*
X189762Y-34622476D01*
X208809Y-34632000D01*
X218333Y-34641524D01*
X227857Y-34660571D01*
X237381Y-34698667D01*
X237381Y-34746286D01*
X227857Y-34784381D01*
X218333Y-34803429D01*
X208809Y-34812952D01*
X189762Y-34822476D01*
X170714Y-34822476D01*
X151667Y-34812952D01*
X142143Y-34803429D01*
X132619Y-34784381D01*
X123095Y-34746286D01*
X123095Y-34698667D01*
X132619Y-34660571D01*
X142143Y-34641524D01*
X151667Y-34632000D01*
X170714Y-34622476D01*
X323095Y-34803429D02*
X332619Y-34812952D01*
X323095Y-34822476D01*
X313571Y-34812952D01*
X323095Y-34803429D01*
X323095Y-34822476D01*
X446905Y-34708190D02*
X427857Y-34698667D01*
X418333Y-34689143D01*
X408809Y-34670095D01*
X408809Y-34660571D01*
X418333Y-34641524D01*
X427857Y-34632000D01*
X446905Y-34622476D01*
X485000Y-34622476D01*
X504048Y-34632000D01*
X513571Y-34641524D01*
X523095Y-34660571D01*
X523095Y-34670095D01*
X513571Y-34689143D01*
X504048Y-34698667D01*
X485000Y-34708190D01*
X446905Y-34708190D01*
X427857Y-34717714D01*
X418333Y-34727238D01*
X408809Y-34746286D01*
X408809Y-34784381D01*
X418333Y-34803429D01*
X427857Y-34812952D01*
X446905Y-34822476D01*
X485000Y-34822476D01*
X504048Y-34812952D01*
X513571Y-34803429D01*
X523095Y-34784381D01*
X523095Y-34746286D01*
X513571Y-34727238D01*
X504048Y-34717714D01*
X485000Y-34708190D01*
X646905Y-34622476D02*
X665952Y-34622476D01*
X685000Y-34632000D01*
X694524Y-34641524D01*
X704048Y-34660571D01*
X713571Y-34698667D01*
X713571Y-34746286D01*
X704048Y-34784381D01*
X694524Y-34803429D01*
X685000Y-34812952D01*
X665952Y-34822476D01*
X646905Y-34822476D01*
X627857Y-34812952D01*
X618333Y-34803429D01*
X608810Y-34784381D01*
X599286Y-34746286D01*
X599286Y-34698667D01*
X608810Y-34660571D01*
X618333Y-34641524D01*
X627857Y-34632000D01*
X646905Y-34622476D01*
X837381Y-34622476D02*
X856428Y-34622476D01*
X875476Y-34632000D01*
X885000Y-34641524D01*
X894524Y-34660571D01*
X904048Y-34698667D01*
X904048Y-34746286D01*
X894524Y-34784381D01*
X885000Y-34803429D01*
X875476Y-34812952D01*
X856428Y-34822476D01*
X837381Y-34822476D01*
X818333Y-34812952D01*
X808809Y-34803429D01*
X799286Y-34784381D01*
X789762Y-34746286D01*
X789762Y-34698667D01*
X799286Y-34660571D01*
X808809Y-34641524D01*
X818333Y-34632000D01*
X837381Y-34622476D01*
X989762Y-34822476D02*
X989762Y-34689143D01*
X989762Y-34708190D02*
X999286Y-34698667D01*
X1018333Y-34689143D01*
X1046905Y-34689143D01*
X1065952Y-34698667D01*
X1075476Y-34717714D01*
X1075476Y-34822476D01*
X1075476Y-34717714D02*
X1085000Y-34698667D01*
X1104048Y-34689143D01*
X1132619Y-34689143D01*
X1151667Y-34698667D01*
X1161190Y-34717714D01*
X1161190Y-34822476D01*
X1256429Y-34822476D02*
X1256429Y-34689143D01*
X1256429Y-34708190D02*
X1265952Y-34698667D01*
X1285000Y-34689143D01*
X1313571Y-34689143D01*
X1332619Y-34698667D01*
X1342143Y-34717714D01*
X1342143Y-34822476D01*
X1342143Y-34717714D02*
X1351667Y-34698667D01*
X1370714Y-34689143D01*
X1399286Y-34689143D01*
X1418333Y-34698667D01*
X1427857Y-34717714D01*
X1427857Y-34822476D01*
X1818333Y-34612952D02*
X1646905Y-34870095D01*
X2075476Y-34622476D02*
X2094524Y-34622476D01*
X2113571Y-34632000D01*
X2123095Y-34641524D01*
X2132619Y-34660571D01*
X2142143Y-34698667D01*
X2142143Y-34746286D01*
X2132619Y-34784381D01*
X2123095Y-34803429D01*
X2113571Y-34812952D01*
X2094524Y-34822476D01*
X2075476Y-34822476D01*
X2056428Y-34812952D01*
X2046905Y-34803429D01*
X2037381Y-34784381D01*
X2027857Y-34746286D01*
X2027857Y-34698667D01*
X2037381Y-34660571D01*
X2046905Y-34641524D01*
X2056428Y-34632000D01*
X2075476Y-34622476D01*
X2227857Y-34803429D02*
X2237381Y-34812952D01*
X2227857Y-34822476D01*
X2218333Y-34812952D01*
X2227857Y-34803429D01*
X2227857Y-34822476D01*
X2361190Y-34622476D02*
X2380238Y-34622476D01*
X2399286Y-34632000D01*
X2408810Y-34641524D01*
X2418333Y-34660571D01*
X2427857Y-34698667D01*
X2427857Y-34746286D01*
X2418333Y-34784381D01*
X2408810Y-34803429D01*
X2399286Y-34812952D01*
X2380238Y-34822476D01*
X2361190Y-34822476D01*
X2342143Y-34812952D01*
X2332619Y-34803429D01*
X2323095Y-34784381D01*
X2313571Y-34746286D01*
X2313571Y-34698667D01*
X2323095Y-34660571D01*
X2332619Y-34641524D01*
X2342143Y-34632000D01*
X2361190Y-34622476D01*
X2494524Y-34622476D02*
X2618333Y-34622476D01*
X2551667Y-34698667D01*
X2580238Y-34698667D01*
X2599286Y-34708190D01*
X2608810Y-34717714D01*
X2618333Y-34736762D01*
X2618333Y-34784381D01*
X2608810Y-34803429D01*
X2599286Y-34812952D01*
X2580238Y-34822476D01*
X2523095Y-34822476D01*
X2504048Y-34812952D01*
X2494524Y-34803429D01*
X2808809Y-34822476D02*
X2694524Y-34822476D01*
X2751667Y-34822476D02*
X2751667Y-34622476D01*
X2732619Y-34651048D01*
X2713571Y-34670095D01*
X2694524Y-34679619D01*
X2989762Y-34622476D02*
X2894524Y-34622476D01*
X2885000Y-34717714D01*
X2894524Y-34708190D01*
X2913571Y-34698667D01*
X2961190Y-34698667D01*
X2980238Y-34708190D01*
X2989762Y-34717714D01*
X2999286Y-34736762D01*
X2999286Y-34784381D01*
X2989762Y-34803429D01*
X2980238Y-34812952D01*
X2961190Y-34822476D01*
X2913571Y-34822476D01*
X2894524Y-34812952D01*
X2885000Y-34803429D01*
X3075476Y-34622476D02*
X3075476Y-34660571D01*
X3151667Y-34622476D02*
X3151667Y-34660571D01*
X3446905Y-34898667D02*
X3437381Y-34889143D01*
X3418333Y-34860571D01*
X3408809Y-34841524D01*
X3399286Y-34812952D01*
X3389762Y-34765333D01*
X3389762Y-34727238D01*
X3399286Y-34679619D01*
X3408809Y-34651048D01*
X3418333Y-34632000D01*
X3437381Y-34603429D01*
X3446905Y-34593905D01*
X3627857Y-34822476D02*
X3513571Y-34822476D01*
X3570714Y-34822476D02*
X3570714Y-34622476D01*
X3551667Y-34651048D01*
X3532619Y-34670095D01*
X3513571Y-34679619D01*
X3704048Y-34641524D02*
X3713571Y-34632000D01*
X3732619Y-34622476D01*
X3780238Y-34622476D01*
X3799286Y-34632000D01*
X3808809Y-34641524D01*
X3818333Y-34660571D01*
X3818333Y-34679619D01*
X3808809Y-34708190D01*
X3694524Y-34822476D01*
X3818333Y-34822476D01*
X3894524Y-34641524D02*
X3904048Y-34632000D01*
X3923095Y-34622476D01*
X3970714Y-34622476D01*
X3989762Y-34632000D01*
X3999286Y-34641524D01*
X4008809Y-34660571D01*
X4008809Y-34679619D01*
X3999286Y-34708190D01*
X3885000Y-34822476D01*
X4008809Y-34822476D01*
X4246905Y-34822476D02*
X4246905Y-34622476D01*
X4332619Y-34822476D02*
X4332619Y-34717714D01*
X4323095Y-34698667D01*
X4304048Y-34689143D01*
X4275476Y-34689143D01*
X4256429Y-34698667D01*
X4246905Y-34708190D01*
X4456429Y-34822476D02*
X4437381Y-34812952D01*
X4427857Y-34803429D01*
X4418333Y-34784381D01*
X4418333Y-34727238D01*
X4427857Y-34708190D01*
X4437381Y-34698667D01*
X4456429Y-34689143D01*
X4485000Y-34689143D01*
X4504048Y-34698667D01*
X4513571Y-34708190D01*
X4523095Y-34727238D01*
X4523095Y-34784381D01*
X4513571Y-34803429D01*
X4504048Y-34812952D01*
X4485000Y-34822476D01*
X4456429Y-34822476D01*
X4637381Y-34822476D02*
X4618333Y-34812952D01*
X4608810Y-34793905D01*
X4608810Y-34622476D01*
X4789762Y-34812952D02*
X4770714Y-34822476D01*
X4732619Y-34822476D01*
X4713571Y-34812952D01*
X4704048Y-34793905D01*
X4704048Y-34717714D01*
X4713571Y-34698667D01*
X4732619Y-34689143D01*
X4770714Y-34689143D01*
X4789762Y-34698667D01*
X4799286Y-34717714D01*
X4799286Y-34736762D01*
X4704048Y-34755810D01*
X4875476Y-34812952D02*
X4894524Y-34822476D01*
X4932619Y-34822476D01*
X4951667Y-34812952D01*
X4961190Y-34793905D01*
X4961190Y-34784381D01*
X4951667Y-34765333D01*
X4932619Y-34755810D01*
X4904048Y-34755810D01*
X4885000Y-34746286D01*
X4875476Y-34727238D01*
X4875476Y-34717714D01*
X4885000Y-34698667D01*
X4904048Y-34689143D01*
X4932619Y-34689143D01*
X4951667Y-34698667D01*
X5027857Y-34898667D02*
X5037381Y-34889143D01*
X5056429Y-34860571D01*
X5065952Y-34841524D01*
X5075476Y-34812952D01*
X5085000Y-34765333D01*
X5085000Y-34727238D01*
X5075476Y-34679619D01*
X5065952Y-34651048D01*
X5056429Y-34632000D01*
X5037381Y-34603429D01*
X5027857Y-34593905D01*
D10*
X-175000Y-34946000D02*
X-175000Y-35046000D01*
X-225000Y-34996000D02*
X-125000Y-34996000D01*
D11*
X237381Y-35086476D02*
X123095Y-35086476D01*
X180238Y-35086476D02*
X180238Y-34886476D01*
X161190Y-34915048D01*
X142143Y-34934095D01*
X123095Y-34943619D01*
X323095Y-35067429D02*
X332619Y-35076952D01*
X323095Y-35086476D01*
X313571Y-35076952D01*
X323095Y-35067429D01*
X323095Y-35086476D01*
X456428Y-34886476D02*
X475476Y-34886476D01*
X494524Y-34896000D01*
X504048Y-34905524D01*
X513571Y-34924571D01*
X523095Y-34962667D01*
X523095Y-35010286D01*
X513571Y-35048381D01*
X504048Y-35067429D01*
X494524Y-35076952D01*
X475476Y-35086476D01*
X456428Y-35086476D01*
X437381Y-35076952D01*
X427857Y-35067429D01*
X418333Y-35048381D01*
X408809Y-35010286D01*
X408809Y-34962667D01*
X418333Y-34924571D01*
X427857Y-34905524D01*
X437381Y-34896000D01*
X456428Y-34886476D01*
X646905Y-34886476D02*
X665952Y-34886476D01*
X685000Y-34896000D01*
X694524Y-34905524D01*
X704048Y-34924571D01*
X713571Y-34962667D01*
X713571Y-35010286D01*
X704048Y-35048381D01*
X694524Y-35067429D01*
X685000Y-35076952D01*
X665952Y-35086476D01*
X646905Y-35086476D01*
X627857Y-35076952D01*
X618333Y-35067429D01*
X608810Y-35048381D01*
X599286Y-35010286D01*
X599286Y-34962667D01*
X608810Y-34924571D01*
X618333Y-34905524D01*
X627857Y-34896000D01*
X646905Y-34886476D01*
X837381Y-34886476D02*
X856428Y-34886476D01*
X875476Y-34896000D01*
X885000Y-34905524D01*
X894524Y-34924571D01*
X904048Y-34962667D01*
X904048Y-35010286D01*
X894524Y-35048381D01*
X885000Y-35067429D01*
X875476Y-35076952D01*
X856428Y-35086476D01*
X837381Y-35086476D01*
X818333Y-35076952D01*
X808809Y-35067429D01*
X799286Y-35048381D01*
X789762Y-35010286D01*
X789762Y-34962667D01*
X799286Y-34924571D01*
X808809Y-34905524D01*
X818333Y-34896000D01*
X837381Y-34886476D01*
X989762Y-35086476D02*
X989762Y-34953143D01*
X989762Y-34972190D02*
X999286Y-34962667D01*
X1018333Y-34953143D01*
X1046905Y-34953143D01*
X1065952Y-34962667D01*
X1075476Y-34981714D01*
X1075476Y-35086476D01*
X1075476Y-34981714D02*
X1085000Y-34962667D01*
X1104048Y-34953143D01*
X1132619Y-34953143D01*
X1151667Y-34962667D01*
X1161190Y-34981714D01*
X1161190Y-35086476D01*
X1256429Y-35086476D02*
X1256429Y-34953143D01*
X1256429Y-34972190D02*
X1265952Y-34962667D01*
X1285000Y-34953143D01*
X1313571Y-34953143D01*
X1332619Y-34962667D01*
X1342143Y-34981714D01*
X1342143Y-35086476D01*
X1342143Y-34981714D02*
X1351667Y-34962667D01*
X1370714Y-34953143D01*
X1399286Y-34953143D01*
X1418333Y-34962667D01*
X1427857Y-34981714D01*
X1427857Y-35086476D01*
X1818333Y-34876952D02*
X1646905Y-35134095D01*
X2075476Y-34886476D02*
X2094524Y-34886476D01*
X2113571Y-34896000D01*
X2123095Y-34905524D01*
X2132619Y-34924571D01*
X2142143Y-34962667D01*
X2142143Y-35010286D01*
X2132619Y-35048381D01*
X2123095Y-35067429D01*
X2113571Y-35076952D01*
X2094524Y-35086476D01*
X2075476Y-35086476D01*
X2056428Y-35076952D01*
X2046905Y-35067429D01*
X2037381Y-35048381D01*
X2027857Y-35010286D01*
X2027857Y-34962667D01*
X2037381Y-34924571D01*
X2046905Y-34905524D01*
X2056428Y-34896000D01*
X2075476Y-34886476D01*
X2227857Y-35067429D02*
X2237381Y-35076952D01*
X2227857Y-35086476D01*
X2218333Y-35076952D01*
X2227857Y-35067429D01*
X2227857Y-35086476D01*
X2361190Y-34886476D02*
X2380238Y-34886476D01*
X2399286Y-34896000D01*
X2408810Y-34905524D01*
X2418333Y-34924571D01*
X2427857Y-34962667D01*
X2427857Y-35010286D01*
X2418333Y-35048381D01*
X2408810Y-35067429D01*
X2399286Y-35076952D01*
X2380238Y-35086476D01*
X2361190Y-35086476D01*
X2342143Y-35076952D01*
X2332619Y-35067429D01*
X2323095Y-35048381D01*
X2313571Y-35010286D01*
X2313571Y-34962667D01*
X2323095Y-34924571D01*
X2332619Y-34905524D01*
X2342143Y-34896000D01*
X2361190Y-34886476D01*
X2494524Y-34886476D02*
X2618333Y-34886476D01*
X2551667Y-34962667D01*
X2580238Y-34962667D01*
X2599286Y-34972190D01*
X2608810Y-34981714D01*
X2618333Y-35000762D01*
X2618333Y-35048381D01*
X2608810Y-35067429D01*
X2599286Y-35076952D01*
X2580238Y-35086476D01*
X2523095Y-35086476D01*
X2504048Y-35076952D01*
X2494524Y-35067429D01*
X2713571Y-35086476D02*
X2751667Y-35086476D01*
X2770714Y-35076952D01*
X2780238Y-35067429D01*
X2799286Y-35038857D01*
X2808809Y-35000762D01*
X2808809Y-34924571D01*
X2799286Y-34905524D01*
X2789762Y-34896000D01*
X2770714Y-34886476D01*
X2732619Y-34886476D01*
X2713571Y-34896000D01*
X2704048Y-34905524D01*
X2694524Y-34924571D01*
X2694524Y-34972190D01*
X2704048Y-34991238D01*
X2713571Y-35000762D01*
X2732619Y-35010286D01*
X2770714Y-35010286D01*
X2789762Y-35000762D01*
X2799286Y-34991238D01*
X2808809Y-34972190D01*
X2980238Y-34953143D02*
X2980238Y-35086476D01*
X2932619Y-34876952D02*
X2885000Y-35019810D01*
X3008809Y-35019810D01*
X3075476Y-34886476D02*
X3075476Y-34924571D01*
X3151667Y-34886476D02*
X3151667Y-34924571D01*
X3446905Y-35162667D02*
X3437381Y-35153143D01*
X3418333Y-35124571D01*
X3408809Y-35105524D01*
X3399286Y-35076952D01*
X3389762Y-35029333D01*
X3389762Y-34991238D01*
X3399286Y-34943619D01*
X3408809Y-34915048D01*
X3418333Y-34896000D01*
X3437381Y-34867429D01*
X3446905Y-34857905D01*
X3504048Y-34886476D02*
X3627857Y-34886476D01*
X3561190Y-34962667D01*
X3589762Y-34962667D01*
X3608809Y-34972190D01*
X3618333Y-34981714D01*
X3627857Y-35000762D01*
X3627857Y-35048381D01*
X3618333Y-35067429D01*
X3608809Y-35076952D01*
X3589762Y-35086476D01*
X3532619Y-35086476D01*
X3513571Y-35076952D01*
X3504048Y-35067429D01*
X3751667Y-34886476D02*
X3770714Y-34886476D01*
X3789762Y-34896000D01*
X3799286Y-34905524D01*
X3808809Y-34924571D01*
X3818333Y-34962667D01*
X3818333Y-35010286D01*
X3808809Y-35048381D01*
X3799286Y-35067429D01*
X3789762Y-35076952D01*
X3770714Y-35086476D01*
X3751667Y-35086476D01*
X3732619Y-35076952D01*
X3723095Y-35067429D01*
X3713571Y-35048381D01*
X3704048Y-35010286D01*
X3704048Y-34962667D01*
X3713571Y-34924571D01*
X3723095Y-34905524D01*
X3732619Y-34896000D01*
X3751667Y-34886476D01*
X4056428Y-35086476D02*
X4056428Y-34886476D01*
X4142143Y-35086476D02*
X4142143Y-34981714D01*
X4132619Y-34962667D01*
X4113571Y-34953143D01*
X4085000Y-34953143D01*
X4065952Y-34962667D01*
X4056428Y-34972190D01*
X4265952Y-35086476D02*
X4246905Y-35076952D01*
X4237381Y-35067429D01*
X4227857Y-35048381D01*
X4227857Y-34991238D01*
X4237381Y-34972190D01*
X4246905Y-34962667D01*
X4265952Y-34953143D01*
X4294524Y-34953143D01*
X4313571Y-34962667D01*
X4323095Y-34972190D01*
X4332619Y-34991238D01*
X4332619Y-35048381D01*
X4323095Y-35067429D01*
X4313571Y-35076952D01*
X4294524Y-35086476D01*
X4265952Y-35086476D01*
X4446905Y-35086476D02*
X4427857Y-35076952D01*
X4418333Y-35057905D01*
X4418333Y-34886476D01*
X4599286Y-35076952D02*
X4580238Y-35086476D01*
X4542143Y-35086476D01*
X4523095Y-35076952D01*
X4513571Y-35057905D01*
X4513571Y-34981714D01*
X4523095Y-34962667D01*
X4542143Y-34953143D01*
X4580238Y-34953143D01*
X4599286Y-34962667D01*
X4608810Y-34981714D01*
X4608810Y-35000762D01*
X4513571Y-35019810D01*
X4685000Y-35076952D02*
X4704048Y-35086476D01*
X4742143Y-35086476D01*
X4761190Y-35076952D01*
X4770714Y-35057905D01*
X4770714Y-35048381D01*
X4761190Y-35029333D01*
X4742143Y-35019810D01*
X4713571Y-35019810D01*
X4694524Y-35010286D01*
X4685000Y-34991238D01*
X4685000Y-34981714D01*
X4694524Y-34962667D01*
X4713571Y-34953143D01*
X4742143Y-34953143D01*
X4761190Y-34962667D01*
X4837381Y-35162667D02*
X4846905Y-35153143D01*
X4865952Y-35124571D01*
X4875476Y-35105524D01*
X4885000Y-35076952D01*
X4894524Y-35029333D01*
X4894524Y-34991238D01*
X4885000Y-34943619D01*
X4875476Y-34915048D01*
X4865952Y-34896000D01*
X4846905Y-34867429D01*
X4837381Y-34857905D01*
D14*
X-146967Y-35313034D02*
X-146967Y-35206967D01*
X-253033Y-35206967D01*
X-253033Y-35313034D01*
X-146967Y-35313034D01*
D11*
X237381Y-35350476D02*
X123095Y-35350476D01*
X180238Y-35350476D02*
X180238Y-35150476D01*
X161190Y-35179048D01*
X142143Y-35198095D01*
X123095Y-35207619D01*
X323095Y-35331429D02*
X332619Y-35340952D01*
X323095Y-35350476D01*
X313571Y-35340952D01*
X323095Y-35331429D01*
X323095Y-35350476D01*
X513571Y-35150476D02*
X418333Y-35150476D01*
X408809Y-35245714D01*
X418333Y-35236190D01*
X437381Y-35226667D01*
X485000Y-35226667D01*
X504048Y-35236190D01*
X513571Y-35245714D01*
X523095Y-35264762D01*
X523095Y-35312381D01*
X513571Y-35331429D01*
X504048Y-35340952D01*
X485000Y-35350476D01*
X437381Y-35350476D01*
X418333Y-35340952D01*
X408809Y-35331429D01*
X646905Y-35150476D02*
X665952Y-35150476D01*
X685000Y-35160000D01*
X694524Y-35169524D01*
X704048Y-35188571D01*
X713571Y-35226667D01*
X713571Y-35274286D01*
X704048Y-35312381D01*
X694524Y-35331429D01*
X685000Y-35340952D01*
X665952Y-35350476D01*
X646905Y-35350476D01*
X627857Y-35340952D01*
X618333Y-35331429D01*
X608810Y-35312381D01*
X599286Y-35274286D01*
X599286Y-35226667D01*
X608810Y-35188571D01*
X618333Y-35169524D01*
X627857Y-35160000D01*
X646905Y-35150476D01*
X837381Y-35150476D02*
X856428Y-35150476D01*
X875476Y-35160000D01*
X885000Y-35169524D01*
X894524Y-35188571D01*
X904048Y-35226667D01*
X904048Y-35274286D01*
X894524Y-35312381D01*
X885000Y-35331429D01*
X875476Y-35340952D01*
X856428Y-35350476D01*
X837381Y-35350476D01*
X818333Y-35340952D01*
X808809Y-35331429D01*
X799286Y-35312381D01*
X789762Y-35274286D01*
X789762Y-35226667D01*
X799286Y-35188571D01*
X808809Y-35169524D01*
X818333Y-35160000D01*
X837381Y-35150476D01*
X989762Y-35350476D02*
X989762Y-35217143D01*
X989762Y-35236190D02*
X999286Y-35226667D01*
X1018333Y-35217143D01*
X1046905Y-35217143D01*
X1065952Y-35226667D01*
X1075476Y-35245714D01*
X1075476Y-35350476D01*
X1075476Y-35245714D02*
X1085000Y-35226667D01*
X1104048Y-35217143D01*
X1132619Y-35217143D01*
X1151667Y-35226667D01*
X1161190Y-35245714D01*
X1161190Y-35350476D01*
X1256429Y-35350476D02*
X1256429Y-35217143D01*
X1256429Y-35236190D02*
X1265952Y-35226667D01*
X1285000Y-35217143D01*
X1313571Y-35217143D01*
X1332619Y-35226667D01*
X1342143Y-35245714D01*
X1342143Y-35350476D01*
X1342143Y-35245714D02*
X1351667Y-35226667D01*
X1370714Y-35217143D01*
X1399286Y-35217143D01*
X1418333Y-35226667D01*
X1427857Y-35245714D01*
X1427857Y-35350476D01*
X1818333Y-35140952D02*
X1646905Y-35398095D01*
X2075476Y-35150476D02*
X2094524Y-35150476D01*
X2113571Y-35160000D01*
X2123095Y-35169524D01*
X2132619Y-35188571D01*
X2142143Y-35226667D01*
X2142143Y-35274286D01*
X2132619Y-35312381D01*
X2123095Y-35331429D01*
X2113571Y-35340952D01*
X2094524Y-35350476D01*
X2075476Y-35350476D01*
X2056428Y-35340952D01*
X2046905Y-35331429D01*
X2037381Y-35312381D01*
X2027857Y-35274286D01*
X2027857Y-35226667D01*
X2037381Y-35188571D01*
X2046905Y-35169524D01*
X2056428Y-35160000D01*
X2075476Y-35150476D01*
X2227857Y-35331429D02*
X2237381Y-35340952D01*
X2227857Y-35350476D01*
X2218333Y-35340952D01*
X2227857Y-35331429D01*
X2227857Y-35350476D01*
X2361190Y-35150476D02*
X2380238Y-35150476D01*
X2399286Y-35160000D01*
X2408810Y-35169524D01*
X2418333Y-35188571D01*
X2427857Y-35226667D01*
X2427857Y-35274286D01*
X2418333Y-35312381D01*
X2408810Y-35331429D01*
X2399286Y-35340952D01*
X2380238Y-35350476D01*
X2361190Y-35350476D01*
X2342143Y-35340952D01*
X2332619Y-35331429D01*
X2323095Y-35312381D01*
X2313571Y-35274286D01*
X2313571Y-35226667D01*
X2323095Y-35188571D01*
X2332619Y-35169524D01*
X2342143Y-35160000D01*
X2361190Y-35150476D01*
X2608810Y-35150476D02*
X2513571Y-35150476D01*
X2504048Y-35245714D01*
X2513571Y-35236190D01*
X2532619Y-35226667D01*
X2580238Y-35226667D01*
X2599286Y-35236190D01*
X2608810Y-35245714D01*
X2618333Y-35264762D01*
X2618333Y-35312381D01*
X2608810Y-35331429D01*
X2599286Y-35340952D01*
X2580238Y-35350476D01*
X2532619Y-35350476D01*
X2513571Y-35340952D01*
X2504048Y-35331429D01*
X2713571Y-35350476D02*
X2751667Y-35350476D01*
X2770714Y-35340952D01*
X2780238Y-35331429D01*
X2799286Y-35302857D01*
X2808809Y-35264762D01*
X2808809Y-35188571D01*
X2799286Y-35169524D01*
X2789762Y-35160000D01*
X2770714Y-35150476D01*
X2732619Y-35150476D01*
X2713571Y-35160000D01*
X2704048Y-35169524D01*
X2694524Y-35188571D01*
X2694524Y-35236190D01*
X2704048Y-35255238D01*
X2713571Y-35264762D01*
X2732619Y-35274286D01*
X2770714Y-35274286D01*
X2789762Y-35264762D01*
X2799286Y-35255238D01*
X2808809Y-35236190D01*
X2999286Y-35350476D02*
X2885000Y-35350476D01*
X2942143Y-35350476D02*
X2942143Y-35150476D01*
X2923095Y-35179048D01*
X2904048Y-35198095D01*
X2885000Y-35207619D01*
X3075476Y-35150476D02*
X3075476Y-35188571D01*
X3151667Y-35150476D02*
X3151667Y-35188571D01*
X3446905Y-35426667D02*
X3437381Y-35417143D01*
X3418333Y-35388571D01*
X3408809Y-35369524D01*
X3399286Y-35340952D01*
X3389762Y-35293333D01*
X3389762Y-35255238D01*
X3399286Y-35207619D01*
X3408809Y-35179048D01*
X3418333Y-35160000D01*
X3437381Y-35131429D01*
X3446905Y-35121905D01*
X3627857Y-35350476D02*
X3513571Y-35350476D01*
X3570714Y-35350476D02*
X3570714Y-35150476D01*
X3551667Y-35179048D01*
X3532619Y-35198095D01*
X3513571Y-35207619D01*
X3704048Y-35169524D02*
X3713571Y-35160000D01*
X3732619Y-35150476D01*
X3780238Y-35150476D01*
X3799286Y-35160000D01*
X3808809Y-35169524D01*
X3818333Y-35188571D01*
X3818333Y-35207619D01*
X3808809Y-35236190D01*
X3694524Y-35350476D01*
X3818333Y-35350476D01*
X3894524Y-35169524D02*
X3904048Y-35160000D01*
X3923095Y-35150476D01*
X3970714Y-35150476D01*
X3989762Y-35160000D01*
X3999286Y-35169524D01*
X4008809Y-35188571D01*
X4008809Y-35207619D01*
X3999286Y-35236190D01*
X3885000Y-35350476D01*
X4008809Y-35350476D01*
X4246905Y-35350476D02*
X4246905Y-35150476D01*
X4332619Y-35350476D02*
X4332619Y-35245714D01*
X4323095Y-35226667D01*
X4304048Y-35217143D01*
X4275476Y-35217143D01*
X4256429Y-35226667D01*
X4246905Y-35236190D01*
X4456429Y-35350476D02*
X4437381Y-35340952D01*
X4427857Y-35331429D01*
X4418333Y-35312381D01*
X4418333Y-35255238D01*
X4427857Y-35236190D01*
X4437381Y-35226667D01*
X4456429Y-35217143D01*
X4485000Y-35217143D01*
X4504048Y-35226667D01*
X4513571Y-35236190D01*
X4523095Y-35255238D01*
X4523095Y-35312381D01*
X4513571Y-35331429D01*
X4504048Y-35340952D01*
X4485000Y-35350476D01*
X4456429Y-35350476D01*
X4637381Y-35350476D02*
X4618333Y-35340952D01*
X4608810Y-35321905D01*
X4608810Y-35150476D01*
X4789762Y-35340952D02*
X4770714Y-35350476D01*
X4732619Y-35350476D01*
X4713571Y-35340952D01*
X4704048Y-35321905D01*
X4704048Y-35245714D01*
X4713571Y-35226667D01*
X4732619Y-35217143D01*
X4770714Y-35217143D01*
X4789762Y-35226667D01*
X4799286Y-35245714D01*
X4799286Y-35264762D01*
X4704048Y-35283810D01*
X4875476Y-35340952D02*
X4894524Y-35350476D01*
X4932619Y-35350476D01*
X4951667Y-35340952D01*
X4961190Y-35321905D01*
X4961190Y-35312381D01*
X4951667Y-35293333D01*
X4932619Y-35283810D01*
X4904048Y-35283810D01*
X4885000Y-35274286D01*
X4875476Y-35255238D01*
X4875476Y-35245714D01*
X4885000Y-35226667D01*
X4904048Y-35217143D01*
X4932619Y-35217143D01*
X4951667Y-35226667D01*
X5027857Y-35426667D02*
X5037381Y-35417143D01*
X5056429Y-35388571D01*
X5065952Y-35369524D01*
X5075476Y-35340952D01*
X5085000Y-35293333D01*
X5085000Y-35255238D01*
X5075476Y-35207619D01*
X5065952Y-35179048D01*
X5056429Y-35160000D01*
X5037381Y-35131429D01*
X5027857Y-35121905D01*
M02*
