M48
; DRILL file {KiCad (6.0.7)} date Tue Sep  6 07:42:02 2022
; FORMAT={-:-/ absolute / metric / decimal}
; #@! TF.CreationDate,2022-09-06T07:42:02-07:00
; #@! TF.GenerationSoftware,Kicad,Pcbnew,(6.0.7)
; #@! TF.FileFunction,NonPlated,1,2,NPTH
FMAT,2
METRIC
; #@! TA.AperFunction,NonPlated,NPTH,ComponentDrill
T1C1.750
; #@! TA.AperFunction,NonPlated,NPTH,ComponentDrill
T2C4.000
%
G90
G05
T1
X6.41Y-327.7
X8.71Y-267.71
X13.72Y-247.71
X15.82Y-287.73
X16.57Y-327.7
X18.87Y-267.71
X20.66Y-307.71
X23.88Y-247.71
X25.98Y-287.73
X30.82Y-307.71
X33.27Y-327.79
X33.32Y-267.73
X43.32Y-247.73
X43.43Y-327.79
X43.48Y-267.73
X48.32Y-287.73
X53.32Y-267.73
X53.48Y-247.73
X58.32Y-307.73
X58.48Y-287.73
X59.71Y-327.75
X63.32Y-247.73
X63.48Y-267.73
X68.32Y-287.73
X68.48Y-307.73
X69.87Y-327.75
X73.32Y-267.73
X73.48Y-247.73
X78.32Y-307.73
X78.48Y-287.73
X83.32Y-247.73
X83.48Y-267.73
X85.82Y-327.73
X88.32Y-287.73
X88.48Y-307.73
X93.32Y-267.73
X93.48Y-247.73
X95.98Y-327.73
X98.32Y-307.73
X98.48Y-287.73
X103.32Y-247.73
X103.48Y-267.73
X108.32Y-287.73
X108.48Y-307.73
X113.32Y-267.73
X113.48Y-247.73
X118.32Y-307.73
X118.48Y-287.73
X123.32Y-247.73
X123.48Y-267.73
X128.32Y-287.73
X128.48Y-307.73
X133.32Y-267.73
X133.48Y-247.73
X138.32Y-307.73
X138.48Y-287.73
X143.32Y-247.73
X143.48Y-267.73
X148.32Y-287.73
X148.48Y-307.73
X153.32Y-267.73
X153.48Y-247.73
X158.32Y-307.73
X158.32Y-327.73
X158.48Y-287.73
X163.32Y-247.73
X163.48Y-267.73
X168.32Y-287.73
X168.48Y-307.73
X168.48Y-327.73
X173.32Y-267.73
X173.48Y-247.73
X178.32Y-307.73
X178.48Y-287.73
X183.32Y-247.73
X183.48Y-267.73
X188.32Y-287.73
X188.48Y-307.73
X193.32Y-267.73
X193.48Y-247.73
X198.32Y-307.73
X198.48Y-287.73
X203.32Y-247.73
X203.48Y-267.73
X208.32Y-287.73
X208.48Y-307.73
X213.32Y-267.73
X213.48Y-247.73
X218.32Y-307.73
X218.48Y-287.73
X223.32Y-247.73
X223.48Y-267.73
X228.32Y-287.73
X228.48Y-307.73
X230.82Y-327.73
X233.32Y-267.73
X233.48Y-247.73
X238.32Y-307.73
X238.48Y-287.73
X240.98Y-327.73
X243.32Y-247.73
X243.48Y-267.73
X248.32Y-287.73
X248.48Y-307.73
X253.32Y-267.73
X253.48Y-247.73
X255.82Y-327.73
X258.48Y-287.73
X263.32Y-247.73
X263.48Y-267.73
X265.98Y-327.73
X270.82Y-307.73
X273.48Y-247.73
X275.82Y-287.73
X278.32Y-267.73
X280.32Y-327.73
X280.98Y-307.73
X282.82Y-247.73
X285.98Y-287.73
X288.48Y-267.73
X290.48Y-327.73
X292.98Y-247.73
T2
X11.49Y-327.7
X13.79Y-267.71
X18.8Y-247.71
X20.9Y-287.73
X25.74Y-307.71
X38.35Y-327.79
X38.4Y-267.73
X48.4Y-247.73
X53.4Y-287.73
X58.4Y-267.73
X63.4Y-307.73
X64.79Y-327.75
X68.4Y-247.73
X73.4Y-287.73
X78.4Y-267.73
X83.4Y-307.73
X88.4Y-247.73
X90.9Y-327.73
X93.4Y-287.73
X98.4Y-267.73
X103.4Y-307.73
X108.4Y-247.73
X113.4Y-287.73
X118.4Y-267.73
X123.4Y-307.73
X128.4Y-247.73
X133.4Y-287.73
X138.4Y-267.73
X143.4Y-307.73
X148.4Y-247.73
X153.4Y-287.73
X158.4Y-267.73
X163.4Y-307.73
X163.4Y-327.73
X168.4Y-247.73
X173.4Y-287.73
X178.4Y-267.73
X183.4Y-307.73
X188.4Y-247.73
X193.4Y-287.73
X198.4Y-267.73
X203.4Y-307.73
X208.4Y-247.73
X213.4Y-287.73
X218.4Y-267.73
X223.4Y-307.73
X228.4Y-247.73
X233.4Y-287.73
X235.9Y-327.73
X238.4Y-267.73
X243.4Y-307.73
X248.4Y-247.73
X253.4Y-287.73
X258.4Y-267.73
X260.9Y-327.73
X268.4Y-247.73
X275.9Y-307.73
X280.9Y-287.73
X283.4Y-267.73
X285.4Y-327.73
X287.9Y-247.73
T0
M30
