M48
; DRILL file {KiCad (6.0.7)} date Tue Sep  6 07:42:02 2022
; FORMAT={-:-/ absolute / metric / decimal}
; #@! TF.CreationDate,2022-09-06T07:42:02-07:00
; #@! TF.GenerationSoftware,Kicad,Pcbnew,(6.0.7)
; #@! TF.FileFunction,Plated,1,2,PTH
FMAT,2
METRIC
; #@! TA.AperFunction,Plated,PTH,ViaDrill
T1C0.400
; #@! TA.AperFunction,Plated,PTH,ComponentDrill
T2C0.800
; #@! TA.AperFunction,Plated,PTH,ComponentDrill
T3C1.000
; #@! TA.AperFunction,Plated,PTH,ComponentDrill
T4C1.500
%
G90
G05
T1
X1.476Y-244.9
X2.8Y-246.2
X8.9Y-238.724
X11.1Y-245.1
X22.7Y-262.3
X24.9Y-259.675
X25.8Y-259.6
X26.1Y-258.5
X27.9Y-266.4
X29.1Y-266.5
X47.0Y-237.475
X48.858Y-216.942
X49.1Y-219.9
X50.9Y-218.1
X54.9Y-219.5
X58.9Y-220.7
X62.9Y-221.9
X66.9Y-220.7
X70.9Y-221.9
X74.9Y-219.5
X78.9Y-220.7
X82.9Y-221.9
X86.9Y-216.9
X90.9Y-218.1
X94.9Y-219.5
X98.9Y-220.7
X102.9Y-221.9
X106.9Y-216.9
X110.9Y-218.1
X114.9Y-219.5
X118.9Y-220.7
X122.9Y-221.9
X125.9Y-315.1
X125.9Y-318.5
X126.9Y-216.9
X127.5Y-315.8
X127.5Y-318.5
X128.8Y-316.0
X128.8Y-318.5
X130.9Y-218.1
X134.9Y-219.5
X138.9Y-220.7
X142.9Y-221.9
X146.9Y-216.9
X150.9Y-218.1
X154.9Y-219.5
X158.9Y-220.7
X162.9Y-221.9
X166.9Y-218.1
X170.9Y-219.5
X174.9Y-220.7
X178.9Y-221.9
X182.9Y-218.1
X186.9Y-219.5
X190.9Y-220.7
X194.9Y-221.9
X198.9Y-216.9
X202.9Y-218.1
X206.9Y-219.5
X210.9Y-220.7
X214.9Y-221.9
X218.9Y-218.1
X222.9Y-219.5
X226.9Y-220.7
X230.9Y-221.9
X234.9Y-216.9
X238.9Y-218.1
X242.9Y-219.5
X246.9Y-220.7
X250.9Y-221.9
X254.9Y-216.9
X258.9Y-218.1
X262.9Y-219.5
X266.9Y-220.7
X270.9Y-221.9
X271.0Y-238.4
X274.9Y-216.9
X278.9Y-218.1
X282.9Y-219.4
X286.9Y-220.7
X290.9Y-221.9
T2
X50.9Y-223.42
X50.9Y-231.04
X54.9Y-223.42
X54.9Y-231.04
X58.9Y-223.42
X58.9Y-231.04
X62.9Y-223.42
X62.9Y-231.04
X66.9Y-223.42
X66.9Y-231.04
X70.9Y-223.42
X70.9Y-231.04
X74.9Y-223.42
X74.9Y-231.04
X78.9Y-223.42
X78.9Y-231.04
X82.9Y-223.42
X82.9Y-231.04
X86.9Y-223.42
X86.9Y-231.04
X90.9Y-223.42
X90.9Y-231.04
X94.9Y-223.42
X94.9Y-231.04
X98.9Y-223.42
X98.9Y-231.04
X102.9Y-223.42
X102.9Y-231.04
X106.9Y-223.42
X106.9Y-231.04
X110.9Y-223.42
X110.9Y-231.04
X114.9Y-223.42
X114.9Y-231.04
X118.9Y-223.42
X118.9Y-231.04
X122.9Y-223.42
X122.9Y-231.04
X126.9Y-223.42
X126.9Y-231.04
X130.9Y-223.42
X130.9Y-231.04
X134.9Y-223.42
X134.9Y-231.04
X138.9Y-223.42
X138.9Y-231.04
X142.9Y-223.42
X142.9Y-231.04
X146.9Y-223.42
X146.9Y-231.04
X150.9Y-223.42
X150.9Y-231.04
X154.9Y-223.42
X154.9Y-231.04
X158.9Y-223.42
X158.9Y-231.04
X162.9Y-223.42
X162.9Y-231.04
X166.9Y-223.42
X166.9Y-231.04
X170.9Y-223.42
X170.9Y-231.04
X174.9Y-223.42
X174.9Y-231.04
X178.9Y-223.42
X178.9Y-231.04
X182.9Y-223.42
X182.9Y-231.04
X186.9Y-223.42
X186.9Y-231.04
X190.9Y-223.42
X190.9Y-231.04
X194.9Y-223.42
X194.9Y-231.04
X198.9Y-223.42
X198.9Y-231.04
X202.9Y-223.42
X202.9Y-231.04
X206.9Y-223.42
X206.9Y-231.04
X210.9Y-223.42
X210.9Y-231.04
X214.9Y-223.42
X214.9Y-231.04
X218.9Y-223.42
X218.9Y-231.04
X222.9Y-223.42
X222.9Y-231.04
X226.9Y-223.42
X226.9Y-231.04
X230.9Y-223.42
X230.9Y-231.04
X234.9Y-223.42
X234.9Y-231.04
X238.9Y-223.42
X238.9Y-231.04
X242.9Y-223.42
X242.9Y-231.04
X246.9Y-223.42
X246.9Y-231.04
X250.9Y-223.42
X250.9Y-231.04
X254.9Y-223.42
X254.9Y-231.04
X258.9Y-223.42
X258.9Y-231.04
X262.9Y-223.42
X262.9Y-231.04
X266.9Y-223.42
X266.9Y-231.04
X270.9Y-223.42
X270.9Y-231.04
X274.9Y-223.42
X274.9Y-231.04
X278.9Y-223.42
X278.9Y-231.04
X282.9Y-223.42
X282.9Y-231.04
X286.9Y-223.42
X286.9Y-231.04
X290.9Y-223.42
X290.9Y-231.04
T3
X6.49Y-219.97
X6.49Y-235.21
X9.03Y-219.97
X9.03Y-235.21
X11.57Y-219.97
X11.57Y-235.21
X14.11Y-219.97
X14.11Y-235.21
X16.65Y-219.97
X16.65Y-235.21
X19.19Y-219.97
X19.19Y-235.21
X21.73Y-219.97
X21.73Y-235.21
X24.27Y-219.97
X24.27Y-235.21
X26.81Y-219.97
X26.81Y-235.21
X29.35Y-219.97
X29.35Y-235.21
X31.89Y-219.97
X31.89Y-235.21
X34.43Y-219.97
X34.43Y-235.21
X36.97Y-219.97
X36.97Y-235.21
X39.51Y-219.97
X39.51Y-235.21
X42.05Y-219.97
X42.05Y-235.21
T4
X8.95Y-322.62
X11.25Y-262.63
X15.3Y-325.16
X16.26Y-242.63
X17.6Y-265.17
X18.36Y-282.65
X22.61Y-245.17
X23.2Y-302.63
X24.71Y-285.19
X29.55Y-305.17
X35.81Y-322.71
X35.86Y-262.65
X42.16Y-325.25
X42.21Y-265.19
X45.86Y-242.65
X50.86Y-282.65
X52.21Y-245.19
X55.86Y-262.65
X57.21Y-285.19
X60.86Y-302.65
X62.21Y-265.19
X62.25Y-322.67
X65.86Y-242.65
X67.21Y-305.19
X68.6Y-325.21
X70.86Y-282.65
X72.21Y-245.19
X75.86Y-262.65
X77.21Y-285.19
X80.86Y-302.65
X82.21Y-265.19
X85.86Y-242.65
X87.21Y-305.19
X88.36Y-322.65
X90.86Y-282.65
X92.21Y-245.19
X94.71Y-325.19
X95.86Y-262.65
X97.21Y-285.19
X100.86Y-302.65
X102.21Y-265.19
X105.86Y-242.65
X107.21Y-305.19
X110.86Y-282.65
X112.21Y-245.19
X115.86Y-262.65
X117.21Y-285.19
X120.86Y-302.65
X122.21Y-265.19
X125.86Y-242.65
X127.21Y-305.19
X130.86Y-282.65
X132.21Y-245.19
X135.86Y-262.65
X137.21Y-285.19
X140.86Y-302.65
X142.21Y-265.19
X145.86Y-242.65
X147.21Y-305.19
X150.86Y-282.65
X152.21Y-245.19
X155.86Y-262.65
X157.21Y-285.19
X160.86Y-302.65
X160.86Y-322.65
X162.21Y-265.19
X165.86Y-242.65
X167.21Y-305.19
X167.21Y-325.19
X170.86Y-282.65
X172.21Y-245.19
X175.86Y-262.65
X177.21Y-285.19
X180.86Y-302.65
X182.21Y-265.19
X185.86Y-242.65
X187.21Y-305.19
X190.86Y-282.65
X192.21Y-245.19
X195.86Y-262.65
X197.21Y-285.19
X200.86Y-302.65
X202.21Y-265.19
X205.86Y-242.65
X207.21Y-305.19
X210.86Y-282.65
X212.21Y-245.19
X215.86Y-262.65
X217.21Y-285.19
X220.86Y-302.65
X222.21Y-265.19
X225.86Y-242.65
X227.21Y-305.19
X230.86Y-282.65
X232.21Y-245.19
X233.36Y-322.65
X235.86Y-262.65
X237.21Y-285.19
X239.71Y-325.19
X240.86Y-302.65
X242.21Y-265.19
X245.86Y-242.65
X247.21Y-305.19
X250.86Y-282.65
X252.21Y-245.19
X255.86Y-262.65
X257.21Y-285.19
X258.36Y-322.65
X262.21Y-265.19
X264.71Y-325.19
X265.86Y-242.65
X272.21Y-245.19
X273.36Y-302.65
X278.36Y-282.65
X279.71Y-305.19
X280.86Y-262.65
X282.86Y-322.65
X284.71Y-285.19
X285.36Y-242.65
X287.21Y-265.19
X289.21Y-325.19
X291.71Y-245.19
T0
M30
