G04 #@! TF.GenerationSoftware,KiCad,Pcbnew,(6.0.7)*
G04 #@! TF.CreationDate,2022-09-06T07:39:14-07:00*
G04 #@! TF.ProjectId,60 Percent Keyboard Ardiuno Micro,36302050-6572-4636-956e-74204b657962,rev?*
G04 #@! TF.SameCoordinates,Original*
G04 #@! TF.FileFunction,Legend,Bot*
G04 #@! TF.FilePolarity,Positive*
%FSLAX46Y46*%
G04 Gerber Fmt 4.6, Leading zero omitted, Abs format (unit mm)*
G04 Created by KiCad (PCBNEW (6.0.7)) date 2022-09-06 07:39:14*
%MOMM*%
%LPD*%
G01*
G04 APERTURE LIST*
%ADD10C,0.150000*%
%ADD11C,0.120000*%
%ADD12C,1.550000*%
%ADD13C,1.750000*%
%ADD14C,4.000000*%
%ADD15R,1.600000X1.600000*%
%ADD16O,1.600000X1.600000*%
G04 APERTURE END LIST*
D10*
X27501904Y-300162380D02*
X27501904Y-299162380D01*
X27168571Y-299876666D01*
X26835238Y-299162380D01*
X26835238Y-300162380D01*
X26454285Y-299162380D02*
X25787619Y-300162380D01*
X25787619Y-299162380D02*
X26454285Y-300162380D01*
X24978095Y-299162380D02*
X25168571Y-299162380D01*
X25263809Y-299210000D01*
X25311428Y-299257619D01*
X25406666Y-299400476D01*
X25454285Y-299590952D01*
X25454285Y-299971904D01*
X25406666Y-300067142D01*
X25359047Y-300114761D01*
X25263809Y-300162380D01*
X25073333Y-300162380D01*
X24978095Y-300114761D01*
X24930476Y-300067142D01*
X24882857Y-299971904D01*
X24882857Y-299733809D01*
X24930476Y-299638571D01*
X24978095Y-299590952D01*
X25073333Y-299543333D01*
X25263809Y-299543333D01*
X25359047Y-299590952D01*
X25406666Y-299638571D01*
X25454285Y-299733809D01*
X23930476Y-300162380D02*
X24501904Y-300162380D01*
X24216190Y-300162380D02*
X24216190Y-299162380D01*
X24311428Y-299305238D01*
X24406666Y-299400476D01*
X24501904Y-299448095D01*
X100161904Y-260182380D02*
X100161904Y-259182380D01*
X99828571Y-259896666D01*
X99495238Y-259182380D01*
X99495238Y-260182380D01*
X99114285Y-259182380D02*
X98447619Y-260182380D01*
X98447619Y-259182380D02*
X99114285Y-260182380D01*
X97638095Y-259515714D02*
X97638095Y-260182380D01*
X97876190Y-259134761D02*
X98114285Y-259849047D01*
X97495238Y-259849047D01*
X96685714Y-259515714D02*
X96685714Y-260182380D01*
X96923809Y-259134761D02*
X97161904Y-259849047D01*
X96542857Y-259849047D01*
X117232380Y-226015714D02*
X116232380Y-226015714D01*
X116232380Y-226253809D01*
X116280000Y-226396666D01*
X116375238Y-226491904D01*
X116470476Y-226539523D01*
X116660952Y-226587142D01*
X116803809Y-226587142D01*
X116994285Y-226539523D01*
X117089523Y-226491904D01*
X117184761Y-226396666D01*
X117232380Y-226253809D01*
X117232380Y-226015714D01*
X116565714Y-227444285D02*
X117232380Y-227444285D01*
X116184761Y-227206190D02*
X116899047Y-226968095D01*
X116899047Y-227587142D01*
X116565714Y-228396666D02*
X117232380Y-228396666D01*
X116184761Y-228158571D02*
X116899047Y-227920476D01*
X116899047Y-228539523D01*
X117552380Y-223158095D02*
X116552380Y-223158095D01*
X117552380Y-223729523D02*
X116980952Y-223300952D01*
X116552380Y-223729523D02*
X117123809Y-223158095D01*
X240161904Y-260182380D02*
X240161904Y-259182380D01*
X239828571Y-259896666D01*
X239495238Y-259182380D01*
X239495238Y-260182380D01*
X239114285Y-259182380D02*
X238447619Y-260182380D01*
X238447619Y-259182380D02*
X239114285Y-260182380D01*
X237542857Y-260182380D02*
X238114285Y-260182380D01*
X237828571Y-260182380D02*
X237828571Y-259182380D01*
X237923809Y-259325238D01*
X238019047Y-259420476D01*
X238114285Y-259468095D01*
X237161904Y-259277619D02*
X237114285Y-259230000D01*
X237019047Y-259182380D01*
X236780952Y-259182380D01*
X236685714Y-259230000D01*
X236638095Y-259277619D01*
X236590476Y-259372857D01*
X236590476Y-259468095D01*
X236638095Y-259610952D01*
X237209523Y-260182380D01*
X236590476Y-260182380D01*
X80161904Y-260182380D02*
X80161904Y-259182380D01*
X79828571Y-259896666D01*
X79495238Y-259182380D01*
X79495238Y-260182380D01*
X79114285Y-259182380D02*
X78447619Y-260182380D01*
X78447619Y-259182380D02*
X79114285Y-260182380D01*
X77638095Y-259515714D02*
X77638095Y-260182380D01*
X77876190Y-259134761D02*
X78114285Y-259849047D01*
X77495238Y-259849047D01*
X77066666Y-260182380D02*
X76876190Y-260182380D01*
X76780952Y-260134761D01*
X76733333Y-260087142D01*
X76638095Y-259944285D01*
X76590476Y-259753809D01*
X76590476Y-259372857D01*
X76638095Y-259277619D01*
X76685714Y-259230000D01*
X76780952Y-259182380D01*
X76971428Y-259182380D01*
X77066666Y-259230000D01*
X77114285Y-259277619D01*
X77161904Y-259372857D01*
X77161904Y-259610952D01*
X77114285Y-259706190D01*
X77066666Y-259753809D01*
X76971428Y-259801428D01*
X76780952Y-259801428D01*
X76685714Y-259753809D01*
X76638095Y-259706190D01*
X76590476Y-259610952D01*
X113232380Y-226015714D02*
X112232380Y-226015714D01*
X112232380Y-226253809D01*
X112280000Y-226396666D01*
X112375238Y-226491904D01*
X112470476Y-226539523D01*
X112660952Y-226587142D01*
X112803809Y-226587142D01*
X112994285Y-226539523D01*
X113089523Y-226491904D01*
X113184761Y-226396666D01*
X113232380Y-226253809D01*
X113232380Y-226015714D01*
X112565714Y-227444285D02*
X113232380Y-227444285D01*
X112184761Y-227206190D02*
X112899047Y-226968095D01*
X112899047Y-227587142D01*
X112232380Y-228444285D02*
X112232380Y-227968095D01*
X112708571Y-227920476D01*
X112660952Y-227968095D01*
X112613333Y-228063333D01*
X112613333Y-228301428D01*
X112660952Y-228396666D01*
X112708571Y-228444285D01*
X112803809Y-228491904D01*
X113041904Y-228491904D01*
X113137142Y-228444285D01*
X113184761Y-228396666D01*
X113232380Y-228301428D01*
X113232380Y-228063333D01*
X113184761Y-227968095D01*
X113137142Y-227920476D01*
X113552380Y-223158095D02*
X112552380Y-223158095D01*
X113552380Y-223729523D02*
X112980952Y-223300952D01*
X112552380Y-223729523D02*
X113123809Y-223158095D01*
X49232380Y-226015714D02*
X48232380Y-226015714D01*
X48232380Y-226253809D01*
X48280000Y-226396666D01*
X48375238Y-226491904D01*
X48470476Y-226539523D01*
X48660952Y-226587142D01*
X48803809Y-226587142D01*
X48994285Y-226539523D01*
X49089523Y-226491904D01*
X49184761Y-226396666D01*
X49232380Y-226253809D01*
X49232380Y-226015714D01*
X48232380Y-227444285D02*
X48232380Y-227253809D01*
X48280000Y-227158571D01*
X48327619Y-227110952D01*
X48470476Y-227015714D01*
X48660952Y-226968095D01*
X49041904Y-226968095D01*
X49137142Y-227015714D01*
X49184761Y-227063333D01*
X49232380Y-227158571D01*
X49232380Y-227349047D01*
X49184761Y-227444285D01*
X49137142Y-227491904D01*
X49041904Y-227539523D01*
X48803809Y-227539523D01*
X48708571Y-227491904D01*
X48660952Y-227444285D01*
X48613333Y-227349047D01*
X48613333Y-227158571D01*
X48660952Y-227063333D01*
X48708571Y-227015714D01*
X48803809Y-226968095D01*
X49232380Y-228491904D02*
X49232380Y-227920476D01*
X49232380Y-228206190D02*
X48232380Y-228206190D01*
X48375238Y-228110952D01*
X48470476Y-228015714D01*
X48518095Y-227920476D01*
X49552380Y-223158095D02*
X48552380Y-223158095D01*
X49552380Y-223729523D02*
X48980952Y-223300952D01*
X48552380Y-223729523D02*
X49123809Y-223158095D01*
X145232380Y-226015714D02*
X144232380Y-226015714D01*
X144232380Y-226253809D01*
X144280000Y-226396666D01*
X144375238Y-226491904D01*
X144470476Y-226539523D01*
X144660952Y-226587142D01*
X144803809Y-226587142D01*
X144994285Y-226539523D01*
X145089523Y-226491904D01*
X145184761Y-226396666D01*
X145232380Y-226253809D01*
X145232380Y-226015714D01*
X144232380Y-226920476D02*
X144232380Y-227539523D01*
X144613333Y-227206190D01*
X144613333Y-227349047D01*
X144660952Y-227444285D01*
X144708571Y-227491904D01*
X144803809Y-227539523D01*
X145041904Y-227539523D01*
X145137142Y-227491904D01*
X145184761Y-227444285D01*
X145232380Y-227349047D01*
X145232380Y-227063333D01*
X145184761Y-226968095D01*
X145137142Y-226920476D01*
X144232380Y-227872857D02*
X144232380Y-228539523D01*
X145232380Y-228110952D01*
X145552380Y-223158095D02*
X144552380Y-223158095D01*
X145552380Y-223729523D02*
X144980952Y-223300952D01*
X144552380Y-223729523D02*
X145123809Y-223158095D01*
X177232380Y-226015714D02*
X176232380Y-226015714D01*
X176232380Y-226253809D01*
X176280000Y-226396666D01*
X176375238Y-226491904D01*
X176470476Y-226539523D01*
X176660952Y-226587142D01*
X176803809Y-226587142D01*
X176994285Y-226539523D01*
X177089523Y-226491904D01*
X177184761Y-226396666D01*
X177232380Y-226253809D01*
X177232380Y-226015714D01*
X176327619Y-226968095D02*
X176280000Y-227015714D01*
X176232380Y-227110952D01*
X176232380Y-227349047D01*
X176280000Y-227444285D01*
X176327619Y-227491904D01*
X176422857Y-227539523D01*
X176518095Y-227539523D01*
X176660952Y-227491904D01*
X177232380Y-226920476D01*
X177232380Y-227539523D01*
X177232380Y-228015714D02*
X177232380Y-228206190D01*
X177184761Y-228301428D01*
X177137142Y-228349047D01*
X176994285Y-228444285D01*
X176803809Y-228491904D01*
X176422857Y-228491904D01*
X176327619Y-228444285D01*
X176280000Y-228396666D01*
X176232380Y-228301428D01*
X176232380Y-228110952D01*
X176280000Y-228015714D01*
X176327619Y-227968095D01*
X176422857Y-227920476D01*
X176660952Y-227920476D01*
X176756190Y-227968095D01*
X176803809Y-228015714D01*
X176851428Y-228110952D01*
X176851428Y-228301428D01*
X176803809Y-228396666D01*
X176756190Y-228444285D01*
X176660952Y-228491904D01*
X177552380Y-223158095D02*
X176552380Y-223158095D01*
X177552380Y-223729523D02*
X176980952Y-223300952D01*
X176552380Y-223729523D02*
X177123809Y-223158095D01*
X244685714Y-300182380D02*
X244685714Y-299182380D01*
X244352380Y-299896666D01*
X244019047Y-299182380D01*
X244019047Y-300182380D01*
X243638095Y-299182380D02*
X242971428Y-300182380D01*
X242971428Y-299182380D02*
X243638095Y-300182380D01*
X242542857Y-300182380D02*
X242352380Y-300182380D01*
X242257142Y-300134761D01*
X242209523Y-300087142D01*
X242114285Y-299944285D01*
X242066666Y-299753809D01*
X242066666Y-299372857D01*
X242114285Y-299277619D01*
X242161904Y-299230000D01*
X242257142Y-299182380D01*
X242447619Y-299182380D01*
X242542857Y-299230000D01*
X242590476Y-299277619D01*
X242638095Y-299372857D01*
X242638095Y-299610952D01*
X242590476Y-299706190D01*
X242542857Y-299753809D01*
X242447619Y-299801428D01*
X242257142Y-299801428D01*
X242161904Y-299753809D01*
X242114285Y-299706190D01*
X242066666Y-299610952D01*
X129232380Y-226015714D02*
X128232380Y-226015714D01*
X128232380Y-226253809D01*
X128280000Y-226396666D01*
X128375238Y-226491904D01*
X128470476Y-226539523D01*
X128660952Y-226587142D01*
X128803809Y-226587142D01*
X128994285Y-226539523D01*
X129089523Y-226491904D01*
X129184761Y-226396666D01*
X129232380Y-226253809D01*
X129232380Y-226015714D01*
X128565714Y-227444285D02*
X129232380Y-227444285D01*
X128184761Y-227206190D02*
X128899047Y-226968095D01*
X128899047Y-227587142D01*
X129232380Y-228491904D02*
X129232380Y-227920476D01*
X129232380Y-228206190D02*
X128232380Y-228206190D01*
X128375238Y-228110952D01*
X128470476Y-228015714D01*
X128518095Y-227920476D01*
X129552380Y-223158095D02*
X128552380Y-223158095D01*
X129552380Y-223729523D02*
X128980952Y-223300952D01*
X128552380Y-223729523D02*
X129123809Y-223158095D01*
X120161904Y-260182380D02*
X120161904Y-259182380D01*
X119828571Y-259896666D01*
X119495238Y-259182380D01*
X119495238Y-260182380D01*
X119114285Y-259182380D02*
X118447619Y-260182380D01*
X118447619Y-259182380D02*
X119114285Y-260182380D01*
X118161904Y-259182380D02*
X117542857Y-259182380D01*
X117876190Y-259563333D01*
X117733333Y-259563333D01*
X117638095Y-259610952D01*
X117590476Y-259658571D01*
X117542857Y-259753809D01*
X117542857Y-259991904D01*
X117590476Y-260087142D01*
X117638095Y-260134761D01*
X117733333Y-260182380D01*
X118019047Y-260182380D01*
X118114285Y-260134761D01*
X118161904Y-260087142D01*
X117066666Y-260182380D02*
X116876190Y-260182380D01*
X116780952Y-260134761D01*
X116733333Y-260087142D01*
X116638095Y-259944285D01*
X116590476Y-259753809D01*
X116590476Y-259372857D01*
X116638095Y-259277619D01*
X116685714Y-259230000D01*
X116780952Y-259182380D01*
X116971428Y-259182380D01*
X117066666Y-259230000D01*
X117114285Y-259277619D01*
X117161904Y-259372857D01*
X117161904Y-259610952D01*
X117114285Y-259706190D01*
X117066666Y-259753809D01*
X116971428Y-259801428D01*
X116780952Y-259801428D01*
X116685714Y-259753809D01*
X116638095Y-259706190D01*
X116590476Y-259610952D01*
X190161904Y-240182380D02*
X190161904Y-239182380D01*
X189828571Y-239896666D01*
X189495238Y-239182380D01*
X189495238Y-240182380D01*
X189114285Y-239182380D02*
X188447619Y-240182380D01*
X188447619Y-239182380D02*
X189114285Y-240182380D01*
X188114285Y-239277619D02*
X188066666Y-239230000D01*
X187971428Y-239182380D01*
X187733333Y-239182380D01*
X187638095Y-239230000D01*
X187590476Y-239277619D01*
X187542857Y-239372857D01*
X187542857Y-239468095D01*
X187590476Y-239610952D01*
X188161904Y-240182380D01*
X187542857Y-240182380D01*
X186638095Y-239182380D02*
X187114285Y-239182380D01*
X187161904Y-239658571D01*
X187114285Y-239610952D01*
X187019047Y-239563333D01*
X186780952Y-239563333D01*
X186685714Y-239610952D01*
X186638095Y-239658571D01*
X186590476Y-239753809D01*
X186590476Y-239991904D01*
X186638095Y-240087142D01*
X186685714Y-240134761D01*
X186780952Y-240182380D01*
X187019047Y-240182380D01*
X187114285Y-240134761D01*
X187161904Y-240087142D01*
X13251904Y-320152380D02*
X13251904Y-319152380D01*
X12918571Y-319866666D01*
X12585238Y-319152380D01*
X12585238Y-320152380D01*
X12204285Y-319152380D02*
X11537619Y-320152380D01*
X11537619Y-319152380D02*
X12204285Y-320152380D01*
X10680476Y-319152380D02*
X11156666Y-319152380D01*
X11204285Y-319628571D01*
X11156666Y-319580952D01*
X11061428Y-319533333D01*
X10823333Y-319533333D01*
X10728095Y-319580952D01*
X10680476Y-319628571D01*
X10632857Y-319723809D01*
X10632857Y-319961904D01*
X10680476Y-320057142D01*
X10728095Y-320104761D01*
X10823333Y-320152380D01*
X11061428Y-320152380D01*
X11156666Y-320104761D01*
X11204285Y-320057142D01*
X10251904Y-319247619D02*
X10204285Y-319200000D01*
X10109047Y-319152380D01*
X9870952Y-319152380D01*
X9775714Y-319200000D01*
X9728095Y-319247619D01*
X9680476Y-319342857D01*
X9680476Y-319438095D01*
X9728095Y-319580952D01*
X10299523Y-320152380D01*
X9680476Y-320152380D01*
X40161904Y-260182380D02*
X40161904Y-259182380D01*
X39828571Y-259896666D01*
X39495238Y-259182380D01*
X39495238Y-260182380D01*
X39114285Y-259182380D02*
X38447619Y-260182380D01*
X38447619Y-259182380D02*
X39114285Y-260182380D01*
X37590476Y-259182380D02*
X38066666Y-259182380D01*
X38114285Y-259658571D01*
X38066666Y-259610952D01*
X37971428Y-259563333D01*
X37733333Y-259563333D01*
X37638095Y-259610952D01*
X37590476Y-259658571D01*
X37542857Y-259753809D01*
X37542857Y-259991904D01*
X37590476Y-260087142D01*
X37638095Y-260134761D01*
X37733333Y-260182380D01*
X37971428Y-260182380D01*
X38066666Y-260134761D01*
X38114285Y-260087142D01*
X37209523Y-259182380D02*
X36542857Y-259182380D01*
X36971428Y-260182380D01*
X65161904Y-300182380D02*
X65161904Y-299182380D01*
X64828571Y-299896666D01*
X64495238Y-299182380D01*
X64495238Y-300182380D01*
X64114285Y-299182380D02*
X63447619Y-300182380D01*
X63447619Y-299182380D02*
X64114285Y-300182380D01*
X62590476Y-299182380D02*
X63066666Y-299182380D01*
X63114285Y-299658571D01*
X63066666Y-299610952D01*
X62971428Y-299563333D01*
X62733333Y-299563333D01*
X62638095Y-299610952D01*
X62590476Y-299658571D01*
X62542857Y-299753809D01*
X62542857Y-299991904D01*
X62590476Y-300087142D01*
X62638095Y-300134761D01*
X62733333Y-300182380D01*
X62971428Y-300182380D01*
X63066666Y-300134761D01*
X63114285Y-300087142D01*
X61590476Y-300182380D02*
X62161904Y-300182380D01*
X61876190Y-300182380D02*
X61876190Y-299182380D01*
X61971428Y-299325238D01*
X62066666Y-299420476D01*
X62161904Y-299468095D01*
X85161904Y-300182380D02*
X85161904Y-299182380D01*
X84828571Y-299896666D01*
X84495238Y-299182380D01*
X84495238Y-300182380D01*
X84114285Y-299182380D02*
X83447619Y-300182380D01*
X83447619Y-299182380D02*
X84114285Y-300182380D01*
X82638095Y-299515714D02*
X82638095Y-300182380D01*
X82876190Y-299134761D02*
X83114285Y-299849047D01*
X82495238Y-299849047D01*
X81685714Y-299182380D02*
X81876190Y-299182380D01*
X81971428Y-299230000D01*
X82019047Y-299277619D01*
X82114285Y-299420476D01*
X82161904Y-299610952D01*
X82161904Y-299991904D01*
X82114285Y-300087142D01*
X82066666Y-300134761D01*
X81971428Y-300182380D01*
X81780952Y-300182380D01*
X81685714Y-300134761D01*
X81638095Y-300087142D01*
X81590476Y-299991904D01*
X81590476Y-299753809D01*
X81638095Y-299658571D01*
X81685714Y-299610952D01*
X81780952Y-299563333D01*
X81971428Y-299563333D01*
X82066666Y-299610952D01*
X82114285Y-299658571D01*
X82161904Y-299753809D01*
X205232380Y-226015714D02*
X204232380Y-226015714D01*
X204232380Y-226253809D01*
X204280000Y-226396666D01*
X204375238Y-226491904D01*
X204470476Y-226539523D01*
X204660952Y-226587142D01*
X204803809Y-226587142D01*
X204994285Y-226539523D01*
X205089523Y-226491904D01*
X205184761Y-226396666D01*
X205232380Y-226253809D01*
X205232380Y-226015714D01*
X204327619Y-226968095D02*
X204280000Y-227015714D01*
X204232380Y-227110952D01*
X204232380Y-227349047D01*
X204280000Y-227444285D01*
X204327619Y-227491904D01*
X204422857Y-227539523D01*
X204518095Y-227539523D01*
X204660952Y-227491904D01*
X205232380Y-226920476D01*
X205232380Y-227539523D01*
X204327619Y-227920476D02*
X204280000Y-227968095D01*
X204232380Y-228063333D01*
X204232380Y-228301428D01*
X204280000Y-228396666D01*
X204327619Y-228444285D01*
X204422857Y-228491904D01*
X204518095Y-228491904D01*
X204660952Y-228444285D01*
X205232380Y-227872857D01*
X205232380Y-228491904D01*
X205552380Y-223158095D02*
X204552380Y-223158095D01*
X205552380Y-223729523D02*
X204980952Y-223300952D01*
X204552380Y-223729523D02*
X205123809Y-223158095D01*
X125161904Y-300182380D02*
X125161904Y-299182380D01*
X124828571Y-299896666D01*
X124495238Y-299182380D01*
X124495238Y-300182380D01*
X124114285Y-299182380D02*
X123447619Y-300182380D01*
X123447619Y-299182380D02*
X124114285Y-300182380D01*
X123161904Y-299182380D02*
X122542857Y-299182380D01*
X122876190Y-299563333D01*
X122733333Y-299563333D01*
X122638095Y-299610952D01*
X122590476Y-299658571D01*
X122542857Y-299753809D01*
X122542857Y-299991904D01*
X122590476Y-300087142D01*
X122638095Y-300134761D01*
X122733333Y-300182380D01*
X123019047Y-300182380D01*
X123114285Y-300134761D01*
X123161904Y-300087142D01*
X121685714Y-299182380D02*
X121876190Y-299182380D01*
X121971428Y-299230000D01*
X122019047Y-299277619D01*
X122114285Y-299420476D01*
X122161904Y-299610952D01*
X122161904Y-299991904D01*
X122114285Y-300087142D01*
X122066666Y-300134761D01*
X121971428Y-300182380D01*
X121780952Y-300182380D01*
X121685714Y-300134761D01*
X121638095Y-300087142D01*
X121590476Y-299991904D01*
X121590476Y-299753809D01*
X121638095Y-299658571D01*
X121685714Y-299610952D01*
X121780952Y-299563333D01*
X121971428Y-299563333D01*
X122066666Y-299610952D01*
X122114285Y-299658571D01*
X122161904Y-299753809D01*
X259685714Y-260182380D02*
X259685714Y-259182380D01*
X259352380Y-259896666D01*
X259019047Y-259182380D01*
X259019047Y-260182380D01*
X258638095Y-259182380D02*
X257971428Y-260182380D01*
X257971428Y-259182380D02*
X258638095Y-260182380D01*
X257685714Y-259182380D02*
X257019047Y-259182380D01*
X257447619Y-260182380D01*
X65232380Y-226015714D02*
X64232380Y-226015714D01*
X64232380Y-226253809D01*
X64280000Y-226396666D01*
X64375238Y-226491904D01*
X64470476Y-226539523D01*
X64660952Y-226587142D01*
X64803809Y-226587142D01*
X64994285Y-226539523D01*
X65089523Y-226491904D01*
X65184761Y-226396666D01*
X65232380Y-226253809D01*
X65232380Y-226015714D01*
X64232380Y-227491904D02*
X64232380Y-227015714D01*
X64708571Y-226968095D01*
X64660952Y-227015714D01*
X64613333Y-227110952D01*
X64613333Y-227349047D01*
X64660952Y-227444285D01*
X64708571Y-227491904D01*
X64803809Y-227539523D01*
X65041904Y-227539523D01*
X65137142Y-227491904D01*
X65184761Y-227444285D01*
X65232380Y-227349047D01*
X65232380Y-227110952D01*
X65184761Y-227015714D01*
X65137142Y-226968095D01*
X64232380Y-227872857D02*
X64232380Y-228539523D01*
X65232380Y-228110952D01*
X65552380Y-223158095D02*
X64552380Y-223158095D01*
X65552380Y-223729523D02*
X64980952Y-223300952D01*
X64552380Y-223729523D02*
X65123809Y-223158095D01*
X277185714Y-300182380D02*
X277185714Y-299182380D01*
X276852380Y-299896666D01*
X276519047Y-299182380D01*
X276519047Y-300182380D01*
X276138095Y-299182380D02*
X275471428Y-300182380D01*
X275471428Y-299182380D02*
X276138095Y-300182380D01*
X274661904Y-299515714D02*
X274661904Y-300182380D01*
X274900000Y-299134761D02*
X275138095Y-299849047D01*
X274519047Y-299849047D01*
X253232380Y-226015714D02*
X252232380Y-226015714D01*
X252232380Y-226253809D01*
X252280000Y-226396666D01*
X252375238Y-226491904D01*
X252470476Y-226539523D01*
X252660952Y-226587142D01*
X252803809Y-226587142D01*
X252994285Y-226539523D01*
X253089523Y-226491904D01*
X253184761Y-226396666D01*
X253232380Y-226253809D01*
X253232380Y-226015714D01*
X253232380Y-227539523D02*
X253232380Y-226968095D01*
X253232380Y-227253809D02*
X252232380Y-227253809D01*
X252375238Y-227158571D01*
X252470476Y-227063333D01*
X252518095Y-226968095D01*
X252232380Y-228158571D02*
X252232380Y-228253809D01*
X252280000Y-228349047D01*
X252327619Y-228396666D01*
X252422857Y-228444285D01*
X252613333Y-228491904D01*
X252851428Y-228491904D01*
X253041904Y-228444285D01*
X253137142Y-228396666D01*
X253184761Y-228349047D01*
X253232380Y-228253809D01*
X253232380Y-228158571D01*
X253184761Y-228063333D01*
X253137142Y-228015714D01*
X253041904Y-227968095D01*
X252851428Y-227920476D01*
X252613333Y-227920476D01*
X252422857Y-227968095D01*
X252327619Y-228015714D01*
X252280000Y-228063333D01*
X252232380Y-228158571D01*
X253552380Y-223158095D02*
X252552380Y-223158095D01*
X253552380Y-223729523D02*
X252980952Y-223300952D01*
X252552380Y-223729523D02*
X253123809Y-223158095D01*
X20561904Y-240162380D02*
X20561904Y-239162380D01*
X20228571Y-239876666D01*
X19895238Y-239162380D01*
X19895238Y-240162380D01*
X19514285Y-239162380D02*
X18847619Y-240162380D01*
X18847619Y-239162380D02*
X19514285Y-240162380D01*
X17990476Y-239162380D02*
X18466666Y-239162380D01*
X18514285Y-239638571D01*
X18466666Y-239590952D01*
X18371428Y-239543333D01*
X18133333Y-239543333D01*
X18038095Y-239590952D01*
X17990476Y-239638571D01*
X17942857Y-239733809D01*
X17942857Y-239971904D01*
X17990476Y-240067142D01*
X18038095Y-240114761D01*
X18133333Y-240162380D01*
X18371428Y-240162380D01*
X18466666Y-240114761D01*
X18514285Y-240067142D01*
X17371428Y-239590952D02*
X17466666Y-239543333D01*
X17514285Y-239495714D01*
X17561904Y-239400476D01*
X17561904Y-239352857D01*
X17514285Y-239257619D01*
X17466666Y-239210000D01*
X17371428Y-239162380D01*
X17180952Y-239162380D01*
X17085714Y-239210000D01*
X17038095Y-239257619D01*
X16990476Y-239352857D01*
X16990476Y-239400476D01*
X17038095Y-239495714D01*
X17085714Y-239543333D01*
X17180952Y-239590952D01*
X17371428Y-239590952D01*
X17466666Y-239638571D01*
X17514285Y-239686190D01*
X17561904Y-239781428D01*
X17561904Y-239971904D01*
X17514285Y-240067142D01*
X17466666Y-240114761D01*
X17371428Y-240162380D01*
X17180952Y-240162380D01*
X17085714Y-240114761D01*
X17038095Y-240067142D01*
X16990476Y-239971904D01*
X16990476Y-239781428D01*
X17038095Y-239686190D01*
X17085714Y-239638571D01*
X17180952Y-239590952D01*
X233232380Y-226015714D02*
X232232380Y-226015714D01*
X232232380Y-226253809D01*
X232280000Y-226396666D01*
X232375238Y-226491904D01*
X232470476Y-226539523D01*
X232660952Y-226587142D01*
X232803809Y-226587142D01*
X232994285Y-226539523D01*
X233089523Y-226491904D01*
X233184761Y-226396666D01*
X233232380Y-226253809D01*
X233232380Y-226015714D01*
X233232380Y-227539523D02*
X233232380Y-226968095D01*
X233232380Y-227253809D02*
X232232380Y-227253809D01*
X232375238Y-227158571D01*
X232470476Y-227063333D01*
X232518095Y-226968095D01*
X232232380Y-228444285D02*
X232232380Y-227968095D01*
X232708571Y-227920476D01*
X232660952Y-227968095D01*
X232613333Y-228063333D01*
X232613333Y-228301428D01*
X232660952Y-228396666D01*
X232708571Y-228444285D01*
X232803809Y-228491904D01*
X233041904Y-228491904D01*
X233137142Y-228444285D01*
X233184761Y-228396666D01*
X233232380Y-228301428D01*
X233232380Y-228063333D01*
X233184761Y-227968095D01*
X233137142Y-227920476D01*
X233552380Y-223158095D02*
X232552380Y-223158095D01*
X233552380Y-223729523D02*
X232980952Y-223300952D01*
X232552380Y-223729523D02*
X233123809Y-223158095D01*
X169232380Y-226015714D02*
X168232380Y-226015714D01*
X168232380Y-226253809D01*
X168280000Y-226396666D01*
X168375238Y-226491904D01*
X168470476Y-226539523D01*
X168660952Y-226587142D01*
X168803809Y-226587142D01*
X168994285Y-226539523D01*
X169089523Y-226491904D01*
X169184761Y-226396666D01*
X169232380Y-226253809D01*
X169232380Y-226015714D01*
X168232380Y-226920476D02*
X168232380Y-227539523D01*
X168613333Y-227206190D01*
X168613333Y-227349047D01*
X168660952Y-227444285D01*
X168708571Y-227491904D01*
X168803809Y-227539523D01*
X169041904Y-227539523D01*
X169137142Y-227491904D01*
X169184761Y-227444285D01*
X169232380Y-227349047D01*
X169232380Y-227063333D01*
X169184761Y-226968095D01*
X169137142Y-226920476D01*
X169232380Y-228491904D02*
X169232380Y-227920476D01*
X169232380Y-228206190D02*
X168232380Y-228206190D01*
X168375238Y-228110952D01*
X168470476Y-228015714D01*
X168518095Y-227920476D01*
X169552380Y-223158095D02*
X168552380Y-223158095D01*
X169552380Y-223729523D02*
X168980952Y-223300952D01*
X168552380Y-223729523D02*
X169123809Y-223158095D01*
X110161904Y-240182380D02*
X110161904Y-239182380D01*
X109828571Y-239896666D01*
X109495238Y-239182380D01*
X109495238Y-240182380D01*
X109114285Y-239182380D02*
X108447619Y-240182380D01*
X108447619Y-239182380D02*
X109114285Y-240182380D01*
X107638095Y-239515714D02*
X107638095Y-240182380D01*
X107876190Y-239134761D02*
X108114285Y-239849047D01*
X107495238Y-239849047D01*
X107209523Y-239182380D02*
X106590476Y-239182380D01*
X106923809Y-239563333D01*
X106780952Y-239563333D01*
X106685714Y-239610952D01*
X106638095Y-239658571D01*
X106590476Y-239753809D01*
X106590476Y-239991904D01*
X106638095Y-240087142D01*
X106685714Y-240134761D01*
X106780952Y-240182380D01*
X107066666Y-240182380D01*
X107161904Y-240134761D01*
X107209523Y-240087142D01*
X149232380Y-226015714D02*
X148232380Y-226015714D01*
X148232380Y-226253809D01*
X148280000Y-226396666D01*
X148375238Y-226491904D01*
X148470476Y-226539523D01*
X148660952Y-226587142D01*
X148803809Y-226587142D01*
X148994285Y-226539523D01*
X149089523Y-226491904D01*
X149184761Y-226396666D01*
X149232380Y-226253809D01*
X149232380Y-226015714D01*
X148232380Y-226920476D02*
X148232380Y-227539523D01*
X148613333Y-227206190D01*
X148613333Y-227349047D01*
X148660952Y-227444285D01*
X148708571Y-227491904D01*
X148803809Y-227539523D01*
X149041904Y-227539523D01*
X149137142Y-227491904D01*
X149184761Y-227444285D01*
X149232380Y-227349047D01*
X149232380Y-227063333D01*
X149184761Y-226968095D01*
X149137142Y-226920476D01*
X148232380Y-228396666D02*
X148232380Y-228206190D01*
X148280000Y-228110952D01*
X148327619Y-228063333D01*
X148470476Y-227968095D01*
X148660952Y-227920476D01*
X149041904Y-227920476D01*
X149137142Y-227968095D01*
X149184761Y-228015714D01*
X149232380Y-228110952D01*
X149232380Y-228301428D01*
X149184761Y-228396666D01*
X149137142Y-228444285D01*
X149041904Y-228491904D01*
X148803809Y-228491904D01*
X148708571Y-228444285D01*
X148660952Y-228396666D01*
X148613333Y-228301428D01*
X148613333Y-228110952D01*
X148660952Y-228015714D01*
X148708571Y-227968095D01*
X148803809Y-227920476D01*
X149552380Y-223158095D02*
X148552380Y-223158095D01*
X149552380Y-223729523D02*
X148980952Y-223300952D01*
X148552380Y-223729523D02*
X149123809Y-223158095D01*
X90161904Y-240182380D02*
X90161904Y-239182380D01*
X89828571Y-239896666D01*
X89495238Y-239182380D01*
X89495238Y-240182380D01*
X89114285Y-239182380D02*
X88447619Y-240182380D01*
X88447619Y-239182380D02*
X89114285Y-240182380D01*
X87638095Y-239515714D02*
X87638095Y-240182380D01*
X87876190Y-239134761D02*
X88114285Y-239849047D01*
X87495238Y-239849047D01*
X86971428Y-239610952D02*
X87066666Y-239563333D01*
X87114285Y-239515714D01*
X87161904Y-239420476D01*
X87161904Y-239372857D01*
X87114285Y-239277619D01*
X87066666Y-239230000D01*
X86971428Y-239182380D01*
X86780952Y-239182380D01*
X86685714Y-239230000D01*
X86638095Y-239277619D01*
X86590476Y-239372857D01*
X86590476Y-239420476D01*
X86638095Y-239515714D01*
X86685714Y-239563333D01*
X86780952Y-239610952D01*
X86971428Y-239610952D01*
X87066666Y-239658571D01*
X87114285Y-239706190D01*
X87161904Y-239801428D01*
X87161904Y-239991904D01*
X87114285Y-240087142D01*
X87066666Y-240134761D01*
X86971428Y-240182380D01*
X86780952Y-240182380D01*
X86685714Y-240134761D01*
X86638095Y-240087142D01*
X86590476Y-239991904D01*
X86590476Y-239801428D01*
X86638095Y-239706190D01*
X86685714Y-239658571D01*
X86780952Y-239610952D01*
X165232380Y-226015714D02*
X164232380Y-226015714D01*
X164232380Y-226253809D01*
X164280000Y-226396666D01*
X164375238Y-226491904D01*
X164470476Y-226539523D01*
X164660952Y-226587142D01*
X164803809Y-226587142D01*
X164994285Y-226539523D01*
X165089523Y-226491904D01*
X165184761Y-226396666D01*
X165232380Y-226253809D01*
X165232380Y-226015714D01*
X164232380Y-226920476D02*
X164232380Y-227539523D01*
X164613333Y-227206190D01*
X164613333Y-227349047D01*
X164660952Y-227444285D01*
X164708571Y-227491904D01*
X164803809Y-227539523D01*
X165041904Y-227539523D01*
X165137142Y-227491904D01*
X165184761Y-227444285D01*
X165232380Y-227349047D01*
X165232380Y-227063333D01*
X165184761Y-226968095D01*
X165137142Y-226920476D01*
X164327619Y-227920476D02*
X164280000Y-227968095D01*
X164232380Y-228063333D01*
X164232380Y-228301428D01*
X164280000Y-228396666D01*
X164327619Y-228444285D01*
X164422857Y-228491904D01*
X164518095Y-228491904D01*
X164660952Y-228444285D01*
X165232380Y-227872857D01*
X165232380Y-228491904D01*
X165552380Y-223158095D02*
X164552380Y-223158095D01*
X165552380Y-223729523D02*
X164980952Y-223300952D01*
X164552380Y-223729523D02*
X165123809Y-223158095D01*
X289185714Y-240182380D02*
X289185714Y-239182380D01*
X288852380Y-239896666D01*
X288519047Y-239182380D01*
X288519047Y-240182380D01*
X288138095Y-239182380D02*
X287471428Y-240182380D01*
X287471428Y-239182380D02*
X288138095Y-240182380D01*
X286566666Y-240182380D02*
X287138095Y-240182380D01*
X286852380Y-240182380D02*
X286852380Y-239182380D01*
X286947619Y-239325238D01*
X287042857Y-239420476D01*
X287138095Y-239468095D01*
X235161904Y-280182380D02*
X235161904Y-279182380D01*
X234828571Y-279896666D01*
X234495238Y-279182380D01*
X234495238Y-280182380D01*
X234114285Y-279182380D02*
X233447619Y-280182380D01*
X233447619Y-279182380D02*
X234114285Y-280182380D01*
X232542857Y-280182380D02*
X233114285Y-280182380D01*
X232828571Y-280182380D02*
X232828571Y-279182380D01*
X232923809Y-279325238D01*
X233019047Y-279420476D01*
X233114285Y-279468095D01*
X232209523Y-279182380D02*
X231590476Y-279182380D01*
X231923809Y-279563333D01*
X231780952Y-279563333D01*
X231685714Y-279610952D01*
X231638095Y-279658571D01*
X231590476Y-279753809D01*
X231590476Y-279991904D01*
X231638095Y-280087142D01*
X231685714Y-280134761D01*
X231780952Y-280182380D01*
X232066666Y-280182380D01*
X232161904Y-280134761D01*
X232209523Y-280087142D01*
X85232380Y-226015714D02*
X84232380Y-226015714D01*
X84232380Y-226253809D01*
X84280000Y-226396666D01*
X84375238Y-226491904D01*
X84470476Y-226539523D01*
X84660952Y-226587142D01*
X84803809Y-226587142D01*
X84994285Y-226539523D01*
X85089523Y-226491904D01*
X85184761Y-226396666D01*
X85232380Y-226253809D01*
X85232380Y-226015714D01*
X84232380Y-227491904D02*
X84232380Y-227015714D01*
X84708571Y-226968095D01*
X84660952Y-227015714D01*
X84613333Y-227110952D01*
X84613333Y-227349047D01*
X84660952Y-227444285D01*
X84708571Y-227491904D01*
X84803809Y-227539523D01*
X85041904Y-227539523D01*
X85137142Y-227491904D01*
X85184761Y-227444285D01*
X85232380Y-227349047D01*
X85232380Y-227110952D01*
X85184761Y-227015714D01*
X85137142Y-226968095D01*
X84327619Y-227920476D02*
X84280000Y-227968095D01*
X84232380Y-228063333D01*
X84232380Y-228301428D01*
X84280000Y-228396666D01*
X84327619Y-228444285D01*
X84422857Y-228491904D01*
X84518095Y-228491904D01*
X84660952Y-228444285D01*
X85232380Y-227872857D01*
X85232380Y-228491904D01*
X85552380Y-223158095D02*
X84552380Y-223158095D01*
X85552380Y-223729523D02*
X84980952Y-223300952D01*
X84552380Y-223729523D02*
X85123809Y-223158095D01*
X40111904Y-320242380D02*
X40111904Y-319242380D01*
X39778571Y-319956666D01*
X39445238Y-319242380D01*
X39445238Y-320242380D01*
X39064285Y-319242380D02*
X38397619Y-320242380D01*
X38397619Y-319242380D02*
X39064285Y-320242380D01*
X37588095Y-319575714D02*
X37588095Y-320242380D01*
X37826190Y-319194761D02*
X38064285Y-319909047D01*
X37445238Y-319909047D01*
X37159523Y-319242380D02*
X36492857Y-319242380D01*
X36921428Y-320242380D01*
X89232380Y-226015714D02*
X88232380Y-226015714D01*
X88232380Y-226253809D01*
X88280000Y-226396666D01*
X88375238Y-226491904D01*
X88470476Y-226539523D01*
X88660952Y-226587142D01*
X88803809Y-226587142D01*
X88994285Y-226539523D01*
X89089523Y-226491904D01*
X89184761Y-226396666D01*
X89232380Y-226253809D01*
X89232380Y-226015714D01*
X88232380Y-227491904D02*
X88232380Y-227015714D01*
X88708571Y-226968095D01*
X88660952Y-227015714D01*
X88613333Y-227110952D01*
X88613333Y-227349047D01*
X88660952Y-227444285D01*
X88708571Y-227491904D01*
X88803809Y-227539523D01*
X89041904Y-227539523D01*
X89137142Y-227491904D01*
X89184761Y-227444285D01*
X89232380Y-227349047D01*
X89232380Y-227110952D01*
X89184761Y-227015714D01*
X89137142Y-226968095D01*
X89232380Y-228491904D02*
X89232380Y-227920476D01*
X89232380Y-228206190D02*
X88232380Y-228206190D01*
X88375238Y-228110952D01*
X88470476Y-228015714D01*
X88518095Y-227920476D01*
X89552380Y-223158095D02*
X88552380Y-223158095D01*
X89552380Y-223729523D02*
X88980952Y-223300952D01*
X88552380Y-223729523D02*
X89123809Y-223158095D01*
X153232380Y-226015714D02*
X152232380Y-226015714D01*
X152232380Y-226253809D01*
X152280000Y-226396666D01*
X152375238Y-226491904D01*
X152470476Y-226539523D01*
X152660952Y-226587142D01*
X152803809Y-226587142D01*
X152994285Y-226539523D01*
X153089523Y-226491904D01*
X153184761Y-226396666D01*
X153232380Y-226253809D01*
X153232380Y-226015714D01*
X152232380Y-226920476D02*
X152232380Y-227539523D01*
X152613333Y-227206190D01*
X152613333Y-227349047D01*
X152660952Y-227444285D01*
X152708571Y-227491904D01*
X152803809Y-227539523D01*
X153041904Y-227539523D01*
X153137142Y-227491904D01*
X153184761Y-227444285D01*
X153232380Y-227349047D01*
X153232380Y-227063333D01*
X153184761Y-226968095D01*
X153137142Y-226920476D01*
X152232380Y-228444285D02*
X152232380Y-227968095D01*
X152708571Y-227920476D01*
X152660952Y-227968095D01*
X152613333Y-228063333D01*
X152613333Y-228301428D01*
X152660952Y-228396666D01*
X152708571Y-228444285D01*
X152803809Y-228491904D01*
X153041904Y-228491904D01*
X153137142Y-228444285D01*
X153184761Y-228396666D01*
X153232380Y-228301428D01*
X153232380Y-228063333D01*
X153184761Y-227968095D01*
X153137142Y-227920476D01*
X153552380Y-223158095D02*
X152552380Y-223158095D01*
X153552380Y-223729523D02*
X152980952Y-223300952D01*
X152552380Y-223729523D02*
X153123809Y-223158095D01*
X281232380Y-226491904D02*
X280232380Y-226491904D01*
X280232380Y-226730000D01*
X280280000Y-226872857D01*
X280375238Y-226968095D01*
X280470476Y-227015714D01*
X280660952Y-227063333D01*
X280803809Y-227063333D01*
X280994285Y-227015714D01*
X281089523Y-226968095D01*
X281184761Y-226872857D01*
X281232380Y-226730000D01*
X281232380Y-226491904D01*
X280232380Y-227396666D02*
X280232380Y-228015714D01*
X280613333Y-227682380D01*
X280613333Y-227825238D01*
X280660952Y-227920476D01*
X280708571Y-227968095D01*
X280803809Y-228015714D01*
X281041904Y-228015714D01*
X281137142Y-227968095D01*
X281184761Y-227920476D01*
X281232380Y-227825238D01*
X281232380Y-227539523D01*
X281184761Y-227444285D01*
X281137142Y-227396666D01*
X281552380Y-223158095D02*
X280552380Y-223158095D01*
X281552380Y-223729523D02*
X280980952Y-223300952D01*
X280552380Y-223729523D02*
X281123809Y-223158095D01*
X284685714Y-260182380D02*
X284685714Y-259182380D01*
X284352380Y-259896666D01*
X284019047Y-259182380D01*
X284019047Y-260182380D01*
X283638095Y-259182380D02*
X282971428Y-260182380D01*
X282971428Y-259182380D02*
X283638095Y-260182380D01*
X282638095Y-259277619D02*
X282590476Y-259230000D01*
X282495238Y-259182380D01*
X282257142Y-259182380D01*
X282161904Y-259230000D01*
X282114285Y-259277619D01*
X282066666Y-259372857D01*
X282066666Y-259468095D01*
X282114285Y-259610952D01*
X282685714Y-260182380D01*
X282066666Y-260182380D01*
X221232380Y-226015714D02*
X220232380Y-226015714D01*
X220232380Y-226253809D01*
X220280000Y-226396666D01*
X220375238Y-226491904D01*
X220470476Y-226539523D01*
X220660952Y-226587142D01*
X220803809Y-226587142D01*
X220994285Y-226539523D01*
X221089523Y-226491904D01*
X221184761Y-226396666D01*
X221232380Y-226253809D01*
X221232380Y-226015714D01*
X221232380Y-227539523D02*
X221232380Y-226968095D01*
X221232380Y-227253809D02*
X220232380Y-227253809D01*
X220375238Y-227158571D01*
X220470476Y-227063333D01*
X220518095Y-226968095D01*
X220660952Y-228110952D02*
X220613333Y-228015714D01*
X220565714Y-227968095D01*
X220470476Y-227920476D01*
X220422857Y-227920476D01*
X220327619Y-227968095D01*
X220280000Y-228015714D01*
X220232380Y-228110952D01*
X220232380Y-228301428D01*
X220280000Y-228396666D01*
X220327619Y-228444285D01*
X220422857Y-228491904D01*
X220470476Y-228491904D01*
X220565714Y-228444285D01*
X220613333Y-228396666D01*
X220660952Y-228301428D01*
X220660952Y-228110952D01*
X220708571Y-228015714D01*
X220756190Y-227968095D01*
X220851428Y-227920476D01*
X221041904Y-227920476D01*
X221137142Y-227968095D01*
X221184761Y-228015714D01*
X221232380Y-228110952D01*
X221232380Y-228301428D01*
X221184761Y-228396666D01*
X221137142Y-228444285D01*
X221041904Y-228491904D01*
X220851428Y-228491904D01*
X220756190Y-228444285D01*
X220708571Y-228396666D01*
X220660952Y-228301428D01*
X221552380Y-223158095D02*
X220552380Y-223158095D01*
X221552380Y-223729523D02*
X220980952Y-223300952D01*
X220552380Y-223729523D02*
X221123809Y-223158095D01*
X157232380Y-226015714D02*
X156232380Y-226015714D01*
X156232380Y-226253809D01*
X156280000Y-226396666D01*
X156375238Y-226491904D01*
X156470476Y-226539523D01*
X156660952Y-226587142D01*
X156803809Y-226587142D01*
X156994285Y-226539523D01*
X157089523Y-226491904D01*
X157184761Y-226396666D01*
X157232380Y-226253809D01*
X157232380Y-226015714D01*
X156232380Y-226920476D02*
X156232380Y-227539523D01*
X156613333Y-227206190D01*
X156613333Y-227349047D01*
X156660952Y-227444285D01*
X156708571Y-227491904D01*
X156803809Y-227539523D01*
X157041904Y-227539523D01*
X157137142Y-227491904D01*
X157184761Y-227444285D01*
X157232380Y-227349047D01*
X157232380Y-227063333D01*
X157184761Y-226968095D01*
X157137142Y-226920476D01*
X156565714Y-228396666D02*
X157232380Y-228396666D01*
X156184761Y-228158571D02*
X156899047Y-227920476D01*
X156899047Y-228539523D01*
X157552380Y-223158095D02*
X156552380Y-223158095D01*
X157552380Y-223729523D02*
X156980952Y-223300952D01*
X156552380Y-223729523D02*
X157123809Y-223158095D01*
X215161904Y-280182380D02*
X215161904Y-279182380D01*
X214828571Y-279896666D01*
X214495238Y-279182380D01*
X214495238Y-280182380D01*
X214114285Y-279182380D02*
X213447619Y-280182380D01*
X213447619Y-279182380D02*
X214114285Y-280182380D01*
X212542857Y-280182380D02*
X213114285Y-280182380D01*
X212828571Y-280182380D02*
X212828571Y-279182380D01*
X212923809Y-279325238D01*
X213019047Y-279420476D01*
X213114285Y-279468095D01*
X211971428Y-279610952D02*
X212066666Y-279563333D01*
X212114285Y-279515714D01*
X212161904Y-279420476D01*
X212161904Y-279372857D01*
X212114285Y-279277619D01*
X212066666Y-279230000D01*
X211971428Y-279182380D01*
X211780952Y-279182380D01*
X211685714Y-279230000D01*
X211638095Y-279277619D01*
X211590476Y-279372857D01*
X211590476Y-279420476D01*
X211638095Y-279515714D01*
X211685714Y-279563333D01*
X211780952Y-279610952D01*
X211971428Y-279610952D01*
X212066666Y-279658571D01*
X212114285Y-279706190D01*
X212161904Y-279801428D01*
X212161904Y-279991904D01*
X212114285Y-280087142D01*
X212066666Y-280134761D01*
X211971428Y-280182380D01*
X211780952Y-280182380D01*
X211685714Y-280134761D01*
X211638095Y-280087142D01*
X211590476Y-279991904D01*
X211590476Y-279801428D01*
X211638095Y-279706190D01*
X211685714Y-279658571D01*
X211780952Y-279610952D01*
X289232380Y-226491904D02*
X288232380Y-226491904D01*
X288232380Y-226730000D01*
X288280000Y-226872857D01*
X288375238Y-226968095D01*
X288470476Y-227015714D01*
X288660952Y-227063333D01*
X288803809Y-227063333D01*
X288994285Y-227015714D01*
X289089523Y-226968095D01*
X289184761Y-226872857D01*
X289232380Y-226730000D01*
X289232380Y-226491904D01*
X289232380Y-228015714D02*
X289232380Y-227444285D01*
X289232380Y-227730000D02*
X288232380Y-227730000D01*
X288375238Y-227634761D01*
X288470476Y-227539523D01*
X288518095Y-227444285D01*
X289552380Y-223158095D02*
X288552380Y-223158095D01*
X289552380Y-223729523D02*
X288980952Y-223300952D01*
X288552380Y-223729523D02*
X289123809Y-223158095D01*
X220161904Y-260182380D02*
X220161904Y-259182380D01*
X219828571Y-259896666D01*
X219495238Y-259182380D01*
X219495238Y-260182380D01*
X219114285Y-259182380D02*
X218447619Y-260182380D01*
X218447619Y-259182380D02*
X219114285Y-260182380D01*
X217542857Y-260182380D02*
X218114285Y-260182380D01*
X217828571Y-260182380D02*
X217828571Y-259182380D01*
X217923809Y-259325238D01*
X218019047Y-259420476D01*
X218114285Y-259468095D01*
X217209523Y-259182380D02*
X216542857Y-259182380D01*
X216971428Y-260182380D01*
X213232380Y-226015714D02*
X212232380Y-226015714D01*
X212232380Y-226253809D01*
X212280000Y-226396666D01*
X212375238Y-226491904D01*
X212470476Y-226539523D01*
X212660952Y-226587142D01*
X212803809Y-226587142D01*
X212994285Y-226539523D01*
X213089523Y-226491904D01*
X213184761Y-226396666D01*
X213232380Y-226253809D01*
X213232380Y-226015714D01*
X212327619Y-226968095D02*
X212280000Y-227015714D01*
X212232380Y-227110952D01*
X212232380Y-227349047D01*
X212280000Y-227444285D01*
X212327619Y-227491904D01*
X212422857Y-227539523D01*
X212518095Y-227539523D01*
X212660952Y-227491904D01*
X213232380Y-226920476D01*
X213232380Y-227539523D01*
X212232380Y-228158571D02*
X212232380Y-228253809D01*
X212280000Y-228349047D01*
X212327619Y-228396666D01*
X212422857Y-228444285D01*
X212613333Y-228491904D01*
X212851428Y-228491904D01*
X213041904Y-228444285D01*
X213137142Y-228396666D01*
X213184761Y-228349047D01*
X213232380Y-228253809D01*
X213232380Y-228158571D01*
X213184761Y-228063333D01*
X213137142Y-228015714D01*
X213041904Y-227968095D01*
X212851428Y-227920476D01*
X212613333Y-227920476D01*
X212422857Y-227968095D01*
X212327619Y-228015714D01*
X212280000Y-228063333D01*
X212232380Y-228158571D01*
X213552380Y-223158095D02*
X212552380Y-223158095D01*
X213552380Y-223729523D02*
X212980952Y-223300952D01*
X212552380Y-223729523D02*
X213123809Y-223158095D01*
X189232380Y-226015714D02*
X188232380Y-226015714D01*
X188232380Y-226253809D01*
X188280000Y-226396666D01*
X188375238Y-226491904D01*
X188470476Y-226539523D01*
X188660952Y-226587142D01*
X188803809Y-226587142D01*
X188994285Y-226539523D01*
X189089523Y-226491904D01*
X189184761Y-226396666D01*
X189232380Y-226253809D01*
X189232380Y-226015714D01*
X188327619Y-226968095D02*
X188280000Y-227015714D01*
X188232380Y-227110952D01*
X188232380Y-227349047D01*
X188280000Y-227444285D01*
X188327619Y-227491904D01*
X188422857Y-227539523D01*
X188518095Y-227539523D01*
X188660952Y-227491904D01*
X189232380Y-226920476D01*
X189232380Y-227539523D01*
X188232380Y-228396666D02*
X188232380Y-228206190D01*
X188280000Y-228110952D01*
X188327619Y-228063333D01*
X188470476Y-227968095D01*
X188660952Y-227920476D01*
X189041904Y-227920476D01*
X189137142Y-227968095D01*
X189184761Y-228015714D01*
X189232380Y-228110952D01*
X189232380Y-228301428D01*
X189184761Y-228396666D01*
X189137142Y-228444285D01*
X189041904Y-228491904D01*
X188803809Y-228491904D01*
X188708571Y-228444285D01*
X188660952Y-228396666D01*
X188613333Y-228301428D01*
X188613333Y-228110952D01*
X188660952Y-228015714D01*
X188708571Y-227968095D01*
X188803809Y-227920476D01*
X189552380Y-223158095D02*
X188552380Y-223158095D01*
X189552380Y-223729523D02*
X188980952Y-223300952D01*
X188552380Y-223729523D02*
X189123809Y-223158095D01*
X257232380Y-226491904D02*
X256232380Y-226491904D01*
X256232380Y-226730000D01*
X256280000Y-226872857D01*
X256375238Y-226968095D01*
X256470476Y-227015714D01*
X256660952Y-227063333D01*
X256803809Y-227063333D01*
X256994285Y-227015714D01*
X257089523Y-226968095D01*
X257184761Y-226872857D01*
X257232380Y-226730000D01*
X257232380Y-226491904D01*
X257232380Y-227539523D02*
X257232380Y-227730000D01*
X257184761Y-227825238D01*
X257137142Y-227872857D01*
X256994285Y-227968095D01*
X256803809Y-228015714D01*
X256422857Y-228015714D01*
X256327619Y-227968095D01*
X256280000Y-227920476D01*
X256232380Y-227825238D01*
X256232380Y-227634761D01*
X256280000Y-227539523D01*
X256327619Y-227491904D01*
X256422857Y-227444285D01*
X256660952Y-227444285D01*
X256756190Y-227491904D01*
X256803809Y-227539523D01*
X256851428Y-227634761D01*
X256851428Y-227825238D01*
X256803809Y-227920476D01*
X256756190Y-227968095D01*
X256660952Y-228015714D01*
X257552380Y-223158095D02*
X256552380Y-223158095D01*
X257552380Y-223729523D02*
X256980952Y-223300952D01*
X256552380Y-223729523D02*
X257123809Y-223158095D01*
X195161904Y-280182380D02*
X195161904Y-279182380D01*
X194828571Y-279896666D01*
X194495238Y-279182380D01*
X194495238Y-280182380D01*
X194114285Y-279182380D02*
X193447619Y-280182380D01*
X193447619Y-279182380D02*
X194114285Y-280182380D01*
X193114285Y-279277619D02*
X193066666Y-279230000D01*
X192971428Y-279182380D01*
X192733333Y-279182380D01*
X192638095Y-279230000D01*
X192590476Y-279277619D01*
X192542857Y-279372857D01*
X192542857Y-279468095D01*
X192590476Y-279610952D01*
X193161904Y-280182380D01*
X192542857Y-280182380D01*
X192161904Y-279277619D02*
X192114285Y-279230000D01*
X192019047Y-279182380D01*
X191780952Y-279182380D01*
X191685714Y-279230000D01*
X191638095Y-279277619D01*
X191590476Y-279372857D01*
X191590476Y-279468095D01*
X191638095Y-279610952D01*
X192209523Y-280182380D01*
X191590476Y-280182380D01*
X254685714Y-280182380D02*
X254685714Y-279182380D01*
X254352380Y-279896666D01*
X254019047Y-279182380D01*
X254019047Y-280182380D01*
X253638095Y-279182380D02*
X252971428Y-280182380D01*
X252971428Y-279182380D02*
X253638095Y-280182380D01*
X252447619Y-279610952D02*
X252542857Y-279563333D01*
X252590476Y-279515714D01*
X252638095Y-279420476D01*
X252638095Y-279372857D01*
X252590476Y-279277619D01*
X252542857Y-279230000D01*
X252447619Y-279182380D01*
X252257142Y-279182380D01*
X252161904Y-279230000D01*
X252114285Y-279277619D01*
X252066666Y-279372857D01*
X252066666Y-279420476D01*
X252114285Y-279515714D01*
X252161904Y-279563333D01*
X252257142Y-279610952D01*
X252447619Y-279610952D01*
X252542857Y-279658571D01*
X252590476Y-279706190D01*
X252638095Y-279801428D01*
X252638095Y-279991904D01*
X252590476Y-280087142D01*
X252542857Y-280134761D01*
X252447619Y-280182380D01*
X252257142Y-280182380D01*
X252161904Y-280134761D01*
X252114285Y-280087142D01*
X252066666Y-279991904D01*
X252066666Y-279801428D01*
X252114285Y-279706190D01*
X252161904Y-279658571D01*
X252257142Y-279610952D01*
X269232380Y-226491904D02*
X268232380Y-226491904D01*
X268232380Y-226730000D01*
X268280000Y-226872857D01*
X268375238Y-226968095D01*
X268470476Y-227015714D01*
X268660952Y-227063333D01*
X268803809Y-227063333D01*
X268994285Y-227015714D01*
X269089523Y-226968095D01*
X269184761Y-226872857D01*
X269232380Y-226730000D01*
X269232380Y-226491904D01*
X268232380Y-227920476D02*
X268232380Y-227730000D01*
X268280000Y-227634761D01*
X268327619Y-227587142D01*
X268470476Y-227491904D01*
X268660952Y-227444285D01*
X269041904Y-227444285D01*
X269137142Y-227491904D01*
X269184761Y-227539523D01*
X269232380Y-227634761D01*
X269232380Y-227825238D01*
X269184761Y-227920476D01*
X269137142Y-227968095D01*
X269041904Y-228015714D01*
X268803809Y-228015714D01*
X268708571Y-227968095D01*
X268660952Y-227920476D01*
X268613333Y-227825238D01*
X268613333Y-227634761D01*
X268660952Y-227539523D01*
X268708571Y-227491904D01*
X268803809Y-227444285D01*
X269552380Y-223158095D02*
X268552380Y-223158095D01*
X269552380Y-223729523D02*
X268980952Y-223300952D01*
X268552380Y-223729523D02*
X269123809Y-223158095D01*
X185161904Y-300182380D02*
X185161904Y-299182380D01*
X184828571Y-299896666D01*
X184495238Y-299182380D01*
X184495238Y-300182380D01*
X184114285Y-299182380D02*
X183447619Y-300182380D01*
X183447619Y-299182380D02*
X184114285Y-300182380D01*
X183114285Y-299277619D02*
X183066666Y-299230000D01*
X182971428Y-299182380D01*
X182733333Y-299182380D01*
X182638095Y-299230000D01*
X182590476Y-299277619D01*
X182542857Y-299372857D01*
X182542857Y-299468095D01*
X182590476Y-299610952D01*
X183161904Y-300182380D01*
X182542857Y-300182380D01*
X182209523Y-299182380D02*
X181590476Y-299182380D01*
X181923809Y-299563333D01*
X181780952Y-299563333D01*
X181685714Y-299610952D01*
X181638095Y-299658571D01*
X181590476Y-299753809D01*
X181590476Y-299991904D01*
X181638095Y-300087142D01*
X181685714Y-300134761D01*
X181780952Y-300182380D01*
X182066666Y-300182380D01*
X182161904Y-300134761D01*
X182209523Y-300087142D01*
X15551904Y-260162380D02*
X15551904Y-259162380D01*
X15218571Y-259876666D01*
X14885238Y-259162380D01*
X14885238Y-260162380D01*
X14504285Y-259162380D02*
X13837619Y-260162380D01*
X13837619Y-259162380D02*
X14504285Y-260162380D01*
X12980476Y-259162380D02*
X13456666Y-259162380D01*
X13504285Y-259638571D01*
X13456666Y-259590952D01*
X13361428Y-259543333D01*
X13123333Y-259543333D01*
X13028095Y-259590952D01*
X12980476Y-259638571D01*
X12932857Y-259733809D01*
X12932857Y-259971904D01*
X12980476Y-260067142D01*
X13028095Y-260114761D01*
X13123333Y-260162380D01*
X13361428Y-260162380D01*
X13456666Y-260114761D01*
X13504285Y-260067142D01*
X12456666Y-260162380D02*
X12266190Y-260162380D01*
X12170952Y-260114761D01*
X12123333Y-260067142D01*
X12028095Y-259924285D01*
X11980476Y-259733809D01*
X11980476Y-259352857D01*
X12028095Y-259257619D01*
X12075714Y-259210000D01*
X12170952Y-259162380D01*
X12361428Y-259162380D01*
X12456666Y-259210000D01*
X12504285Y-259257619D01*
X12551904Y-259352857D01*
X12551904Y-259590952D01*
X12504285Y-259686190D01*
X12456666Y-259733809D01*
X12361428Y-259781428D01*
X12170952Y-259781428D01*
X12075714Y-259733809D01*
X12028095Y-259686190D01*
X11980476Y-259590952D01*
X22661904Y-280182380D02*
X22661904Y-279182380D01*
X22328571Y-279896666D01*
X21995238Y-279182380D01*
X21995238Y-280182380D01*
X21614285Y-279182380D02*
X20947619Y-280182380D01*
X20947619Y-279182380D02*
X21614285Y-280182380D01*
X20138095Y-279182380D02*
X20328571Y-279182380D01*
X20423809Y-279230000D01*
X20471428Y-279277619D01*
X20566666Y-279420476D01*
X20614285Y-279610952D01*
X20614285Y-279991904D01*
X20566666Y-280087142D01*
X20519047Y-280134761D01*
X20423809Y-280182380D01*
X20233333Y-280182380D01*
X20138095Y-280134761D01*
X20090476Y-280087142D01*
X20042857Y-279991904D01*
X20042857Y-279753809D01*
X20090476Y-279658571D01*
X20138095Y-279610952D01*
X20233333Y-279563333D01*
X20423809Y-279563333D01*
X20519047Y-279610952D01*
X20566666Y-279658571D01*
X20614285Y-279753809D01*
X19423809Y-279182380D02*
X19328571Y-279182380D01*
X19233333Y-279230000D01*
X19185714Y-279277619D01*
X19138095Y-279372857D01*
X19090476Y-279563333D01*
X19090476Y-279801428D01*
X19138095Y-279991904D01*
X19185714Y-280087142D01*
X19233333Y-280134761D01*
X19328571Y-280182380D01*
X19423809Y-280182380D01*
X19519047Y-280134761D01*
X19566666Y-280087142D01*
X19614285Y-279991904D01*
X19661904Y-279801428D01*
X19661904Y-279563333D01*
X19614285Y-279372857D01*
X19566666Y-279277619D01*
X19519047Y-279230000D01*
X19423809Y-279182380D01*
X101232380Y-226015714D02*
X100232380Y-226015714D01*
X100232380Y-226253809D01*
X100280000Y-226396666D01*
X100375238Y-226491904D01*
X100470476Y-226539523D01*
X100660952Y-226587142D01*
X100803809Y-226587142D01*
X100994285Y-226539523D01*
X101089523Y-226491904D01*
X101184761Y-226396666D01*
X101232380Y-226253809D01*
X101232380Y-226015714D01*
X100565714Y-227444285D02*
X101232380Y-227444285D01*
X100184761Y-227206190D02*
X100899047Y-226968095D01*
X100899047Y-227587142D01*
X100660952Y-228110952D02*
X100613333Y-228015714D01*
X100565714Y-227968095D01*
X100470476Y-227920476D01*
X100422857Y-227920476D01*
X100327619Y-227968095D01*
X100280000Y-228015714D01*
X100232380Y-228110952D01*
X100232380Y-228301428D01*
X100280000Y-228396666D01*
X100327619Y-228444285D01*
X100422857Y-228491904D01*
X100470476Y-228491904D01*
X100565714Y-228444285D01*
X100613333Y-228396666D01*
X100660952Y-228301428D01*
X100660952Y-228110952D01*
X100708571Y-228015714D01*
X100756190Y-227968095D01*
X100851428Y-227920476D01*
X101041904Y-227920476D01*
X101137142Y-227968095D01*
X101184761Y-228015714D01*
X101232380Y-228110952D01*
X101232380Y-228301428D01*
X101184761Y-228396666D01*
X101137142Y-228444285D01*
X101041904Y-228491904D01*
X100851428Y-228491904D01*
X100756190Y-228444285D01*
X100708571Y-228396666D01*
X100660952Y-228301428D01*
X101552380Y-223158095D02*
X100552380Y-223158095D01*
X101552380Y-223729523D02*
X100980952Y-223300952D01*
X100552380Y-223729523D02*
X101123809Y-223158095D01*
X61232380Y-226015714D02*
X60232380Y-226015714D01*
X60232380Y-226253809D01*
X60280000Y-226396666D01*
X60375238Y-226491904D01*
X60470476Y-226539523D01*
X60660952Y-226587142D01*
X60803809Y-226587142D01*
X60994285Y-226539523D01*
X61089523Y-226491904D01*
X61184761Y-226396666D01*
X61232380Y-226253809D01*
X61232380Y-226015714D01*
X60232380Y-227491904D02*
X60232380Y-227015714D01*
X60708571Y-226968095D01*
X60660952Y-227015714D01*
X60613333Y-227110952D01*
X60613333Y-227349047D01*
X60660952Y-227444285D01*
X60708571Y-227491904D01*
X60803809Y-227539523D01*
X61041904Y-227539523D01*
X61137142Y-227491904D01*
X61184761Y-227444285D01*
X61232380Y-227349047D01*
X61232380Y-227110952D01*
X61184761Y-227015714D01*
X61137142Y-226968095D01*
X60660952Y-228110952D02*
X60613333Y-228015714D01*
X60565714Y-227968095D01*
X60470476Y-227920476D01*
X60422857Y-227920476D01*
X60327619Y-227968095D01*
X60280000Y-228015714D01*
X60232380Y-228110952D01*
X60232380Y-228301428D01*
X60280000Y-228396666D01*
X60327619Y-228444285D01*
X60422857Y-228491904D01*
X60470476Y-228491904D01*
X60565714Y-228444285D01*
X60613333Y-228396666D01*
X60660952Y-228301428D01*
X60660952Y-228110952D01*
X60708571Y-228015714D01*
X60756190Y-227968095D01*
X60851428Y-227920476D01*
X61041904Y-227920476D01*
X61137142Y-227968095D01*
X61184761Y-228015714D01*
X61232380Y-228110952D01*
X61232380Y-228301428D01*
X61184761Y-228396666D01*
X61137142Y-228444285D01*
X61041904Y-228491904D01*
X60851428Y-228491904D01*
X60756190Y-228444285D01*
X60708571Y-228396666D01*
X60660952Y-228301428D01*
X61552380Y-223158095D02*
X60552380Y-223158095D01*
X61552380Y-223729523D02*
X60980952Y-223300952D01*
X60552380Y-223729523D02*
X61123809Y-223158095D01*
X155161904Y-280182380D02*
X155161904Y-279182380D01*
X154828571Y-279896666D01*
X154495238Y-279182380D01*
X154495238Y-280182380D01*
X154114285Y-279182380D02*
X153447619Y-280182380D01*
X153447619Y-279182380D02*
X154114285Y-280182380D01*
X153161904Y-279182380D02*
X152542857Y-279182380D01*
X152876190Y-279563333D01*
X152733333Y-279563333D01*
X152638095Y-279610952D01*
X152590476Y-279658571D01*
X152542857Y-279753809D01*
X152542857Y-279991904D01*
X152590476Y-280087142D01*
X152638095Y-280134761D01*
X152733333Y-280182380D01*
X153019047Y-280182380D01*
X153114285Y-280134761D01*
X153161904Y-280087142D01*
X151590476Y-280182380D02*
X152161904Y-280182380D01*
X151876190Y-280182380D02*
X151876190Y-279182380D01*
X151971428Y-279325238D01*
X152066666Y-279420476D01*
X152161904Y-279468095D01*
X201232380Y-226015714D02*
X200232380Y-226015714D01*
X200232380Y-226253809D01*
X200280000Y-226396666D01*
X200375238Y-226491904D01*
X200470476Y-226539523D01*
X200660952Y-226587142D01*
X200803809Y-226587142D01*
X200994285Y-226539523D01*
X201089523Y-226491904D01*
X201184761Y-226396666D01*
X201232380Y-226253809D01*
X201232380Y-226015714D01*
X200327619Y-226968095D02*
X200280000Y-227015714D01*
X200232380Y-227110952D01*
X200232380Y-227349047D01*
X200280000Y-227444285D01*
X200327619Y-227491904D01*
X200422857Y-227539523D01*
X200518095Y-227539523D01*
X200660952Y-227491904D01*
X201232380Y-226920476D01*
X201232380Y-227539523D01*
X200232380Y-227872857D02*
X200232380Y-228491904D01*
X200613333Y-228158571D01*
X200613333Y-228301428D01*
X200660952Y-228396666D01*
X200708571Y-228444285D01*
X200803809Y-228491904D01*
X201041904Y-228491904D01*
X201137142Y-228444285D01*
X201184761Y-228396666D01*
X201232380Y-228301428D01*
X201232380Y-228015714D01*
X201184761Y-227920476D01*
X201137142Y-227872857D01*
X201552380Y-223158095D02*
X200552380Y-223158095D01*
X201552380Y-223729523D02*
X200980952Y-223300952D01*
X200552380Y-223729523D02*
X201123809Y-223158095D01*
X161232380Y-226015714D02*
X160232380Y-226015714D01*
X160232380Y-226253809D01*
X160280000Y-226396666D01*
X160375238Y-226491904D01*
X160470476Y-226539523D01*
X160660952Y-226587142D01*
X160803809Y-226587142D01*
X160994285Y-226539523D01*
X161089523Y-226491904D01*
X161184761Y-226396666D01*
X161232380Y-226253809D01*
X161232380Y-226015714D01*
X160232380Y-226920476D02*
X160232380Y-227539523D01*
X160613333Y-227206190D01*
X160613333Y-227349047D01*
X160660952Y-227444285D01*
X160708571Y-227491904D01*
X160803809Y-227539523D01*
X161041904Y-227539523D01*
X161137142Y-227491904D01*
X161184761Y-227444285D01*
X161232380Y-227349047D01*
X161232380Y-227063333D01*
X161184761Y-226968095D01*
X161137142Y-226920476D01*
X160232380Y-227872857D02*
X160232380Y-228491904D01*
X160613333Y-228158571D01*
X160613333Y-228301428D01*
X160660952Y-228396666D01*
X160708571Y-228444285D01*
X160803809Y-228491904D01*
X161041904Y-228491904D01*
X161137142Y-228444285D01*
X161184761Y-228396666D01*
X161232380Y-228301428D01*
X161232380Y-228015714D01*
X161184761Y-227920476D01*
X161137142Y-227872857D01*
X161552380Y-223158095D02*
X160552380Y-223158095D01*
X161552380Y-223729523D02*
X160980952Y-223300952D01*
X160552380Y-223729523D02*
X161123809Y-223158095D01*
X135161904Y-280182380D02*
X135161904Y-279182380D01*
X134828571Y-279896666D01*
X134495238Y-279182380D01*
X134495238Y-280182380D01*
X134114285Y-279182380D02*
X133447619Y-280182380D01*
X133447619Y-279182380D02*
X134114285Y-280182380D01*
X133161904Y-279182380D02*
X132542857Y-279182380D01*
X132876190Y-279563333D01*
X132733333Y-279563333D01*
X132638095Y-279610952D01*
X132590476Y-279658571D01*
X132542857Y-279753809D01*
X132542857Y-279991904D01*
X132590476Y-280087142D01*
X132638095Y-280134761D01*
X132733333Y-280182380D01*
X133019047Y-280182380D01*
X133114285Y-280134761D01*
X133161904Y-280087142D01*
X131638095Y-279182380D02*
X132114285Y-279182380D01*
X132161904Y-279658571D01*
X132114285Y-279610952D01*
X132019047Y-279563333D01*
X131780952Y-279563333D01*
X131685714Y-279610952D01*
X131638095Y-279658571D01*
X131590476Y-279753809D01*
X131590476Y-279991904D01*
X131638095Y-280087142D01*
X131685714Y-280134761D01*
X131780952Y-280182380D01*
X132019047Y-280182380D01*
X132114285Y-280134761D01*
X132161904Y-280087142D01*
X200161904Y-260182380D02*
X200161904Y-259182380D01*
X199828571Y-259896666D01*
X199495238Y-259182380D01*
X199495238Y-260182380D01*
X199114285Y-259182380D02*
X198447619Y-260182380D01*
X198447619Y-259182380D02*
X199114285Y-260182380D01*
X198114285Y-259277619D02*
X198066666Y-259230000D01*
X197971428Y-259182380D01*
X197733333Y-259182380D01*
X197638095Y-259230000D01*
X197590476Y-259277619D01*
X197542857Y-259372857D01*
X197542857Y-259468095D01*
X197590476Y-259610952D01*
X198161904Y-260182380D01*
X197542857Y-260182380D01*
X196590476Y-260182380D02*
X197161904Y-260182380D01*
X196876190Y-260182380D02*
X196876190Y-259182380D01*
X196971428Y-259325238D01*
X197066666Y-259420476D01*
X197161904Y-259468095D01*
X262661904Y-320182380D02*
X262661904Y-319182380D01*
X262328571Y-319896666D01*
X261995238Y-319182380D01*
X261995238Y-320182380D01*
X261614285Y-319182380D02*
X260947619Y-320182380D01*
X260947619Y-319182380D02*
X261614285Y-320182380D01*
X260042857Y-320182380D02*
X260614285Y-320182380D01*
X260328571Y-320182380D02*
X260328571Y-319182380D01*
X260423809Y-319325238D01*
X260519047Y-319420476D01*
X260614285Y-319468095D01*
X259423809Y-319182380D02*
X259328571Y-319182380D01*
X259233333Y-319230000D01*
X259185714Y-319277619D01*
X259138095Y-319372857D01*
X259090476Y-319563333D01*
X259090476Y-319801428D01*
X259138095Y-319991904D01*
X259185714Y-320087142D01*
X259233333Y-320134761D01*
X259328571Y-320182380D01*
X259423809Y-320182380D01*
X259519047Y-320134761D01*
X259566666Y-320087142D01*
X259614285Y-319991904D01*
X259661904Y-319801428D01*
X259661904Y-319563333D01*
X259614285Y-319372857D01*
X259566666Y-319277619D01*
X259519047Y-319230000D01*
X259423809Y-319182380D01*
X165161904Y-300182380D02*
X165161904Y-299182380D01*
X164828571Y-299896666D01*
X164495238Y-299182380D01*
X164495238Y-300182380D01*
X164114285Y-299182380D02*
X163447619Y-300182380D01*
X163447619Y-299182380D02*
X164114285Y-300182380D01*
X163114285Y-299277619D02*
X163066666Y-299230000D01*
X162971428Y-299182380D01*
X162733333Y-299182380D01*
X162638095Y-299230000D01*
X162590476Y-299277619D01*
X162542857Y-299372857D01*
X162542857Y-299468095D01*
X162590476Y-299610952D01*
X163161904Y-300182380D01*
X162542857Y-300182380D01*
X161971428Y-299610952D02*
X162066666Y-299563333D01*
X162114285Y-299515714D01*
X162161904Y-299420476D01*
X162161904Y-299372857D01*
X162114285Y-299277619D01*
X162066666Y-299230000D01*
X161971428Y-299182380D01*
X161780952Y-299182380D01*
X161685714Y-299230000D01*
X161638095Y-299277619D01*
X161590476Y-299372857D01*
X161590476Y-299420476D01*
X161638095Y-299515714D01*
X161685714Y-299563333D01*
X161780952Y-299610952D01*
X161971428Y-299610952D01*
X162066666Y-299658571D01*
X162114285Y-299706190D01*
X162161904Y-299801428D01*
X162161904Y-299991904D01*
X162114285Y-300087142D01*
X162066666Y-300134761D01*
X161971428Y-300182380D01*
X161780952Y-300182380D01*
X161685714Y-300134761D01*
X161638095Y-300087142D01*
X161590476Y-299991904D01*
X161590476Y-299801428D01*
X161638095Y-299706190D01*
X161685714Y-299658571D01*
X161780952Y-299610952D01*
X109232380Y-226015714D02*
X108232380Y-226015714D01*
X108232380Y-226253809D01*
X108280000Y-226396666D01*
X108375238Y-226491904D01*
X108470476Y-226539523D01*
X108660952Y-226587142D01*
X108803809Y-226587142D01*
X108994285Y-226539523D01*
X109089523Y-226491904D01*
X109184761Y-226396666D01*
X109232380Y-226253809D01*
X109232380Y-226015714D01*
X108565714Y-227444285D02*
X109232380Y-227444285D01*
X108184761Y-227206190D02*
X108899047Y-226968095D01*
X108899047Y-227587142D01*
X108232380Y-228396666D02*
X108232380Y-228206190D01*
X108280000Y-228110952D01*
X108327619Y-228063333D01*
X108470476Y-227968095D01*
X108660952Y-227920476D01*
X109041904Y-227920476D01*
X109137142Y-227968095D01*
X109184761Y-228015714D01*
X109232380Y-228110952D01*
X109232380Y-228301428D01*
X109184761Y-228396666D01*
X109137142Y-228444285D01*
X109041904Y-228491904D01*
X108803809Y-228491904D01*
X108708571Y-228444285D01*
X108660952Y-228396666D01*
X108613333Y-228301428D01*
X108613333Y-228110952D01*
X108660952Y-228015714D01*
X108708571Y-227968095D01*
X108803809Y-227920476D01*
X109552380Y-223158095D02*
X108552380Y-223158095D01*
X109552380Y-223729523D02*
X108980952Y-223300952D01*
X108552380Y-223729523D02*
X109123809Y-223158095D01*
X225161904Y-300182380D02*
X225161904Y-299182380D01*
X224828571Y-299896666D01*
X224495238Y-299182380D01*
X224495238Y-300182380D01*
X224114285Y-299182380D02*
X223447619Y-300182380D01*
X223447619Y-299182380D02*
X224114285Y-300182380D01*
X222542857Y-300182380D02*
X223114285Y-300182380D01*
X222828571Y-300182380D02*
X222828571Y-299182380D01*
X222923809Y-299325238D01*
X223019047Y-299420476D01*
X223114285Y-299468095D01*
X221685714Y-299515714D02*
X221685714Y-300182380D01*
X221923809Y-299134761D02*
X222161904Y-299849047D01*
X221542857Y-299849047D01*
X286685714Y-320182380D02*
X286685714Y-319182380D01*
X286352380Y-319896666D01*
X286019047Y-319182380D01*
X286019047Y-320182380D01*
X285638095Y-319182380D02*
X284971428Y-320182380D01*
X284971428Y-319182380D02*
X285638095Y-320182380D01*
X284114285Y-319182380D02*
X284590476Y-319182380D01*
X284638095Y-319658571D01*
X284590476Y-319610952D01*
X284495238Y-319563333D01*
X284257142Y-319563333D01*
X284161904Y-319610952D01*
X284114285Y-319658571D01*
X284066666Y-319753809D01*
X284066666Y-319991904D01*
X284114285Y-320087142D01*
X284161904Y-320134761D01*
X284257142Y-320182380D01*
X284495238Y-320182380D01*
X284590476Y-320134761D01*
X284638095Y-320087142D01*
X47296666Y-226875714D02*
X47296666Y-227351904D01*
X47582380Y-226780476D02*
X46582380Y-227113809D01*
X47582380Y-227447142D01*
X47582380Y-228304285D02*
X47582380Y-227732857D01*
X47582380Y-228018571D02*
X46582380Y-228018571D01*
X46725238Y-227923333D01*
X46820476Y-227828095D01*
X46868095Y-227732857D01*
X81232380Y-226015714D02*
X80232380Y-226015714D01*
X80232380Y-226253809D01*
X80280000Y-226396666D01*
X80375238Y-226491904D01*
X80470476Y-226539523D01*
X80660952Y-226587142D01*
X80803809Y-226587142D01*
X80994285Y-226539523D01*
X81089523Y-226491904D01*
X81184761Y-226396666D01*
X81232380Y-226253809D01*
X81232380Y-226015714D01*
X80232380Y-227491904D02*
X80232380Y-227015714D01*
X80708571Y-226968095D01*
X80660952Y-227015714D01*
X80613333Y-227110952D01*
X80613333Y-227349047D01*
X80660952Y-227444285D01*
X80708571Y-227491904D01*
X80803809Y-227539523D01*
X81041904Y-227539523D01*
X81137142Y-227491904D01*
X81184761Y-227444285D01*
X81232380Y-227349047D01*
X81232380Y-227110952D01*
X81184761Y-227015714D01*
X81137142Y-226968095D01*
X80232380Y-227872857D02*
X80232380Y-228491904D01*
X80613333Y-228158571D01*
X80613333Y-228301428D01*
X80660952Y-228396666D01*
X80708571Y-228444285D01*
X80803809Y-228491904D01*
X81041904Y-228491904D01*
X81137142Y-228444285D01*
X81184761Y-228396666D01*
X81232380Y-228301428D01*
X81232380Y-228015714D01*
X81184761Y-227920476D01*
X81137142Y-227872857D01*
X81552380Y-223158095D02*
X80552380Y-223158095D01*
X81552380Y-223729523D02*
X80980952Y-223300952D01*
X80552380Y-223729523D02*
X81123809Y-223158095D01*
X181232380Y-226015714D02*
X180232380Y-226015714D01*
X180232380Y-226253809D01*
X180280000Y-226396666D01*
X180375238Y-226491904D01*
X180470476Y-226539523D01*
X180660952Y-226587142D01*
X180803809Y-226587142D01*
X180994285Y-226539523D01*
X181089523Y-226491904D01*
X181184761Y-226396666D01*
X181232380Y-226253809D01*
X181232380Y-226015714D01*
X180327619Y-226968095D02*
X180280000Y-227015714D01*
X180232380Y-227110952D01*
X180232380Y-227349047D01*
X180280000Y-227444285D01*
X180327619Y-227491904D01*
X180422857Y-227539523D01*
X180518095Y-227539523D01*
X180660952Y-227491904D01*
X181232380Y-226920476D01*
X181232380Y-227539523D01*
X180660952Y-228110952D02*
X180613333Y-228015714D01*
X180565714Y-227968095D01*
X180470476Y-227920476D01*
X180422857Y-227920476D01*
X180327619Y-227968095D01*
X180280000Y-228015714D01*
X180232380Y-228110952D01*
X180232380Y-228301428D01*
X180280000Y-228396666D01*
X180327619Y-228444285D01*
X180422857Y-228491904D01*
X180470476Y-228491904D01*
X180565714Y-228444285D01*
X180613333Y-228396666D01*
X180660952Y-228301428D01*
X180660952Y-228110952D01*
X180708571Y-228015714D01*
X180756190Y-227968095D01*
X180851428Y-227920476D01*
X181041904Y-227920476D01*
X181137142Y-227968095D01*
X181184761Y-228015714D01*
X181232380Y-228110952D01*
X181232380Y-228301428D01*
X181184761Y-228396666D01*
X181137142Y-228444285D01*
X181041904Y-228491904D01*
X180851428Y-228491904D01*
X180756190Y-228444285D01*
X180708571Y-228396666D01*
X180660952Y-228301428D01*
X181552380Y-223158095D02*
X180552380Y-223158095D01*
X181552380Y-223729523D02*
X180980952Y-223300952D01*
X180552380Y-223729523D02*
X181123809Y-223158095D01*
X125232380Y-226015714D02*
X124232380Y-226015714D01*
X124232380Y-226253809D01*
X124280000Y-226396666D01*
X124375238Y-226491904D01*
X124470476Y-226539523D01*
X124660952Y-226587142D01*
X124803809Y-226587142D01*
X124994285Y-226539523D01*
X125089523Y-226491904D01*
X125184761Y-226396666D01*
X125232380Y-226253809D01*
X125232380Y-226015714D01*
X124565714Y-227444285D02*
X125232380Y-227444285D01*
X124184761Y-227206190D02*
X124899047Y-226968095D01*
X124899047Y-227587142D01*
X124327619Y-227920476D02*
X124280000Y-227968095D01*
X124232380Y-228063333D01*
X124232380Y-228301428D01*
X124280000Y-228396666D01*
X124327619Y-228444285D01*
X124422857Y-228491904D01*
X124518095Y-228491904D01*
X124660952Y-228444285D01*
X125232380Y-227872857D01*
X125232380Y-228491904D01*
X125552380Y-223158095D02*
X124552380Y-223158095D01*
X125552380Y-223729523D02*
X124980952Y-223300952D01*
X124552380Y-223729523D02*
X125123809Y-223158095D01*
X145161904Y-300182380D02*
X145161904Y-299182380D01*
X144828571Y-299896666D01*
X144495238Y-299182380D01*
X144495238Y-300182380D01*
X144114285Y-299182380D02*
X143447619Y-300182380D01*
X143447619Y-299182380D02*
X144114285Y-300182380D01*
X143161904Y-299182380D02*
X142542857Y-299182380D01*
X142876190Y-299563333D01*
X142733333Y-299563333D01*
X142638095Y-299610952D01*
X142590476Y-299658571D01*
X142542857Y-299753809D01*
X142542857Y-299991904D01*
X142590476Y-300087142D01*
X142638095Y-300134761D01*
X142733333Y-300182380D01*
X143019047Y-300182380D01*
X143114285Y-300134761D01*
X143161904Y-300087142D01*
X142161904Y-299277619D02*
X142114285Y-299230000D01*
X142019047Y-299182380D01*
X141780952Y-299182380D01*
X141685714Y-299230000D01*
X141638095Y-299277619D01*
X141590476Y-299372857D01*
X141590476Y-299468095D01*
X141638095Y-299610952D01*
X142209523Y-300182380D01*
X141590476Y-300182380D01*
X245232380Y-226015714D02*
X244232380Y-226015714D01*
X244232380Y-226253809D01*
X244280000Y-226396666D01*
X244375238Y-226491904D01*
X244470476Y-226539523D01*
X244660952Y-226587142D01*
X244803809Y-226587142D01*
X244994285Y-226539523D01*
X245089523Y-226491904D01*
X245184761Y-226396666D01*
X245232380Y-226253809D01*
X245232380Y-226015714D01*
X245232380Y-227539523D02*
X245232380Y-226968095D01*
X245232380Y-227253809D02*
X244232380Y-227253809D01*
X244375238Y-227158571D01*
X244470476Y-227063333D01*
X244518095Y-226968095D01*
X244327619Y-227920476D02*
X244280000Y-227968095D01*
X244232380Y-228063333D01*
X244232380Y-228301428D01*
X244280000Y-228396666D01*
X244327619Y-228444285D01*
X244422857Y-228491904D01*
X244518095Y-228491904D01*
X244660952Y-228444285D01*
X245232380Y-227872857D01*
X245232380Y-228491904D01*
X245552380Y-223158095D02*
X244552380Y-223158095D01*
X245552380Y-223729523D02*
X244980952Y-223300952D01*
X244552380Y-223729523D02*
X245123809Y-223158095D01*
X205161904Y-300182380D02*
X205161904Y-299182380D01*
X204828571Y-299896666D01*
X204495238Y-299182380D01*
X204495238Y-300182380D01*
X204114285Y-299182380D02*
X203447619Y-300182380D01*
X203447619Y-299182380D02*
X204114285Y-300182380D01*
X202542857Y-300182380D02*
X203114285Y-300182380D01*
X202828571Y-300182380D02*
X202828571Y-299182380D01*
X202923809Y-299325238D01*
X203019047Y-299420476D01*
X203114285Y-299468095D01*
X202066666Y-300182380D02*
X201876190Y-300182380D01*
X201780952Y-300134761D01*
X201733333Y-300087142D01*
X201638095Y-299944285D01*
X201590476Y-299753809D01*
X201590476Y-299372857D01*
X201638095Y-299277619D01*
X201685714Y-299230000D01*
X201780952Y-299182380D01*
X201971428Y-299182380D01*
X202066666Y-299230000D01*
X202114285Y-299277619D01*
X202161904Y-299372857D01*
X202161904Y-299610952D01*
X202114285Y-299706190D01*
X202066666Y-299753809D01*
X201971428Y-299801428D01*
X201780952Y-299801428D01*
X201685714Y-299753809D01*
X201638095Y-299706190D01*
X201590476Y-299610952D01*
X210161904Y-240182380D02*
X210161904Y-239182380D01*
X209828571Y-239896666D01*
X209495238Y-239182380D01*
X209495238Y-240182380D01*
X209114285Y-239182380D02*
X208447619Y-240182380D01*
X208447619Y-239182380D02*
X209114285Y-240182380D01*
X208114285Y-239277619D02*
X208066666Y-239230000D01*
X207971428Y-239182380D01*
X207733333Y-239182380D01*
X207638095Y-239230000D01*
X207590476Y-239277619D01*
X207542857Y-239372857D01*
X207542857Y-239468095D01*
X207590476Y-239610952D01*
X208161904Y-240182380D01*
X207542857Y-240182380D01*
X206923809Y-239182380D02*
X206828571Y-239182380D01*
X206733333Y-239230000D01*
X206685714Y-239277619D01*
X206638095Y-239372857D01*
X206590476Y-239563333D01*
X206590476Y-239801428D01*
X206638095Y-239991904D01*
X206685714Y-240087142D01*
X206733333Y-240134761D01*
X206828571Y-240182380D01*
X206923809Y-240182380D01*
X207019047Y-240134761D01*
X207066666Y-240087142D01*
X207114285Y-239991904D01*
X207161904Y-239801428D01*
X207161904Y-239563333D01*
X207114285Y-239372857D01*
X207066666Y-239277619D01*
X207019047Y-239230000D01*
X206923809Y-239182380D01*
X241232380Y-226015714D02*
X240232380Y-226015714D01*
X240232380Y-226253809D01*
X240280000Y-226396666D01*
X240375238Y-226491904D01*
X240470476Y-226539523D01*
X240660952Y-226587142D01*
X240803809Y-226587142D01*
X240994285Y-226539523D01*
X241089523Y-226491904D01*
X241184761Y-226396666D01*
X241232380Y-226253809D01*
X241232380Y-226015714D01*
X241232380Y-227539523D02*
X241232380Y-226968095D01*
X241232380Y-227253809D02*
X240232380Y-227253809D01*
X240375238Y-227158571D01*
X240470476Y-227063333D01*
X240518095Y-226968095D01*
X240232380Y-227872857D02*
X240232380Y-228491904D01*
X240613333Y-228158571D01*
X240613333Y-228301428D01*
X240660952Y-228396666D01*
X240708571Y-228444285D01*
X240803809Y-228491904D01*
X241041904Y-228491904D01*
X241137142Y-228444285D01*
X241184761Y-228396666D01*
X241232380Y-228301428D01*
X241232380Y-228015714D01*
X241184761Y-227920476D01*
X241137142Y-227872857D01*
X241552380Y-223158095D02*
X240552380Y-223158095D01*
X241552380Y-223729523D02*
X240980952Y-223300952D01*
X240552380Y-223729523D02*
X241123809Y-223158095D01*
X261232380Y-226491904D02*
X260232380Y-226491904D01*
X260232380Y-226730000D01*
X260280000Y-226872857D01*
X260375238Y-226968095D01*
X260470476Y-227015714D01*
X260660952Y-227063333D01*
X260803809Y-227063333D01*
X260994285Y-227015714D01*
X261089523Y-226968095D01*
X261184761Y-226872857D01*
X261232380Y-226730000D01*
X261232380Y-226491904D01*
X260660952Y-227634761D02*
X260613333Y-227539523D01*
X260565714Y-227491904D01*
X260470476Y-227444285D01*
X260422857Y-227444285D01*
X260327619Y-227491904D01*
X260280000Y-227539523D01*
X260232380Y-227634761D01*
X260232380Y-227825238D01*
X260280000Y-227920476D01*
X260327619Y-227968095D01*
X260422857Y-228015714D01*
X260470476Y-228015714D01*
X260565714Y-227968095D01*
X260613333Y-227920476D01*
X260660952Y-227825238D01*
X260660952Y-227634761D01*
X260708571Y-227539523D01*
X260756190Y-227491904D01*
X260851428Y-227444285D01*
X261041904Y-227444285D01*
X261137142Y-227491904D01*
X261184761Y-227539523D01*
X261232380Y-227634761D01*
X261232380Y-227825238D01*
X261184761Y-227920476D01*
X261137142Y-227968095D01*
X261041904Y-228015714D01*
X260851428Y-228015714D01*
X260756190Y-227968095D01*
X260708571Y-227920476D01*
X260660952Y-227825238D01*
X261552380Y-223158095D02*
X260552380Y-223158095D01*
X261552380Y-223729523D02*
X260980952Y-223300952D01*
X260552380Y-223729523D02*
X261123809Y-223158095D01*
X75161904Y-280182380D02*
X75161904Y-279182380D01*
X74828571Y-279896666D01*
X74495238Y-279182380D01*
X74495238Y-280182380D01*
X74114285Y-279182380D02*
X73447619Y-280182380D01*
X73447619Y-279182380D02*
X74114285Y-280182380D01*
X72590476Y-279182380D02*
X73066666Y-279182380D01*
X73114285Y-279658571D01*
X73066666Y-279610952D01*
X72971428Y-279563333D01*
X72733333Y-279563333D01*
X72638095Y-279610952D01*
X72590476Y-279658571D01*
X72542857Y-279753809D01*
X72542857Y-279991904D01*
X72590476Y-280087142D01*
X72638095Y-280134761D01*
X72733333Y-280182380D01*
X72971428Y-280182380D01*
X73066666Y-280134761D01*
X73114285Y-280087142D01*
X71923809Y-279182380D02*
X71828571Y-279182380D01*
X71733333Y-279230000D01*
X71685714Y-279277619D01*
X71638095Y-279372857D01*
X71590476Y-279563333D01*
X71590476Y-279801428D01*
X71638095Y-279991904D01*
X71685714Y-280087142D01*
X71733333Y-280134761D01*
X71828571Y-280182380D01*
X71923809Y-280182380D01*
X72019047Y-280134761D01*
X72066666Y-280087142D01*
X72114285Y-279991904D01*
X72161904Y-279801428D01*
X72161904Y-279563333D01*
X72114285Y-279372857D01*
X72066666Y-279277619D01*
X72019047Y-279230000D01*
X71923809Y-279182380D01*
X121232380Y-226015714D02*
X120232380Y-226015714D01*
X120232380Y-226253809D01*
X120280000Y-226396666D01*
X120375238Y-226491904D01*
X120470476Y-226539523D01*
X120660952Y-226587142D01*
X120803809Y-226587142D01*
X120994285Y-226539523D01*
X121089523Y-226491904D01*
X121184761Y-226396666D01*
X121232380Y-226253809D01*
X121232380Y-226015714D01*
X120565714Y-227444285D02*
X121232380Y-227444285D01*
X120184761Y-227206190D02*
X120899047Y-226968095D01*
X120899047Y-227587142D01*
X120232380Y-227872857D02*
X120232380Y-228491904D01*
X120613333Y-228158571D01*
X120613333Y-228301428D01*
X120660952Y-228396666D01*
X120708571Y-228444285D01*
X120803809Y-228491904D01*
X121041904Y-228491904D01*
X121137142Y-228444285D01*
X121184761Y-228396666D01*
X121232380Y-228301428D01*
X121232380Y-228015714D01*
X121184761Y-227920476D01*
X121137142Y-227872857D01*
X121552380Y-223158095D02*
X120552380Y-223158095D01*
X121552380Y-223729523D02*
X120980952Y-223300952D01*
X120552380Y-223729523D02*
X121123809Y-223158095D01*
X105161904Y-300182380D02*
X105161904Y-299182380D01*
X104828571Y-299896666D01*
X104495238Y-299182380D01*
X104495238Y-300182380D01*
X104114285Y-299182380D02*
X103447619Y-300182380D01*
X103447619Y-299182380D02*
X104114285Y-300182380D01*
X102638095Y-299515714D02*
X102638095Y-300182380D01*
X102876190Y-299134761D02*
X103114285Y-299849047D01*
X102495238Y-299849047D01*
X101590476Y-300182380D02*
X102161904Y-300182380D01*
X101876190Y-300182380D02*
X101876190Y-299182380D01*
X101971428Y-299325238D01*
X102066666Y-299420476D01*
X102161904Y-299468095D01*
X180161904Y-260182380D02*
X180161904Y-259182380D01*
X179828571Y-259896666D01*
X179495238Y-259182380D01*
X179495238Y-260182380D01*
X179114285Y-259182380D02*
X178447619Y-260182380D01*
X178447619Y-259182380D02*
X179114285Y-260182380D01*
X178114285Y-259277619D02*
X178066666Y-259230000D01*
X177971428Y-259182380D01*
X177733333Y-259182380D01*
X177638095Y-259230000D01*
X177590476Y-259277619D01*
X177542857Y-259372857D01*
X177542857Y-259468095D01*
X177590476Y-259610952D01*
X178161904Y-260182380D01*
X177542857Y-260182380D01*
X176685714Y-259182380D02*
X176876190Y-259182380D01*
X176971428Y-259230000D01*
X177019047Y-259277619D01*
X177114285Y-259420476D01*
X177161904Y-259610952D01*
X177161904Y-259991904D01*
X177114285Y-260087142D01*
X177066666Y-260134761D01*
X176971428Y-260182380D01*
X176780952Y-260182380D01*
X176685714Y-260134761D01*
X176638095Y-260087142D01*
X176590476Y-259991904D01*
X176590476Y-259753809D01*
X176638095Y-259658571D01*
X176685714Y-259610952D01*
X176780952Y-259563333D01*
X176971428Y-259563333D01*
X177066666Y-259610952D01*
X177114285Y-259658571D01*
X177161904Y-259753809D01*
X133232380Y-226015714D02*
X132232380Y-226015714D01*
X132232380Y-226253809D01*
X132280000Y-226396666D01*
X132375238Y-226491904D01*
X132470476Y-226539523D01*
X132660952Y-226587142D01*
X132803809Y-226587142D01*
X132994285Y-226539523D01*
X133089523Y-226491904D01*
X133184761Y-226396666D01*
X133232380Y-226253809D01*
X133232380Y-226015714D01*
X132565714Y-227444285D02*
X133232380Y-227444285D01*
X132184761Y-227206190D02*
X132899047Y-226968095D01*
X132899047Y-227587142D01*
X132232380Y-228158571D02*
X132232380Y-228253809D01*
X132280000Y-228349047D01*
X132327619Y-228396666D01*
X132422857Y-228444285D01*
X132613333Y-228491904D01*
X132851428Y-228491904D01*
X133041904Y-228444285D01*
X133137142Y-228396666D01*
X133184761Y-228349047D01*
X133232380Y-228253809D01*
X133232380Y-228158571D01*
X133184761Y-228063333D01*
X133137142Y-228015714D01*
X133041904Y-227968095D01*
X132851428Y-227920476D01*
X132613333Y-227920476D01*
X132422857Y-227968095D01*
X132327619Y-228015714D01*
X132280000Y-228063333D01*
X132232380Y-228158571D01*
X133552380Y-223158095D02*
X132552380Y-223158095D01*
X133552380Y-223729523D02*
X132980952Y-223300952D01*
X132552380Y-223729523D02*
X133123809Y-223158095D01*
X237661904Y-320182380D02*
X237661904Y-319182380D01*
X237328571Y-319896666D01*
X236995238Y-319182380D01*
X236995238Y-320182380D01*
X236614285Y-319182380D02*
X235947619Y-320182380D01*
X235947619Y-319182380D02*
X236614285Y-320182380D01*
X235042857Y-320182380D02*
X235614285Y-320182380D01*
X235328571Y-320182380D02*
X235328571Y-319182380D01*
X235423809Y-319325238D01*
X235519047Y-319420476D01*
X235614285Y-319468095D01*
X234138095Y-319182380D02*
X234614285Y-319182380D01*
X234661904Y-319658571D01*
X234614285Y-319610952D01*
X234519047Y-319563333D01*
X234280952Y-319563333D01*
X234185714Y-319610952D01*
X234138095Y-319658571D01*
X234090476Y-319753809D01*
X234090476Y-319991904D01*
X234138095Y-320087142D01*
X234185714Y-320134761D01*
X234280952Y-320182380D01*
X234519047Y-320182380D01*
X234614285Y-320134761D01*
X234661904Y-320087142D01*
X175161904Y-280182380D02*
X175161904Y-279182380D01*
X174828571Y-279896666D01*
X174495238Y-279182380D01*
X174495238Y-280182380D01*
X174114285Y-279182380D02*
X173447619Y-280182380D01*
X173447619Y-279182380D02*
X174114285Y-280182380D01*
X173114285Y-279277619D02*
X173066666Y-279230000D01*
X172971428Y-279182380D01*
X172733333Y-279182380D01*
X172638095Y-279230000D01*
X172590476Y-279277619D01*
X172542857Y-279372857D01*
X172542857Y-279468095D01*
X172590476Y-279610952D01*
X173161904Y-280182380D01*
X172542857Y-280182380D01*
X172209523Y-279182380D02*
X171542857Y-279182380D01*
X171971428Y-280182380D01*
X185232380Y-226015714D02*
X184232380Y-226015714D01*
X184232380Y-226253809D01*
X184280000Y-226396666D01*
X184375238Y-226491904D01*
X184470476Y-226539523D01*
X184660952Y-226587142D01*
X184803809Y-226587142D01*
X184994285Y-226539523D01*
X185089523Y-226491904D01*
X185184761Y-226396666D01*
X185232380Y-226253809D01*
X185232380Y-226015714D01*
X184327619Y-226968095D02*
X184280000Y-227015714D01*
X184232380Y-227110952D01*
X184232380Y-227349047D01*
X184280000Y-227444285D01*
X184327619Y-227491904D01*
X184422857Y-227539523D01*
X184518095Y-227539523D01*
X184660952Y-227491904D01*
X185232380Y-226920476D01*
X185232380Y-227539523D01*
X184232380Y-227872857D02*
X184232380Y-228539523D01*
X185232380Y-228110952D01*
X185552380Y-223158095D02*
X184552380Y-223158095D01*
X185552380Y-223729523D02*
X184980952Y-223300952D01*
X184552380Y-223729523D02*
X185123809Y-223158095D01*
X249232380Y-226015714D02*
X248232380Y-226015714D01*
X248232380Y-226253809D01*
X248280000Y-226396666D01*
X248375238Y-226491904D01*
X248470476Y-226539523D01*
X248660952Y-226587142D01*
X248803809Y-226587142D01*
X248994285Y-226539523D01*
X249089523Y-226491904D01*
X249184761Y-226396666D01*
X249232380Y-226253809D01*
X249232380Y-226015714D01*
X249232380Y-227539523D02*
X249232380Y-226968095D01*
X249232380Y-227253809D02*
X248232380Y-227253809D01*
X248375238Y-227158571D01*
X248470476Y-227063333D01*
X248518095Y-226968095D01*
X249232380Y-228491904D02*
X249232380Y-227920476D01*
X249232380Y-228206190D02*
X248232380Y-228206190D01*
X248375238Y-228110952D01*
X248470476Y-228015714D01*
X248518095Y-227920476D01*
X249552380Y-223158095D02*
X248552380Y-223158095D01*
X249552380Y-223729523D02*
X248980952Y-223300952D01*
X248552380Y-223729523D02*
X249123809Y-223158095D01*
X69232380Y-226015714D02*
X68232380Y-226015714D01*
X68232380Y-226253809D01*
X68280000Y-226396666D01*
X68375238Y-226491904D01*
X68470476Y-226539523D01*
X68660952Y-226587142D01*
X68803809Y-226587142D01*
X68994285Y-226539523D01*
X69089523Y-226491904D01*
X69184761Y-226396666D01*
X69232380Y-226253809D01*
X69232380Y-226015714D01*
X68232380Y-227491904D02*
X68232380Y-227015714D01*
X68708571Y-226968095D01*
X68660952Y-227015714D01*
X68613333Y-227110952D01*
X68613333Y-227349047D01*
X68660952Y-227444285D01*
X68708571Y-227491904D01*
X68803809Y-227539523D01*
X69041904Y-227539523D01*
X69137142Y-227491904D01*
X69184761Y-227444285D01*
X69232380Y-227349047D01*
X69232380Y-227110952D01*
X69184761Y-227015714D01*
X69137142Y-226968095D01*
X68232380Y-228396666D02*
X68232380Y-228206190D01*
X68280000Y-228110952D01*
X68327619Y-228063333D01*
X68470476Y-227968095D01*
X68660952Y-227920476D01*
X69041904Y-227920476D01*
X69137142Y-227968095D01*
X69184761Y-228015714D01*
X69232380Y-228110952D01*
X69232380Y-228301428D01*
X69184761Y-228396666D01*
X69137142Y-228444285D01*
X69041904Y-228491904D01*
X68803809Y-228491904D01*
X68708571Y-228444285D01*
X68660952Y-228396666D01*
X68613333Y-228301428D01*
X68613333Y-228110952D01*
X68660952Y-228015714D01*
X68708571Y-227968095D01*
X68803809Y-227920476D01*
X69552380Y-223158095D02*
X68552380Y-223158095D01*
X69552380Y-223729523D02*
X68980952Y-223300952D01*
X68552380Y-223729523D02*
X69123809Y-223158095D01*
X95161904Y-280182380D02*
X95161904Y-279182380D01*
X94828571Y-279896666D01*
X94495238Y-279182380D01*
X94495238Y-280182380D01*
X94114285Y-279182380D02*
X93447619Y-280182380D01*
X93447619Y-279182380D02*
X94114285Y-280182380D01*
X92638095Y-279515714D02*
X92638095Y-280182380D01*
X92876190Y-279134761D02*
X93114285Y-279849047D01*
X92495238Y-279849047D01*
X91638095Y-279182380D02*
X92114285Y-279182380D01*
X92161904Y-279658571D01*
X92114285Y-279610952D01*
X92019047Y-279563333D01*
X91780952Y-279563333D01*
X91685714Y-279610952D01*
X91638095Y-279658571D01*
X91590476Y-279753809D01*
X91590476Y-279991904D01*
X91638095Y-280087142D01*
X91685714Y-280134761D01*
X91780952Y-280182380D01*
X92019047Y-280182380D01*
X92114285Y-280134761D01*
X92161904Y-280087142D01*
X282185714Y-280182380D02*
X282185714Y-279182380D01*
X281852380Y-279896666D01*
X281519047Y-279182380D01*
X281519047Y-280182380D01*
X281138095Y-279182380D02*
X280471428Y-280182380D01*
X280471428Y-279182380D02*
X281138095Y-280182380D01*
X280185714Y-279182380D02*
X279566666Y-279182380D01*
X279900000Y-279563333D01*
X279757142Y-279563333D01*
X279661904Y-279610952D01*
X279614285Y-279658571D01*
X279566666Y-279753809D01*
X279566666Y-279991904D01*
X279614285Y-280087142D01*
X279661904Y-280134761D01*
X279757142Y-280182380D01*
X280042857Y-280182380D01*
X280138095Y-280134761D01*
X280185714Y-280087142D01*
X55161904Y-280182380D02*
X55161904Y-279182380D01*
X54828571Y-279896666D01*
X54495238Y-279182380D01*
X54495238Y-280182380D01*
X54114285Y-279182380D02*
X53447619Y-280182380D01*
X53447619Y-279182380D02*
X54114285Y-280182380D01*
X52590476Y-279182380D02*
X53066666Y-279182380D01*
X53114285Y-279658571D01*
X53066666Y-279610952D01*
X52971428Y-279563333D01*
X52733333Y-279563333D01*
X52638095Y-279610952D01*
X52590476Y-279658571D01*
X52542857Y-279753809D01*
X52542857Y-279991904D01*
X52590476Y-280087142D01*
X52638095Y-280134761D01*
X52733333Y-280182380D01*
X52971428Y-280182380D01*
X53066666Y-280134761D01*
X53114285Y-280087142D01*
X51638095Y-279182380D02*
X52114285Y-279182380D01*
X52161904Y-279658571D01*
X52114285Y-279610952D01*
X52019047Y-279563333D01*
X51780952Y-279563333D01*
X51685714Y-279610952D01*
X51638095Y-279658571D01*
X51590476Y-279753809D01*
X51590476Y-279991904D01*
X51638095Y-280087142D01*
X51685714Y-280134761D01*
X51780952Y-280182380D01*
X52019047Y-280182380D01*
X52114285Y-280134761D01*
X52161904Y-280087142D01*
X150161904Y-240182380D02*
X150161904Y-239182380D01*
X149828571Y-239896666D01*
X149495238Y-239182380D01*
X149495238Y-240182380D01*
X149114285Y-239182380D02*
X148447619Y-240182380D01*
X148447619Y-239182380D02*
X149114285Y-240182380D01*
X148161904Y-239182380D02*
X147542857Y-239182380D01*
X147876190Y-239563333D01*
X147733333Y-239563333D01*
X147638095Y-239610952D01*
X147590476Y-239658571D01*
X147542857Y-239753809D01*
X147542857Y-239991904D01*
X147590476Y-240087142D01*
X147638095Y-240134761D01*
X147733333Y-240182380D01*
X148019047Y-240182380D01*
X148114285Y-240134761D01*
X148161904Y-240087142D01*
X147209523Y-239182380D02*
X146590476Y-239182380D01*
X146923809Y-239563333D01*
X146780952Y-239563333D01*
X146685714Y-239610952D01*
X146638095Y-239658571D01*
X146590476Y-239753809D01*
X146590476Y-239991904D01*
X146638095Y-240087142D01*
X146685714Y-240134761D01*
X146780952Y-240182380D01*
X147066666Y-240182380D01*
X147161904Y-240134761D01*
X147209523Y-240087142D01*
X77232380Y-226015714D02*
X76232380Y-226015714D01*
X76232380Y-226253809D01*
X76280000Y-226396666D01*
X76375238Y-226491904D01*
X76470476Y-226539523D01*
X76660952Y-226587142D01*
X76803809Y-226587142D01*
X76994285Y-226539523D01*
X77089523Y-226491904D01*
X77184761Y-226396666D01*
X77232380Y-226253809D01*
X77232380Y-226015714D01*
X76232380Y-227491904D02*
X76232380Y-227015714D01*
X76708571Y-226968095D01*
X76660952Y-227015714D01*
X76613333Y-227110952D01*
X76613333Y-227349047D01*
X76660952Y-227444285D01*
X76708571Y-227491904D01*
X76803809Y-227539523D01*
X77041904Y-227539523D01*
X77137142Y-227491904D01*
X77184761Y-227444285D01*
X77232380Y-227349047D01*
X77232380Y-227110952D01*
X77184761Y-227015714D01*
X77137142Y-226968095D01*
X76565714Y-228396666D02*
X77232380Y-228396666D01*
X76184761Y-228158571D02*
X76899047Y-227920476D01*
X76899047Y-228539523D01*
X77552380Y-223158095D02*
X76552380Y-223158095D01*
X77552380Y-223729523D02*
X76980952Y-223300952D01*
X76552380Y-223729523D02*
X77123809Y-223158095D01*
X141232380Y-226015714D02*
X140232380Y-226015714D01*
X140232380Y-226253809D01*
X140280000Y-226396666D01*
X140375238Y-226491904D01*
X140470476Y-226539523D01*
X140660952Y-226587142D01*
X140803809Y-226587142D01*
X140994285Y-226539523D01*
X141089523Y-226491904D01*
X141184761Y-226396666D01*
X141232380Y-226253809D01*
X141232380Y-226015714D01*
X140232380Y-226920476D02*
X140232380Y-227539523D01*
X140613333Y-227206190D01*
X140613333Y-227349047D01*
X140660952Y-227444285D01*
X140708571Y-227491904D01*
X140803809Y-227539523D01*
X141041904Y-227539523D01*
X141137142Y-227491904D01*
X141184761Y-227444285D01*
X141232380Y-227349047D01*
X141232380Y-227063333D01*
X141184761Y-226968095D01*
X141137142Y-226920476D01*
X140660952Y-228110952D02*
X140613333Y-228015714D01*
X140565714Y-227968095D01*
X140470476Y-227920476D01*
X140422857Y-227920476D01*
X140327619Y-227968095D01*
X140280000Y-228015714D01*
X140232380Y-228110952D01*
X140232380Y-228301428D01*
X140280000Y-228396666D01*
X140327619Y-228444285D01*
X140422857Y-228491904D01*
X140470476Y-228491904D01*
X140565714Y-228444285D01*
X140613333Y-228396666D01*
X140660952Y-228301428D01*
X140660952Y-228110952D01*
X140708571Y-228015714D01*
X140756190Y-227968095D01*
X140851428Y-227920476D01*
X141041904Y-227920476D01*
X141137142Y-227968095D01*
X141184761Y-228015714D01*
X141232380Y-228110952D01*
X141232380Y-228301428D01*
X141184761Y-228396666D01*
X141137142Y-228444285D01*
X141041904Y-228491904D01*
X140851428Y-228491904D01*
X140756190Y-228444285D01*
X140708571Y-228396666D01*
X140660952Y-228301428D01*
X141552380Y-223158095D02*
X140552380Y-223158095D01*
X141552380Y-223729523D02*
X140980952Y-223300952D01*
X140552380Y-223729523D02*
X141123809Y-223158095D01*
X165161904Y-320182380D02*
X165161904Y-319182380D01*
X164828571Y-319896666D01*
X164495238Y-319182380D01*
X164495238Y-320182380D01*
X164114285Y-319182380D02*
X163447619Y-320182380D01*
X163447619Y-319182380D02*
X164114285Y-320182380D01*
X163114285Y-319277619D02*
X163066666Y-319230000D01*
X162971428Y-319182380D01*
X162733333Y-319182380D01*
X162638095Y-319230000D01*
X162590476Y-319277619D01*
X162542857Y-319372857D01*
X162542857Y-319468095D01*
X162590476Y-319610952D01*
X163161904Y-320182380D01*
X162542857Y-320182380D01*
X161685714Y-319515714D02*
X161685714Y-320182380D01*
X161923809Y-319134761D02*
X162161904Y-319849047D01*
X161542857Y-319849047D01*
X170161904Y-240182380D02*
X170161904Y-239182380D01*
X169828571Y-239896666D01*
X169495238Y-239182380D01*
X169495238Y-240182380D01*
X169114285Y-239182380D02*
X168447619Y-240182380D01*
X168447619Y-239182380D02*
X169114285Y-240182380D01*
X168114285Y-239277619D02*
X168066666Y-239230000D01*
X167971428Y-239182380D01*
X167733333Y-239182380D01*
X167638095Y-239230000D01*
X167590476Y-239277619D01*
X167542857Y-239372857D01*
X167542857Y-239468095D01*
X167590476Y-239610952D01*
X168161904Y-240182380D01*
X167542857Y-240182380D01*
X167066666Y-240182380D02*
X166876190Y-240182380D01*
X166780952Y-240134761D01*
X166733333Y-240087142D01*
X166638095Y-239944285D01*
X166590476Y-239753809D01*
X166590476Y-239372857D01*
X166638095Y-239277619D01*
X166685714Y-239230000D01*
X166780952Y-239182380D01*
X166971428Y-239182380D01*
X167066666Y-239230000D01*
X167114285Y-239277619D01*
X167161904Y-239372857D01*
X167161904Y-239610952D01*
X167114285Y-239706190D01*
X167066666Y-239753809D01*
X166971428Y-239801428D01*
X166780952Y-239801428D01*
X166685714Y-239753809D01*
X166638095Y-239706190D01*
X166590476Y-239610952D01*
X70161904Y-240182380D02*
X70161904Y-239182380D01*
X69828571Y-239896666D01*
X69495238Y-239182380D01*
X69495238Y-240182380D01*
X69114285Y-239182380D02*
X68447619Y-240182380D01*
X68447619Y-239182380D02*
X69114285Y-240182380D01*
X67590476Y-239182380D02*
X68066666Y-239182380D01*
X68114285Y-239658571D01*
X68066666Y-239610952D01*
X67971428Y-239563333D01*
X67733333Y-239563333D01*
X67638095Y-239610952D01*
X67590476Y-239658571D01*
X67542857Y-239753809D01*
X67542857Y-239991904D01*
X67590476Y-240087142D01*
X67638095Y-240134761D01*
X67733333Y-240182380D01*
X67971428Y-240182380D01*
X68066666Y-240134761D01*
X68114285Y-240087142D01*
X67209523Y-239182380D02*
X66590476Y-239182380D01*
X66923809Y-239563333D01*
X66780952Y-239563333D01*
X66685714Y-239610952D01*
X66638095Y-239658571D01*
X66590476Y-239753809D01*
X66590476Y-239991904D01*
X66638095Y-240087142D01*
X66685714Y-240134761D01*
X66780952Y-240182380D01*
X67066666Y-240182380D01*
X67161904Y-240134761D01*
X67209523Y-240087142D01*
X93232380Y-226015714D02*
X92232380Y-226015714D01*
X92232380Y-226253809D01*
X92280000Y-226396666D01*
X92375238Y-226491904D01*
X92470476Y-226539523D01*
X92660952Y-226587142D01*
X92803809Y-226587142D01*
X92994285Y-226539523D01*
X93089523Y-226491904D01*
X93184761Y-226396666D01*
X93232380Y-226253809D01*
X93232380Y-226015714D01*
X92232380Y-227491904D02*
X92232380Y-227015714D01*
X92708571Y-226968095D01*
X92660952Y-227015714D01*
X92613333Y-227110952D01*
X92613333Y-227349047D01*
X92660952Y-227444285D01*
X92708571Y-227491904D01*
X92803809Y-227539523D01*
X93041904Y-227539523D01*
X93137142Y-227491904D01*
X93184761Y-227444285D01*
X93232380Y-227349047D01*
X93232380Y-227110952D01*
X93184761Y-227015714D01*
X93137142Y-226968095D01*
X92232380Y-228158571D02*
X92232380Y-228253809D01*
X92280000Y-228349047D01*
X92327619Y-228396666D01*
X92422857Y-228444285D01*
X92613333Y-228491904D01*
X92851428Y-228491904D01*
X93041904Y-228444285D01*
X93137142Y-228396666D01*
X93184761Y-228349047D01*
X93232380Y-228253809D01*
X93232380Y-228158571D01*
X93184761Y-228063333D01*
X93137142Y-228015714D01*
X93041904Y-227968095D01*
X92851428Y-227920476D01*
X92613333Y-227920476D01*
X92422857Y-227968095D01*
X92327619Y-228015714D01*
X92280000Y-228063333D01*
X92232380Y-228158571D01*
X93552380Y-223158095D02*
X92552380Y-223158095D01*
X93552380Y-223729523D02*
X92980952Y-223300952D01*
X92552380Y-223729523D02*
X93123809Y-223158095D01*
X229232380Y-226015714D02*
X228232380Y-226015714D01*
X228232380Y-226253809D01*
X228280000Y-226396666D01*
X228375238Y-226491904D01*
X228470476Y-226539523D01*
X228660952Y-226587142D01*
X228803809Y-226587142D01*
X228994285Y-226539523D01*
X229089523Y-226491904D01*
X229184761Y-226396666D01*
X229232380Y-226253809D01*
X229232380Y-226015714D01*
X229232380Y-227539523D02*
X229232380Y-226968095D01*
X229232380Y-227253809D02*
X228232380Y-227253809D01*
X228375238Y-227158571D01*
X228470476Y-227063333D01*
X228518095Y-226968095D01*
X228232380Y-228396666D02*
X228232380Y-228206190D01*
X228280000Y-228110952D01*
X228327619Y-228063333D01*
X228470476Y-227968095D01*
X228660952Y-227920476D01*
X229041904Y-227920476D01*
X229137142Y-227968095D01*
X229184761Y-228015714D01*
X229232380Y-228110952D01*
X229232380Y-228301428D01*
X229184761Y-228396666D01*
X229137142Y-228444285D01*
X229041904Y-228491904D01*
X228803809Y-228491904D01*
X228708571Y-228444285D01*
X228660952Y-228396666D01*
X228613333Y-228301428D01*
X228613333Y-228110952D01*
X228660952Y-228015714D01*
X228708571Y-227968095D01*
X228803809Y-227920476D01*
X229552380Y-223158095D02*
X228552380Y-223158095D01*
X229552380Y-223729523D02*
X228980952Y-223300952D01*
X228552380Y-223729523D02*
X229123809Y-223158095D01*
X269685714Y-240182380D02*
X269685714Y-239182380D01*
X269352380Y-239896666D01*
X269019047Y-239182380D01*
X269019047Y-240182380D01*
X268638095Y-239182380D02*
X267971428Y-240182380D01*
X267971428Y-239182380D02*
X268638095Y-240182380D01*
X267161904Y-239182380D02*
X267352380Y-239182380D01*
X267447619Y-239230000D01*
X267495238Y-239277619D01*
X267590476Y-239420476D01*
X267638095Y-239610952D01*
X267638095Y-239991904D01*
X267590476Y-240087142D01*
X267542857Y-240134761D01*
X267447619Y-240182380D01*
X267257142Y-240182380D01*
X267161904Y-240134761D01*
X267114285Y-240087142D01*
X267066666Y-239991904D01*
X267066666Y-239753809D01*
X267114285Y-239658571D01*
X267161904Y-239610952D01*
X267257142Y-239563333D01*
X267447619Y-239563333D01*
X267542857Y-239610952D01*
X267590476Y-239658571D01*
X267638095Y-239753809D01*
X225232380Y-226015714D02*
X224232380Y-226015714D01*
X224232380Y-226253809D01*
X224280000Y-226396666D01*
X224375238Y-226491904D01*
X224470476Y-226539523D01*
X224660952Y-226587142D01*
X224803809Y-226587142D01*
X224994285Y-226539523D01*
X225089523Y-226491904D01*
X225184761Y-226396666D01*
X225232380Y-226253809D01*
X225232380Y-226015714D01*
X225232380Y-227539523D02*
X225232380Y-226968095D01*
X225232380Y-227253809D02*
X224232380Y-227253809D01*
X224375238Y-227158571D01*
X224470476Y-227063333D01*
X224518095Y-226968095D01*
X224232380Y-227872857D02*
X224232380Y-228539523D01*
X225232380Y-228110952D01*
X225552380Y-223158095D02*
X224552380Y-223158095D01*
X225552380Y-223729523D02*
X224980952Y-223300952D01*
X224552380Y-223729523D02*
X225123809Y-223158095D01*
X217232380Y-226015714D02*
X216232380Y-226015714D01*
X216232380Y-226253809D01*
X216280000Y-226396666D01*
X216375238Y-226491904D01*
X216470476Y-226539523D01*
X216660952Y-226587142D01*
X216803809Y-226587142D01*
X216994285Y-226539523D01*
X217089523Y-226491904D01*
X217184761Y-226396666D01*
X217232380Y-226253809D01*
X217232380Y-226015714D01*
X217232380Y-227539523D02*
X217232380Y-226968095D01*
X217232380Y-227253809D02*
X216232380Y-227253809D01*
X216375238Y-227158571D01*
X216470476Y-227063333D01*
X216518095Y-226968095D01*
X217232380Y-228015714D02*
X217232380Y-228206190D01*
X217184761Y-228301428D01*
X217137142Y-228349047D01*
X216994285Y-228444285D01*
X216803809Y-228491904D01*
X216422857Y-228491904D01*
X216327619Y-228444285D01*
X216280000Y-228396666D01*
X216232380Y-228301428D01*
X216232380Y-228110952D01*
X216280000Y-228015714D01*
X216327619Y-227968095D01*
X216422857Y-227920476D01*
X216660952Y-227920476D01*
X216756190Y-227968095D01*
X216803809Y-228015714D01*
X216851428Y-228110952D01*
X216851428Y-228301428D01*
X216803809Y-228396666D01*
X216756190Y-228444285D01*
X216660952Y-228491904D01*
X217552380Y-223158095D02*
X216552380Y-223158095D01*
X217552380Y-223729523D02*
X216980952Y-223300952D01*
X216552380Y-223729523D02*
X217123809Y-223158095D01*
X105232380Y-226015714D02*
X104232380Y-226015714D01*
X104232380Y-226253809D01*
X104280000Y-226396666D01*
X104375238Y-226491904D01*
X104470476Y-226539523D01*
X104660952Y-226587142D01*
X104803809Y-226587142D01*
X104994285Y-226539523D01*
X105089523Y-226491904D01*
X105184761Y-226396666D01*
X105232380Y-226253809D01*
X105232380Y-226015714D01*
X104565714Y-227444285D02*
X105232380Y-227444285D01*
X104184761Y-227206190D02*
X104899047Y-226968095D01*
X104899047Y-227587142D01*
X104232380Y-227872857D02*
X104232380Y-228539523D01*
X105232380Y-228110952D01*
X105552380Y-223158095D02*
X104552380Y-223158095D01*
X105552380Y-223729523D02*
X104980952Y-223300952D01*
X104552380Y-223729523D02*
X105123809Y-223158095D01*
X137232380Y-226015714D02*
X136232380Y-226015714D01*
X136232380Y-226253809D01*
X136280000Y-226396666D01*
X136375238Y-226491904D01*
X136470476Y-226539523D01*
X136660952Y-226587142D01*
X136803809Y-226587142D01*
X136994285Y-226539523D01*
X137089523Y-226491904D01*
X137184761Y-226396666D01*
X137232380Y-226253809D01*
X137232380Y-226015714D01*
X136232380Y-226920476D02*
X136232380Y-227539523D01*
X136613333Y-227206190D01*
X136613333Y-227349047D01*
X136660952Y-227444285D01*
X136708571Y-227491904D01*
X136803809Y-227539523D01*
X137041904Y-227539523D01*
X137137142Y-227491904D01*
X137184761Y-227444285D01*
X137232380Y-227349047D01*
X137232380Y-227063333D01*
X137184761Y-226968095D01*
X137137142Y-226920476D01*
X137232380Y-228015714D02*
X137232380Y-228206190D01*
X137184761Y-228301428D01*
X137137142Y-228349047D01*
X136994285Y-228444285D01*
X136803809Y-228491904D01*
X136422857Y-228491904D01*
X136327619Y-228444285D01*
X136280000Y-228396666D01*
X136232380Y-228301428D01*
X136232380Y-228110952D01*
X136280000Y-228015714D01*
X136327619Y-227968095D01*
X136422857Y-227920476D01*
X136660952Y-227920476D01*
X136756190Y-227968095D01*
X136803809Y-228015714D01*
X136851428Y-228110952D01*
X136851428Y-228301428D01*
X136803809Y-228396666D01*
X136756190Y-228444285D01*
X136660952Y-228491904D01*
X137552380Y-223158095D02*
X136552380Y-223158095D01*
X137552380Y-223729523D02*
X136980952Y-223300952D01*
X136552380Y-223729523D02*
X137123809Y-223158095D01*
X60161904Y-260182380D02*
X60161904Y-259182380D01*
X59828571Y-259896666D01*
X59495238Y-259182380D01*
X59495238Y-260182380D01*
X59114285Y-259182380D02*
X58447619Y-260182380D01*
X58447619Y-259182380D02*
X59114285Y-260182380D01*
X57590476Y-259182380D02*
X58066666Y-259182380D01*
X58114285Y-259658571D01*
X58066666Y-259610952D01*
X57971428Y-259563333D01*
X57733333Y-259563333D01*
X57638095Y-259610952D01*
X57590476Y-259658571D01*
X57542857Y-259753809D01*
X57542857Y-259991904D01*
X57590476Y-260087142D01*
X57638095Y-260134761D01*
X57733333Y-260182380D01*
X57971428Y-260182380D01*
X58066666Y-260134761D01*
X58114285Y-260087142D01*
X56685714Y-259515714D02*
X56685714Y-260182380D01*
X56923809Y-259134761D02*
X57161904Y-259849047D01*
X56542857Y-259849047D01*
X130161904Y-240182380D02*
X130161904Y-239182380D01*
X129828571Y-239896666D01*
X129495238Y-239182380D01*
X129495238Y-240182380D01*
X129114285Y-239182380D02*
X128447619Y-240182380D01*
X128447619Y-239182380D02*
X129114285Y-240182380D01*
X128161904Y-239182380D02*
X127542857Y-239182380D01*
X127876190Y-239563333D01*
X127733333Y-239563333D01*
X127638095Y-239610952D01*
X127590476Y-239658571D01*
X127542857Y-239753809D01*
X127542857Y-239991904D01*
X127590476Y-240087142D01*
X127638095Y-240134761D01*
X127733333Y-240182380D01*
X128019047Y-240182380D01*
X128114285Y-240134761D01*
X128161904Y-240087142D01*
X126971428Y-239610952D02*
X127066666Y-239563333D01*
X127114285Y-239515714D01*
X127161904Y-239420476D01*
X127161904Y-239372857D01*
X127114285Y-239277619D01*
X127066666Y-239230000D01*
X126971428Y-239182380D01*
X126780952Y-239182380D01*
X126685714Y-239230000D01*
X126638095Y-239277619D01*
X126590476Y-239372857D01*
X126590476Y-239420476D01*
X126638095Y-239515714D01*
X126685714Y-239563333D01*
X126780952Y-239610952D01*
X126971428Y-239610952D01*
X127066666Y-239658571D01*
X127114285Y-239706190D01*
X127161904Y-239801428D01*
X127161904Y-239991904D01*
X127114285Y-240087142D01*
X127066666Y-240134761D01*
X126971428Y-240182380D01*
X126780952Y-240182380D01*
X126685714Y-240134761D01*
X126638095Y-240087142D01*
X126590476Y-239991904D01*
X126590476Y-239801428D01*
X126638095Y-239706190D01*
X126685714Y-239658571D01*
X126780952Y-239610952D01*
X92661904Y-320182380D02*
X92661904Y-319182380D01*
X92328571Y-319896666D01*
X91995238Y-319182380D01*
X91995238Y-320182380D01*
X91614285Y-319182380D02*
X90947619Y-320182380D01*
X90947619Y-319182380D02*
X91614285Y-320182380D01*
X90661904Y-319182380D02*
X90042857Y-319182380D01*
X90376190Y-319563333D01*
X90233333Y-319563333D01*
X90138095Y-319610952D01*
X90090476Y-319658571D01*
X90042857Y-319753809D01*
X90042857Y-319991904D01*
X90090476Y-320087142D01*
X90138095Y-320134761D01*
X90233333Y-320182380D01*
X90519047Y-320182380D01*
X90614285Y-320134761D01*
X90661904Y-320087142D01*
X89709523Y-319182380D02*
X89042857Y-319182380D01*
X89471428Y-320182380D01*
X53232380Y-226015714D02*
X52232380Y-226015714D01*
X52232380Y-226253809D01*
X52280000Y-226396666D01*
X52375238Y-226491904D01*
X52470476Y-226539523D01*
X52660952Y-226587142D01*
X52803809Y-226587142D01*
X52994285Y-226539523D01*
X53089523Y-226491904D01*
X53184761Y-226396666D01*
X53232380Y-226253809D01*
X53232380Y-226015714D01*
X52232380Y-227444285D02*
X52232380Y-227253809D01*
X52280000Y-227158571D01*
X52327619Y-227110952D01*
X52470476Y-227015714D01*
X52660952Y-226968095D01*
X53041904Y-226968095D01*
X53137142Y-227015714D01*
X53184761Y-227063333D01*
X53232380Y-227158571D01*
X53232380Y-227349047D01*
X53184761Y-227444285D01*
X53137142Y-227491904D01*
X53041904Y-227539523D01*
X52803809Y-227539523D01*
X52708571Y-227491904D01*
X52660952Y-227444285D01*
X52613333Y-227349047D01*
X52613333Y-227158571D01*
X52660952Y-227063333D01*
X52708571Y-227015714D01*
X52803809Y-226968095D01*
X52232380Y-228158571D02*
X52232380Y-228253809D01*
X52280000Y-228349047D01*
X52327619Y-228396666D01*
X52422857Y-228444285D01*
X52613333Y-228491904D01*
X52851428Y-228491904D01*
X53041904Y-228444285D01*
X53137142Y-228396666D01*
X53184761Y-228349047D01*
X53232380Y-228253809D01*
X53232380Y-228158571D01*
X53184761Y-228063333D01*
X53137142Y-228015714D01*
X53041904Y-227968095D01*
X52851428Y-227920476D01*
X52613333Y-227920476D01*
X52422857Y-227968095D01*
X52327619Y-228015714D01*
X52280000Y-228063333D01*
X52232380Y-228158571D01*
X53552380Y-223158095D02*
X52552380Y-223158095D01*
X53552380Y-223729523D02*
X52980952Y-223300952D01*
X52552380Y-223729523D02*
X53123809Y-223158095D01*
X173232380Y-226015714D02*
X172232380Y-226015714D01*
X172232380Y-226253809D01*
X172280000Y-226396666D01*
X172375238Y-226491904D01*
X172470476Y-226539523D01*
X172660952Y-226587142D01*
X172803809Y-226587142D01*
X172994285Y-226539523D01*
X173089523Y-226491904D01*
X173184761Y-226396666D01*
X173232380Y-226253809D01*
X173232380Y-226015714D01*
X172232380Y-226920476D02*
X172232380Y-227539523D01*
X172613333Y-227206190D01*
X172613333Y-227349047D01*
X172660952Y-227444285D01*
X172708571Y-227491904D01*
X172803809Y-227539523D01*
X173041904Y-227539523D01*
X173137142Y-227491904D01*
X173184761Y-227444285D01*
X173232380Y-227349047D01*
X173232380Y-227063333D01*
X173184761Y-226968095D01*
X173137142Y-226920476D01*
X172232380Y-228158571D02*
X172232380Y-228253809D01*
X172280000Y-228349047D01*
X172327619Y-228396666D01*
X172422857Y-228444285D01*
X172613333Y-228491904D01*
X172851428Y-228491904D01*
X173041904Y-228444285D01*
X173137142Y-228396666D01*
X173184761Y-228349047D01*
X173232380Y-228253809D01*
X173232380Y-228158571D01*
X173184761Y-228063333D01*
X173137142Y-228015714D01*
X173041904Y-227968095D01*
X172851428Y-227920476D01*
X172613333Y-227920476D01*
X172422857Y-227968095D01*
X172327619Y-228015714D01*
X172280000Y-228063333D01*
X172232380Y-228158571D01*
X173552380Y-223158095D02*
X172552380Y-223158095D01*
X173552380Y-223729523D02*
X172980952Y-223300952D01*
X172552380Y-223729523D02*
X173123809Y-223158095D01*
X277232380Y-226491904D02*
X276232380Y-226491904D01*
X276232380Y-226730000D01*
X276280000Y-226872857D01*
X276375238Y-226968095D01*
X276470476Y-227015714D01*
X276660952Y-227063333D01*
X276803809Y-227063333D01*
X276994285Y-227015714D01*
X277089523Y-226968095D01*
X277184761Y-226872857D01*
X277232380Y-226730000D01*
X277232380Y-226491904D01*
X276565714Y-227920476D02*
X277232380Y-227920476D01*
X276184761Y-227682380D02*
X276899047Y-227444285D01*
X276899047Y-228063333D01*
X277552380Y-223158095D02*
X276552380Y-223158095D01*
X277552380Y-223729523D02*
X276980952Y-223300952D01*
X276552380Y-223729523D02*
X277123809Y-223158095D01*
X66551904Y-320202380D02*
X66551904Y-319202380D01*
X66218571Y-319916666D01*
X65885238Y-319202380D01*
X65885238Y-320202380D01*
X65504285Y-319202380D02*
X64837619Y-320202380D01*
X64837619Y-319202380D02*
X65504285Y-320202380D01*
X64028095Y-319535714D02*
X64028095Y-320202380D01*
X64266190Y-319154761D02*
X64504285Y-319869047D01*
X63885238Y-319869047D01*
X63551904Y-319297619D02*
X63504285Y-319250000D01*
X63409047Y-319202380D01*
X63170952Y-319202380D01*
X63075714Y-319250000D01*
X63028095Y-319297619D01*
X62980476Y-319392857D01*
X62980476Y-319488095D01*
X63028095Y-319630952D01*
X63599523Y-320202380D01*
X62980476Y-320202380D01*
X160161904Y-260182380D02*
X160161904Y-259182380D01*
X159828571Y-259896666D01*
X159495238Y-259182380D01*
X159495238Y-260182380D01*
X159114285Y-259182380D02*
X158447619Y-260182380D01*
X158447619Y-259182380D02*
X159114285Y-260182380D01*
X158161904Y-259182380D02*
X157542857Y-259182380D01*
X157876190Y-259563333D01*
X157733333Y-259563333D01*
X157638095Y-259610952D01*
X157590476Y-259658571D01*
X157542857Y-259753809D01*
X157542857Y-259991904D01*
X157590476Y-260087142D01*
X157638095Y-260134761D01*
X157733333Y-260182380D01*
X158019047Y-260182380D01*
X158114285Y-260134761D01*
X158161904Y-260087142D01*
X156923809Y-259182380D02*
X156828571Y-259182380D01*
X156733333Y-259230000D01*
X156685714Y-259277619D01*
X156638095Y-259372857D01*
X156590476Y-259563333D01*
X156590476Y-259801428D01*
X156638095Y-259991904D01*
X156685714Y-260087142D01*
X156733333Y-260134761D01*
X156828571Y-260182380D01*
X156923809Y-260182380D01*
X157019047Y-260134761D01*
X157066666Y-260087142D01*
X157114285Y-259991904D01*
X157161904Y-259801428D01*
X157161904Y-259563333D01*
X157114285Y-259372857D01*
X157066666Y-259277619D01*
X157019047Y-259230000D01*
X156923809Y-259182380D01*
X140161904Y-260182380D02*
X140161904Y-259182380D01*
X139828571Y-259896666D01*
X139495238Y-259182380D01*
X139495238Y-260182380D01*
X139114285Y-259182380D02*
X138447619Y-260182380D01*
X138447619Y-259182380D02*
X139114285Y-260182380D01*
X138161904Y-259182380D02*
X137542857Y-259182380D01*
X137876190Y-259563333D01*
X137733333Y-259563333D01*
X137638095Y-259610952D01*
X137590476Y-259658571D01*
X137542857Y-259753809D01*
X137542857Y-259991904D01*
X137590476Y-260087142D01*
X137638095Y-260134761D01*
X137733333Y-260182380D01*
X138019047Y-260182380D01*
X138114285Y-260134761D01*
X138161904Y-260087142D01*
X136685714Y-259515714D02*
X136685714Y-260182380D01*
X136923809Y-259134761D02*
X137161904Y-259849047D01*
X136542857Y-259849047D01*
X193232380Y-226015714D02*
X192232380Y-226015714D01*
X192232380Y-226253809D01*
X192280000Y-226396666D01*
X192375238Y-226491904D01*
X192470476Y-226539523D01*
X192660952Y-226587142D01*
X192803809Y-226587142D01*
X192994285Y-226539523D01*
X193089523Y-226491904D01*
X193184761Y-226396666D01*
X193232380Y-226253809D01*
X193232380Y-226015714D01*
X192327619Y-226968095D02*
X192280000Y-227015714D01*
X192232380Y-227110952D01*
X192232380Y-227349047D01*
X192280000Y-227444285D01*
X192327619Y-227491904D01*
X192422857Y-227539523D01*
X192518095Y-227539523D01*
X192660952Y-227491904D01*
X193232380Y-226920476D01*
X193232380Y-227539523D01*
X192232380Y-228444285D02*
X192232380Y-227968095D01*
X192708571Y-227920476D01*
X192660952Y-227968095D01*
X192613333Y-228063333D01*
X192613333Y-228301428D01*
X192660952Y-228396666D01*
X192708571Y-228444285D01*
X192803809Y-228491904D01*
X193041904Y-228491904D01*
X193137142Y-228444285D01*
X193184761Y-228396666D01*
X193232380Y-228301428D01*
X193232380Y-228063333D01*
X193184761Y-227968095D01*
X193137142Y-227920476D01*
X193552380Y-223158095D02*
X192552380Y-223158095D01*
X193552380Y-223729523D02*
X192980952Y-223300952D01*
X192552380Y-223729523D02*
X193123809Y-223158095D01*
X209232380Y-226015714D02*
X208232380Y-226015714D01*
X208232380Y-226253809D01*
X208280000Y-226396666D01*
X208375238Y-226491904D01*
X208470476Y-226539523D01*
X208660952Y-226587142D01*
X208803809Y-226587142D01*
X208994285Y-226539523D01*
X209089523Y-226491904D01*
X209184761Y-226396666D01*
X209232380Y-226253809D01*
X209232380Y-226015714D01*
X208327619Y-226968095D02*
X208280000Y-227015714D01*
X208232380Y-227110952D01*
X208232380Y-227349047D01*
X208280000Y-227444285D01*
X208327619Y-227491904D01*
X208422857Y-227539523D01*
X208518095Y-227539523D01*
X208660952Y-227491904D01*
X209232380Y-226920476D01*
X209232380Y-227539523D01*
X209232380Y-228491904D02*
X209232380Y-227920476D01*
X209232380Y-228206190D02*
X208232380Y-228206190D01*
X208375238Y-228110952D01*
X208470476Y-228015714D01*
X208518095Y-227920476D01*
X209552380Y-223158095D02*
X208552380Y-223158095D01*
X209552380Y-223729523D02*
X208980952Y-223300952D01*
X208552380Y-223729523D02*
X209123809Y-223158095D01*
X230161904Y-240182380D02*
X230161904Y-239182380D01*
X229828571Y-239896666D01*
X229495238Y-239182380D01*
X229495238Y-240182380D01*
X229114285Y-239182380D02*
X228447619Y-240182380D01*
X228447619Y-239182380D02*
X229114285Y-240182380D01*
X227542857Y-240182380D02*
X228114285Y-240182380D01*
X227828571Y-240182380D02*
X227828571Y-239182380D01*
X227923809Y-239325238D01*
X228019047Y-239420476D01*
X228114285Y-239468095D01*
X226685714Y-239182380D02*
X226876190Y-239182380D01*
X226971428Y-239230000D01*
X227019047Y-239277619D01*
X227114285Y-239420476D01*
X227161904Y-239610952D01*
X227161904Y-239991904D01*
X227114285Y-240087142D01*
X227066666Y-240134761D01*
X226971428Y-240182380D01*
X226780952Y-240182380D01*
X226685714Y-240134761D01*
X226638095Y-240087142D01*
X226590476Y-239991904D01*
X226590476Y-239753809D01*
X226638095Y-239658571D01*
X226685714Y-239610952D01*
X226780952Y-239563333D01*
X226971428Y-239563333D01*
X227066666Y-239610952D01*
X227114285Y-239658571D01*
X227161904Y-239753809D01*
X250161904Y-240182380D02*
X250161904Y-239182380D01*
X249828571Y-239896666D01*
X249495238Y-239182380D01*
X249495238Y-240182380D01*
X249114285Y-239182380D02*
X248447619Y-240182380D01*
X248447619Y-239182380D02*
X249114285Y-240182380D01*
X247542857Y-240182380D02*
X248114285Y-240182380D01*
X247828571Y-240182380D02*
X247828571Y-239182380D01*
X247923809Y-239325238D01*
X248019047Y-239420476D01*
X248114285Y-239468095D01*
X246590476Y-240182380D02*
X247161904Y-240182380D01*
X246876190Y-240182380D02*
X246876190Y-239182380D01*
X246971428Y-239325238D01*
X247066666Y-239420476D01*
X247161904Y-239468095D01*
X197232380Y-226015714D02*
X196232380Y-226015714D01*
X196232380Y-226253809D01*
X196280000Y-226396666D01*
X196375238Y-226491904D01*
X196470476Y-226539523D01*
X196660952Y-226587142D01*
X196803809Y-226587142D01*
X196994285Y-226539523D01*
X197089523Y-226491904D01*
X197184761Y-226396666D01*
X197232380Y-226253809D01*
X197232380Y-226015714D01*
X196327619Y-226968095D02*
X196280000Y-227015714D01*
X196232380Y-227110952D01*
X196232380Y-227349047D01*
X196280000Y-227444285D01*
X196327619Y-227491904D01*
X196422857Y-227539523D01*
X196518095Y-227539523D01*
X196660952Y-227491904D01*
X197232380Y-226920476D01*
X197232380Y-227539523D01*
X196565714Y-228396666D02*
X197232380Y-228396666D01*
X196184761Y-228158571D02*
X196899047Y-227920476D01*
X196899047Y-228539523D01*
X197552380Y-223158095D02*
X196552380Y-223158095D01*
X197552380Y-223729523D02*
X196980952Y-223300952D01*
X196552380Y-223729523D02*
X197123809Y-223158095D01*
X50161904Y-240182380D02*
X50161904Y-239182380D01*
X49828571Y-239896666D01*
X49495238Y-239182380D01*
X49495238Y-240182380D01*
X49114285Y-239182380D02*
X48447619Y-240182380D01*
X48447619Y-239182380D02*
X49114285Y-240182380D01*
X47590476Y-239182380D02*
X48066666Y-239182380D01*
X48114285Y-239658571D01*
X48066666Y-239610952D01*
X47971428Y-239563333D01*
X47733333Y-239563333D01*
X47638095Y-239610952D01*
X47590476Y-239658571D01*
X47542857Y-239753809D01*
X47542857Y-239991904D01*
X47590476Y-240087142D01*
X47638095Y-240134761D01*
X47733333Y-240182380D01*
X47971428Y-240182380D01*
X48066666Y-240134761D01*
X48114285Y-240087142D01*
X46685714Y-239182380D02*
X46876190Y-239182380D01*
X46971428Y-239230000D01*
X47019047Y-239277619D01*
X47114285Y-239420476D01*
X47161904Y-239610952D01*
X47161904Y-239991904D01*
X47114285Y-240087142D01*
X47066666Y-240134761D01*
X46971428Y-240182380D01*
X46780952Y-240182380D01*
X46685714Y-240134761D01*
X46638095Y-240087142D01*
X46590476Y-239991904D01*
X46590476Y-239753809D01*
X46638095Y-239658571D01*
X46685714Y-239610952D01*
X46780952Y-239563333D01*
X46971428Y-239563333D01*
X47066666Y-239610952D01*
X47114285Y-239658571D01*
X47161904Y-239753809D01*
X265232380Y-226491904D02*
X264232380Y-226491904D01*
X264232380Y-226730000D01*
X264280000Y-226872857D01*
X264375238Y-226968095D01*
X264470476Y-227015714D01*
X264660952Y-227063333D01*
X264803809Y-227063333D01*
X264994285Y-227015714D01*
X265089523Y-226968095D01*
X265184761Y-226872857D01*
X265232380Y-226730000D01*
X265232380Y-226491904D01*
X264232380Y-227396666D02*
X264232380Y-228063333D01*
X265232380Y-227634761D01*
X265552380Y-223158095D02*
X264552380Y-223158095D01*
X265552380Y-223729523D02*
X264980952Y-223300952D01*
X264552380Y-223729523D02*
X265123809Y-223158095D01*
X237232380Y-226015714D02*
X236232380Y-226015714D01*
X236232380Y-226253809D01*
X236280000Y-226396666D01*
X236375238Y-226491904D01*
X236470476Y-226539523D01*
X236660952Y-226587142D01*
X236803809Y-226587142D01*
X236994285Y-226539523D01*
X237089523Y-226491904D01*
X237184761Y-226396666D01*
X237232380Y-226253809D01*
X237232380Y-226015714D01*
X237232380Y-227539523D02*
X237232380Y-226968095D01*
X237232380Y-227253809D02*
X236232380Y-227253809D01*
X236375238Y-227158571D01*
X236470476Y-227063333D01*
X236518095Y-226968095D01*
X236565714Y-228396666D02*
X237232380Y-228396666D01*
X236184761Y-228158571D02*
X236899047Y-227920476D01*
X236899047Y-228539523D01*
X237552380Y-223158095D02*
X236552380Y-223158095D01*
X237552380Y-223729523D02*
X236980952Y-223300952D01*
X236552380Y-223729523D02*
X237123809Y-223158095D01*
X73232380Y-226015714D02*
X72232380Y-226015714D01*
X72232380Y-226253809D01*
X72280000Y-226396666D01*
X72375238Y-226491904D01*
X72470476Y-226539523D01*
X72660952Y-226587142D01*
X72803809Y-226587142D01*
X72994285Y-226539523D01*
X73089523Y-226491904D01*
X73184761Y-226396666D01*
X73232380Y-226253809D01*
X73232380Y-226015714D01*
X72232380Y-227491904D02*
X72232380Y-227015714D01*
X72708571Y-226968095D01*
X72660952Y-227015714D01*
X72613333Y-227110952D01*
X72613333Y-227349047D01*
X72660952Y-227444285D01*
X72708571Y-227491904D01*
X72803809Y-227539523D01*
X73041904Y-227539523D01*
X73137142Y-227491904D01*
X73184761Y-227444285D01*
X73232380Y-227349047D01*
X73232380Y-227110952D01*
X73184761Y-227015714D01*
X73137142Y-226968095D01*
X72232380Y-228444285D02*
X72232380Y-227968095D01*
X72708571Y-227920476D01*
X72660952Y-227968095D01*
X72613333Y-228063333D01*
X72613333Y-228301428D01*
X72660952Y-228396666D01*
X72708571Y-228444285D01*
X72803809Y-228491904D01*
X73041904Y-228491904D01*
X73137142Y-228444285D01*
X73184761Y-228396666D01*
X73232380Y-228301428D01*
X73232380Y-228063333D01*
X73184761Y-227968095D01*
X73137142Y-227920476D01*
X73552380Y-223158095D02*
X72552380Y-223158095D01*
X73552380Y-223729523D02*
X72980952Y-223300952D01*
X72552380Y-223729523D02*
X73123809Y-223158095D01*
X115161904Y-280182380D02*
X115161904Y-279182380D01*
X114828571Y-279896666D01*
X114495238Y-279182380D01*
X114495238Y-280182380D01*
X114114285Y-279182380D02*
X113447619Y-280182380D01*
X113447619Y-279182380D02*
X114114285Y-280182380D01*
X112638095Y-279515714D02*
X112638095Y-280182380D01*
X112876190Y-279134761D02*
X113114285Y-279849047D01*
X112495238Y-279849047D01*
X111923809Y-279182380D02*
X111828571Y-279182380D01*
X111733333Y-279230000D01*
X111685714Y-279277619D01*
X111638095Y-279372857D01*
X111590476Y-279563333D01*
X111590476Y-279801428D01*
X111638095Y-279991904D01*
X111685714Y-280087142D01*
X111733333Y-280134761D01*
X111828571Y-280182380D01*
X111923809Y-280182380D01*
X112019047Y-280134761D01*
X112066666Y-280087142D01*
X112114285Y-279991904D01*
X112161904Y-279801428D01*
X112161904Y-279563333D01*
X112114285Y-279372857D01*
X112066666Y-279277619D01*
X112019047Y-279230000D01*
X111923809Y-279182380D01*
X273232380Y-226491904D02*
X272232380Y-226491904D01*
X272232380Y-226730000D01*
X272280000Y-226872857D01*
X272375238Y-226968095D01*
X272470476Y-227015714D01*
X272660952Y-227063333D01*
X272803809Y-227063333D01*
X272994285Y-227015714D01*
X273089523Y-226968095D01*
X273184761Y-226872857D01*
X273232380Y-226730000D01*
X273232380Y-226491904D01*
X272232380Y-227968095D02*
X272232380Y-227491904D01*
X272708571Y-227444285D01*
X272660952Y-227491904D01*
X272613333Y-227587142D01*
X272613333Y-227825238D01*
X272660952Y-227920476D01*
X272708571Y-227968095D01*
X272803809Y-228015714D01*
X273041904Y-228015714D01*
X273137142Y-227968095D01*
X273184761Y-227920476D01*
X273232380Y-227825238D01*
X273232380Y-227587142D01*
X273184761Y-227491904D01*
X273137142Y-227444285D01*
X273552380Y-223158095D02*
X272552380Y-223158095D01*
X273552380Y-223729523D02*
X272980952Y-223300952D01*
X272552380Y-223729523D02*
X273123809Y-223158095D01*
X97232380Y-226015714D02*
X96232380Y-226015714D01*
X96232380Y-226253809D01*
X96280000Y-226396666D01*
X96375238Y-226491904D01*
X96470476Y-226539523D01*
X96660952Y-226587142D01*
X96803809Y-226587142D01*
X96994285Y-226539523D01*
X97089523Y-226491904D01*
X97184761Y-226396666D01*
X97232380Y-226253809D01*
X97232380Y-226015714D01*
X96565714Y-227444285D02*
X97232380Y-227444285D01*
X96184761Y-227206190D02*
X96899047Y-226968095D01*
X96899047Y-227587142D01*
X97232380Y-228015714D02*
X97232380Y-228206190D01*
X97184761Y-228301428D01*
X97137142Y-228349047D01*
X96994285Y-228444285D01*
X96803809Y-228491904D01*
X96422857Y-228491904D01*
X96327619Y-228444285D01*
X96280000Y-228396666D01*
X96232380Y-228301428D01*
X96232380Y-228110952D01*
X96280000Y-228015714D01*
X96327619Y-227968095D01*
X96422857Y-227920476D01*
X96660952Y-227920476D01*
X96756190Y-227968095D01*
X96803809Y-228015714D01*
X96851428Y-228110952D01*
X96851428Y-228301428D01*
X96803809Y-228396666D01*
X96756190Y-228444285D01*
X96660952Y-228491904D01*
X97552380Y-223158095D02*
X96552380Y-223158095D01*
X97552380Y-223729523D02*
X96980952Y-223300952D01*
X96552380Y-223729523D02*
X97123809Y-223158095D01*
X57232380Y-226015714D02*
X56232380Y-226015714D01*
X56232380Y-226253809D01*
X56280000Y-226396666D01*
X56375238Y-226491904D01*
X56470476Y-226539523D01*
X56660952Y-226587142D01*
X56803809Y-226587142D01*
X56994285Y-226539523D01*
X57089523Y-226491904D01*
X57184761Y-226396666D01*
X57232380Y-226253809D01*
X57232380Y-226015714D01*
X56232380Y-227491904D02*
X56232380Y-227015714D01*
X56708571Y-226968095D01*
X56660952Y-227015714D01*
X56613333Y-227110952D01*
X56613333Y-227349047D01*
X56660952Y-227444285D01*
X56708571Y-227491904D01*
X56803809Y-227539523D01*
X57041904Y-227539523D01*
X57137142Y-227491904D01*
X57184761Y-227444285D01*
X57232380Y-227349047D01*
X57232380Y-227110952D01*
X57184761Y-227015714D01*
X57137142Y-226968095D01*
X57232380Y-228015714D02*
X57232380Y-228206190D01*
X57184761Y-228301428D01*
X57137142Y-228349047D01*
X56994285Y-228444285D01*
X56803809Y-228491904D01*
X56422857Y-228491904D01*
X56327619Y-228444285D01*
X56280000Y-228396666D01*
X56232380Y-228301428D01*
X56232380Y-228110952D01*
X56280000Y-228015714D01*
X56327619Y-227968095D01*
X56422857Y-227920476D01*
X56660952Y-227920476D01*
X56756190Y-227968095D01*
X56803809Y-228015714D01*
X56851428Y-228110952D01*
X56851428Y-228301428D01*
X56803809Y-228396666D01*
X56756190Y-228444285D01*
X56660952Y-228491904D01*
X57552380Y-223158095D02*
X56552380Y-223158095D01*
X57552380Y-223729523D02*
X56980952Y-223300952D01*
X56552380Y-223729523D02*
X57123809Y-223158095D01*
X285232380Y-226491904D02*
X284232380Y-226491904D01*
X284232380Y-226730000D01*
X284280000Y-226872857D01*
X284375238Y-226968095D01*
X284470476Y-227015714D01*
X284660952Y-227063333D01*
X284803809Y-227063333D01*
X284994285Y-227015714D01*
X285089523Y-226968095D01*
X285184761Y-226872857D01*
X285232380Y-226730000D01*
X285232380Y-226491904D01*
X284327619Y-227444285D02*
X284280000Y-227491904D01*
X284232380Y-227587142D01*
X284232380Y-227825238D01*
X284280000Y-227920476D01*
X284327619Y-227968095D01*
X284422857Y-228015714D01*
X284518095Y-228015714D01*
X284660952Y-227968095D01*
X285232380Y-227396666D01*
X285232380Y-228015714D01*
X285552380Y-223158095D02*
X284552380Y-223158095D01*
X285552380Y-223729523D02*
X284980952Y-223300952D01*
X284552380Y-223729523D02*
X285123809Y-223158095D01*
D11*
X32840000Y-314810000D02*
X18640000Y-314810000D01*
X18640000Y-300610000D02*
X32840000Y-300610000D01*
X32840000Y-300610000D02*
X32840000Y-314810000D01*
X18640000Y-314810000D02*
X18640000Y-300610000D01*
X105500000Y-274830000D02*
X91300000Y-274830000D01*
X91300000Y-260630000D02*
X105500000Y-260630000D01*
X105500000Y-260630000D02*
X105500000Y-274830000D01*
X91300000Y-274830000D02*
X91300000Y-260630000D01*
X118900000Y-230000000D02*
X118900000Y-229350000D01*
X120020000Y-229350000D02*
X117780000Y-229350000D01*
X117780000Y-229350000D02*
X117780000Y-225110000D01*
X117780000Y-225830000D02*
X120020000Y-225830000D01*
X120020000Y-225110000D02*
X120020000Y-229350000D01*
X117780000Y-225110000D02*
X120020000Y-225110000D01*
X118900000Y-224460000D02*
X118900000Y-225110000D01*
X117780000Y-225710000D02*
X120020000Y-225710000D01*
X117780000Y-225950000D02*
X120020000Y-225950000D01*
X245500000Y-274830000D02*
X231300000Y-274830000D01*
X245500000Y-260630000D02*
X245500000Y-274830000D01*
X231300000Y-260630000D02*
X245500000Y-260630000D01*
X231300000Y-274830000D02*
X231300000Y-260630000D01*
X71300000Y-274830000D02*
X71300000Y-260630000D01*
X71300000Y-260630000D02*
X85500000Y-260630000D01*
X85500000Y-274830000D02*
X71300000Y-274830000D01*
X85500000Y-260630000D02*
X85500000Y-274830000D01*
X114900000Y-230000000D02*
X114900000Y-229350000D01*
X116020000Y-225110000D02*
X116020000Y-229350000D01*
X113780000Y-229350000D02*
X113780000Y-225110000D01*
X113780000Y-225110000D02*
X116020000Y-225110000D01*
X113780000Y-225950000D02*
X116020000Y-225950000D01*
X113780000Y-225830000D02*
X116020000Y-225830000D01*
X113780000Y-225710000D02*
X116020000Y-225710000D01*
X114900000Y-224460000D02*
X114900000Y-225110000D01*
X116020000Y-229350000D02*
X113780000Y-229350000D01*
X49780000Y-225710000D02*
X52020000Y-225710000D01*
X50900000Y-230000000D02*
X50900000Y-229350000D01*
X49780000Y-225830000D02*
X52020000Y-225830000D01*
X50900000Y-224460000D02*
X50900000Y-225110000D01*
X49780000Y-225110000D02*
X52020000Y-225110000D01*
X49780000Y-229350000D02*
X49780000Y-225110000D01*
X52020000Y-229350000D02*
X49780000Y-229350000D01*
X49780000Y-225950000D02*
X52020000Y-225950000D01*
X52020000Y-225110000D02*
X52020000Y-229350000D01*
X145780000Y-225110000D02*
X148020000Y-225110000D01*
X146900000Y-224460000D02*
X146900000Y-225110000D01*
X145780000Y-225830000D02*
X148020000Y-225830000D01*
X146900000Y-230000000D02*
X146900000Y-229350000D01*
X145780000Y-229350000D02*
X145780000Y-225110000D01*
X145780000Y-225950000D02*
X148020000Y-225950000D01*
X148020000Y-229350000D02*
X145780000Y-229350000D01*
X148020000Y-225110000D02*
X148020000Y-229350000D01*
X145780000Y-225710000D02*
X148020000Y-225710000D01*
X177780000Y-225830000D02*
X180020000Y-225830000D01*
X177780000Y-229350000D02*
X177780000Y-225110000D01*
X178900000Y-230000000D02*
X178900000Y-229350000D01*
X177780000Y-225710000D02*
X180020000Y-225710000D01*
X177780000Y-225950000D02*
X180020000Y-225950000D01*
X180020000Y-229350000D02*
X177780000Y-229350000D01*
X180020000Y-225110000D02*
X180020000Y-229350000D01*
X177780000Y-225110000D02*
X180020000Y-225110000D01*
X178900000Y-224460000D02*
X178900000Y-225110000D01*
X250500000Y-314830000D02*
X236300000Y-314830000D01*
X250500000Y-300630000D02*
X250500000Y-314830000D01*
X236300000Y-314830000D02*
X236300000Y-300630000D01*
X236300000Y-300630000D02*
X250500000Y-300630000D01*
X129780000Y-225950000D02*
X132020000Y-225950000D01*
X130900000Y-230000000D02*
X130900000Y-229350000D01*
X129780000Y-225110000D02*
X132020000Y-225110000D01*
X129780000Y-225710000D02*
X132020000Y-225710000D01*
X132020000Y-229350000D02*
X129780000Y-229350000D01*
X132020000Y-225110000D02*
X132020000Y-229350000D01*
X130900000Y-224460000D02*
X130900000Y-225110000D01*
X129780000Y-225830000D02*
X132020000Y-225830000D01*
X129780000Y-229350000D02*
X129780000Y-225110000D01*
X111300000Y-274830000D02*
X111300000Y-260630000D01*
X125500000Y-274830000D02*
X111300000Y-274830000D01*
X125500000Y-260630000D02*
X125500000Y-274830000D01*
X111300000Y-260630000D02*
X125500000Y-260630000D01*
X181300000Y-240630000D02*
X195500000Y-240630000D01*
X181300000Y-254830000D02*
X181300000Y-240630000D01*
X195500000Y-254830000D02*
X181300000Y-254830000D01*
X195500000Y-240630000D02*
X195500000Y-254830000D01*
X4390000Y-320600000D02*
X18590000Y-320600000D01*
X4390000Y-334800000D02*
X4390000Y-320600000D01*
X18590000Y-334800000D02*
X4390000Y-334800000D01*
X18590000Y-320600000D02*
X18590000Y-334800000D01*
X31300000Y-274830000D02*
X31300000Y-260630000D01*
X45500000Y-274830000D02*
X31300000Y-274830000D01*
X45500000Y-260630000D02*
X45500000Y-274830000D01*
X31300000Y-260630000D02*
X45500000Y-260630000D01*
X70500000Y-314830000D02*
X56300000Y-314830000D01*
X56300000Y-314830000D02*
X56300000Y-300630000D01*
X56300000Y-300630000D02*
X70500000Y-300630000D01*
X70500000Y-300630000D02*
X70500000Y-314830000D01*
X90500000Y-300630000D02*
X90500000Y-314830000D01*
X76300000Y-314830000D02*
X76300000Y-300630000D01*
X76300000Y-300630000D02*
X90500000Y-300630000D01*
X90500000Y-314830000D02*
X76300000Y-314830000D01*
X205780000Y-225950000D02*
X208020000Y-225950000D01*
X205780000Y-229350000D02*
X205780000Y-225110000D01*
X206900000Y-224460000D02*
X206900000Y-225110000D01*
X205780000Y-225830000D02*
X208020000Y-225830000D01*
X205780000Y-225110000D02*
X208020000Y-225110000D01*
X208020000Y-225110000D02*
X208020000Y-229350000D01*
X206900000Y-230000000D02*
X206900000Y-229350000D01*
X208020000Y-229350000D02*
X205780000Y-229350000D01*
X205780000Y-225710000D02*
X208020000Y-225710000D01*
X116300000Y-314830000D02*
X116300000Y-300630000D01*
X116300000Y-300630000D02*
X130500000Y-300630000D01*
X130500000Y-300630000D02*
X130500000Y-314830000D01*
X130500000Y-314830000D02*
X116300000Y-314830000D01*
X251300000Y-274830000D02*
X251300000Y-260630000D01*
X265500000Y-260630000D02*
X265500000Y-274830000D01*
X265500000Y-274830000D02*
X251300000Y-274830000D01*
X251300000Y-260630000D02*
X265500000Y-260630000D01*
X65780000Y-225710000D02*
X68020000Y-225710000D01*
X65780000Y-225110000D02*
X68020000Y-225110000D01*
X68020000Y-229350000D02*
X65780000Y-229350000D01*
X66900000Y-230000000D02*
X66900000Y-229350000D01*
X66900000Y-224460000D02*
X66900000Y-225110000D01*
X65780000Y-225830000D02*
X68020000Y-225830000D01*
X65780000Y-229350000D02*
X65780000Y-225110000D01*
X65780000Y-225950000D02*
X68020000Y-225950000D01*
X68020000Y-225110000D02*
X68020000Y-229350000D01*
X283000000Y-314830000D02*
X268800000Y-314830000D01*
X268800000Y-300630000D02*
X283000000Y-300630000D01*
X268800000Y-314830000D02*
X268800000Y-300630000D01*
X283000000Y-300630000D02*
X283000000Y-314830000D01*
X253780000Y-225830000D02*
X256020000Y-225830000D01*
X253780000Y-225950000D02*
X256020000Y-225950000D01*
X254900000Y-224460000D02*
X254900000Y-225110000D01*
X253780000Y-229350000D02*
X253780000Y-225110000D01*
X254900000Y-230000000D02*
X254900000Y-229350000D01*
X253780000Y-225710000D02*
X256020000Y-225710000D01*
X253780000Y-225110000D02*
X256020000Y-225110000D01*
X256020000Y-229350000D02*
X253780000Y-229350000D01*
X256020000Y-225110000D02*
X256020000Y-229350000D01*
X25900000Y-240610000D02*
X25900000Y-254810000D01*
X11700000Y-254810000D02*
X11700000Y-240610000D01*
X11700000Y-240610000D02*
X25900000Y-240610000D01*
X25900000Y-254810000D02*
X11700000Y-254810000D01*
X236020000Y-229350000D02*
X233780000Y-229350000D01*
X233780000Y-229350000D02*
X233780000Y-225110000D01*
X233780000Y-225110000D02*
X236020000Y-225110000D01*
X234900000Y-230000000D02*
X234900000Y-229350000D01*
X233780000Y-225830000D02*
X236020000Y-225830000D01*
X236020000Y-225110000D02*
X236020000Y-229350000D01*
X234900000Y-224460000D02*
X234900000Y-225110000D01*
X233780000Y-225710000D02*
X236020000Y-225710000D01*
X233780000Y-225950000D02*
X236020000Y-225950000D01*
X169780000Y-225110000D02*
X172020000Y-225110000D01*
X172020000Y-229350000D02*
X169780000Y-229350000D01*
X169780000Y-225830000D02*
X172020000Y-225830000D01*
X172020000Y-225110000D02*
X172020000Y-229350000D01*
X170900000Y-224460000D02*
X170900000Y-225110000D01*
X169780000Y-225950000D02*
X172020000Y-225950000D01*
X169780000Y-225710000D02*
X172020000Y-225710000D01*
X169780000Y-229350000D02*
X169780000Y-225110000D01*
X170900000Y-230000000D02*
X170900000Y-229350000D01*
X101300000Y-240630000D02*
X115500000Y-240630000D01*
X115500000Y-240630000D02*
X115500000Y-254830000D01*
X115500000Y-254830000D02*
X101300000Y-254830000D01*
X101300000Y-254830000D02*
X101300000Y-240630000D01*
X149780000Y-225110000D02*
X152020000Y-225110000D01*
X149780000Y-225950000D02*
X152020000Y-225950000D01*
X149780000Y-229350000D02*
X149780000Y-225110000D01*
X150900000Y-230000000D02*
X150900000Y-229350000D01*
X149780000Y-225710000D02*
X152020000Y-225710000D01*
X150900000Y-224460000D02*
X150900000Y-225110000D01*
X152020000Y-225110000D02*
X152020000Y-229350000D01*
X149780000Y-225830000D02*
X152020000Y-225830000D01*
X152020000Y-229350000D02*
X149780000Y-229350000D01*
X81300000Y-254830000D02*
X81300000Y-240630000D01*
X81300000Y-240630000D02*
X95500000Y-240630000D01*
X95500000Y-254830000D02*
X81300000Y-254830000D01*
X95500000Y-240630000D02*
X95500000Y-254830000D01*
X165780000Y-225830000D02*
X168020000Y-225830000D01*
X165780000Y-225950000D02*
X168020000Y-225950000D01*
X165780000Y-229350000D02*
X165780000Y-225110000D01*
X166900000Y-224460000D02*
X166900000Y-225110000D01*
X168020000Y-225110000D02*
X168020000Y-229350000D01*
X165780000Y-225110000D02*
X168020000Y-225110000D01*
X166900000Y-230000000D02*
X166900000Y-229350000D01*
X165780000Y-225710000D02*
X168020000Y-225710000D01*
X168020000Y-229350000D02*
X165780000Y-229350000D01*
X295000000Y-254830000D02*
X280800000Y-254830000D01*
X295000000Y-240630000D02*
X295000000Y-254830000D01*
X280800000Y-240630000D02*
X295000000Y-240630000D01*
X280800000Y-254830000D02*
X280800000Y-240630000D01*
X226300000Y-280630000D02*
X240500000Y-280630000D01*
X240500000Y-294830000D02*
X226300000Y-294830000D01*
X240500000Y-280630000D02*
X240500000Y-294830000D01*
X226300000Y-294830000D02*
X226300000Y-280630000D01*
X85780000Y-225830000D02*
X88020000Y-225830000D01*
X86900000Y-224460000D02*
X86900000Y-225110000D01*
X85780000Y-229350000D02*
X85780000Y-225110000D01*
X85780000Y-225710000D02*
X88020000Y-225710000D01*
X85780000Y-225110000D02*
X88020000Y-225110000D01*
X88020000Y-225110000D02*
X88020000Y-229350000D01*
X86900000Y-230000000D02*
X86900000Y-229350000D01*
X88020000Y-229350000D02*
X85780000Y-229350000D01*
X85780000Y-225950000D02*
X88020000Y-225950000D01*
X31250000Y-320690000D02*
X45450000Y-320690000D01*
X45450000Y-320690000D02*
X45450000Y-334890000D01*
X45450000Y-334890000D02*
X31250000Y-334890000D01*
X31250000Y-334890000D02*
X31250000Y-320690000D01*
X89780000Y-225830000D02*
X92020000Y-225830000D01*
X90900000Y-230000000D02*
X90900000Y-229350000D01*
X90900000Y-224460000D02*
X90900000Y-225110000D01*
X89780000Y-229350000D02*
X89780000Y-225110000D01*
X92020000Y-225110000D02*
X92020000Y-229350000D01*
X92020000Y-229350000D02*
X89780000Y-229350000D01*
X89780000Y-225710000D02*
X92020000Y-225710000D01*
X89780000Y-225950000D02*
X92020000Y-225950000D01*
X89780000Y-225110000D02*
X92020000Y-225110000D01*
X153780000Y-225710000D02*
X156020000Y-225710000D01*
X153780000Y-225950000D02*
X156020000Y-225950000D01*
X153780000Y-225830000D02*
X156020000Y-225830000D01*
X153780000Y-225110000D02*
X156020000Y-225110000D01*
X156020000Y-225110000D02*
X156020000Y-229350000D01*
X154900000Y-224460000D02*
X154900000Y-225110000D01*
X153780000Y-229350000D02*
X153780000Y-225110000D01*
X154900000Y-230000000D02*
X154900000Y-229350000D01*
X156020000Y-229350000D02*
X153780000Y-229350000D01*
X281780000Y-225950000D02*
X284020000Y-225950000D01*
X281780000Y-225710000D02*
X284020000Y-225710000D01*
X282900000Y-224460000D02*
X282900000Y-225110000D01*
X284020000Y-229350000D02*
X281780000Y-229350000D01*
X284020000Y-225110000D02*
X284020000Y-229350000D01*
X282900000Y-230000000D02*
X282900000Y-229350000D01*
X281780000Y-225830000D02*
X284020000Y-225830000D01*
X281780000Y-229350000D02*
X281780000Y-225110000D01*
X281780000Y-225110000D02*
X284020000Y-225110000D01*
X290500000Y-274830000D02*
X276300000Y-274830000D01*
X290500000Y-260630000D02*
X290500000Y-274830000D01*
X276300000Y-260630000D02*
X290500000Y-260630000D01*
X276300000Y-274830000D02*
X276300000Y-260630000D01*
X224020000Y-225110000D02*
X224020000Y-229350000D01*
X221780000Y-225830000D02*
X224020000Y-225830000D01*
X221780000Y-229350000D02*
X221780000Y-225110000D01*
X221780000Y-225110000D02*
X224020000Y-225110000D01*
X222900000Y-230000000D02*
X222900000Y-229350000D01*
X221780000Y-225950000D02*
X224020000Y-225950000D01*
X222900000Y-224460000D02*
X222900000Y-225110000D01*
X224020000Y-229350000D02*
X221780000Y-229350000D01*
X221780000Y-225710000D02*
X224020000Y-225710000D01*
X160020000Y-229350000D02*
X157780000Y-229350000D01*
X157780000Y-225830000D02*
X160020000Y-225830000D01*
X157780000Y-225950000D02*
X160020000Y-225950000D01*
X157780000Y-225710000D02*
X160020000Y-225710000D01*
X160020000Y-225110000D02*
X160020000Y-229350000D01*
X158900000Y-224460000D02*
X158900000Y-225110000D01*
X157780000Y-229350000D02*
X157780000Y-225110000D01*
X158900000Y-230000000D02*
X158900000Y-229350000D01*
X157780000Y-225110000D02*
X160020000Y-225110000D01*
X206300000Y-280630000D02*
X220500000Y-280630000D01*
X220500000Y-280630000D02*
X220500000Y-294830000D01*
X206300000Y-294830000D02*
X206300000Y-280630000D01*
X220500000Y-294830000D02*
X206300000Y-294830000D01*
X289780000Y-229350000D02*
X289780000Y-225110000D01*
X290900000Y-224460000D02*
X290900000Y-225110000D01*
X289780000Y-225830000D02*
X292020000Y-225830000D01*
X289780000Y-225950000D02*
X292020000Y-225950000D01*
X292020000Y-229350000D02*
X289780000Y-229350000D01*
X292020000Y-225110000D02*
X292020000Y-229350000D01*
X290900000Y-230000000D02*
X290900000Y-229350000D01*
X289780000Y-225110000D02*
X292020000Y-225110000D01*
X289780000Y-225710000D02*
X292020000Y-225710000D01*
X211300000Y-274830000D02*
X211300000Y-260630000D01*
X225500000Y-260630000D02*
X225500000Y-274830000D01*
X225500000Y-274830000D02*
X211300000Y-274830000D01*
X211300000Y-260630000D02*
X225500000Y-260630000D01*
X213780000Y-229350000D02*
X213780000Y-225110000D01*
X214900000Y-224460000D02*
X214900000Y-225110000D01*
X213780000Y-225710000D02*
X216020000Y-225710000D01*
X213780000Y-225830000D02*
X216020000Y-225830000D01*
X216020000Y-225110000D02*
X216020000Y-229350000D01*
X213780000Y-225950000D02*
X216020000Y-225950000D01*
X216020000Y-229350000D02*
X213780000Y-229350000D01*
X213780000Y-225110000D02*
X216020000Y-225110000D01*
X214900000Y-230000000D02*
X214900000Y-229350000D01*
X192020000Y-229350000D02*
X189780000Y-229350000D01*
X190900000Y-224460000D02*
X190900000Y-225110000D01*
X189780000Y-229350000D02*
X189780000Y-225110000D01*
X189780000Y-225710000D02*
X192020000Y-225710000D01*
X189780000Y-225950000D02*
X192020000Y-225950000D01*
X192020000Y-225110000D02*
X192020000Y-229350000D01*
X189780000Y-225110000D02*
X192020000Y-225110000D01*
X190900000Y-230000000D02*
X190900000Y-229350000D01*
X189780000Y-225830000D02*
X192020000Y-225830000D01*
X258900000Y-230000000D02*
X258900000Y-229350000D01*
X257780000Y-225950000D02*
X260020000Y-225950000D01*
X257780000Y-225710000D02*
X260020000Y-225710000D01*
X257780000Y-225110000D02*
X260020000Y-225110000D01*
X260020000Y-225110000D02*
X260020000Y-229350000D01*
X258900000Y-224460000D02*
X258900000Y-225110000D01*
X260020000Y-229350000D02*
X257780000Y-229350000D01*
X257780000Y-229350000D02*
X257780000Y-225110000D01*
X257780000Y-225830000D02*
X260020000Y-225830000D01*
X186300000Y-294830000D02*
X186300000Y-280630000D01*
X186300000Y-280630000D02*
X200500000Y-280630000D01*
X200500000Y-294830000D02*
X186300000Y-294830000D01*
X200500000Y-280630000D02*
X200500000Y-294830000D01*
X246300000Y-294830000D02*
X246300000Y-280630000D01*
X246300000Y-280630000D02*
X260500000Y-280630000D01*
X260500000Y-294830000D02*
X246300000Y-294830000D01*
X260500000Y-280630000D02*
X260500000Y-294830000D01*
X270900000Y-230000000D02*
X270900000Y-229350000D01*
X269780000Y-225830000D02*
X272020000Y-225830000D01*
X270900000Y-224460000D02*
X270900000Y-225110000D01*
X269780000Y-225110000D02*
X272020000Y-225110000D01*
X269780000Y-225710000D02*
X272020000Y-225710000D01*
X269780000Y-225950000D02*
X272020000Y-225950000D01*
X272020000Y-225110000D02*
X272020000Y-229350000D01*
X269780000Y-229350000D02*
X269780000Y-225110000D01*
X272020000Y-229350000D02*
X269780000Y-229350000D01*
X176300000Y-314830000D02*
X176300000Y-300630000D01*
X190500000Y-300630000D02*
X190500000Y-314830000D01*
X176300000Y-300630000D02*
X190500000Y-300630000D01*
X190500000Y-314830000D02*
X176300000Y-314830000D01*
X20890000Y-260610000D02*
X20890000Y-274810000D01*
X6690000Y-274810000D02*
X6690000Y-260610000D01*
X6690000Y-260610000D02*
X20890000Y-260610000D01*
X20890000Y-274810000D02*
X6690000Y-274810000D01*
X28000000Y-294830000D02*
X13800000Y-294830000D01*
X28000000Y-280630000D02*
X28000000Y-294830000D01*
X13800000Y-280630000D02*
X28000000Y-280630000D01*
X13800000Y-294830000D02*
X13800000Y-280630000D01*
X101780000Y-225710000D02*
X104020000Y-225710000D01*
X101780000Y-225110000D02*
X104020000Y-225110000D01*
X101780000Y-225950000D02*
X104020000Y-225950000D01*
X101780000Y-225830000D02*
X104020000Y-225830000D01*
X102900000Y-230000000D02*
X102900000Y-229350000D01*
X102900000Y-224460000D02*
X102900000Y-225110000D01*
X104020000Y-225110000D02*
X104020000Y-229350000D01*
X101780000Y-229350000D02*
X101780000Y-225110000D01*
X104020000Y-229350000D02*
X101780000Y-229350000D01*
X62900000Y-230000000D02*
X62900000Y-229350000D01*
X61780000Y-225710000D02*
X64020000Y-225710000D01*
X61780000Y-225830000D02*
X64020000Y-225830000D01*
X64020000Y-225110000D02*
X64020000Y-229350000D01*
X61780000Y-225950000D02*
X64020000Y-225950000D01*
X61780000Y-225110000D02*
X64020000Y-225110000D01*
X62900000Y-224460000D02*
X62900000Y-225110000D01*
X61780000Y-229350000D02*
X61780000Y-225110000D01*
X64020000Y-229350000D02*
X61780000Y-229350000D01*
X160500000Y-294830000D02*
X146300000Y-294830000D01*
X146300000Y-280630000D02*
X160500000Y-280630000D01*
X146300000Y-294830000D02*
X146300000Y-280630000D01*
X160500000Y-280630000D02*
X160500000Y-294830000D01*
X202900000Y-224460000D02*
X202900000Y-225110000D01*
X201780000Y-225830000D02*
X204020000Y-225830000D01*
X201780000Y-225710000D02*
X204020000Y-225710000D01*
X204020000Y-225110000D02*
X204020000Y-229350000D01*
X201780000Y-225110000D02*
X204020000Y-225110000D01*
X201780000Y-229350000D02*
X201780000Y-225110000D01*
X201780000Y-225950000D02*
X204020000Y-225950000D01*
X202900000Y-230000000D02*
X202900000Y-229350000D01*
X204020000Y-229350000D02*
X201780000Y-229350000D01*
X161780000Y-225950000D02*
X164020000Y-225950000D01*
X161780000Y-225110000D02*
X164020000Y-225110000D01*
X162900000Y-224460000D02*
X162900000Y-225110000D01*
X161780000Y-229350000D02*
X161780000Y-225110000D01*
X161780000Y-225710000D02*
X164020000Y-225710000D01*
X162900000Y-230000000D02*
X162900000Y-229350000D01*
X161780000Y-225830000D02*
X164020000Y-225830000D01*
X164020000Y-225110000D02*
X164020000Y-229350000D01*
X164020000Y-229350000D02*
X161780000Y-229350000D01*
X140500000Y-280630000D02*
X140500000Y-294830000D01*
X126300000Y-280630000D02*
X140500000Y-280630000D01*
X126300000Y-294830000D02*
X126300000Y-280630000D01*
X140500000Y-294830000D02*
X126300000Y-294830000D01*
X191300000Y-260630000D02*
X205500000Y-260630000D01*
X205500000Y-260630000D02*
X205500000Y-274830000D01*
X191300000Y-274830000D02*
X191300000Y-260630000D01*
X205500000Y-274830000D02*
X191300000Y-274830000D01*
X268000000Y-320630000D02*
X268000000Y-334830000D01*
X253800000Y-320630000D02*
X268000000Y-320630000D01*
X268000000Y-334830000D02*
X253800000Y-334830000D01*
X253800000Y-334830000D02*
X253800000Y-320630000D01*
X156300000Y-300630000D02*
X170500000Y-300630000D01*
X156300000Y-314830000D02*
X156300000Y-300630000D01*
X170500000Y-314830000D02*
X156300000Y-314830000D01*
X170500000Y-300630000D02*
X170500000Y-314830000D01*
X109780000Y-225110000D02*
X112020000Y-225110000D01*
X112020000Y-229350000D02*
X109780000Y-229350000D01*
X110900000Y-224460000D02*
X110900000Y-225110000D01*
X109780000Y-225950000D02*
X112020000Y-225950000D01*
X110900000Y-230000000D02*
X110900000Y-229350000D01*
X109780000Y-225710000D02*
X112020000Y-225710000D01*
X112020000Y-225110000D02*
X112020000Y-229350000D01*
X109780000Y-229350000D02*
X109780000Y-225110000D01*
X109780000Y-225830000D02*
X112020000Y-225830000D01*
X216300000Y-314830000D02*
X216300000Y-300630000D01*
X230500000Y-300630000D02*
X230500000Y-314830000D01*
X216300000Y-300630000D02*
X230500000Y-300630000D01*
X230500000Y-314830000D02*
X216300000Y-314830000D01*
X292500000Y-320630000D02*
X292500000Y-334830000D01*
X292500000Y-334830000D02*
X278300000Y-334830000D01*
X278300000Y-334830000D02*
X278300000Y-320630000D01*
X278300000Y-320630000D02*
X292500000Y-320630000D01*
X40780000Y-233940000D02*
X40780000Y-236610000D01*
X40780000Y-233940000D02*
X43320000Y-233940000D01*
X43320000Y-221240000D02*
X43320000Y-218570000D01*
X45990000Y-218570000D02*
X45990000Y-236610000D01*
X40780000Y-236610000D02*
X2550000Y-236610000D01*
X45990000Y-236610000D02*
X43320000Y-236610000D01*
X2550000Y-236610000D02*
X2550000Y-218570000D01*
X43320000Y-233940000D02*
X43320000Y-236610000D01*
X40780000Y-233940000D02*
X5220000Y-233940000D01*
X5220000Y-233940000D02*
X5220000Y-236610000D01*
X2550000Y-218570000D02*
X45990000Y-218570000D01*
X43320000Y-221240000D02*
X5220000Y-221240000D01*
X5220000Y-221240000D02*
X5220000Y-218570000D01*
X81780000Y-225110000D02*
X84020000Y-225110000D01*
X82900000Y-224460000D02*
X82900000Y-225110000D01*
X81780000Y-229350000D02*
X81780000Y-225110000D01*
X81780000Y-225830000D02*
X84020000Y-225830000D01*
X84020000Y-229350000D02*
X81780000Y-229350000D01*
X81780000Y-225950000D02*
X84020000Y-225950000D01*
X84020000Y-225110000D02*
X84020000Y-229350000D01*
X82900000Y-230000000D02*
X82900000Y-229350000D01*
X81780000Y-225710000D02*
X84020000Y-225710000D01*
X181780000Y-225710000D02*
X184020000Y-225710000D01*
X181780000Y-229350000D02*
X181780000Y-225110000D01*
X184020000Y-229350000D02*
X181780000Y-229350000D01*
X182900000Y-224460000D02*
X182900000Y-225110000D01*
X184020000Y-225110000D02*
X184020000Y-229350000D01*
X181780000Y-225950000D02*
X184020000Y-225950000D01*
X181780000Y-225830000D02*
X184020000Y-225830000D01*
X182900000Y-230000000D02*
X182900000Y-229350000D01*
X181780000Y-225110000D02*
X184020000Y-225110000D01*
X128020000Y-225110000D02*
X128020000Y-229350000D01*
X125780000Y-225710000D02*
X128020000Y-225710000D01*
X125780000Y-225950000D02*
X128020000Y-225950000D01*
X125780000Y-229350000D02*
X125780000Y-225110000D01*
X125780000Y-225110000D02*
X128020000Y-225110000D01*
X126900000Y-224460000D02*
X126900000Y-225110000D01*
X125780000Y-225830000D02*
X128020000Y-225830000D01*
X128020000Y-229350000D02*
X125780000Y-229350000D01*
X126900000Y-230000000D02*
X126900000Y-229350000D01*
X150500000Y-314830000D02*
X136300000Y-314830000D01*
X136300000Y-300630000D02*
X150500000Y-300630000D01*
X150500000Y-300630000D02*
X150500000Y-314830000D01*
X136300000Y-314830000D02*
X136300000Y-300630000D01*
X248020000Y-225110000D02*
X248020000Y-229350000D01*
X245780000Y-225710000D02*
X248020000Y-225710000D01*
X245780000Y-229350000D02*
X245780000Y-225110000D01*
X245780000Y-225110000D02*
X248020000Y-225110000D01*
X246900000Y-224460000D02*
X246900000Y-225110000D01*
X245780000Y-225830000D02*
X248020000Y-225830000D01*
X246900000Y-230000000D02*
X246900000Y-229350000D01*
X245780000Y-225950000D02*
X248020000Y-225950000D01*
X248020000Y-229350000D02*
X245780000Y-229350000D01*
X196300000Y-300630000D02*
X210500000Y-300630000D01*
X210500000Y-300630000D02*
X210500000Y-314830000D01*
X210500000Y-314830000D02*
X196300000Y-314830000D01*
X196300000Y-314830000D02*
X196300000Y-300630000D01*
X215500000Y-254830000D02*
X201300000Y-254830000D01*
X215500000Y-240630000D02*
X215500000Y-254830000D01*
X201300000Y-240630000D02*
X215500000Y-240630000D01*
X201300000Y-254830000D02*
X201300000Y-240630000D01*
X241780000Y-225950000D02*
X244020000Y-225950000D01*
X242900000Y-224460000D02*
X242900000Y-225110000D01*
X241780000Y-225110000D02*
X244020000Y-225110000D01*
X241780000Y-225710000D02*
X244020000Y-225710000D01*
X242900000Y-230000000D02*
X242900000Y-229350000D01*
X244020000Y-229350000D02*
X241780000Y-229350000D01*
X241780000Y-229350000D02*
X241780000Y-225110000D01*
X244020000Y-225110000D02*
X244020000Y-229350000D01*
X241780000Y-225830000D02*
X244020000Y-225830000D01*
X262900000Y-224460000D02*
X262900000Y-225110000D01*
X264020000Y-229350000D02*
X261780000Y-229350000D01*
X261780000Y-225830000D02*
X264020000Y-225830000D01*
X261780000Y-225950000D02*
X264020000Y-225950000D01*
X261780000Y-225710000D02*
X264020000Y-225710000D01*
X264020000Y-225110000D02*
X264020000Y-229350000D01*
X262900000Y-230000000D02*
X262900000Y-229350000D01*
X261780000Y-229350000D02*
X261780000Y-225110000D01*
X261780000Y-225110000D02*
X264020000Y-225110000D01*
X80500000Y-280630000D02*
X80500000Y-294830000D01*
X80500000Y-294830000D02*
X66300000Y-294830000D01*
X66300000Y-294830000D02*
X66300000Y-280630000D01*
X66300000Y-280630000D02*
X80500000Y-280630000D01*
X124020000Y-225110000D02*
X124020000Y-229350000D01*
X121780000Y-225110000D02*
X124020000Y-225110000D01*
X121780000Y-225830000D02*
X124020000Y-225830000D01*
X122900000Y-224460000D02*
X122900000Y-225110000D01*
X124020000Y-229350000D02*
X121780000Y-229350000D01*
X121780000Y-229350000D02*
X121780000Y-225110000D01*
X121780000Y-225710000D02*
X124020000Y-225710000D01*
X121780000Y-225950000D02*
X124020000Y-225950000D01*
X122900000Y-230000000D02*
X122900000Y-229350000D01*
X110500000Y-300630000D02*
X110500000Y-314830000D01*
X96300000Y-300630000D02*
X110500000Y-300630000D01*
X110500000Y-314830000D02*
X96300000Y-314830000D01*
X96300000Y-314830000D02*
X96300000Y-300630000D01*
X171300000Y-274830000D02*
X171300000Y-260630000D01*
X185500000Y-274830000D02*
X171300000Y-274830000D01*
X185500000Y-260630000D02*
X185500000Y-274830000D01*
X171300000Y-260630000D02*
X185500000Y-260630000D01*
X133780000Y-229350000D02*
X133780000Y-225110000D01*
X134900000Y-224460000D02*
X134900000Y-225110000D01*
X133780000Y-225110000D02*
X136020000Y-225110000D01*
X136020000Y-225110000D02*
X136020000Y-229350000D01*
X136020000Y-229350000D02*
X133780000Y-229350000D01*
X133780000Y-225950000D02*
X136020000Y-225950000D01*
X133780000Y-225710000D02*
X136020000Y-225710000D01*
X133780000Y-225830000D02*
X136020000Y-225830000D01*
X134900000Y-230000000D02*
X134900000Y-229350000D01*
X228800000Y-334830000D02*
X228800000Y-320630000D01*
X228800000Y-320630000D02*
X243000000Y-320630000D01*
X243000000Y-334830000D02*
X228800000Y-334830000D01*
X243000000Y-320630000D02*
X243000000Y-334830000D01*
X180500000Y-294830000D02*
X166300000Y-294830000D01*
X166300000Y-294830000D02*
X166300000Y-280630000D01*
X180500000Y-280630000D02*
X180500000Y-294830000D01*
X166300000Y-280630000D02*
X180500000Y-280630000D01*
X186900000Y-224460000D02*
X186900000Y-225110000D01*
X186900000Y-230000000D02*
X186900000Y-229350000D01*
X185780000Y-229350000D02*
X185780000Y-225110000D01*
X188020000Y-229350000D02*
X185780000Y-229350000D01*
X185780000Y-225110000D02*
X188020000Y-225110000D01*
X185780000Y-225830000D02*
X188020000Y-225830000D01*
X185780000Y-225710000D02*
X188020000Y-225710000D01*
X188020000Y-225110000D02*
X188020000Y-229350000D01*
X185780000Y-225950000D02*
X188020000Y-225950000D01*
X249780000Y-225710000D02*
X252020000Y-225710000D01*
X252020000Y-229350000D02*
X249780000Y-229350000D01*
X249780000Y-225830000D02*
X252020000Y-225830000D01*
X249780000Y-225110000D02*
X252020000Y-225110000D01*
X250900000Y-230000000D02*
X250900000Y-229350000D01*
X249780000Y-229350000D02*
X249780000Y-225110000D01*
X252020000Y-225110000D02*
X252020000Y-229350000D01*
X249780000Y-225950000D02*
X252020000Y-225950000D01*
X250900000Y-224460000D02*
X250900000Y-225110000D01*
X69780000Y-225710000D02*
X72020000Y-225710000D01*
X69780000Y-225830000D02*
X72020000Y-225830000D01*
X69780000Y-225950000D02*
X72020000Y-225950000D01*
X70900000Y-230000000D02*
X70900000Y-229350000D01*
X72020000Y-225110000D02*
X72020000Y-229350000D01*
X72020000Y-229350000D02*
X69780000Y-229350000D01*
X70900000Y-224460000D02*
X70900000Y-225110000D01*
X69780000Y-229350000D02*
X69780000Y-225110000D01*
X69780000Y-225110000D02*
X72020000Y-225110000D01*
X100500000Y-294830000D02*
X86300000Y-294830000D01*
X86300000Y-280630000D02*
X100500000Y-280630000D01*
X86300000Y-294830000D02*
X86300000Y-280630000D01*
X100500000Y-280630000D02*
X100500000Y-294830000D01*
X288000000Y-294830000D02*
X273800000Y-294830000D01*
X273800000Y-294830000D02*
X273800000Y-280630000D01*
X288000000Y-280630000D02*
X288000000Y-294830000D01*
X273800000Y-280630000D02*
X288000000Y-280630000D01*
X46300000Y-280630000D02*
X60500000Y-280630000D01*
X60500000Y-294830000D02*
X46300000Y-294830000D01*
X60500000Y-280630000D02*
X60500000Y-294830000D01*
X46300000Y-294830000D02*
X46300000Y-280630000D01*
X141300000Y-240630000D02*
X155500000Y-240630000D01*
X155500000Y-254830000D02*
X141300000Y-254830000D01*
X155500000Y-240630000D02*
X155500000Y-254830000D01*
X141300000Y-254830000D02*
X141300000Y-240630000D01*
X77780000Y-225110000D02*
X80020000Y-225110000D01*
X78900000Y-230000000D02*
X78900000Y-229350000D01*
X77780000Y-225950000D02*
X80020000Y-225950000D01*
X77780000Y-225710000D02*
X80020000Y-225710000D01*
X80020000Y-229350000D02*
X77780000Y-229350000D01*
X80020000Y-225110000D02*
X80020000Y-229350000D01*
X78900000Y-224460000D02*
X78900000Y-225110000D01*
X77780000Y-229350000D02*
X77780000Y-225110000D01*
X77780000Y-225830000D02*
X80020000Y-225830000D01*
X141780000Y-225950000D02*
X144020000Y-225950000D01*
X141780000Y-225110000D02*
X144020000Y-225110000D01*
X144020000Y-229350000D02*
X141780000Y-229350000D01*
X144020000Y-225110000D02*
X144020000Y-229350000D01*
X142900000Y-224460000D02*
X142900000Y-225110000D01*
X141780000Y-229350000D02*
X141780000Y-225110000D01*
X141780000Y-225830000D02*
X144020000Y-225830000D01*
X142900000Y-230000000D02*
X142900000Y-229350000D01*
X141780000Y-225710000D02*
X144020000Y-225710000D01*
X156300000Y-320630000D02*
X170500000Y-320630000D01*
X170500000Y-334830000D02*
X156300000Y-334830000D01*
X156300000Y-334830000D02*
X156300000Y-320630000D01*
X170500000Y-320630000D02*
X170500000Y-334830000D01*
X175500000Y-254830000D02*
X161300000Y-254830000D01*
X161300000Y-240630000D02*
X175500000Y-240630000D01*
X175500000Y-240630000D02*
X175500000Y-254830000D01*
X161300000Y-254830000D02*
X161300000Y-240630000D01*
X61300000Y-240630000D02*
X75500000Y-240630000D01*
X61300000Y-254830000D02*
X61300000Y-240630000D01*
X75500000Y-254830000D02*
X61300000Y-254830000D01*
X75500000Y-240630000D02*
X75500000Y-254830000D01*
X93780000Y-225830000D02*
X96020000Y-225830000D01*
X94900000Y-230000000D02*
X94900000Y-229350000D01*
X96020000Y-229350000D02*
X93780000Y-229350000D01*
X94900000Y-224460000D02*
X94900000Y-225110000D01*
X93780000Y-225950000D02*
X96020000Y-225950000D01*
X93780000Y-225110000D02*
X96020000Y-225110000D01*
X96020000Y-225110000D02*
X96020000Y-229350000D01*
X93780000Y-229350000D02*
X93780000Y-225110000D01*
X93780000Y-225710000D02*
X96020000Y-225710000D01*
X230900000Y-230000000D02*
X230900000Y-229350000D01*
X229780000Y-229350000D02*
X229780000Y-225110000D01*
X232020000Y-229350000D02*
X229780000Y-229350000D01*
X229780000Y-225110000D02*
X232020000Y-225110000D01*
X229780000Y-225710000D02*
X232020000Y-225710000D01*
X229780000Y-225830000D02*
X232020000Y-225830000D01*
X232020000Y-225110000D02*
X232020000Y-229350000D01*
X229780000Y-225950000D02*
X232020000Y-225950000D01*
X230900000Y-224460000D02*
X230900000Y-225110000D01*
X261300000Y-240630000D02*
X275500000Y-240630000D01*
X275500000Y-254830000D02*
X261300000Y-254830000D01*
X261300000Y-254830000D02*
X261300000Y-240630000D01*
X275500000Y-240630000D02*
X275500000Y-254830000D01*
X226900000Y-224460000D02*
X226900000Y-225110000D01*
X225780000Y-225110000D02*
X228020000Y-225110000D01*
X226900000Y-230000000D02*
X226900000Y-229350000D01*
X225780000Y-225830000D02*
X228020000Y-225830000D01*
X225780000Y-225710000D02*
X228020000Y-225710000D01*
X225780000Y-229350000D02*
X225780000Y-225110000D01*
X228020000Y-225110000D02*
X228020000Y-229350000D01*
X228020000Y-229350000D02*
X225780000Y-229350000D01*
X225780000Y-225950000D02*
X228020000Y-225950000D01*
X217780000Y-225950000D02*
X220020000Y-225950000D01*
X217780000Y-225830000D02*
X220020000Y-225830000D01*
X217780000Y-229350000D02*
X217780000Y-225110000D01*
X217780000Y-225110000D02*
X220020000Y-225110000D01*
X218900000Y-230000000D02*
X218900000Y-229350000D01*
X217780000Y-225710000D02*
X220020000Y-225710000D01*
X220020000Y-225110000D02*
X220020000Y-229350000D01*
X220020000Y-229350000D02*
X217780000Y-229350000D01*
X218900000Y-224460000D02*
X218900000Y-225110000D01*
X105780000Y-225710000D02*
X108020000Y-225710000D01*
X106900000Y-230000000D02*
X106900000Y-229350000D01*
X105780000Y-225830000D02*
X108020000Y-225830000D01*
X105780000Y-225110000D02*
X108020000Y-225110000D01*
X105780000Y-225950000D02*
X108020000Y-225950000D01*
X108020000Y-229350000D02*
X105780000Y-229350000D01*
X105780000Y-229350000D02*
X105780000Y-225110000D01*
X106900000Y-224460000D02*
X106900000Y-225110000D01*
X108020000Y-225110000D02*
X108020000Y-229350000D01*
X140020000Y-229350000D02*
X137780000Y-229350000D01*
X137780000Y-225710000D02*
X140020000Y-225710000D01*
X137780000Y-225950000D02*
X140020000Y-225950000D01*
X137780000Y-229350000D02*
X137780000Y-225110000D01*
X137780000Y-225830000D02*
X140020000Y-225830000D01*
X138900000Y-230000000D02*
X138900000Y-229350000D01*
X140020000Y-225110000D02*
X140020000Y-229350000D01*
X137780000Y-225110000D02*
X140020000Y-225110000D01*
X138900000Y-224460000D02*
X138900000Y-225110000D01*
X51300000Y-260630000D02*
X65500000Y-260630000D01*
X65500000Y-274830000D02*
X51300000Y-274830000D01*
X65500000Y-260630000D02*
X65500000Y-274830000D01*
X51300000Y-274830000D02*
X51300000Y-260630000D01*
X121300000Y-254830000D02*
X121300000Y-240630000D01*
X135500000Y-254830000D02*
X121300000Y-254830000D01*
X135500000Y-240630000D02*
X135500000Y-254830000D01*
X121300000Y-240630000D02*
X135500000Y-240630000D01*
X83800000Y-334830000D02*
X83800000Y-320630000D01*
X98000000Y-320630000D02*
X98000000Y-334830000D01*
X83800000Y-320630000D02*
X98000000Y-320630000D01*
X98000000Y-334830000D02*
X83800000Y-334830000D01*
X54900000Y-224460000D02*
X54900000Y-225110000D01*
X53780000Y-225830000D02*
X56020000Y-225830000D01*
X54900000Y-230000000D02*
X54900000Y-229350000D01*
X53780000Y-225950000D02*
X56020000Y-225950000D01*
X53780000Y-229350000D02*
X53780000Y-225110000D01*
X56020000Y-229350000D02*
X53780000Y-229350000D01*
X53780000Y-225110000D02*
X56020000Y-225110000D01*
X53780000Y-225710000D02*
X56020000Y-225710000D01*
X56020000Y-225110000D02*
X56020000Y-229350000D01*
X176020000Y-229350000D02*
X173780000Y-229350000D01*
X173780000Y-225950000D02*
X176020000Y-225950000D01*
X176020000Y-225110000D02*
X176020000Y-229350000D01*
X173780000Y-229350000D02*
X173780000Y-225110000D01*
X173780000Y-225710000D02*
X176020000Y-225710000D01*
X173780000Y-225830000D02*
X176020000Y-225830000D01*
X174900000Y-224460000D02*
X174900000Y-225110000D01*
X173780000Y-225110000D02*
X176020000Y-225110000D01*
X174900000Y-230000000D02*
X174900000Y-229350000D01*
X277780000Y-225110000D02*
X280020000Y-225110000D01*
X278900000Y-224460000D02*
X278900000Y-225110000D01*
X278900000Y-230000000D02*
X278900000Y-229350000D01*
X277780000Y-229350000D02*
X277780000Y-225110000D01*
X277780000Y-225950000D02*
X280020000Y-225950000D01*
X280020000Y-225110000D02*
X280020000Y-229350000D01*
X277780000Y-225830000D02*
X280020000Y-225830000D01*
X280020000Y-229350000D02*
X277780000Y-229350000D01*
X277780000Y-225710000D02*
X280020000Y-225710000D01*
X71890000Y-334850000D02*
X57690000Y-334850000D01*
X71890000Y-320650000D02*
X71890000Y-334850000D01*
X57690000Y-334850000D02*
X57690000Y-320650000D01*
X57690000Y-320650000D02*
X71890000Y-320650000D01*
X165500000Y-260630000D02*
X165500000Y-274830000D01*
X151300000Y-260630000D02*
X165500000Y-260630000D01*
X165500000Y-274830000D02*
X151300000Y-274830000D01*
X151300000Y-274830000D02*
X151300000Y-260630000D01*
X145500000Y-274830000D02*
X131300000Y-274830000D01*
X145500000Y-260630000D02*
X145500000Y-274830000D01*
X131300000Y-260630000D02*
X145500000Y-260630000D01*
X131300000Y-274830000D02*
X131300000Y-260630000D01*
X193780000Y-225950000D02*
X196020000Y-225950000D01*
X193780000Y-225710000D02*
X196020000Y-225710000D01*
X196020000Y-225110000D02*
X196020000Y-229350000D01*
X193780000Y-229350000D02*
X193780000Y-225110000D01*
X194900000Y-224460000D02*
X194900000Y-225110000D01*
X193780000Y-225830000D02*
X196020000Y-225830000D01*
X196020000Y-229350000D02*
X193780000Y-229350000D01*
X193780000Y-225110000D02*
X196020000Y-225110000D01*
X194900000Y-230000000D02*
X194900000Y-229350000D01*
X212020000Y-229350000D02*
X209780000Y-229350000D01*
X210900000Y-224460000D02*
X210900000Y-225110000D01*
X209780000Y-229350000D02*
X209780000Y-225110000D01*
X209780000Y-225950000D02*
X212020000Y-225950000D01*
X209780000Y-225110000D02*
X212020000Y-225110000D01*
X209780000Y-225710000D02*
X212020000Y-225710000D01*
X210900000Y-230000000D02*
X210900000Y-229350000D01*
X209780000Y-225830000D02*
X212020000Y-225830000D01*
X212020000Y-225110000D02*
X212020000Y-229350000D01*
X221300000Y-254830000D02*
X221300000Y-240630000D01*
X235500000Y-254830000D02*
X221300000Y-254830000D01*
X221300000Y-240630000D02*
X235500000Y-240630000D01*
X235500000Y-240630000D02*
X235500000Y-254830000D01*
X241300000Y-254830000D02*
X241300000Y-240630000D01*
X255500000Y-254830000D02*
X241300000Y-254830000D01*
X241300000Y-240630000D02*
X255500000Y-240630000D01*
X255500000Y-240630000D02*
X255500000Y-254830000D01*
X197780000Y-225830000D02*
X200020000Y-225830000D01*
X197780000Y-225950000D02*
X200020000Y-225950000D01*
X200020000Y-229350000D02*
X197780000Y-229350000D01*
X197780000Y-229350000D02*
X197780000Y-225110000D01*
X197780000Y-225710000D02*
X200020000Y-225710000D01*
X200020000Y-225110000D02*
X200020000Y-229350000D01*
X198900000Y-224460000D02*
X198900000Y-225110000D01*
X198900000Y-230000000D02*
X198900000Y-229350000D01*
X197780000Y-225110000D02*
X200020000Y-225110000D01*
X55500000Y-254830000D02*
X41300000Y-254830000D01*
X55500000Y-240630000D02*
X55500000Y-254830000D01*
X41300000Y-240630000D02*
X55500000Y-240630000D01*
X41300000Y-254830000D02*
X41300000Y-240630000D01*
X265780000Y-225950000D02*
X268020000Y-225950000D01*
X268020000Y-225110000D02*
X268020000Y-229350000D01*
X265780000Y-225710000D02*
X268020000Y-225710000D01*
X268020000Y-229350000D02*
X265780000Y-229350000D01*
X265780000Y-225110000D02*
X268020000Y-225110000D01*
X265780000Y-229350000D02*
X265780000Y-225110000D01*
X266900000Y-224460000D02*
X266900000Y-225110000D01*
X265780000Y-225830000D02*
X268020000Y-225830000D01*
X266900000Y-230000000D02*
X266900000Y-229350000D01*
X237780000Y-225110000D02*
X240020000Y-225110000D01*
X240020000Y-229350000D02*
X237780000Y-229350000D01*
X240020000Y-225110000D02*
X240020000Y-229350000D01*
X237780000Y-225710000D02*
X240020000Y-225710000D01*
X238900000Y-224460000D02*
X238900000Y-225110000D01*
X238900000Y-230000000D02*
X238900000Y-229350000D01*
X237780000Y-225950000D02*
X240020000Y-225950000D01*
X237780000Y-225830000D02*
X240020000Y-225830000D01*
X237780000Y-229350000D02*
X237780000Y-225110000D01*
X74900000Y-230000000D02*
X74900000Y-229350000D01*
X74900000Y-224460000D02*
X74900000Y-225110000D01*
X73780000Y-225710000D02*
X76020000Y-225710000D01*
X76020000Y-229350000D02*
X73780000Y-229350000D01*
X73780000Y-225830000D02*
X76020000Y-225830000D01*
X73780000Y-225110000D02*
X76020000Y-225110000D01*
X76020000Y-225110000D02*
X76020000Y-229350000D01*
X73780000Y-229350000D02*
X73780000Y-225110000D01*
X73780000Y-225950000D02*
X76020000Y-225950000D01*
X120500000Y-280630000D02*
X120500000Y-294830000D01*
X106300000Y-280630000D02*
X120500000Y-280630000D01*
X106300000Y-294830000D02*
X106300000Y-280630000D01*
X120500000Y-294830000D02*
X106300000Y-294830000D01*
X274900000Y-224460000D02*
X274900000Y-225110000D01*
X273780000Y-225830000D02*
X276020000Y-225830000D01*
X273780000Y-225110000D02*
X276020000Y-225110000D01*
X273780000Y-225950000D02*
X276020000Y-225950000D01*
X276020000Y-225110000D02*
X276020000Y-229350000D01*
X273780000Y-225710000D02*
X276020000Y-225710000D01*
X274900000Y-230000000D02*
X274900000Y-229350000D01*
X276020000Y-229350000D02*
X273780000Y-229350000D01*
X273780000Y-229350000D02*
X273780000Y-225110000D01*
X98900000Y-230000000D02*
X98900000Y-229350000D01*
X97780000Y-225710000D02*
X100020000Y-225710000D01*
X97780000Y-225110000D02*
X100020000Y-225110000D01*
X100020000Y-225110000D02*
X100020000Y-229350000D01*
X100020000Y-229350000D02*
X97780000Y-229350000D01*
X97780000Y-225950000D02*
X100020000Y-225950000D01*
X97780000Y-225830000D02*
X100020000Y-225830000D01*
X97780000Y-229350000D02*
X97780000Y-225110000D01*
X98900000Y-224460000D02*
X98900000Y-225110000D01*
X57780000Y-225710000D02*
X60020000Y-225710000D01*
X57780000Y-225950000D02*
X60020000Y-225950000D01*
X60020000Y-229350000D02*
X57780000Y-229350000D01*
X57780000Y-225830000D02*
X60020000Y-225830000D01*
X57780000Y-229350000D02*
X57780000Y-225110000D01*
X57780000Y-225110000D02*
X60020000Y-225110000D01*
X58900000Y-230000000D02*
X58900000Y-229350000D01*
X60020000Y-225110000D02*
X60020000Y-229350000D01*
X58900000Y-224460000D02*
X58900000Y-225110000D01*
X285780000Y-229350000D02*
X285780000Y-225110000D01*
X288020000Y-229350000D02*
X285780000Y-229350000D01*
X288020000Y-225110000D02*
X288020000Y-229350000D01*
X285780000Y-225950000D02*
X288020000Y-225950000D01*
X286900000Y-224460000D02*
X286900000Y-225110000D01*
X285780000Y-225110000D02*
X288020000Y-225110000D01*
X285780000Y-225710000D02*
X288020000Y-225710000D01*
X286900000Y-230000000D02*
X286900000Y-229350000D01*
X285780000Y-225830000D02*
X288020000Y-225830000D01*
%LPC*%
D12*
X23200000Y-302630000D03*
D13*
X20660000Y-307710000D03*
D12*
X29550000Y-305170000D03*
D14*
X25740000Y-307710000D03*
D13*
X30820000Y-307710000D03*
X103480000Y-267730000D03*
D12*
X102210000Y-265190000D03*
D14*
X98400000Y-267730000D03*
D12*
X95860000Y-262650000D03*
D13*
X93320000Y-267730000D03*
D15*
X118900000Y-223420000D03*
D16*
X118900000Y-231040000D03*
D14*
X238400000Y-267730000D03*
D12*
X242210000Y-265190000D03*
D13*
X233320000Y-267730000D03*
D12*
X235860000Y-262650000D03*
D13*
X243480000Y-267730000D03*
D12*
X82210000Y-265190000D03*
D13*
X83480000Y-267730000D03*
X73320000Y-267730000D03*
D14*
X78400000Y-267730000D03*
D12*
X75860000Y-262650000D03*
D15*
X114900000Y-223420000D03*
D16*
X114900000Y-231040000D03*
D15*
X50900000Y-223420000D03*
D16*
X50900000Y-231040000D03*
D15*
X146900000Y-223420000D03*
D16*
X146900000Y-231040000D03*
D15*
X178900000Y-223420000D03*
D16*
X178900000Y-231040000D03*
D12*
X240860000Y-302650000D03*
D14*
X243400000Y-307730000D03*
D13*
X248480000Y-307730000D03*
X238320000Y-307730000D03*
D12*
X247210000Y-305190000D03*
D15*
X130900000Y-223420000D03*
D16*
X130900000Y-231040000D03*
D14*
X118400000Y-267730000D03*
D12*
X122210000Y-265190000D03*
D13*
X123480000Y-267730000D03*
D12*
X115860000Y-262650000D03*
D13*
X113320000Y-267730000D03*
D12*
X185860000Y-242650000D03*
D13*
X193480000Y-247730000D03*
D14*
X188400000Y-247730000D03*
D13*
X183320000Y-247730000D03*
D12*
X192210000Y-245190000D03*
X15300000Y-325160000D03*
D14*
X11490000Y-327700000D03*
D13*
X16570000Y-327700000D03*
D12*
X8950000Y-322620000D03*
D13*
X6410000Y-327700000D03*
D12*
X35860000Y-262650000D03*
D14*
X38400000Y-267730000D03*
D13*
X33320000Y-267730000D03*
X43480000Y-267730000D03*
D12*
X42210000Y-265190000D03*
X67210000Y-305190000D03*
D14*
X63400000Y-307730000D03*
D13*
X58320000Y-307730000D03*
D12*
X60860000Y-302650000D03*
D13*
X68480000Y-307730000D03*
D14*
X83400000Y-307730000D03*
D12*
X80860000Y-302650000D03*
D13*
X88480000Y-307730000D03*
X78320000Y-307730000D03*
D12*
X87210000Y-305190000D03*
D15*
X206900000Y-223420000D03*
D16*
X206900000Y-231040000D03*
D12*
X120860000Y-302650000D03*
X127210000Y-305190000D03*
D14*
X123400000Y-307730000D03*
D13*
X118320000Y-307730000D03*
X128480000Y-307730000D03*
D12*
X262210000Y-265190000D03*
D13*
X263480000Y-267730000D03*
X253320000Y-267730000D03*
D12*
X255860000Y-262650000D03*
D14*
X258400000Y-267730000D03*
D15*
X66900000Y-223420000D03*
D16*
X66900000Y-231040000D03*
D13*
X280980000Y-307730000D03*
D12*
X273360000Y-302650000D03*
X279710000Y-305190000D03*
D13*
X270820000Y-307730000D03*
D14*
X275900000Y-307730000D03*
D15*
X254900000Y-223420000D03*
D16*
X254900000Y-231040000D03*
D13*
X23880000Y-247710000D03*
D12*
X22610000Y-245170000D03*
X16260000Y-242630000D03*
D13*
X13720000Y-247710000D03*
D14*
X18800000Y-247710000D03*
D15*
X234900000Y-223420000D03*
D16*
X234900000Y-231040000D03*
D15*
X170900000Y-223420000D03*
D16*
X170900000Y-231040000D03*
D13*
X113480000Y-247730000D03*
D12*
X112210000Y-245190000D03*
D13*
X103320000Y-247730000D03*
D14*
X108400000Y-247730000D03*
D12*
X105860000Y-242650000D03*
D15*
X150900000Y-223420000D03*
D16*
X150900000Y-231040000D03*
D13*
X83320000Y-247730000D03*
D14*
X88400000Y-247730000D03*
D12*
X85860000Y-242650000D03*
X92210000Y-245190000D03*
D13*
X93480000Y-247730000D03*
D15*
X166900000Y-223420000D03*
D16*
X166900000Y-231040000D03*
D13*
X282820000Y-247730000D03*
D12*
X291710000Y-245190000D03*
X285360000Y-242650000D03*
D14*
X287900000Y-247730000D03*
D13*
X292980000Y-247730000D03*
X228320000Y-287730000D03*
D14*
X233400000Y-287730000D03*
D12*
X237210000Y-285190000D03*
D13*
X238480000Y-287730000D03*
D12*
X230860000Y-282650000D03*
D15*
X86900000Y-223420000D03*
D16*
X86900000Y-231040000D03*
D12*
X42160000Y-325250000D03*
D14*
X38350000Y-327790000D03*
D13*
X33270000Y-327790000D03*
D12*
X35810000Y-322710000D03*
D13*
X43430000Y-327790000D03*
D15*
X90900000Y-223420000D03*
D16*
X90900000Y-231040000D03*
D15*
X154900000Y-223420000D03*
D16*
X154900000Y-231040000D03*
D15*
X282900000Y-223420000D03*
D16*
X282900000Y-231040000D03*
D12*
X287210000Y-265190000D03*
D13*
X278320000Y-267730000D03*
D12*
X280860000Y-262650000D03*
D14*
X283400000Y-267730000D03*
D13*
X288480000Y-267730000D03*
D15*
X222900000Y-223420000D03*
D16*
X222900000Y-231040000D03*
D15*
X158900000Y-223420000D03*
D16*
X158900000Y-231040000D03*
D12*
X217210000Y-285190000D03*
X210860000Y-282650000D03*
D14*
X213400000Y-287730000D03*
D13*
X208320000Y-287730000D03*
X218480000Y-287730000D03*
D15*
X290900000Y-223420000D03*
D16*
X290900000Y-231040000D03*
D12*
X222210000Y-265190000D03*
D13*
X223480000Y-267730000D03*
D14*
X218400000Y-267730000D03*
D12*
X215860000Y-262650000D03*
D13*
X213320000Y-267730000D03*
D15*
X214900000Y-223420000D03*
D16*
X214900000Y-231040000D03*
D15*
X190900000Y-223420000D03*
D16*
X190900000Y-231040000D03*
D15*
X258900000Y-223420000D03*
D16*
X258900000Y-231040000D03*
D12*
X190860000Y-282650000D03*
D13*
X198480000Y-287730000D03*
X188320000Y-287730000D03*
D14*
X193400000Y-287730000D03*
D12*
X197210000Y-285190000D03*
D14*
X253400000Y-287730000D03*
D12*
X257210000Y-285190000D03*
X250860000Y-282650000D03*
D13*
X258480000Y-287730000D03*
X248320000Y-287730000D03*
D15*
X270900000Y-223420000D03*
D16*
X270900000Y-231040000D03*
D13*
X188480000Y-307730000D03*
D12*
X187210000Y-305190000D03*
X180860000Y-302650000D03*
D13*
X178320000Y-307730000D03*
D14*
X183400000Y-307730000D03*
D12*
X11250000Y-262630000D03*
D13*
X8710000Y-267710000D03*
D12*
X17600000Y-265170000D03*
D14*
X13790000Y-267710000D03*
D13*
X18870000Y-267710000D03*
D14*
X20900000Y-287730000D03*
D13*
X25980000Y-287730000D03*
D12*
X18360000Y-282650000D03*
X24710000Y-285190000D03*
D13*
X15820000Y-287730000D03*
D15*
X102900000Y-223420000D03*
D16*
X102900000Y-231040000D03*
D15*
X62900000Y-223420000D03*
D16*
X62900000Y-231040000D03*
D12*
X150860000Y-282650000D03*
D13*
X158480000Y-287730000D03*
D12*
X157210000Y-285190000D03*
D14*
X153400000Y-287730000D03*
D13*
X148320000Y-287730000D03*
D15*
X202900000Y-223420000D03*
D16*
X202900000Y-231040000D03*
D15*
X162900000Y-223420000D03*
D16*
X162900000Y-231040000D03*
D14*
X133400000Y-287730000D03*
D12*
X130860000Y-282650000D03*
D13*
X128320000Y-287730000D03*
X138480000Y-287730000D03*
D12*
X137210000Y-285190000D03*
D14*
X198400000Y-267730000D03*
D12*
X202210000Y-265190000D03*
D13*
X193320000Y-267730000D03*
D12*
X195860000Y-262650000D03*
D13*
X203480000Y-267730000D03*
D12*
X258360000Y-322650000D03*
D13*
X265980000Y-327730000D03*
X255820000Y-327730000D03*
D14*
X260900000Y-327730000D03*
D12*
X264710000Y-325190000D03*
X160860000Y-302650000D03*
D14*
X163400000Y-307730000D03*
D13*
X158320000Y-307730000D03*
X168480000Y-307730000D03*
D12*
X167210000Y-305190000D03*
D15*
X110900000Y-223420000D03*
D16*
X110900000Y-231040000D03*
D14*
X223400000Y-307730000D03*
D13*
X228480000Y-307730000D03*
X218320000Y-307730000D03*
D12*
X227210000Y-305190000D03*
X220860000Y-302650000D03*
D13*
X290480000Y-327730000D03*
D12*
X289210000Y-325190000D03*
D13*
X280320000Y-327730000D03*
D12*
X282860000Y-322650000D03*
D14*
X285400000Y-327730000D03*
D15*
X42050000Y-235210000D03*
D16*
X39510000Y-235210000D03*
X36970000Y-235210000D03*
X34430000Y-235210000D03*
X31890000Y-235210000D03*
X29350000Y-235210000D03*
X26810000Y-235210000D03*
X24270000Y-235210000D03*
X21730000Y-235210000D03*
X19190000Y-235210000D03*
X16650000Y-235210000D03*
X14110000Y-235210000D03*
X11570000Y-235210000D03*
X9030000Y-235210000D03*
X6490000Y-235210000D03*
X6490000Y-219970000D03*
X9030000Y-219970000D03*
X11570000Y-219970000D03*
X14110000Y-219970000D03*
X16650000Y-219970000D03*
X19190000Y-219970000D03*
X21730000Y-219970000D03*
X24270000Y-219970000D03*
X26810000Y-219970000D03*
X29350000Y-219970000D03*
X31890000Y-219970000D03*
X34430000Y-219970000D03*
X36970000Y-219970000D03*
X39510000Y-219970000D03*
X42050000Y-219970000D03*
D15*
X82900000Y-223420000D03*
D16*
X82900000Y-231040000D03*
D15*
X182900000Y-223420000D03*
D16*
X182900000Y-231040000D03*
D15*
X126900000Y-223420000D03*
D16*
X126900000Y-231040000D03*
D13*
X148480000Y-307730000D03*
D14*
X143400000Y-307730000D03*
D13*
X138320000Y-307730000D03*
D12*
X140860000Y-302650000D03*
X147210000Y-305190000D03*
D15*
X246900000Y-223420000D03*
D16*
X246900000Y-231040000D03*
D12*
X200860000Y-302650000D03*
D14*
X203400000Y-307730000D03*
D13*
X198320000Y-307730000D03*
D12*
X207210000Y-305190000D03*
D13*
X208480000Y-307730000D03*
X203320000Y-247730000D03*
D14*
X208400000Y-247730000D03*
D12*
X205860000Y-242650000D03*
X212210000Y-245190000D03*
D13*
X213480000Y-247730000D03*
D15*
X242900000Y-223420000D03*
D16*
X242900000Y-231040000D03*
D15*
X262900000Y-223420000D03*
D16*
X262900000Y-231040000D03*
D14*
X73400000Y-287730000D03*
D12*
X77210000Y-285190000D03*
X70860000Y-282650000D03*
D13*
X78480000Y-287730000D03*
X68320000Y-287730000D03*
D15*
X122900000Y-223420000D03*
D16*
X122900000Y-231040000D03*
D13*
X98320000Y-307730000D03*
X108480000Y-307730000D03*
D12*
X100860000Y-302650000D03*
D14*
X103400000Y-307730000D03*
D12*
X107210000Y-305190000D03*
D13*
X173320000Y-267730000D03*
X183480000Y-267730000D03*
D12*
X182210000Y-265190000D03*
X175860000Y-262650000D03*
D14*
X178400000Y-267730000D03*
D15*
X134900000Y-223420000D03*
D16*
X134900000Y-231040000D03*
D13*
X230820000Y-327730000D03*
D12*
X233360000Y-322650000D03*
D14*
X235900000Y-327730000D03*
D12*
X239710000Y-325190000D03*
D13*
X240980000Y-327730000D03*
D14*
X173400000Y-287730000D03*
D12*
X170860000Y-282650000D03*
D13*
X168320000Y-287730000D03*
D12*
X177210000Y-285190000D03*
D13*
X178480000Y-287730000D03*
D15*
X186900000Y-223420000D03*
D16*
X186900000Y-231040000D03*
D15*
X250900000Y-223420000D03*
D16*
X250900000Y-231040000D03*
D15*
X70900000Y-223420000D03*
D16*
X70900000Y-231040000D03*
D13*
X98480000Y-287730000D03*
D12*
X90860000Y-282650000D03*
D13*
X88320000Y-287730000D03*
D12*
X97210000Y-285190000D03*
D14*
X93400000Y-287730000D03*
D13*
X275820000Y-287730000D03*
X285980000Y-287730000D03*
D12*
X278360000Y-282650000D03*
D14*
X280900000Y-287730000D03*
D12*
X284710000Y-285190000D03*
X57210000Y-285190000D03*
X50860000Y-282650000D03*
D13*
X58480000Y-287730000D03*
X48320000Y-287730000D03*
D14*
X53400000Y-287730000D03*
D13*
X143320000Y-247730000D03*
D12*
X152210000Y-245190000D03*
X145860000Y-242650000D03*
D14*
X148400000Y-247730000D03*
D13*
X153480000Y-247730000D03*
D15*
X78900000Y-223420000D03*
D16*
X78900000Y-231040000D03*
D15*
X142900000Y-223420000D03*
D16*
X142900000Y-231040000D03*
D12*
X167210000Y-325190000D03*
D13*
X158320000Y-327730000D03*
D12*
X160860000Y-322650000D03*
D13*
X168480000Y-327730000D03*
D14*
X163400000Y-327730000D03*
D13*
X163320000Y-247730000D03*
D12*
X165860000Y-242650000D03*
X172210000Y-245190000D03*
D14*
X168400000Y-247730000D03*
D13*
X173480000Y-247730000D03*
X73480000Y-247730000D03*
X63320000Y-247730000D03*
D14*
X68400000Y-247730000D03*
D12*
X72210000Y-245190000D03*
X65860000Y-242650000D03*
D15*
X94900000Y-223420000D03*
D16*
X94900000Y-231040000D03*
D15*
X230900000Y-223420000D03*
D16*
X230900000Y-231040000D03*
D13*
X263320000Y-247730000D03*
X273480000Y-247730000D03*
D12*
X265860000Y-242650000D03*
X272210000Y-245190000D03*
D14*
X268400000Y-247730000D03*
D15*
X226900000Y-223420000D03*
D16*
X226900000Y-231040000D03*
D15*
X218900000Y-223420000D03*
D16*
X218900000Y-231040000D03*
D15*
X106900000Y-223420000D03*
D16*
X106900000Y-231040000D03*
D15*
X138900000Y-223420000D03*
D16*
X138900000Y-231040000D03*
D12*
X55860000Y-262650000D03*
X62210000Y-265190000D03*
D13*
X63480000Y-267730000D03*
D14*
X58400000Y-267730000D03*
D13*
X53320000Y-267730000D03*
D12*
X125860000Y-242650000D03*
D14*
X128400000Y-247730000D03*
D13*
X133480000Y-247730000D03*
X123320000Y-247730000D03*
D12*
X132210000Y-245190000D03*
D13*
X85820000Y-327730000D03*
D12*
X94710000Y-325190000D03*
X88360000Y-322650000D03*
D14*
X90900000Y-327730000D03*
D13*
X95980000Y-327730000D03*
D15*
X54900000Y-223420000D03*
D16*
X54900000Y-231040000D03*
D15*
X174900000Y-223420000D03*
D16*
X174900000Y-231040000D03*
D15*
X278900000Y-223420000D03*
D16*
X278900000Y-231040000D03*
D12*
X62250000Y-322670000D03*
X68600000Y-325210000D03*
D14*
X64790000Y-327750000D03*
D13*
X69870000Y-327750000D03*
X59710000Y-327750000D03*
D14*
X158400000Y-267730000D03*
D12*
X162210000Y-265190000D03*
D13*
X153320000Y-267730000D03*
X163480000Y-267730000D03*
D12*
X155860000Y-262650000D03*
D14*
X138400000Y-267730000D03*
D13*
X133320000Y-267730000D03*
X143480000Y-267730000D03*
D12*
X135860000Y-262650000D03*
X142210000Y-265190000D03*
D15*
X194900000Y-223420000D03*
D16*
X194900000Y-231040000D03*
D15*
X210900000Y-223420000D03*
D16*
X210900000Y-231040000D03*
D13*
X233480000Y-247730000D03*
D12*
X225860000Y-242650000D03*
D14*
X228400000Y-247730000D03*
D13*
X223320000Y-247730000D03*
D12*
X232210000Y-245190000D03*
D13*
X243320000Y-247730000D03*
D12*
X245860000Y-242650000D03*
D13*
X253480000Y-247730000D03*
D14*
X248400000Y-247730000D03*
D12*
X252210000Y-245190000D03*
D15*
X198900000Y-223420000D03*
D16*
X198900000Y-231040000D03*
D13*
X43320000Y-247730000D03*
D12*
X45860000Y-242650000D03*
D13*
X53480000Y-247730000D03*
D14*
X48400000Y-247730000D03*
D12*
X52210000Y-245190000D03*
D15*
X266900000Y-223420000D03*
D16*
X266900000Y-231040000D03*
D15*
X238900000Y-223420000D03*
D16*
X238900000Y-231040000D03*
D15*
X74900000Y-223420000D03*
D16*
X74900000Y-231040000D03*
D13*
X118480000Y-287730000D03*
D14*
X113400000Y-287730000D03*
D12*
X110860000Y-282650000D03*
D13*
X108320000Y-287730000D03*
D12*
X117210000Y-285190000D03*
D15*
X274900000Y-223420000D03*
D16*
X274900000Y-231040000D03*
D15*
X98900000Y-223420000D03*
D16*
X98900000Y-231040000D03*
D15*
X58900000Y-223420000D03*
D16*
X58900000Y-231040000D03*
D15*
X286900000Y-223420000D03*
D16*
X286900000Y-231040000D03*
M02*
